<?xml version="1.0" encoding="utf-8"?>
<!-- Generator: Adobe Illustrator 22.0.1, SVG Export Plug-In . SVG Version: 6.00 Build 0)  -->
<svg version="1.1" xmlns="http://www.w3.org/2000/svg" xmlns:xlink="http://www.w3.org/1999/xlink" x="0px" y="0px"
	 viewBox="0 0 651 289" style="enable-background:new 0 0 651 289;" xml:space="preserve">
<style type="text/css">
	.st0{fill:#302D64;}
</style>
<g id="Слой_2">
	<path id="XMLID_1_" class="st0" d="M354.2,250.1c-2.9-0.5-12.8-2.7-18.7-5.7c-1.6-0.9-4.4-2.9-6.3-3.2c-0.3-0.1-0.5-0.1-0.8-0.1
		c0.7-2,1.1-4.1,1-6.3c-0.1-1.8-0.6-3.6-1.9-4.8s-3.3-1.4-4.5-0.1c0.9-4.4-1.8-9.3-6-10.9c-4.2-1.6-9.3,0.8-11.6,4.7
		c0.8-2.1,1.4-4.4,0.8-6.6c-0.6-2.2-2.8-4-5-3.5c-0.6-1.2-1.4-2.6-2.6-3.2c-1.3-0.6-3.5-0.2-3.5,1.2c-0.1-1.4-1.1-2.7-2.5-3.1
		c-1.4-0.3-2.5,0.6-3.3,1.8c-0.9-2.7-2.2-5.3-4.2-7.3c-2-2-4.9-3.3-7.7-3c-2.8,0.3-5.5,2.4-6.1,5.2c-0.8-0.4-1.9-0.4-2.7,0.1
		c-0.8,0.5-0.6,1.4-0.6,2.3c-4.6-0.8-9.5,1-12.5,4.5c-3,3.5-3.8,8.7-2.3,13.1c-1.5-1.1-3.7-1.4-5.4-0.7c-1.8,0.7-3.2,2.3-3.6,4.1
		c-0.3-1.1-1.4-1.9-2.6-1.8c-1.1,0.1-1.8,0.4-1.9,1.5c-4.3-6.5-13.2-9.5-20.5-6.9c-7.3,2.5-12.1,10.4-11.5,18.2
		c-2.7-1.7-6-2.2-9.1-1.5c-3.1,0.7-5.8,2.7-7.5,5.4c-0.9,1.5-1.4,3.4-0.6,4.8c-1.9-1.3-4.8-0.9-6.4,0.7c-3.9-1.6-4.6-0.6-8.4,1.1
		c-5.8,2.6-11.4,2.6-15.6,2.6h12.5c13.7,0,19.9,3.6,28.4,1.4c11.8,3.3,24.1,3,35.9-0.3c3.9,2,8.5,1.9,12.5,0.1
		c9.6,2.4,19.6,2.1,29.1-0.6c2.1,1.1,4.7,0.8,6.8-0.2c6.8,2.4,14.2,2.4,21.2,0.7c3.9,1.9,8.4,1.7,12.2-0.2
		c6.5,1.9,13.4,1.8,19.9,0.1c2.9,0.9,6.4,0.8,9.3-0.1c1.4-0.4,3-0.7,4.7-0.8h37.6C378.3,252.3,366.2,251.5,354.2,250.1z"/>
	<path id="XMLID_3643_" class="st0" d="M234.8,165.7c-2.9-1-5.4-2-7.7,0c0.5-3.3,0.9-6.7,0-9.9c-0.9-3.2-3.6-6.1-6.9-6.4
		c-2.4-0.2-5,1.5-5.9,3.6c-0.3-1.3-1.1-2.4-2.3-3c-1.9-1-4.6-0.4-5.8,1.4c0.7-1.9-0.3-4.3-2.2-5c-1.9-0.7-2.8-0.8-3.6,1
		c-5.9-9.3-18.7-13.4-28.9-9.2c-10.2,4.1-16.4,16.2-14.1,26.9c-0.6-2.6-3.5-4.4-6.1-3.9c-2.6,0.6-4.8,3.6-4.2,6.2
		c-0.8-2.1-3.6-2.7-5.8-2c-2.1,0.6-3.9,2.1-5.8,3.2c-0.9,0.5-1.7,0.9-2.5,1.1c8.9,0,13.6,1.6,19.6,1.1c1.6,1,3.5,1.3,5.3,0.9
		c1.1-0.2,2.1-0.8,3.2-0.6c1,0.1,1.9,0.7,2.8,1.2c3.6,1.8,8.2,1.5,11.5-0.9c7.1,3,15.4,2.8,22.4-0.4c1.8,1.8,5.2,1.5,7.2-0.1
		c8.3,2.9,17.4,2.8,25.5-0.6c3.9,1.6,7.2-0.5,17-0.5C243.3,168.5,239,167.1,234.8,165.7z"/>
</g>
<g id="Слой_1">
	<path id="XMLID_3725_" class="st0" d="M410,257.5c-0.8-1.1-1.1-2.9-0.8-4.2c0.5-2,2.3-3.6,4.4-3.9c2.1-0.3,3.9,0.3,5.4,1.7
		c-1.4-1.9-1.5-4.7-0.1-6.7c1.4-2,4.1-2.6,6.3-1.9c-0.5-1.4-0.2-3.1,0.8-4.3c0.9-1.2,2.4-1.5,4-1.4c-2-1.9-3.9-3.8-5.2-6.2
		c-1.3-2.4-1.7-5.4-0.5-7.8c1.2-2.4,4.7-3.4,7.1-2.1c-0.6-1-0.3-2.4,0.6-3.2c0.9-0.8,2.2-1.3,3.1-0.6c-1.4-3.5-1.4-7.6,0.4-10.9
		c1.8-3.3,5.5-5.5,9.3-5.2c3.7,0.3,6.9,3.2,7.3,7c0.4-0.6,1.1-0.8,1.8-0.6c0.6,0.2,1.2,0.3,1.1,1c0.9-2,3.1-3.1,5.3-3
		c2.2,0.2,4.1,1.5,5.4,3.3c1.2,1.8,1.5,4.1,1.6,6.3c0.8-0.5,1.9-0.4,2.5,0.2c0.7,0.6,1,1.2,0.6,2c0.6-0.7,1.8-1,2.7-0.7
		c0.9,0.4,0.9,0.8,0.8,1.8c3.8,0.5,7.3,2.8,9.4,6.1c2.1,3.2,2.9,7.4,1.7,11.1c0.5-0.2,1.2,0.1,1.5,0.5c0.3,0.5-0.1,1.6-0.5,1.9
		c0.9-0.6,2.1-0.6,3,0c0.8,0.7,1.5,2.2,1.2,3.2c0.4-1.4,2.4-1.6,3.7-0.9c-0.6-0.8-0.6-2,0.1-2.7c0.6-0.8,1.8-1.5,2.6-1.1
		c-0.7-4.8,1-9.8,4.5-13.2c3.5-3.3,8.7-4.8,13.4-3.8c1.5,0.3,2.9,0.9,4.1,1.8c1.1,1,2.6,2.3,2.5,3.8c1.1-0.5,2.5-0.3,3.4,0.5
		c0.9,0.8,0.8,2.3,0.4,3.5c0.9-1,2.8-0.1,3,1.3c0.4-1.8,2.1-3.3,4-3.3c1.9-0.1,4.1,1.2,4.6,3c-0.4-0.9-0.1-1.9,0.6-2.5
		c0.7-0.6,2-0.7,2.7-0.2c-0.4-0.9-0.1-2.1,0.8-2.6c0.9-0.5,2.2-0.5,2.8,0.3c0.5-6.6,6.4-12.2,13-13c6.6-0.9,13.3,2.5,17.2,7.9
		c3.8,5.3,5.4,11.8,4.3,18.2c0.2-0.8,0.8-1.5,1.6-1.8c0.9-0.4,1.9-0.8,2.7-0.1c1.1-1.9,3.7-2.7,5.8-2c2.1,0.7,3.6,2.6,4.2,4.7
		c0.5,2.1,0.1,4.6-0.7,6.6c1.1-1,3.2-1.2,4.1-0.1c2.3-2.2,6.1-2.5,8.8-0.8c2.6,1.7,3.9,5.2,2.9,8.2c1.1-1.3,3.6-0.5,3.9,1.2
		c0.9-1.7,3.4-1.7,5.1-0.7c1.6,1,2.8,2.6,4.1,3.9c1.4,1.3,3.3,1.6,5.2,1.6h-11.2c-3.1,1.5-6.6,1.7-10,0.9c-0.5,1.3-1.9,2.2-3.3,2.4
		c-1.4,0.2-2.9-0.1-4.3-0.4c-2.3-0.5-4.3-1.4-6.6-1.9c-2.5,2.4-7.2,2.8-9.4,0.1c-0.3,1.5-2.1,2.1-3.5,2c-1.5-0.1-3-0.5-4.4,0
		c-0.9,0.4-1.6,1.1-2.5,1.6c-1.5,0.9-3.7,1-5.2,0.2c-6.5,2.2-13.8,1.9-20-1.1c-5.9,2.5-12.4,3.5-18.8,2.8c-2.5-0.3-5.5-1.1-6.4-3.5
		c-1.3,1.6-4.7,1.2-5.8-0.5c-7.5,2.4-15.4,3.6-23.2,3.6c-3.8,0-8.3-0.6-10.6-3.6c-2.2,2.9-7.2,3.1-9.7,0.4c-1,0.8-2.9,0.3-3.4-0.8
		c-1.2,2.1-3.5,3.6-5.9,4c-2.4,0.3-4.7-0.1-6.4-1.9c-1.1,1.5-3,2.5-4.8,2.5c-1.9,0.1-3.8-0.7-5-2.1c-1.3,1.4-4.1,0.9-4.7-0.9
		c-4.8,4-12.4,3-17.1-1.1c0,0.3-0.1,0.5-0.1,0.8c-1.3,0.7-2.9-0.1-3.2-1.6c-2.4,1.8-6,1.7-8.4-0.1c-0.6-0.4-1.1-1.1-1.1-1.8
		C409.6,258.1,409.8,257.8,410,257.5z"/>
	<path id="XMLID_3524_" class="st0" d="M476.2,185.3c-0.4-1.2-0.6-2.4-0.3-3.5c0.6-2.7,3.7-4.7,6.4-5.1c-0.9-1.2-0.6-3.1,0.5-4
		c1.2-0.9,2.8-1.6,3.8-0.4c-0.7-2.1-1.5-4.5-0.6-6.5c0.9-2.1,3.5-4,4.6-2c-1.6-4.7-2.3-9.8-1.1-14.6c1.1-4.8,4.1-9.3,8.5-11.6
		c4.4-2.3,10.1-2,13.9,1.1c3.8,3.1,4,9,1.3,13.1c2.2-0.6,4.8,0.6,5.8,2.7c1,2.1,0.3,4.8-1.6,6.2c1.1-0.2,2.2,0.5,2.6,1.5
		c0.3,0.8,0,2.1-0.5,3c3.3-3.5,8.9-4.8,13.4-3c4.8,1.9,7.2,5.9,6.7,11.1c3.2-3.2,8.7-3.9,12.6-1.6c3.9,2.3,5.5,7.9,4.2,12.3
		c1-1.4,3.5-0.8,4.4,0.6c0.2-0.7,0.9-1.2,1.7-1.1c0.7,0.1,0.7,0.8,0.7,1.6c0.8-1.7,2.7-2.8,4.5-2.7c1.9,0.1,4.1,1.2,4.7,3
		c10.1-2.7,21.3,4,31.8,4H595c-3.2,1.4-6.5,2.7-10,3c-3.8,0.3-7.6-0.8-11.2-2.1c-0.6,0.9-1.9,1.2-2.9,1.1c-1-0.1-1.9-0.9-2.3-1.9
		c-1.9,1.8-4.9,2.4-7.3,1.3c-6.6,2.4-14.1,2.1-20.5-0.7c-4.9,2.5-11.2,2.6-16.3,0.4c-2.1,2.2-5.9,1.7-8.1-0.5
		c-4.4,0.7-8.9,1.7-13.3,1.1c-2.9,1.3-7,0.5-9.7-1.2c-2.7,2-6.6,2.2-9.7,0.8c-1.4,0.6-3.2,0.9-4.7,0.5c-1.5-0.4-2.8-1.5-3.1-3.1
		C475.6,186.9,475.8,186.1,476.2,185.3z"/>
	<path id="XMLID_7_" class="st0" d="M398.1,195.1c-1.9-0.8-5.1-0.3-5.6,1.7c0.3-1.1,0-2.3-0.8-3c-0.8-0.8-2-1-3.1-0.7
		c0.2-1.4-1-2.4-2.3-2.5c0.5-0.8,1-1.7,1.2-2.7c0.2-1-0.1-2.1-0.9-2.7c-0.8-0.6-1.8-0.4-2.2,0.5c-2.3-3.9-7.6-5.6-11.7-3.7
		c-4.1,1.8-6.5,6.6-5.2,10.9c-1.2,0-2,1.4-1.5,2.5c-0.8-0.3-1.8,0-2.3,0.7c-0.3,0.4-0.2,1,0,1.6c-0.7-0.6-1.7-0.9-2.6-0.7
		c-1.3,0.3-2.3,1.3-2.9,2.4c-0.6,1.1-0.8,2.1-1.1,3.4c-2.7-1.4-5.9-0.5-8.8,0.6c-2.8,1.1-5.2,2-8.2,2c12.8,2.2,12.8,2.2,15.6,1
		c5.9,2.9,13.4,2.9,19.6,0.7c0.7,1.2,2.3,1.5,3.7,1.3c1.4-0.2,2.7-0.7,4.1-0.8c1.1-0.1,2.2,0.1,3.3,0c1.1-0.1,2.1-0.3,2.6-1.3
		c2.2,1.2,4.8,1.4,7.1,0.8c0.8-0.2,1.6-0.6,2-1.3c0.2-0.3,0.3-0.8,0.2-1.2c1.3-1.2,2.5-2.9,2.6-4.6
		C401.1,198.1,400,195.9,398.1,195.1z"/>
	<path id="XMLID_3520_" class="st0" d="M537.6,88.1c-2.3-1-5.6,0-6.4,2.3c-1-1.1-3.4-0.6-4,0.7c0.4-1.3-0.4-2.8-1.6-3.2
		c-1.3-0.4-3,0.2-3.3,1.5c0.7-2,1.3-4.2,1.3-6.4c0-2.2-0.7-4.4-2.2-6c-1.5-1.6-3.8-2.5-5.9-1.9c-2.1,0.6-3.8,2.5-3.5,4.6
		c-1.1-1.2-3.1-1.5-4.5-0.8c-1.5,0.7-2.3,2.5-2,4.1c-0.4-0.6-1-0.9-1.7-0.8c-0.7,0.1-1,0.7-1.2,1.3c0-1.3-0.2-2.6-0.9-3.7
		c-0.7-1.1-2-1.8-3.2-1.6s-2.3,1.5-1.7,2.6c-2.1-1.6-5.1-2-7.6-1c-2.5,1-4.3,3.4-4.7,6c0-1.3-0.8-2.6-2-3.3
		c-1.2-0.6-2.7-0.9-3.9-0.2c0.2-0.8-0.1-1.6-0.6-2.1c-0.6-0.5-1.4-0.7-2.2-0.5c0.3-1.4-0.1-3.1-1.3-3.9c0.6-1.1,0.4-2.6-0.4-3.6
		c-0.8-1-2.2-1.9-3.5-1.6c0.2-2.1-1.1-4.3-3-5.2c-1.9-0.9-4.5-0.5-6.1,1c-0.8-3.6-4.8-6-8.5-5.7c-3.7,0.2-7,2.6-9.3,5.5
		c-2.2,2.9-3.4,6.5-1.9,9.8c-1.6-0.6-3.5,0.8-3.5,2.5c-0.8-0.4-2,0.9-1.7,1.8c-2.4-1.2-5.6-0.8-7.6,0.9c-2.1,1.8-2.7,4.8-1.9,7.4
		c-1-1.1-2.7-1.6-4.1-1.2c-1.4,0.4-2.6,1.9-2.8,3.4c-0.7-0.6-1.7-0.7-2.6-0.3c-0.8,0.4-1.5,1.6-1.6,2.5c-1.3-5.4-8.3-7.6-13.5-5.7
		c-5.2,1.8-9.4,6.6-12.8,10.9h6.1c8.5,2.2,17.4,2.7,26.1,1.7c1,1,3,0.8,4.2,0c0.5-0.4,0.9-0.9,1.5-1.1c1-0.4,2.1,0.3,3.1,0.7
		c2.5,1,5.5,0.6,7.5-1.2c4.2,3.8,11,4.8,15.8,1.8c0.8,0.9,3,0.6,4.2,0.4c1.2-0.2,2.3-0.7,3.5-0.8c1.4-0.1,2.7,0.4,4,0.7
		c1.3,0.3,2.9,0.3,3.9-0.6c4.3,2.3,10.1,2.2,14.4-0.1c2.3,1,4.9,0.8,7.2-0.2c1.2,1.3,3.4,1.5,4.7,0.4c1,0.8,2.5,0.8,3.5,0
		c5.8,3,13.5,2.7,19.3-0.3c3.7,2.2,8.7,2.6,12.7,1c0.7-0.3,1.5-0.7,2-1.3c0.7,0.3,1.3,0.4,2.3,0.1c2.3-0.8,4.3-2.7,4.8-5.2
		S539.9,89,537.6,88.1z"/>
	<path id="XMLID_3637_" class="st0" d="M636.4,36.2c-3.1-1.7-6.3-3.5-9.8-4c-3.5-0.5-7.5-0.1-9.6,2.8c-4.8-2.9-11.4-3.1-16.6-1
		c-1-2.9-5.3-4.4-8-2.9c0.3-3.2-1.7-6.5-4.7-7.7c-3-1.2-6.7-0.3-8.8,2.1c-0.7-1.1-2.2-1.6-3.5-1.3c-1.3,0.3-1.9,0.8-2,2.1
		c-1.8-3.9-5.1-7.3-9.1-8.9s-9-1-12.3,1.8c-3.3,2.8-4.9,7.7-3,11.5c-2.7-3.3-7-5.2-11.3-4.9c-4.3,0.3-8.4,2.8-10.7,6.4
		c-1.9-2.3-5.5-2.7-7.9-1c-1-2.2-4.1-2.8-5.8-1.1c0.8-2.6,0.2-5.6-1.7-7.5c-1.9-2-4.1-2.4-6.7-1.7c0.3-1.5,0.5-3.1,0.2-4.7
		c-0.3-1.5-1.4-3-2.9-3.4c-1.5-0.4-2.4,0.6-2.3,2.2c-2.4-4-7.1-6.5-11.8-6.3c-4.7,0.3-9.1,3.3-11,7.5c-1.4,3.1-1.3,6.7-0.1,9.8
		c-0.8-1.2-1.8-2.3-3-3c-2.2-1.5-5.6-1.5-7.3,0.5c-1.1,1.4-1.2,3.4-0.7,5.1c0.5,1.7,1.4,3.4,2.4,4.8c-0.8-1.2-2.2-1.9-3.7-1.8
		c-1.4,0.1-2.7,1-3.2,2.3c-1.7-1.3-4-1-6-0.7c-7.5,1.2-14.7,3.3-22.1,4.2l-0.1,0c0,0,0,0,0.1,0c-2,0.2-4,0.4-6,0.4h11.2
		c20.6,1.4,41.3,1.7,62,1c6.6-0.2,13.2,1.8,19.6,0c15.2,5.2,32.1,5.1,47.3-0.3c9.9,2.3,20.2,2.9,30.3,1.9c6.5-0.7,13.2,1.4,19-1.7
		c3.6,1.4,7.7,1.3,11.1-0.5c2.3,1.5,7.8-0.5,18.6-0.5C642.8,36.9,639.8,38.1,636.4,36.2z"/>
	<path id="XMLID_6_" class="st0" d="M416.8,143c0.1-2.9-1.5-5.8-4-7.2c-2.5-1.5-6.2-1.2-8.7,0.3c0.6-2.2-0.3-4.7-2.2-6
		c-1.9-1.3-4.4-0.7-6.2,0.7c-2.4-2.2-5-4.4-8-5.7c-3-1.3-6.5-1.7-9.6-0.5c-3,1.2-5.3,3.7-6.8,6.6c-1.5,2.9-2.4,6.5-3.1,9.6
		c-1-1.6-3.7-1.6-5.3-0.6c-1.9-2.4-4.5-4.2-7.5-5.1c-1.9-0.5-3.9-0.7-5.8,0c-1.8,0.7-3.3,2-3.4,4c-1.3-3-2.7-6-4.7-8.5
		c-2.1-2.5-5-4.5-8.2-4.7c-3.2-0.2-6.3,2.1-7.2,5.3c-1.4-2.1-4.2-3.1-6.5-2.3c0,0.3-0.5,0.5-0.5,0.8c-2.9-3.9-8.7-5.5-13.2-3.6
		c-4.5,1.9-7,7.4-6.2,12.3c-2.1-2-5.7-2.3-8.1-0.7c-2.4,1.6-4,5.1-2.9,7.8c-3.2-1.9-7.1-2.4-10.6-1.4c-4.7,1.3-7.9,3.9-12.9,3.9h5.3
		c9.1,0,17.3,4,21.1,4.3c3.8,0.3,7.7-0.3,10.9-2.3c12.6,4.4,26.8,5.1,39.7,1.5c11.5,3.8,24.4,3.5,35.6-1.3c2.9,3.1,8.5,3.2,11.7,0.5
		c4.2,2,9.4,1.7,13.5-0.5c3.4,0.6,6.3,0.8,9.7,0.4c3.4-0.4,3.1-2.7,12.4-2.7h7.4C421.9,147.9,421.9,142,416.8,143z"/>
	<path id="XMLID_3647_" class="st0" d="M638.1,122.7L638.1,122.7c-2.9-1.3-5.6-1.8-8.7-1.5c-3.2-2.7-6.9-4.9-11-5.6
		c-4.1-0.6-8.6,0.6-11,4c-2.4-2.4-6-3-9.2-1.8c-6.3-5.1-14.5-7.6-22.6-6.8c-8,0.7-16.5,4.5-21.7,10.6c-3.5-0.8-7.1-1.6-10.6-1
		c-3.1,0.5-5.6,2.1-8.8,2.1c11.6,1.8,16.8,3.1,24.1,1.2c2.6,0.8,5.5,1.3,8.2,1.4c3.5,0.1,7.2,0.2,10.4-1.3c2.4,1.9,6.5,1.8,9.1,0.2
		c9.8,3.5,20.9,3.6,30.9,0.6c3.4,1.3,7.3,1.1,10.5-0.7c2.9,1.9,2.9-1.4,11.4-1.4L638.1,122.7z"/>
	<path id="XMLID_5_" class="st0" d="M378.5,68.8c-0.8-5.3-4.9-10.2-10.2-11.2c-4.6-0.8-10.9,2.5-12.9,7c0.3-2.7-0.8-5.6-3-7.2
		c-2.8-2-7.2-2-9.8,0.3c1.6-6.3,0.4-13.5-3.7-18.6c-4.1-5.1-11.3-7.7-17.6-5.7c-6.2,2-12.2,9.7-11,16.1c-0.5-2.3-2.8-4.2-5.2-4.3
		c-2.4-0.1-4.8,1.6-5.5,3.9c-1.2-1.9-3.8-2.8-5.9-1.9c-1.6,0.7-3.5,2.8-4,4.7c-0.2-1.7-1.2-3.4-2.7-4.2c-2-1.1-2.9-1.4-4.6,0.1
		c0.2-4.8,0.4-9.7-1-14.3c-1.3-4.6-4.5-9-9-10.5s-9.9,0.4-11.3,5c-1.1-4.6-6-7.9-10.7-7.3c-4.7,0.6-8.6,5-8.5,9.7
		c-0.7-2.4-3.7-3.9-6.1-2.9c-2.4,1-4.4,3.5-3.2,5.7c-9.7-1.9-20.2,1.3-27.1,8.3s-8.7,17.4-6.8,27.1c-3.4-2.4-7.7-0.8-8.5,3.1
		c-0.1-2.5-3.8-4.3-6.4-3.2c-2.9,1.2-3.4,5.1-5.8,7.1c-1.6,1.3-3.6,2.4-5.7,3.2c-5.8,0.9-11.4,1.9-16.7,2.9c0.1,0,0.3,0,0.4,0
		c-0.1,0-0.3,0-0.4,0h1.3c10,0.2,40.4,3.7,48,5.8c8,2.2,16.3,0.1,23.8-3.3c2.1,2.8,6.6,3.3,9.3,1.1c1.9,1.8,6.2,1.2,8.4-0.2
		c9.9,3.6,21.8,4,31.5,0.1c4.4,4.5,12.4,4.7,17.1,0.5c2,2.6,6.2,3.5,8.9,1.5c17.6,6,36.8,5.5,53.7-2.1c2.7,2.3,6.4,3.3,9.9,2.9
		c3-0.4,6-2,7-4.8c0.6-1.6,0.2-3.4-0.7-4.8C376.7,75.5,379,72.6,378.5,68.8z"/>
	<path id="XMLID_2_" class="st0" d="M10.6,115.2c2.5-1.4,5-2.8,7.9-3.2c2.8-0.4,6-0.1,7.7,2.2c3.8-2.4,9.1-2.5,13.3-0.8
		c0.8-2.4,4.3-3.5,6.4-2.3c-0.2-2.6,1.3-5.2,3.7-6.2c2.4-1,5.4-0.3,7,1.7c0.6-0.9,1.8-1.3,2.8-1c1,0.3,1.5,0.6,1.6,1.7
		c1.5-3.2,4.1-5.9,7.3-7.1c3.3-1.2,7.2-0.8,9.9,1.5c2.7,2.2,3.9,6.1,2.4,9.3c2.2-2.6,5.6-4.2,9.1-4s6.8,2.3,8.6,5.1
		c1.5-1.8,4.4-2.2,6.3-0.8c0.8-1.7,3.3-2.2,4.6-0.9c-0.7-2.1-0.1-4.5,1.4-6c1.5-1.6,3.3-1.9,5.4-1.4c-0.2-1.2-0.4-2.5-0.2-3.7
		c0.3-1.2,1.1-2.4,2.3-2.7c1.2-0.3,1.9,0.5,1.8,1.8c1.9-3.2,5.7-5.2,9.4-5c3.7,0.2,7.3,2.6,8.8,6c1.1,2.5,1.1,5.4,0.1,7.9
		c0.6-1,1.4-1.8,2.4-2.4c1.8-1.2,4.5-1.2,5.8,0.4c0.9,1.1,1,2.7,0.5,4.1c-0.4,1.4-1.1,2.7-1.9,3.8c0.6-1,1.8-1.5,2.9-1.4
		c1.1,0.1,2.2,0.8,2.6,1.8c1.3-1,3.2-0.8,4.8-0.5c6,0.9,11.8,2.6,17.7,3.3l0.1,0c0,0,0,0,0,0c1.6,0.2,3.2,0.3,4.8,0.3H169
		c-16.5,1.1-33.1,1.4-49.7,0.8c-5.3-0.2-10.6,1.4-15.7,0c-12.2,4.1-25.8,4.1-37.9-0.2c-7.9,1.9-16.2,2.3-24.3,1.5
		c-5.2-0.5-10.6,1.1-15.2-1.3c-2.8,1.1-6.2,1-8.9-0.4c-1.8,1.2-6.2-0.4-14.9-0.4C5.5,115.8,7.8,116.7,10.6,115.2z"/>
	<path id="XMLID_3414_" class="st0" d="M73.3,40.3c-2.7-3.7-7.6-5.3-11.6-3.2c-0.5-3.7-3.9-6.9-7.7-6.8c-3.8,0.1-7.2,3.7-6.4,7.4
		c-5-3.2-12.5-2-16.3,2.6c7.1,0,8.6,1.3,11.3,1.4c2.7,0.1,5.5-0.1,8.2,0.2c2.4,0.3,5.1,0.9,7.2-0.4c1.1,0.1,2.1,0.2,3.2,0.1
		c0.8,0,1.5-0.1,2.3-0.1c2.1-0.1,1.4-0.1,3.5-0.1c0.9,0,2.1-0.9,4.3-1.2H73.3z"/>
	<path id="XMLID_3_" class="st0" d="M141.1,43.7c-1.9-0.8-5.1-0.3-5.6,1.7c0.3-1.1,0-2.3-0.8-3c-0.8-0.8-2-1-3.1-0.7
		c0.2-1.4-1-2.4-2.3-2.5c0.5-0.8,1-1.7,1.2-2.7c0.2-1-0.1-2.1-0.9-2.7c-0.8-0.6-1.8-0.4-2.2,0.5c-2.3-3.9-7.6-5.6-11.7-3.7
		c-4.1,1.8-6.5,6.6-5.2,10.9c-1.2,0-2,1.4-1.5,2.5c-0.8-0.3-1.8,0-2.3,0.7c-0.3,0.4-0.2,1,0,1.6c-0.7-0.6-1.7-0.9-2.6-0.7
		c-1.3,0.3-2.3,1.3-2.9,2.4c-0.6,1.1-0.8,2.1-1.1,3.4c-2.7-1.4-5.9-0.5-8.8,0.6c-2.8,1.1-5.2,2-8.2,2c12.8,2.2,12.8,2.2,15.6,1
		c5.9,2.9,13.4,2.9,19.6,0.7c0.7,1.2,2.3,1.5,3.7,1.3c1.4-0.2,2.7-0.7,4.1-0.8c1.1-0.1,2.2,0.1,3.3,0c1.1-0.1,2.1-0.3,2.6-1.3
		c2.2,1.2,4.8,1.4,7.1,0.8c0.8-0.2,1.6-0.6,2-1.3c0.2-0.3,0.3-0.8,0.2-1.2c1.3-1.2,2.5-2.9,2.6-4.6C144.1,46.6,143,44.4,141.1,43.7z
		"/>
	<path id="XMLID_3526_" class="st0" d="M72.1,265.1c0.7-0.5,1.5-0.5,2.4-0.4c2,0.3,4,1.2,5.5,2.6c0.2-0.9,0.9-1.6,1.7-1.9
		c0.9-0.2,1.9-0.2,2.4,0.5c-1.1-1.6-2.2-3.4-2.6-5.3c-0.4-1.9,0.2-4.2,1.9-5.3c1.6-1,3.8-0.6,5.6,0c5.6,2,10.2,6.2,13.2,11.4
		c-0.2-2.1,1.2-4.4,3.3-5c2.1-0.6,5,0.3,5.9,2.2c3.1-1.2,6.6-1.3,9.8-0.2c2.5,0.8,4.8,2.3,7.3,2.8c2.3,0.4,4.7,0,7.1-0.1
		c5.6-0.1,10.5,4.1,16.1,4.1h-13.9c-3.2,0.2-6.5,0.5-9.6,1.4c-9.8,2.8-20.7,2.4-30.5-0.5c-3.7,2.4-8.6,2.7-12.5,0.8
		c-2.8,0.3-5.6,0.6-8.3,0.9c-1,0.1-2,0.2-3-0.1c-1-0.3-1.9-1.1-2-2.1c-0.1-0.6,0.2-1.1,0.6-1.5c-0.5-0.5-0.9-1-1.1-1.7
		C71.1,267,71.3,265.7,72.1,265.1z"/>
	<path id="XMLID_4_" class="st0" d="M17.3,222.2c-0.5-0.7-0.7-1.7-0.5-2.5c0.3-1.2,1.4-2.2,2.7-2.4c1.2-0.2,2.4,0.2,3.3,1
		c-0.9-1.2-0.9-2.9-0.1-4.1c0.8-1.2,2.5-1.6,3.8-1.2c-0.3-0.9-0.1-1.9,0.5-2.6c0.6-0.7,1.5-0.9,2.4-0.9c-1.2-1.1-2.4-2.3-3.2-3.7
		s-1-3.2-0.3-4.7c0.7-1.5,2.8-2,4.3-1.3c-0.3-0.6-0.2-1.5,0.3-1.9c0.5-0.5,1.3-0.8,1.9-0.3c-0.9-2.1-0.9-4.6,0.2-6.6
		c1.1-2,3.4-3.4,5.6-3.2c2.3,0.2,4.2,1.9,4.4,4.2c0.2-0.3,0.7-0.5,1.1-0.4c0.4,0.1,0.7,0.2,0.7,0.6c0.5-1.2,1.9-1.9,3.2-1.8
		c1.3,0.1,2.5,0.9,3.2,2c0.8,1.1,0.9,2.5,1,3.8c0.5-0.3,1.1-0.2,1.5,0.1c0.4,0.4,0.6,0.7,0.4,1.2c0.4-0.5,1.1-0.6,1.6-0.4
		c0.6,0.2,0.5,0.5,0.5,1.1c2.3,0.3,4.4,1.7,5.7,3.7c1.2,2,1.7,4.5,1.1,6.7c0.3-0.1,0.7,0,0.9,0.3c0.2,0.3,0,0.9-0.3,1.2
		c0.5-0.4,1.3-0.4,1.8,0c0.5,0.4,0.9,1.3,0.7,1.9c0.3-0.9,1.4-1,2.2-0.6c-0.4-0.5-0.3-1.2,0-1.7c0.4-0.5,1.1-0.9,1.6-0.7
		c-0.4-2.9,0.6-6,2.7-8c2.1-2,5.2-2.9,8.1-2.3c0.9,0.2,1.8,0.5,2.5,1.1c0.7,0.6,1.6,1.4,1.5,2.3c0.7-0.3,1.5-0.2,2,0.3
		c0.5,0.5,0.5,1.4,0.3,2.1c0.6-0.6,1.7,0,1.8,0.8c0.2-1.1,1.3-2,2.4-2c1.1,0,2.5,0.7,2.8,1.8c-0.2-0.5-0.1-1.2,0.4-1.5
		c0.4-0.4,1.2-0.4,1.7-0.1c-0.3-0.6,0-1.3,0.5-1.6c0.5-0.3,1.3-0.3,1.7,0.2c0.3-4,3.9-7.4,7.9-7.9c4-0.5,8.1,1.5,10.4,4.8
		c2.3,3.2,3.2,7.2,2.6,11c0.1-0.5,0.5-0.9,1-1.1c0.6-0.2,1.2-0.5,1.6-0.1c0.7-1.2,2.2-1.6,3.5-1.2c1.3,0.4,2.2,1.6,2.5,2.9
		c0.3,1.3,0.1,2.8-0.4,4c0.7-0.6,1.9-0.7,2.5-0.1c1.4-1.3,3.7-1.5,5.3-0.5c1.6,1,2.4,3.1,1.7,4.9c0.7-0.8,2.2-0.3,2.3,0.7
		c0.6-1,2.1-1,3.1-0.4c1,0.6,1.7,1.6,2.5,2.4c0.8,0.8,2,0.9,3.1,0.9h-6.8c-1.9,0.9-4,1-6.1,0.5c-0.3,0.8-1.2,1.3-2,1.4
		c-0.9,0.1-1.7,0-2.6-0.2c-1.4-0.3-2.6-0.8-4-1.1c-1.5,1.5-4.3,1.7-5.7,0.1c-0.2,0.9-1.2,1.2-2.1,1.2s-1.8-0.3-2.7,0
		c-0.6,0.2-1,0.7-1.5,1c-0.9,0.5-2.2,0.6-3.2,0.1c-3.9,1.3-8.4,1.1-12.1-0.7c-3.6,1.5-7.5,2.1-11.4,1.7c-1.5-0.2-3.3-0.7-3.9-2.1
		c-0.8,1-2.9,0.7-3.5-0.3c-4.5,1.4-9.3,2.2-14.1,2.2c-2.3,0-5-0.4-6.4-2.2c-1.4,1.8-4.4,1.9-5.9,0.2c-0.6,0.5-1.8,0.2-2.1-0.5
		c-0.7,1.3-2.1,2.2-3.6,2.4c-1.5,0.2-2.8-0.1-3.9-1.1c-0.7,0.9-1.8,1.5-2.9,1.5c-1.1,0-2.3-0.4-3-1.3c-0.8,0.8-2.5,0.6-2.9-0.5
		c-2.9,2.4-7.5,1.8-10.3-0.6c0,0.2,0,0.3-0.1,0.5c-0.8,0.4-1.8-0.1-1.9-1c-1.5,1.1-3.7,1-5.1-0.1c-0.3-0.3-0.7-0.6-0.7-1.1
		C17,222.6,17.1,222.4,17.3,222.2z"/>
</g>
</svg>
