<?xml version="1.0" encoding="utf-8"?>
<!-- Generator: Adobe Illustrator 22.1.0, SVG Export Plug-In . SVG Version: 6.00 Build 0)  -->
<svg version="1.1" id="Слой_1" xmlns="http://www.w3.org/2000/svg" xmlns:xlink="http://www.w3.org/1999/xlink" x="0px" y="0px"
	 viewBox="0 0 583 544" style="enable-background:new 0 0 583 544;" xml:space="preserve">
<style type="text/css">
	.st0{fill:none;}
	.st1{display:none;}
	.st2{display:inline;fill:#FFFBEE;}
	.st3{display:inline;fill:#E2E5D9;}
	.st4{display:inline;}
	.st5{fill:#CAC8BE;}
	.st6{display:none;fill:#151030;}
	.st7{display:none;fill:#0F0F1E;}
	.st8{display:inline;fill:#0F0F1E;}
	.st9{fill:#252659;}
	.st10{fill:#FFFBEE;}
</style>
<g>
	<rect x="-18.4" y="30.2" class="st0" width="618.6" height="618.6"/>
	<g class="st1">
		<circle class="st2" cx="295.6" cy="253.9" r="199.2"/>
		<path class="st3" d="M452.2,265.1c-1.5,0.1-3.4,1.3-4.9,1.7c-5.6,1.7-11.3,4.8-16.2,8c1.7,0.9,3.8,1,5.6,1.8c4,1.7,7.7,4.7,11,7.5
			c1.3,1.1,2.1,2.6,3.4,3.9c1.8,1.6,3,1.7,5.3,2c3,0.4,4.8,1,7.1,2.9c1.3,1.1,2.4,1.8,4.4,1.9c2.4,0.1,5.7-0.6,8.1-1
			c2.1-0.4,5.9-1.5,7.4-3.1c-1.7-1.8-4.4-2.4-6.6-3.5c-2.4-1.2-5-2.5-7.3-4c-2.4-1.4-4.8-3.8-7.4-4.9c-2.6-1.2-6.8,0.6-6.7-3.2
			c0.1-4.2,5.6-4.9,8.9-5c1.9,0,6.3,0.8,7.4-1.8c1.1-2.6-4.4-2.2-5.7-2.2c-2.5,0-3.2-0.2-5.1-1.6C458.3,262,455.7,264.7,452.2,265.1
			z"/>
		<path class="st3" d="M425.2,150.3c0.9,0,1.5,0.5,2,1.3c1.7,2.3,3.7,4.6,5.8,6.5c4.9,4.5,10.1,6.5,16.3,8.7
			c1.8,0.7,5.1,1.5,6.5-0.1c2.9-3.4-4.3-9.4-6.1-11.6c-2.5-3-2.5-6.8-4.8-10c-0.7-0.9-1.4-1.6-2.3-2.3c-0.8-0.9-1.3-2-1.7-3.1
			c-1.6-2.6-4.9-3.1-6.5-5.9c-1.2-1.9-1.3-5-3.4-6.3c-2-1.2-4.9-1.3-7.2-2c-1.2-0.3-2-1.1-3.2-0.4c-1.2,0.8-1.2,5.8-0.9,7
			c0.5,0.8,0.9,1.5,1.4,2.3c0.2,0.9,0.2,1.8,0.1,2.7C421.3,138.8,425.5,148.6,425.2,150.3z"/>
		<path class="st3" d="M408,138c2,0,3.8-0.1,5.6,0.8c0.9,0.4,2.1,1.9,3.2,1.4c1.1-0.5,1-5.6,1-6.5c0-2.7-0.4-4.8,1-7.2
			c0.9-1.6,2-4,2.1-5.8c0.2-2.3-1.9-3.5-3.3-5.4c-3-3.8-5.7-8-8.9-11.7c-1.3-1.4-2.4-3-3.9-4.4c-1.5-1.3-3.4-1.8-4.9-3.2
			c0-0.7-0.4-1.2-1.1-1.5c-1.8-0.8-3.7-1.9-5.3-3.1c-2.2-1.7-4.4-3.9-6.9-5.2c-1.6-0.8-4.4-1.2-5.7-2.6c-0.5-0.6-0.3-1.4-1.1-2
			c-0.8-0.6-2.2-0.5-3.1-1.1c-1.5-1.1-1.9-2.9-4-3.1c-0.5,3.3-1.4,6.6-2,9.9c-0.4,2.7-0.9,4.7-3,6.3c-2.2,1.7-4.2,4.7-4.1,7.6
			s-0.4,6.2,0.1,9.1c0.8,4,3.4,7.4,5.3,11c1.6,2.9,1.7,5.9,3.7,8.8c0.7,1.1,1.4,2.5,2.4,3.4c0.1-1.2,0.9-4.6,1.6-5.5
			c1.7-1.8,2.6,0.5,3.5,2.5c1.2,2.6,1.9,5.3,3.9,7.5c1.2,1.3,2.5,2,2.6,4c3.7,0.4,6.6,4.9,10.6,3.4c1.2-0.4,1.9-1.9,3.1-2.3
			C401.6,142.7,408.4,139.2,408,138z"/>
		<path class="st3" d="M380.1,177.4c-0.1-0.1-0.3-0.3-0.4-0.4c2.6-4.3,6.2-6.8,10.5-9.2c3-1.6,2.9-2.5,4.9-0.1
			c1.9,2.4,2.9,4.7,4,7.7c0.3,1.6,0.9,3,1.7,4.5c1.7,1.8,5.4,1.5,7.5,2c4,0.9,5.6,2.5,8.7,4.6c4.4,2.7,7.7,6,11.4,9.7
			c3.5,3.7,7.8,6.7,10.7,11c0.6,0.9,1.2,1.9,1.9,2.8c0.2,0.3,3,2.3,2.9,2.6c-2.3,0.2-3.3,0.8-5.1,2.5c-2.9,2.9-5.9,4.2-9.4,6.1
			c-2.3,1.2-4.8,2.9-6.6,4.9c-4.2,4.4,0.1,10.3,3.9,13.5c2.6,2.2,5.8,3.8,8.4,5.8c1.3,1,3.3,2,4.1,3.3c-4.3,1.3-10.3-1.2-14.3,1.7
			c-3.1,2.3-3,7.7-7,9.5c-2,1-3.4,0.7-4.1,3.3c-0.9,3.4,0.2,7.4,1.3,10.6c1.2,3.4,2.4,6.5,4.1,9.7c0.8,1.9,1.7,3.9,2.8,5.6
			c0.7,0.4,1.2,1,1.4,1.7c-1.4-0.6-3-0.4-4.5-0.3c-2.4,0-4.7-0.4-7.1-0.7c-4-0.4-7.9-0.2-11.7-1.7c-3.2-1.4-5.8-3.7-8.6-5.6
			c-1.3-0.9-2.3-1.7-3.4-2.6c-2.8-2.3-5-1.9-8,0.5c-3.1,2.5-4.9,6.2-7.3,9.3c-0.9,1.2-1.2,2-1.7,3.2c-0.8,1.6-2.3,2.8-4,4
			c-1.8,1.2-1,1.2-2.3,0c-0.2-0.4-0.4-0.7-0.6-1.1c-0.6-0.5-1.3-0.8-2-0.9c-3-1.7-4.7-5.2-8.3-2.5c-2.3,1.7-4,4.9-6.4,6.3
			c-2.3,1.4-6.5,1.7-9,2.5c-3.5,1.1-7.1,2.1-10.9,1.7c-1.3-0.2-2.7-0.4-4.1-0.7c-2-0.1-4.1-0.2-6.1-0.3c-2.2-0.8-1.3-1.5-4.1-1.3
			c-2.9,0.2-5.1,1.4-7.7-0.3c-0.3-0.4-0.7-0.7-1-1.1c-1.4-0.4-2.8-0.6-4.3-0.5c-4.8-0.6-2.7-3.1-0.5-5.7c2.6-3,5.4-6.1,8.4-8.7
			c1.3-1.2,2.3-1.8,3.3-3.1c0.7-1,1.7-2.8,1.4-4.2c-0.6-1-1.4-1.8-2.4-2.3c-1.3-0.8-2.1-2-2.5-3.5c-1.3-3.2-2.8-6.3-3.2-9.8
			c-0.2-1.9-1.2-3.3-1.5-5.1c-0.5-2.9,0.7-4.5,2.1-6.9c-1.2-1.5-3.3-2.1-3.9-4.3c-0.4-1.7,0.6-2.6,1.5-4.1c1.6-2.2,3.5-2.8,6-4.5
			c3.2-2.1,6.4-4.1,9.5-6.2c4.2-2.8,8.9-2,11.8-6.7c3.7-6.1,10.9-9.4,17.7-10.7c7-1.3,14.3-2.1,19.8-7.2c0.9-0.8,1.7-1.9,2.4-2.7
			c1.4-1.6,1.9-2.2,2.6-4.1c0.4-1.1,0.7-2.8,1.6-3.8c1.5-1.5,4-1.5,5.1-3.7C380.7,188.9,380.1,179.7,380.1,177.4z"/>
		<path class="st3" d="M216.2,226.5c-0.1-4.1-5.7-7.7-8.1-10.4c-2.3-2.6-1.9-7.3-2.4-10.6c-0.2-1.4,0.1-2.9-0.3-4.3
			c-0.4-1.2-1.1-2.2-1.4-3.4c-1.3-4.3-4.7-5-9-4.9c-2.5,0.1-4.5,1.1-6.5,2.4c-3.2,2.1-6.5,3.9-9.7,5.9c-2.1,1.2-4.2,3.2-6.5,4
			c-2.6,0.9-6.6,0.1-9.3,0.1c-5.2,0-10.1-0.8-15.4-0.8c-4.1,0-9.1-0.8-13.1,0.1c-0.2,1.1,1.1,1.7,1.6,2.4c0.6,1,1.2,2.8,0.9,4.1
			c-0.4,1.5-1,1.6-2.4,2.1c-2.7,1.1-5.3,2.3-8,3.5c-1.1,0.5-2.3,0.9-3.3,1.5c-1.8,1-1.9,1.5-2.7,3.3c-0.6,1.6-0.5,1.9-1.5,3.4
			c-1.5,2-3.3,3.9-4.8,5.9c-2.4,3.4-2.8,7.2-2,11.2c0.9,4.1-0.9,7.9-0.7,12.1c0.2,4.2,1.6,7.5,0.1,11.6c-0.8,2.1-2.1,3.7-3.3,5.5
			c-0.4,0.6-3.7,4.4-3.1,5.3c1.1,0.1,2.1-0.1,3.1-0.7c2.6-0.8,5.5-1,8.2-1.7c1.5-0.5,3-0.8,4.6-0.9c1.5,0.2,2.2,1.2,3.8,1.8
			c4,1.5,9.6,1.1,13.8,0.8c2.9-0.2,6-2.3,8.3-4.1c2.7-2,4-5.3,6.5-7.5c1-0.5,2-1.1,3-1.7c2.3-1.5,4.8-3.1,7-4.9
			c2.2-1.7,4.3-3.1,5.4-5.8c0.7-1.7,1.1-3.2,2.3-4.8c0.9-1.1,2.7-3.7,4.4-3.4c-0.1,1-0.9,4.9-0.1,5.7c1,1.1,5.2-0.3,6.1-0.7
			c3.5-1.5,6.4-4.5,9.9-6c1.5-0.7,2.8-1.1,4.2,0.2c0.1,0.6,0.4,1.1,0.9,1.5c0.8,0.6,3.1,0.2,4.1,0.1c2.1-0.1,2.6-0.8,4-2.4
			c1.3-1.6,2.8-3,4.2-4.7c1-1.1,1.9-2.7,3.7-2.9C212.7,233.6,217.3,227.1,216.2,226.5z"/>
		<path class="st3" d="M465.3,303.5c0.6,0,1.1-0.2,1.5-0.6c-1-0.5-2.1-0.6-3.3-0.1c-5.6,0.5-10.5,2.5-15.5,4.9
			c-7,3.2-13.7,6-17.7,13c-1.3,2.3-2.6,4.1-4.5,6.1c-2,2.3-3,4.8-4.7,7.3c-3.4,5.3-9.4,5.6-15.1,6.9c-3.2,0.7-8.6,2.3-11.9,1
			c-2.1-0.8-1.2-1.8-3.9-1.3c-1,0.4-2.1,0.9-3.1,1.3c-1.4,0.4-2.1,1.2-2.1,2.5c-0.8,1-2.4,3-2.5,4.4c-0.1,1.1,0.9,1.9,1,3
			c0.5,3.2-3,4.4-5.2,5.8c-4.1,2.5-8.1,6.3-13.1,6.6c-3.4,0.2-6.9,0.7-10.3,0.8c-2,0.1-3.3,0.2-5.1-0.8c-0.3-0.4-0.6-0.7-0.9-1.1
			c-1.3-1.2-2.8-1.9-4.7-2.2c-3.9-0.7-8.8,0.4-12.6,1.3c-5.5,1.3-10,5.3-15.5,6.6c-4.1,1-8.7-1.4-12.8-2c-2-0.3-4.1,0.2-6-0.1
			c-1-0.2-1.6-0.7-2.5-0.9c-2.4-0.6-4.7,1-6.4,2.5c-1.2,0.9-2,2.2-3.2,3.1c-1.6,1.3-2,0.9-4.3,0.9c-2.6,0-4.6,1-7,1.5
			c-2.3,0.4-4.7,0-6.9,0.1c-5.5,0.1-10.6,2.7-16.1,3.5c-1.5,0.1-3,0.5-4.6,1c-1.7,0.6-3.1,1.8-5,2.1c-2.4,0.4-4.8,1.5-7.1,2.5
			c-7.4,3.3-9.7,10.4-11.9,17.5c-1.2,4.1-1.4,7.7-1.4,11.9c0,2-0.2,3.7,1,5.5c1.6,2.3,4.2,3.4,6.9,4.1c3.5,0.8,6.7,2.2,10,3.4
			c1.6,0.6,2.3,0.5,3.9,0.7c1.4,0.3,2.2,0.8,3.4,1.5c2,1,4.4,2.7,6.7,2.7c2,0.1,2.9-0.8,4.7-1.7c2.3-1.1,4.5-1.9,6.7-3.3
			c2.1-1.3,3.2-2.1,5.6-2.5c0.9-0.1,1.2,0.2,1.9-0.5c2.6,3.4,1.5,8.1,2.3,12c3.5,0.3,6.7,1.4,10.3,0.6c4.6-1,8.3-4,12.4-6.2
			c3.5-1.9,8.6-3,10.2,1.8c0.8,2.3,0.4,4.3,2.2,6.2c2.4,2.7,5.4,3.3,8.8,3.2c3.2-0.1,6.1,0.9,9.3,0.8c5.6,0,11.5,0.6,16.9-0.1
			c2.9-0.4,6.2-1.8,8.9-3c2.9-1.2,5.4-3.2,8.4-4.3c2.5-0.9,5.1-1.8,7.5-2.8c3.2-1.3,7.9-2.6,10.5-5.2c1.6-1.6,2.4-4.6,3.9-6.4
			c0.8-1,1.8-2.3,2.7-3.3c0.9-0.5,1.6-1.2,2.2-2c0.6-0.6,4-3.2,4.2-4.2c0.4-2.1-2.5-4.2-2.5-6.6c0-5.7,9.2-8.1,13.4-9.6
			c2.3-0.9,4.7-1.4,7.1-1.6c1.9-0.1,4-0.3,5.8-1.1c2.8-1.2,5.1-3.8,7.6-5.4c2.6-1.7,5.1-3.2,7.6-5.2c2.1-1.7,3.2-2.4,5.7-3.1
			c1.8-0.5,2.2-0.4,3.9-1.9c2.4-2.3,5.2-6,6.3-9.2c0.8-2.3,0.9-7,0.2-9.3c-0.8-2.7-4.1-4-1.3-6.5c0.7-0.4,1.5-0.8,2.2-1.2
			c1.2-0.7,2.1-1.7,2.6-2.9c1.4-1.3,2.8-1.9,4.6-2.8c3-1.6,3.9-5,6.8-6.9c1.1-0.7,1.7-0.8,2.5-1.6c1-0.9,1.7-2.3,2.2-3.5
			c0.5-1.1,1-2.2,1.5-3.3c0.3-1.3,0.1-2.2,0.8-3.4c0.7-1.1,2.7-2.5,3.7-3.4c1.1-1.2,2.2-2.4,3.2-3.7c1.1-1.2,3.9-3.8,4-5.6
			c0-0.6-0.7-2.5-0.9-3.1c-0.3-0.9-0.7-1.8-0.8-2.8c-0.3-1.7,1.5-4.3,0.7-5.6C478.9,298.3,467.1,303.5,465.3,303.5z"/>
		<path class="st3" d="M285.8,351.1c0.2-1.2,2.6-2.7,3.3-3.5c2.5-2.6,7.7-7.2,8.2-11c0.5-3.4-2.8-6.8-3.8-9.8
			c-0.8-2.6,0.3-5.1-1.5-7.1c-1.7-1.9-3.8-2.9-4-5.9c-0.2-3.1,1.2-4.1-2.2-5.9c-1.3-0.7-4.9-1.5-5.3-3.4c-0.3-1.6,1.1-4,2.1-5
			c1.5-1.6,4-1.8,5.4-3.5c0.7-1.5,1.3-3,1.9-4.6c0.8-1.2,1.8-2,3-2.6c1.6-1.6,0.9-4.9,0.9-7.1c0-1.2-0.3-2.9,0-4.2
			c0.3-1.5,1.3-2,0.1-3.4c-2.5-3.1-8.5-0.5-11.4-3c2.5-0.3,9.1-4.5,6.3-7.4c-0.9-0.9-3.4-1-4.7-1.7c-0.6-0.6-1.2-1.1-1.9-1.5
			c-1.3-0.7-3.4-0.3-4.7-1.1c-0.5-0.3-0.9-0.7-1.1-1.3c-0.4-0.2-0.9-0.3-1.4-0.1c-1.7-0.8-2.9-1.4-4.9-1.8
			c-4.8-1.1-9.8-2.3-14.8-2.2c-1.8,0-3.8,0.1-5.7,0c-1.9-0.1-3.4-0.8-5.4-0.9c-1.2-0.1-2.4,0-3.5,0.2c-0.8,0.5-1.7,1-2.6,1.4
			c-2.8,0.7-2.5-0.6-4-2.3c-1.2-1.5-3.4-2-5.2-2.6c-2.1-0.8-4.9-2.6-7.3-2.3c-2.2,0.3-1.5,2-2.6,4.3c-1.3,2.1-2.8,4.2-4.5,6.1
			c-0.7,1-0.8,1.7-1.8,2c-1,0.4-4,0.1-5,0.1c-4.6-0.3-8.1-3.5-12.4-4.5c-3.3-0.7-5.7,1.5-7.9,3.5c-0.7,0.6-1.3,1.4-1.8,2.2
			c-1.8,1.8-4.1,3-6.2,4.4c-3.1,1.9-5.5,4.4-8.4,6.5c-1.1,0.8-2.4,1.3-3.8,1.5c-3.1,0.8-5.6,2-8.3,3.9c-1.6,1.1-3.7,1.3-5.2,2.5
			c-0.5,0.7-1.1,1.4-1.6,2.2c-0.7,0.6-1.4,0.6-1.7,1.5c-0.5,1.7,1.2,2.8,1.6,4.2c0.7,2.7-1.1,2.9-3.4,3.4c-2.8,0.6-5.7,2.1-8.6,2.3
			c-1.4,0.1-2.8-0.1-4.3-0.1c-7.7,0-15.3,0.5-23,1.4c-2.7,0.3-2.6-0.1-3.9,2c-0.8,1.4-3.3,3.9-3,5.5c2,0.4,2.7-0.7,3.7,1.6
			c0.2,1.2,0.5,2.3,0.9,3.4c0.9,2,2.5,3,4.3,4.3c2,1.6,4.3,4.1,5.7,6.3c2.4,3.9,4.9,5.9,9.5,6.5c4,0.5,8.1,0.4,12-0.6
			c1.9-0.4,3.7-1,5.4-1.9c1.9-1.1,3.3-2.4,5.6-3.1c3.5-1.2,7.1-0.6,10.7-0.7c4.7-0.1,9.2-0.9,13.9-0.8c2.6,0,5.5-0.3,8.1,0
			c2.1,0.2,2.9,1.5,4.8,2.3c1.1,0,2,0.3,2.9,1c1.2,2-0.7,6.4-1.4,8.1c-0.6,1.3-1.2,2.7-1.8,4.2c0,1.3,0.8,1.5,1.4,2.6
			c0.3,0.9,0.5,1.9,0.7,2.8c0.8,2.3,2.6,4.4,4.4,6.1c2.4,2.4,7.7,4.9,5.5,9c-0.6,0.9-1.3,1.7-2.2,2.4c-1.1,1.5-1.3,2.3-1.8,4.3
			c-0.6,2.6-1.9,5.3-2.2,8c1.7,0.4,4,0.1,5.7,0.1c4.5,0,8.1-0.5,12.4-1.6c5-1.3,10.7-2.7,14.9-5.8c1.6-1.2,5.8-5.5,6.4-1.7
			c0.4,2.1-0.7,3.3,0.9,5.1c1.3,1.4,3.9,1.9,5.6,2.2c3,0.6,7.3-0.9,9.8,0.9c1.8,1.3,1.2,1.9,3.3,0.9c3-1.3,5.6-3.2,8.3-5
			c2.4-1.5,4.4-2.8,6.3-4.9c1.7-1.7,3.1-3.1,5.4-4.2c1.4-0.6,2.1-0.8,3.7-0.7s2.8,0.9,4.4,0.7C283.3,352.7,287,351.4,285.8,351.1z"
			/>
		<path class="st3" d="M286.6,77.4c-0.9-3.9-11-5.1-13.8-5.5c-5.3-0.8-11.1-0.7-16.4,0.1c-1.5,0.2-6.1,0.7-7.4,2.1
			c1,1.3,3.7,1.7,4.2,3.4c1,3.4-7.1,4.7-8.9,5.1c-3.2,0.6-6.7,1.1-9.3,3.2c-1.9,1.5-0.7,2.6-2,4c-1.3,1.3-4.8,0.8-6.3,0.8
			c-4.5,0-9-0.3-13.4,0.8c-3.1,0.8-6.4,1.5-9.2,2.9c-2.2,1.1-4.8,1.6-7,2.8c-4.4,2.3-8.6,5-12.1,8.4c-0.8,0.7-1.5,1.5-2.2,2.3
			c-0.3,0.5-0.2,1,0.2,1.5c0.5,0.8,0.4,1.6-0.3,2.4c-0.9,1.8-3.4,3.5-4.9,5c-1.1,1.1-4.8,3.9-4.3,5.9c0.5,2,2.6,0.1,1.5,3.4
			c-1.3,3.8-7.2,7.6-10.5,9.6c-2.3,1.3-4.7,2.6-7,4c-0.5,0.3-4.3,2-4.4,3.2c4.2,2,12.5,1,13.9,6.7c0.9,3.9,0.1,8.9,0.1,13
			c0,3.8,0.9,7.9-1.8,11c-1.5,1.7-2.1,1.8-3.1,4.1c-0.6,0.8-0.8,1.6-0.8,2.6c0.7,1.3,4.6,0.7,5.5,0.7c3.2,0,6.2-0.5,9.3-0.8
			c1.3,0,2.5-0.2,3.8-0.8c0.8-0.6,1.7-1.1,2.6-1.5c1.1-0.3,2.2-0.1,3.3-0.1c2.1,0,5.3-0.7,7.3,0.1c0.7,0.4,1.3,0.9,1.9,1.5
			c1,0.5,2,1.1,3,1.5c1.7,1.5,0,3.4,1,4.9c1,1.6,5.9,1,7.2,1c5.5-0.2,11.1-1.7,16.5-0.7c1,3.7-3.4,7.2-5.4,9.5
			c-1.2,1.2-2.1,2.6-2.8,4.2c0,1.8,3,1.7,4.3,2c3.3,0.9,6.7,1.8,10,2.7c2.1,0.3,4.1,1,6,2c2.5,1.4,2.7,3,4.4,5
			c0.9,0.4,1.6,0.9,2.3,1.6c0.7,0.8,1.3,1.7,2,2.5c1.8,2.1,2.7,4.5,3.9,7c0.5,1.1,1,2.2,1.6,3.3c-0.2,2-3.1,3.7-4.6,5.1
			c-0.8,0.7-10,9.2-9.2,10.5c2.5,0.4,5.1,0,7.6,0.1c1.1,0.1,2.2,0.1,3.4,0.2c2,0.2,4,0.4,6,0.7c1.5,1.1,0.3,2.6,2,3.8
			c1.5,0.9,4.6,0.5,6.3,1c3.3,1.1,6.8,2.4,10.4,1.8c4.9-0.8,7.4-7.3,10-10.9c1.3-1.7,2.5-3.5,4.8-4c2.3-0.4,4.5,1,6.8,1
			c6.4-0.1,8.2-5.3,10.6-9.8c1.5-2.7,2.8-7.5,5.4-9.5c1.8-1.5,3.4-2.9,5.2-4.7c2-2,3.8-3,6.7-2.2c4.4,1.1,7.3-0.9,10.7-3.2
			c2.4-1.6,5.4-2.5,7.8-4.3c1-0.7,2.9-2.1,3.3-3.3c0.3-0.8-0.2-1.7,0-2.4c0.8-2.1,4.9,0.8,6.6,0.9c4.9,0.3,6.1-2.6,9.4-5.7
			c1.7-1.5,3.4-2.9,5.3-4.4c1.1-0.8,1.8-1,1.7-2.4c-0.1-2.1-1.8-4.9-2.2-7.1c-0.6-3.9-1.8-7.3-3.5-10.9c-1.4-2.9-2.3-6.1-3-9.2
			c-0.7-2.9-1.7-6.9-1-9.8c0.5-2.2,2.6-4.2,4.9-4.7c2.1-0.5,4.7,0.7,6.6-0.9c4.6-4-1.1-11.3-3.2-14.7c-1.8-3-4-7.3-6.7-9.6
			c-1-0.9-3.3-1.4-4-2.6c-0.4-0.8-0.1-1.7,0.1-2.5c0.6-2.4,1.4-4.1,1.5-6.8c0.1-2.4,0.3-4.1,1.9-6.1c1.5-1.9,4.7-3.3,5.5-5.9
			c1.4-4.8-3.3-6.8-7-8.7c-3.8-2-8.3-3.9-12.6-4.4c-1-0.1-3,0.4-3.5-0.8c-0.3-0.8,0.6-1.9,0.8-2.5c0.6-2.1,0-4.5-0.4-6.6
			c-0.7-3.9-2.2-5.4-6.2-5.7c-2.3-0.2-4.9,0-7.2,0c-4.1,0-7.7,0.8-11.7,1.8c-2.4,0.7-3.8,1.7-5.8,2.8c-3.2,1.7-7,0.5-10.4,1.2
			C295.5,70.6,289.3,77.1,286.6,77.4z"/>
		<g class="st4">
			<path class="st5" d="M355.4,202.5c-0.4-0.3-0.7-0.4-1.2-0.7c-1.6,2-2.9,11.8-7.7,9.6c-1.8-0.8-1-3.1-2.4-4.1
				c-0.7-0.5-1.7,0.4-2.4-0.3c-0.1-0.5-0.1-1.1-0.2-1.6c-0.3-0.4-0.7-0.6-1.2-0.7c-0.6-0.3-1.6-1.1-2.3-1.1c-1.2-0.1-0.7-0.1-1.4,1
				c-0.8,1.2-1.6,3.1-2.2,4.6c-0.6,1.3-0.3,2.4-0.5,3.7c-0.6,3-5.5,3-7.6,4.9c-0.9,0.7-1.5,1.5-2.6,2c-0.5,0.3-1.9,0.5-2.3,1
				c-0.6,0.8,0,2.9-0.6,4.1c-0.8,1.5-2.5,2.3-3.7,3.7c-0.9,1.1-1.6,2.4-2.6,3.4c-0.8,0.9-1.6,1.8-2.7,2.4c-0.7,0.4-1.9,0.5-2.4,1.2
				c-1.8,3,6.3,1.2,7.1,1.2c1.8,0,3.7,0,5.5,0c1.2,0,3.2-0.4,3.7,1.2c0.2,0.8-0.5,1,0.3,1.7c0.5,0.5,3.1,0.2,4.1,0.5
				c0.8,0.3,1,0.1,1.6,0.8c0.9,1,0.1,1.2,1.2,1.7c0.7,0.3,2.9-0.1,3.8-0.1c1.1,0,2.3-0.2,3.3,0.5c1.4,1,1.8,3.9,1.1,5.4
				c-1,2.1-6,2.4-3.3,5.5c1.7,2,4.7,1.8,7,2.5c2.1,0.6,4,0.3,5.7,1.7c1.8,1.5,2.5,3,5,3c1.3,0,1.8-0.3,2.7,0.7
				c0.4,0.9,0.9,1.5,1.7,2.1c1,0.4,2.1,0.6,3.1,0.9c2.4,0.5,4.7,0.4,7.1,0.6c1.4,0.1,2.9,0.8,4.4,0.6c1.6-0.2,3.3-1.8,4.5-2.9
				c1.1-1,0.9-0.7,1.2-1.8c0-0.3-0.1-0.6-0.1-0.9c0.8-1.4,1.8-2.6,3.2-3.5c1.3-1.1,2.2-1.6,3.5-2.4c1.4-0.8,3.1-1.8,4.4-2.9
				c1.8-1.4,2.2-3.4,3.2-5.4c1.3-2.7,2.3-5.5,1.5-8.5c-0.3-1.1-0.8-2-1.1-3.1c-0.3-1.1-0.1-2.1-1.2-2.9c-1.3-0.8-3.3-0.6-4.8-0.5
				c-2,0.1-0.8,0-2-0.6c-4.1-1.9-7.6-0.6-11.2,1.3c-3.4,1.8-8.3,1.6-12.3,1.6c-1.4,0-2.4-0.5-3.8-0.7c-1.9-0.2-3.9,1.1-5.9,0.6
				c-0.8-1.4,2.1-3,2.9-3.4c1.3-0.8,2.1-0.7,3.5-0.7c2.3,0,4.2-0.7,6.2-1.9c0.4-0.4,0.8-0.7,1.3-0.9c0.7-0.1,1.5-0.2,2.2-0.1
				c1-0.3,1.2-0.6,2.4-0.6c2.3,0,4.6,0.2,6.7-0.8c1.9-0.9,4.4-0.6,6.2,0.1c3.1,1.2,6.2,1.3,9.5,1.8c1.7,0.2,3.1,1.5,4.9,1.3
				c1.6-0.1,3.4-1.8,4.9-2.6c1.5-0.9,2.7-1.7,4.1-2.8c0.9-0.8,3.9-2,3.7-3.5c-1.6-0.8-4.1-0.2-5.5-1.1c-0.9-0.6-0.6-1.3-0.6-2.4
				c0-1.3,0-2.5-0.5-3.8c-0.9-2-2.3-1.6-3.8-2.9c-0.6-0.6-1-1.7-1.3-2.5c-0.7-1.9-2-3.5-1.6-5.7c0.4-1.7,1-3.2,1.1-5
				c0.1-1.4,0.4-3.7-0.1-5c-1.1-0.2-2.3,1.1-3,1.6c-1.4,0.9-2.9,2.4-4.5,3c-0.7,0.3-1.9,0.4-2.6,0.2c-1.2-0.3-1.3-1.2-2.2-1.9
				c-1.5-1.2-3.9-0.1-5.6,0.8c-2.1,1.1-3.8,2.3-6.2,3c-1.7,0.5-3,0.7-4.7-0.3c-1.6-1.1-2.8-1.6-4.9-0.5c-1.7,1-1.6,2.8-3.5,3.5
				c-1.4,0.5-2.7,0.4-4.2,0.8C358.4,201.6,355.4,202.4,355.4,202.5z"/>
			<path class="st5" d="M207,193.5c-0.2,0-0.3,0-0.5,0c-0.4,1.3-0.1,2.8-0.1,4.2c0,3.3,0.2,6,1.8,9c0.9,1.7,2.1,3.3,2.9,5.1
				c1,2,0.7,4.4,0.7,6.6c0,2-1,3.9-3,4.7c-2.3,0.9-2.8-1-4.3-2.3c-1.2,0.1-0.4,4.2-0.6,5.2c-0.5,2.2-2.4,3.1-1.6,5.8
				c0.4,1.4,2.5,4.6,0.1,5.4c-2,0.7-3.2-2.3-4-3.7c-0.8-1.4-2.1-2.7-3.5-3.4c-0.7-0.4-2-0.7-2.8-0.8c-1.3-0.1-0.7,0-1.4,0.7
				c-0.8,0.8-0.3,1.8-1.7,1.8c-0.5-0.5-1-0.9-1.6-1.4c-1.3-1.5-2.3-3.2-3-5.2c-0.7-2-1.5-4.1-4.2-4.1c1.7,1.8,2.6,3.9,2.7,6.3
				c0.1,1.8-0.9,5.4,1.1,6.2c-0.7,3-4.6-0.9-5.3-2c-0.6-1-1.2-2.1-1.3-3.2c-0.3-1.9,0.7-3.8-0.7-5.2c-1.1-1.2-2-1.4-2.8-2.9
				c-0.4-0.9-1-1.7-1.8-2.4c-1.1-0.8-1.7-0.4-2.9-0.8c-2.6-0.8-5.2-3.7-8.1-3.3c0.4-1.1,1.4-1.7,2.9-1.7c2.3-1,5-2,7.6-2
				c2.2,0,4.3,0.4,6.1-1.3c2.9-2.5,2.5-8.6,6.4-10c1.8-0.6,3.7-1.1,5.5-1.9c2.3-1,2.8-3.3,4.8-4.8c1.1-0.9,1.6-0.6,2.9-0.6
				c1.3-0.1,3.1-0.9,4.5-0.7c1,0.2,1.6,0.6,2.7,0.7C204.3,191.4,207.1,193.3,207,193.5z"/>
			<path class="st5" d="M162.4,219.4c-0.9-0.8-2.5-0.9-3.5-1.2c-2.5-0.7-4.7-0.4-7.2-0.6c-1.3-0.1-2.4-0.6-3.7-0.6
				c-1.3-0.1-2.7,0-4.1,0c-1.1,0-2.1-0.1-3.1,0.1c-2,0.4-1.2,0.7-2.3,2.1c-1.1,1.4-2.3,0.9-3.8,1.3c-0.8,0.2-2.5,1.3-2.7,2
				c4.3,1.3,9.3-0.9,13.4,0.8c0.7,0.3,1.4,0.7,2,1.3c0.6,0.4,1.2,0.7,1.9,0.9c0.7,0.8,0.7,1.8,0.5,2.8c-1.2,0.2-2.4,0.4-3.7,0.5
				c-0.9,0.1-2.8-0.3-3.4,0.7c-0.4,0.7,0,2.2,0,3c-0.1,2.5-1.3,2.8-3.5,3.2c-1.5,0.3-2.9,0.9-4.5,1c-0.8,0.1-1.5,0-2.3,0.1
				c-2.4,0.4-7.1,1.8-7.8,4.6c1.7,2.3,6.9,0.5,6.6,4.4c-0.2,2.6-2.8,5.2-4.3,7.4c-0.7,1.1-1.5,2-2.3,3c-0.7,1-1.1,2.2-1.7,3.3
				c-0.9,1.4-1.9,1.9-0.7,3.3c1.3,1.5,3.2,1.1,4.7,2.2c0,0.4,0,0.8-0.1,1.3c3.5-0.7,5.8-3.2,8.7-5c2-1.2,2.7-1.5,3.7,0.8
				c0.4,1,0.5,2.4,1.6,2.8c1.2,0.5,3,0.3,4.3,0.7c1.6,0.5,1.7,0.6,2.2-1.4c0.4-1.6,0.8-3.1,1.4-4.7c0.4-0.9,0.3-1.6,0.5-2.5
				c0.5-1.8,2.9-3,4.3-4.2c0.8-0.7,1.3-1.3,2.3-1.8c0.7-0.4,1.7-0.5,2.4-1c1.4-0.9,2.6-3,3.5-4.5c1-1.5,0.4-2.6,0.8-4.4
				c0.4-1.6,1.7-3.5,2.9-4.8c1.1-1.1,2.5-1.4,3.2-3c0.7-1.5,1.2-2.8,2.1-4.3c0.7-1.1,0.7-1.6,0.7-3c0-1.8-0.2-2.6-1.8-3.7
				C168.3,222,163.5,220.5,162.4,219.4z"/>
			<path class="st5" d="M294.4,74c0.4-3-6-2.5-7.4-1.8c-1,0.4-2.1,1.1-2.8,2c-0.6,0.8-0.7,1.3-1.7,1.7c-0.9,0.3-3.3-0.3-4.1,0.6
				c-0.7,0.8-0.5,4.5-0.2,5.5c0.7,2.1,3,2.1,4.8,2.9c1.1,0.5,1.6,1.4,2.6,1.9c1.3,0.8,1.5,0,1.7,1.6c0.1,0.8,0,1.7-0.1,2.5
				c-0.5,2.8-1.2,5.3-1.1,8.3c0.1,2.8,1.7,5.1,2.3,7.7c0.3,1.3,0.3,2.5-0.4,3.7c-0.4,0.6-1.8,2.7-2.4,2.9c-0.8-0.3-1.1-2.8-1.3-3.7
				c-0.3-1.1-0.8-2.3-1.1-3.4c-0.3-1.5,1-2.8,0.6-4.3c-0.2-0.7-0.9-1-1.1-1.7c-0.2-0.8,0.1-2,0.1-2.9c-0.1-1.6-0.6-2.3-1.1-3.8
				c-0.4-1.4,0.3-2.4-0.8-3.7c-0.9-1-3.1-1.6-4.3-2.3c-0.4-0.2-1.9-0.9-2.1-1.3c-0.3-0.5,0-1.1,0-1.7c-0.2-1.3-0.6-2.2-0.6-3.7
				c0-1,0.1-2,0-2.9c-0.1-1.4-0.3-1.9-1.8-1.8c-2,0.1-4.2,2.4-4.8,4.3c-0.5,1.5,0.4,2.1-1.7,2.4c-1.4,0.2-3.5-0.7-4.9,0.1
				c-1.2,0.7-1.6,2.8-1.4,4.2c0.2,1.5,1.3,1.7,1.9,2.9c0.6,1.2,0.4,1.6,0.4,2.9c0.2,1.4,0.7,2.6,1.6,3.8c0.3,0.4,2.1,2.8,1.6,3.7
				c-0.8,1.3-3.2,0.4-4.3-0.1c-1.1-0.5-2.1-1.2-3.1-1.8c-1.4-0.8-1.8-0.4-3.1-0.1c-0.3,0.2-0.7,0.2-1,0.1c-0.8,0.3-1.7,0.9-2.5,1.1
				c-1.1,0.3-2.4,0.1-3.5,0.1c-1,0-3.5-0.5-4.4,0c-2.1,1.2,0.7,3.1,1.9,3.7c4.1,2,0.3,4.1-2.3,4.7c-1.3,0.3-2.3,0.7-3.8,0.8
				c-1.8,0-2.7-0.7-4.4-1.4c-3.3-1.3-5.7-1.2-8.9,0.3c-2.9,1.3-7.8,1.8-9.5,4.9c1,0.9,3.5,0.4,4.8,0.4c2.1,0,4-0.5,6.1-0.6
				c1.1-0.1,2.3-0.1,3.4,0c2.1,0.1,4,1.2,6.1,1.2c3,0.1,6-0.4,9-0.6c1.3-0.1,3.7-1.3,5-0.5c2.8,1.6-3,2.8-3.5,3
				c-2.3,0.8-4.9,2.2-7.4,2.3c-1.9,0.1-2.8-0.2-4.1,1.6c-1,1.4-0.9,2.9-3.2,2.6c-1.7-0.2-1.9-1.2-2.8-2.3c-0.4-0.6-1-1.2-1.7-1.4
				c-2.2-0.7-2.9,1.2-3.8,2.7c-1.1,1.9-1.8,3.3-4.1,3.9c-1.9,0.4-2.7,0.4-3.8-1.1c-0.3-0.4-0.6-0.8-0.9-1.2
				c-0.1-0.4-0.1-0.7-0.2-1.1c-1.5-0.8-3,2-3.8,2.9c-1.1,1.5-1.9,2.8-3.3,4.3c-1.4,1.4-2.8,2.2-4.9,3.3c-1.6,0.9-2.4,0.5-4,1.1
				c-1.8,0.6-3,2.2-4.7,2.9c-0.6,0.1-1.2,0.3-1.7,0.5c-0.7,0.6-0.7,1.9-1.1,2.8c-0.8,1.5-2.4,2.6-2.9,4.3c-0.4,1.6,0.1,3.2,0,4.9
				c-0.3,2.7-1.9,5.2-2.8,7.8c-1,3,1.4,2.5,4,3.7c1.3,0.8,2.8,1.4,4.4,1.8c1.4,0.2,2.8-0.1,4.4,0.2c2,0.4,2.3,1.1,3.5-0.8
				c0.6-1,1.2-1.9,2-2.8c1.9-1.8,4.7-2.7,6.8-4.4c1.8-1.4,3.5-1.5,5.4-3c1.3-1.1,3.5-2.8,3.4-4.8c-2.1-0.4-6.1,1.1-7.7-0.7
				c-1-1.2-2-3.1-1.2-4.3c1-1.4,4.5-2.1,6.1-1.6c1.7,0.5,4,2.4,5.4,3.5c1.2,0.9,2.2,2,2.5,3.5c0.3,1.3-0.4,2.9-0.1,4.3
				c0.1,0.5,0.5,0.6,0.7,1.1c0.1,0.5-0.3,1.4-0.1,1.9c0.5,1.1,2.4,0.5,3.5,0.5c4.6,0.2,1.8,5.1,5,6.7c1.7,0.8,3.1,1.9,4.8,3
				c1.5,1,2.2,1,4.2,1.3c0.8,0.2,2.9,0.5,3.7,1.2c0.6,0.6,0.4,1.1,1.3,1.5c1.4,0.7,3.2,0.4,4.8,0.8c1.7,0.5,1.2,0.9,2.1,2.1
				c0.7,1.1,1.8,1.8,2.6,2.7c1.5,1.6,1.3,3.1,1.3,5.3c0,1.7-0.3,3.1,1.3,4.3c2.2,1.5,4.8,0.6,7,1.9c1,0.6,1.5,1.2,2.5,1.7
				c1.6,0.8,3.2,0.9,5,1.4c3.4,1.1,3.4,3.5,5.3,6.3c1.1,1.7,2.8,2.6,3.8,4.6c0.4,0.7,2.4,3.3,1.8,4.3c-0.4,0.5-2.3,0.5-2.9,0.6
				c-1.8,0.4-3.4,1.1-5.3,1.7c-1.9,0.6-3.9,0.6-5.7,1.3c-1.5,0.6-3.2,1.3-4.7,2.1c-1.1,0.6-2.1,1.1-2.7,2.3c-0.9,2-0.8,4.3,1.5,4.9
				c2.4,0.7,3.9,1.4,3.7,4.2c-0.2,2.3-2.3,3.8-2.9,6c-0.4,1.3-0.5,4.1-0.2,5.4c0.4,1.8,2.1,1.6,3.7,0.9c4.2-1.9,3.5-7.8,7.2-10.3
				c0.3,1.3-0.6,3.1,0.7,4.2c1.2,0.8,4.3-0.6,5.3-1.3c1.5-1,3.3-2.5,4.4-4.1c1.3-2.1,2-5.6,4.1-7.1c1.4-1.1,2.8-0.8,4.4-0.8
				c2.2,0.1,2.6-0.4,3.7-2.2c1.8-3.2,3.1-6.3,1.8-9.8c-0.5-1.3-1-2.6-0.6-4.2c0.3-1.3,1.2-2.4,1.9-3.7c0.6-1.1,1.1-2.2,1.7-3.3
				c1.2-1.9,1.5-2.4,0.1-4.5c-2.2-3.3-7.1-3.4-8.7-7.3c-0.5-1.3-0.3-2.5-0.5-4c-0.2-0.9-1.2-3.2,0-4c1.8,1.4,2.9,3.4,5.1,4.7
				c2.1,1.2,4.2,1.3,6,3c1.5,1.5,2.5,3,3.5,4.8c0.7,1.3,0.7,1.2,2.5,1.2c2.1,0,4.1,0.2,6-0.6c1.3-0.5,2.5-1.1,3.9-1.8
				c1-0.6,1.9-1.1,2.9-1.7c0.6-0.3,2.7-0.9,2.8-1.8c-0.8-0.4-1.6-1-2.4-1.4c-1.2-0.6-1.9-0.4-3.1-0.5c-0.8-0.1-2.8-0.2-3.4-0.7
				c-0.9-0.8-0.4-1-0.7-2.2c-0.3-1.1-1-1.9-1.1-3c-0.1-0.8,0-1.7,0-2.4c0-1.5,0.1-3.1,0-4.7c0-1.2-0.6-2.4-0.6-3.7
				c1.4-0.8,4.1,1.5,4.9,2.4c1.2,1.5,2.3,3.8,4.1,4.8c0.7,0.4,0.4,1.1,1.2-0.1c0.5-0.7,0.1-3.3,0.1-4.2c0-1.7,0.1-3.2-0.6-4.8
				c-0.3-0.7-0.8-1-0.7-1.8c0.2-2,2.8-2.4,4.2-3.4c2.3-1.8,2.2-4.7,1.9-7.4c-0.3-3.1-3-3.3-4.4-5.7c-0.7-1.1-0.2-2-0.6-3.2
				c-0.4-1.1-1.9-1.3-2.3-2.3c-0.9-2.1,1.3-3.8,1.7-5.5c0.4-1.5-0.1-3.5,1.2-4.9c1.5-1.4,2.5,0,3.9,0.6c1.1,0.4,2.1,0.8,3.2,1.2
				c1.2,0.8,1.3,1.9,2.1,3c1.7,2.5,5.3,4.2,7.6,6.1c1.4,1.1,4.6,2.7,6.2,1c1.3-1.4-1.2-2.9-2.4-3.5c-1.3-0.6-3.8-0.1-4.4-1.7
				c-0.3-1,0.5-0.9-0.6-1.7c-0.8-0.6-1.9,0.2-2.8-0.6c-1.5-1.3-1.6-4.1-0.7-5.7c0.5-0.9,1-1.2,1.8-1.7c0.8-0.5,2.6-0.7,3-1.6
				c0.4-0.9,0.2-3.2,0.1-4.3c-0.2-1.5-0.8-2.8-1.4-4.2c-0.7-1.7-1.2-3.1-2.8-4.3c-2.4-1.7-3,0.4-3.8,2.3c-0.5,1.3-0.9,1.5-2.3,1.3
				c-1.3-0.1-1.5-0.4-2.4-1.2c-0.7-0.7-1-1.4-2.1-1.7c-2-0.6-2.5,0.3-3.8,1.7c-0.9,1.1-1.6,2.9-3.1,2.9s-3-1.5-4.7-1.7
				c-1.4-0.2-2.5,0.1-3.4,1.2c-0.9,1.1-1.7,2.9-3.1,3.5c-1.1,0.5-3.8,0.3-4.8,0c-0.5-1.3,0.3-2.5,1-3.5c0.5-0.8,1-1.6,1.5-2.4
				c0.4-0.5,2.6-2.1,2.4-3c-0.2-1.1-2.1-1.4-2.4-2.7c-0.1-1.5-0.2-3-0.3-4.6c-0.4-3.9-1-6.8-2.3-10.3c-0.4-1.2-1.2-2.8-1.5-4.1
				c-0.4-1.6,1.1-2.5,2.3-3.4c1.3-1,2.1-1.4,2.4-3.1c0.2-1.3,0.3-4.1-0.1-5.4c-0.3-0.5-0.6-1-0.9-1.5c-0.2-0.7-0.7-1.2-1.3-1.6
				c-0.6-0.5-0.7-1-0.2-1.6c0.4-1.1,1.6-0.9,1.2-2.4c-0.2-0.9-1.8-1.9-2.4-2.6c-1.6-1.6-3.4-4-6-3.5c-1.7,0.2-1.9,0.9-1.8,2.5
				c0.1,1.9-0.6,4.9,0,6.7c0.3,0.9,0.7,0.6,0.5,1.7C296.6,70.8,295.6,74.1,294.4,74z"/>
			<path class="st5" d="M199.1,116.3c-0.2,0-0.4,0-0.6,0c3-2.1,6.7-3.5,9.6-6c1.7-1.4,3-3.2,4.3-5c0.8-1,2.1-2.6,1.8-4.1
				c-0.6-2.9-5.4-0.1-6.8,0.6c-1.9,0.9-3.5,1.7-5.7,2.2c-2.8,0.7-6,1.4-7.7,4.1c-0.8,1.2-1.7,3.7-1,5.2c0.3,0.4,0.7,0.7,1.1,1.1
				c0.3,1.1-1.3,2.2-2.1,2.6C192,116.8,199.2,116.5,199.1,116.3z"/>
			<path class="st5" d="M225.1,165.7c0-0.2,0-0.3,0-0.5c-3.9-1.2-7.5,1.6-10.3,3.8c0.3,0.4,0.7,0.6,1.3,0.6c2.2,1,3.8,1.8,5.2,3.8
				c2,2.7,4.8,3.4,8.2,3.8c1.5,0.1,3,0.2,4.6,0.1c1,0.2,1,0.7,1.9,1.1c0.9,0.4,3.2,0.4,3.8-0.4c0.6-1.2-0.7-2.9-1.1-3.9
				c-1-1.9-1-2.1-3-2.8c-0.5,0.1-1-0.1-1.3-0.5c-0.6-0.4-0.7-1.4-1.3-1.7c-0.5-0.1-1.1-0.2-1.6-0.2
				C229.2,168.3,226.8,166.9,225.1,165.7z"/>
			<path class="st5" d="M184.7,178.4c0-0.2,0-0.3-0.1-0.5c-2.6-1-5.9,1.4-7.8,2.8c-1.6,1.2-2.8,2.7-4.3,4.3
				c-0.8,0.9-1.8,1.7-2.1,2.9c1.7,0.3,3.8,0,5.4,0c1.7,0,4.2,0.4,5.9,0.1c1.3-0.2,1.9-1,2.9-1.7c1.5-1.1,2.6-1,4.3-1.5
				c1.1-0.3,2.9-1.1,3.4-2.2C193.8,179.8,186.1,178.4,184.7,178.4z"/>
			<path class="st5" d="M370.5,94c0,3.4-0.5,7.2,0.4,10.6c1.3,4.4,3.9,7.8,7.7,10.5c3.4,2.6,7,5.1,10.9,7.1c1.7,1,3,2.4,4,4.3
				c0.6,1.4,1.6,2.4,3,3.1s4.7,1.3,5.9-0.1c-1.7-2.7-3.9-5.2-5.6-8c-1-1.5-1.7-3.1-2.2-5c-0.1-1.5-0.1-3,0-4.6c0-2,0-4.4-1.4-6
				s-2.7-2.9-4-4.8c-1.2-2-3-4.3-5.1-5.6c-1.6-1.1-3.7-1.2-5.5-1.5C376.6,93.7,372.6,93.9,370.5,94z"/>
			<path class="st5" d="M403,120.5c-0.4,2.7,2.1,6.7,4.5,7.9c1.5,0.8,3.4,1,5.1,1.8c0.6,0.3,1.2,1,1.8,1.1c0.7-1.7-0.2-4.3-0.6-5.9
				c-0.2-0.6-0.4-1.2-0.6-1.7c-0.6-1-1-0.8-1.7-1.4c-0.8-0.7-0.9-1.7-1.6-2.4c-0.8-0.4-1.6-0.7-2.4-1.1
				C406.7,118.3,403.9,120.6,403,120.5z"/>
			<path class="st5" d="M334.3,154.8c0-0.2,0.1-0.4,0.1-0.6c0.9,0.1,2.1,2.8,2.6,3.5c2,2.6,3.5,5.6,7.1,6.1c2.4,0.4,7.5,1,6.4-2.9
				c-0.6-2.1-2.5-2.9-4.4-3.7c-0.8-0.2-1.5-0.6-2.1-1.1c-0.7-0.9-0.3-1.6-1.4-2.3c-0.6-0.1-1.1-0.3-1.7-0.5
				c-0.5-0.3-0.9-0.7-1.1-1.2C338.1,150.4,336.5,155.1,334.3,154.8z"/>
			<path class="st5" d="M240.2,264.1c-2.5-3.2-7.5-0.2-9.7,1.6c-1.7,1.4-3.5,4.2-5.9,4.5c-3.1,0.3-6.6,0-9.7,0
				c-3.9,0-7.5,0.2-11.3,1.1c-3.2,0.8-5.9,2.7-9.1,3.7c-4.6,1.3-9.3,1.3-14,2.4c-3.9,0.9-7.5,1.9-10.7,4.3c-0.8,0.6-1.7,1.1-2.5,1.7
				c-0.9,0.7-1.4,2-2.4,2.6c0.5,1,2.8,1.3,3.7,1.7c1.4,0.7,3,1.8,3.5,3.4c0.4,1.3,0.2,3.7-0.5,4.8c-0.6,1-1.8,1.9-2.5,2.9
				c-0.8,1.1-0.9,1.1-2.2,1.6c-1,0.4-2.1,0.5-3,0.9c-1.6,0.6-3,1.7-4.9,1.9c-1.4,0.2-2.7-0.5-4.3-0.6c-1.1,0-2.2,0.2-3.2-0.1
				c-2.5-0.6-3.1-2.9-5.1-4.2c-1.8-1.2-5.8-0.7-7.3,0.8c-0.8,0.8-0.7,1.4-1.9,2.1c-2.3,1.5-6.3,2-9,2.4c-1.2,0.2-2.4,0-3.7,0.2
				c-1,0.2-2,0.6-2.9,0.9c-2.3,0.6-4.7,1.2-7,2c-1.1,0.4-2.2,0.7-2.6,1.9c-0.5,1.3,0.4,2.3,0.9,3.4c0.9,1.7,1.8,3.4,2.5,5.3
				c1.2,2.9,2.6,2.9,5.8,3.2c4.3,0.3,8.5,0,12.8,0.5c3.5,0.4,8.5,0.7,11.7-1c2.2-1.2,2.3-4.1,3.7-6.2c1.1-1.7,2.7-1.1,4.8-1.1
				c1.5,0,3.4-0.3,5,0.1c1.3,0.4,1.9,1.4,2.8,2.3c2.5,2.3,5.8,2.2,8.6,0.5c2.3-1.4,4.9-2.1,7.2-3.5c2.1-1.4,4.1-4,6.5-4.7
				c2.5-0.7,5.1,0.4,7.5,0.6c3.3,0.3,12.6-9,14.8-4.1c1.1,2.4-0.6,6.2,1.2,8.1c1.2,1.4,3.4,1.1,5.1,1.4c2.5,0.4,5,1.7,5.7,4.5
				c1.3,4.9-2.5,7.1-4.6,10.9c-1.4,2.5-2.1,4.7-4.3,6.8c-1.2,1.2-1.8,1.3-2.1,2.8c-0.5,3.4,0.8,5.7,3.1,8.1c1.2,1.2,2.6,2.1,4.1,3.1
				c0.9,0.7,1.6,1.7,2.5,2.4c1,0.8,2.2,1.2,3.5,1.2c1.1,0,2.2-0.5,2.9,0.6c0.7,1.1,0,4.1,0,5.4c0.1,1.9,0.3,4.3,2.5,4.8
				c1.2,0.3,2.7,0.1,4.1,0.1c0.7,0.1,1.5,0,2.2-0.1c0.7-0.3,1.4-0.6,2-1.1c0.3,0,0.5,0,0.8-0.1c2.1,2.6-0.3,7.3-1.3,9.8
				c-0.6,1.6-1.2,3,0.6,3.5c3.4,1,6.3-3.1,6.7-6c0.1-1.1-0.2-2.1,0.2-3.1c0.3-0.6,2-1.6,2.6-1.7c0.4,1.2,1.7,1.1,2.7,1.6
				c1.9,1.2,2.8,3.4,4.8,4.7c3.1,2,10.7,0.9,9.3-4.3c-0.7-2.5-3.3-3.8-4.7-5.9c-0.6-0.9-0.8-1.9-0.8-3c0.1-1.8,1.4-2.1,1.8-3.4
				c0.4-1.2-0.5-2.8,1.2-3c0.7,0.1,1.3,0.3,1.8,0.8c1.2,0.7,2.4,1.4,3.9,1.1c1.7-0.3,1.6-1.2,2.8-2.2c0.4-0.3,0.8-0.6,1.2-0.7
				c0.5-0.4,0.6-0.8,1.1-1.2c1.3-1,2.8-1.3,4.5-1.4c1.2,0,2.6,0.4,2.7-1.3c0.2-1.8-3.8-4-5.1-4.5c-1.6-0.6-5-0.7-5.7-2.8
				c-0.7-2.1,3.1-4.9,3.5-7.1c0.2-1,0.1-2.5,0-3.5c-2.8-0.6-6.2-1.6-8.6,0.6c-2.2,1.9-4,6.2-7.6,5.3c-0.2-1,0-2.7-0.7-3.4
				c-0.9-0.9-4.1-1.1-5.4-1.2c-1.4-0.2-3-0.5-3.7-1.8c-1-2.1,1.5-5.6,2.3-7.3c0.5-1,0.3-2.2,0.8-3.1c0.8-1.6,2.7-1.5,3.4,0.2
				c0.1,1.3,0.4,2.7,0.7,4.1c0.1,0.2,0.4,2.3,0.7,2.6c1,1.6,2.9,0,4-0.6c1.3-0.8,2.7-1.6,4.5-1.7c1.8-0.2,2.8,1.2,4.2,2.2
				c1,0.7,2,1.5,3.2,1.8c2.7,0.6,4.4,0,5.4,3.1c0.4,1.3,0.9,2.5,1.4,3.8c0.6,1.6,1.5,2.6,2.4,4.1c0.5,0.8,0.7,2.3,1.4,2.9
				c1.2,1,4.8-0.6,5.9-1.1c1-0.5,2.4-1.3,2.9-2.4c0.3-0.8,0.9-2.2,0.6-3c-0.3-0.4-0.7-0.8-1-1.1c-0.5-1.2,0.3-2.4,1-3.4
				c0.5-0.6,1-1.2,1.3-1.9c0.4-1.1,0-2.5,0.1-3.8c0-1.3,0.2-2.1-1.1-3c-1.7-1.2-3.2-0.1-4.9-0.7c-0.7-0.5-1.3-1.1-1.8-1.8
				c-1.2-1.1-2.1-1.1-3.5-1.6c-1.8-0.6-2.7-1.3-3.7-3c-0.6-1.2-0.8-2.4-0.7-3.8c0.1-1.7,1.2-3.7,0.5-5.3c-0.7-1.8-2.1-2.4-4-2.5
				c-1.8,0-3.2-0.3-5-0.7c-1.6-0.4-2.9-0.3-4.6,0.3c-0.8,0.3-1.5,0.6-2.2,1c-1.2,0.1-2.7-0.6-3.9-1.1c-3.1-1.3-1.1-3.3-2.6-5.6
				c-0.4-0.3-0.8-0.6-1.1-1c-0.5-0.9-0.2-2.4,0.6-3.1c2.1-0.1,2.9,2.4,4.2,3.8c1.3,1.3,3.8,3.8,5.8,3.5c1.1-0.1,2.1-0.5,3.2-0.5
				c2.4-0.1,4.7,0.1,7.1-0.6c1.6-0.5,2.7-0.4,4.4-0.6c2-0.2,1.6-2,0.8-3.7c-1.2-2.2-3.9-1.9-5.3-3.5c-0.9-1-1-2-2.1-2.9
				c-0.8-0.4-1.3-1-1.7-1.8c-0.4-0.7-0.5-1.5-0.5-2.3c0.1-0.6-0.1-1-0.7-1.1c-0.5-0.4-2.1-0.9-2.7-1.3c-0.7-0.5-1.5-0.9-2.3-1.2
				c-1.2-0.6-1.9-1.5-2.9-2.3c-1.5-1.1-3-1.3-4.6-2.5c-2.2-1.8-6.3-2.3-7.2-5.5c-0.3-1.1-0.4-1.8-0.9-2.8
				C244.9,264.8,240,265.7,240.2,264.1z"/>
			<path class="st5" d="M252.9,257.5c0.2,1.3,1.2,2,3.1,2c3.1,1.3,6.3,2.7,9.3,4.4c1.4,1.4,1.6,2.5,3.7,3.1c2.6,0.8,9.3,3.2,11.4,0
				c-1.2-1.3-3.3-2.3-4.9-3.3c-1.5-1-3-2.4-4.2-3.8c-0.8-0.9-0.8-1.8-1.5-2.6c-0.8-0.5-1.7-0.8-2.7-0.9c-2-0.3-2.4,0-4.1-1.1
				c-2.3-1.7-6.3-3.1-9.2-3.2c-0.9,0-2.6-0.3-3.4,0C249,252.4,251.3,256.6,252.9,257.5z"/>
			<path class="st5" d="M272.1,278.6c5,0,9.8-0.9,14,2.3c0.7,0.5,3.2,1.7,3.4,2.5c0.5,1.8-2.7,1.7-3.9,1.8c-2,0.1-4.4,0.2-6.3,0
				c-1.3-0.1-1.9-0.9-2.9-1.8C275.5,282.5,273.8,278.3,272.1,278.6z"/>
			<path class="st5" d="M383.7,385.3c-1.4-3.3-4.5-6.4-3.5-10.3c0.4-1.8,1.4-4,3.3-4.2c1.4-0.2,2.8,1.1,4.4,0.7c0.2-1-0.1-1.9,0-2.9
				c0.1-1.5,1.3-3.2,2.5-4.2c1-0.8,1.8-1.2,3-0.2c0.9,2.2,1.2,4.6,0.7,6.9c-0.3,1-0.4,2-0.1,3c1.5,1.7,4.7,0.6,6.6,0.4
				c2.6-0.2,4.2-2.8,6-4.4c2.3-2,5.1-1.3,7.5-2.8c1.3-0.8,1.9-2.2,2.6-3.5c0.8-1.4,1.8-2,3.1-3c1.5-1.1,1.9-1.2,3.5-0.9
				c2.7,0.6,5.5-0.3,7.7-1.9c2.5-1.7,4.4-4.3,6.7-6.2c0.5-0.5,2.9-3,3.8-2.5c0.2,1.4-0.7,2.9-1.2,4.2c-1.3,2.9-3,5.6-4.7,8.3
				c-0.7,1.2-1.1,2.5-1.9,3.7c-1.1,1.6-3,2.6-4.1,4.3c-0.4,0.7-0.5,1.5-0.8,2.3c-0.8,2.1-2.7,3.9-4.9,4.8c-2.1,1-4.7,1.7-7.1,1.9
				c-1.9,0.1-2.2,1.1-3.7,2.2c-2.5,2-4.9,4.2-7.4,6.2c-1.1,0.9-1.9,1.7-3.3,1.8c-1.1,0.1-2.4,0-3.7-0.1c-2.4,0-4.5,0.2-6.8,1
				C391.2,390.3,383.3,387.8,383.7,385.3z"/>
			<path class="st5" d="M371.7,384.1c-1.6-2.1-6.1,0.4-8.3,0c-0.7-2.1,1.4-4.6,0.3-6.5c-0.7-1.2-2.7-1.7-4.1-1.2
				c-1.9,0.7-3.8,4.4-4.9,6c-0.9,1.2-1.2,1.9-1.8,3.1c-0.4,0.9-0.8,2.3-1.6,2.9c-1.3,1-3.3,0.4-4.9,0.6c-3.4,0.5-4.6,2.2-6.8,4.6
				c-1.5,1.6-2.4,2.2-4.8,2.5c-2.9,0.4-5.5,1.7-8.5,1.8c-4.1,0.2-5-1.6-5.2-5.4c-0.2-2.8-1.8-2.3-4.2-2.5c-1.9-0.1-3.4-0.9-5.6-0.5
				c-5.9,1.2-10.5-1.2-15-5.2c-1-0.9-1-1.2-2.3-1.8c-0.8-0.3-1.7-0.6-2.5-0.9c-2.5-0.9-5.1-0.8-7.8-0.7c-0.8,0-1.6,0.1-2.4-0.1
				c-1.5-0.4-2.6-1.6-4.1-2.1c-2.5-0.9-5.2,0.8-6.9-1.4c-1.1-1.3-1.7-2.2-3.3-3c-1.3-0.7-2.2-0.6-3.8-0.6c-1.8,0-3.5-0.1-5.4,0.6
				c-1.9,0.8-2.8,2.7-4.8,3.5c-1.8,0.7-4.6,1.1-6.6,0.6c-1-0.2-2.6-1-3.8-0.4c-0.8,0.4-0.7,1.5-1,2.2c-0.2,0.5-0.7,0.7-0.8,1.3
				c-0.4,1.6,0,2.8-1.7,3.9c-1.4,0.8-2.3,1.3-3.8,0.5c-1.9-1.1-3.4-3.9-5.8-2.5c-1,0.6-1.8,2-2.5,2.9c-0.9,1.2-1.9,2.3-2.7,3.7
				c-1.8,2.8-3.1,5.8-4.1,9c-1.1,4.3-2,8.6-2.2,13c-0.1,2-1.3,3.3-2.4,4.9c-0.5,0.6-0.8,1.6-1.3,2.2c-0.6,0.7-1.7,0.9-2.2,1.9
				c-1.2,2.7,2.2,4.4,4.2,5.5c1.8,1.1,3.4,2.4,5.3,3.5c2,1.2,3.9,1.1,6.1,1.4c3.2,0.5,6.6,0.9,9.8-0.1c2.1-0.6,4.3-1.7,6.6-1.9
				c1.7-0.1,3.1,0.2,4.9-0.4c0.2-1.7-1.6-3-2.3-4.5c-0.9-1.6-1.5-3.3-1.2-5.3c0.2-1.3,1.1-2.4,1.7-3.5c1.4-2.5,0.4-1.8-1-3.8
				c-0.6-0.8-1.1-2.5-1.2-3.4c-0.3-2.2,1.1-3.9,2.3-5.7c1.4-2,4.5-5.5,7.3-5.4c1.2,1.7,1,4.8,1.7,6.8c0.5,1.5,1.1,3.3,1.9,4.8
				c0.4,0.6,1,1.3,1.5,1.9c0.2,0.4,0.4,0.7,0.7,0.9c0.8,0.5,2.6,0.1,3.5,0.1c2.2,0,4.6,0.3,6.6-0.5c1.7-0.7,1.9-2.1,3.2-2.9
				c1.6-1,3.8-1.4,5.4-2.4c2.1-1.2,5.3-4.2,7.8-3.9c1.2,9.9,17.6,2.2,23,1.8c2.4-0.2,7.1-1.7,9.4-0.4c1.8,1,1.3,2.8,1.3,4.6
				c0,1.8-0.4,2.6,1.2,3.4c1.9,1,4.9,1.3,5.9,3.1c0.9,1.7,0.7,3,0.7,5c0,2,0.4,4.2-1.2,5.8c-0.8,0.8-1.4,0.7-1.1,1.9
				c0.5,1.9,4.4,3.2,5.9,3.5c2.4,0.5,4.3,0,6.3-1.2c1-0.6,2-1.2,2.9-1.8c0.9-0.7,1.4-1.7,2.3-2.4c1.1-0.9,2.4-1.8,3.7-2.7
				c1.3-1,2.6-1.6,4.3-1.2c0.9,0.5,1.8,0.8,2.8,1c1.8,0.2,3.8,0.2,5.6,0.1c2.4,0,4.7,0.6,7.1,0.6c1.3,0,3.1,0.3,4.4-0.1
				c2.4-0.8,2.1-2.8,2.5-4.7c0.8-4.1,2.5-6.2,6-8.4c2.4-1.6,2.6-3.5,2.4-6.4c0-1.4-0.4-2.6-1.2-3.9c-0.6-0.9-2.2-1.6-2.7-2.4
				c-0.5-0.9,0.1-2.1,0.4-3.1c0.6-2.2,1.5-4.4,1.1-6.7c-0.2-1.1-1-2.6-1.8-3.3C376.4,383.2,372.8,385.6,371.7,384.1z"/>
			<path class="st5" d="M430.7,144c4.9-0.1,7.1,2.6,10.1,6c0.5,0.5,1.2,1.5,1.8,1.9c1.1,0.7,1.8,0.3,2.9,0.6
				c0.9,2.1-2.3,2.3-3.5,2.3c-0.7,0-1.7,0.2-2.4-0.1c-0.9-0.3-1.6-1.6-2.4-2.1c-0.8-0.7-1.6-2-2.5-2.5c-1.1-0.5-2.9,0-4.1-0.7
				C429,148.5,430.7,146,430.7,144z"/>
			<path class="st5" d="M433.2,351c1.4,0.1,3.4-2.2,4.5-2.9c3.1-2.1,6.6-4.5,8.9-7.5c1-1.3,1.8-2.6,2.9-3.9c0.7-0.7,1.4-1.4,2.2-2
				c0.5-0.7,0.3-1.1,0.9-1.9c1.6-2.2,4-3.1,5.2-5.8c1.1-2.4,4.4-2.4,6.8-3c3.7-0.9,4.8-2,6-5.3c-2.1-1.3-6.3-1.1-8.6-0.6
				c-2.4,0.5-4.1,2.9-6.5,3.8c-2.4,0.8-4.9-0.1-7.2,1.1c-2.2,1.1-4.2,2.8-5.5,5c-1.1,1.7-2.4,3.3-3.4,5.2c-0.8,1.4-0.9,2.6-1.4,4.1
				c-0.7,1.9-2.8,3.7-4.3,5.1c-1,1-2,2.1-2.4,3.7C430.8,346.7,433.2,349.5,433.2,351z"/>
			<path class="st5" d="M318,283.9c2.6,0,21.5-0.7,19.2,4.8c-1.2,0.5-2.5,0.5-3.9,0.8c-1.9,0.3-3.8,1.2-5.7,1.6
				c-1.7,0.4-4.4,0.4-6,0.1c-0.9-0.2-1-0.7-1.8-1.1c-0.6-0.3-1.2-0.1-1.8-0.5c-0.8-0.5-0.6-1-1-1.8C316.4,286.6,319,284.9,318,283.9
				z"/>
			<path class="st5" d="M228.7,244.8c1,1.5,1.9,3.1,2.8,4.7c1.1,1.7,2.6,4,2.8,6c-2.7,1.2-7.1-0.7-9.9-1.1c-0.1-1.5-1.2-1.8-1.9-2.9
				c-0.7-1-0.9-3-0.6-4.3c0.6-2.1,3.2-4,5.4-4.6C227.4,243.1,229.4,245,228.7,244.8z"/>
		</g>
		<path class="st3" d="M322.7,326.5c1.9,0.8,4.5-1.6,5.7-2.4c3.9-2.2,8.4-4.2,13-4.2c2.9,0,5.2,1.5,8,1.8c4.4,0.4,8.8-1.7,13.2-2.3
			c4.1-0.6,8.2,0.4,12.2-0.6c2.6-0.7,5.4-2,8-3c1.8-0.7,4.3-2.2,6.2-2.1c-1.4,4.6-6.6,7.7-9.6,11.1c-3.9,4.2-8.5,9.3-14.1,10.9
			c-3.4,0.9-6.9,1.2-10.4,1.8c-2,0.4-4.1,0.8-6.1,1.3c-1.2,0.4-2.2,0.2-3-0.6c-1.8,0.1-6.1,2.2-7.5,2.7c-4.4,1.5-9,3.7-13.6,4.4
			c-4.4,0.7-9,1.8-13.1-0.1c-1.8-0.9-6-1.1-3.3-3.9c1.8-1.8,5-2.3,7-3.9c1.5-1.1,1.3-0.8,1.2-2.7c0-0.9-0.3-2.2,0.1-3.1
			C316.9,330.3,322.3,327.7,322.7,326.5z"/>
		<path class="st3" d="M142.4,338c7,0.1,13.1,0.1,19.1,4.6c5,3.7,1.9,8.9,3.4,14s5.1,10.5,8.7,14.3c2.5,2.7,5.5,5,7,8.4
			c-3.1,1.9-8.8-1.2-11.7-2.5c-1.1-0.7-2.3-1.3-3.5-1.6c-1.9-0.4-3.2,0.5-4-1.8c0-1.5-0.1-3-0.2-4.6c-0.5-1.4-2.2-2.1-3.2-3.2
			c-2.3-2.7-2.4-6-3.9-9.1c-1.3-2.7-2.6-2.2-5.3-3.3c-1.3-0.6-2.4-1.4-3.4-2.4c-1.8-1.1-4.2-1.2-6.3-1.7c-3.7-1-6-2.9-8.8-5.1
			c0.1-1.7,2.6-1.3,3.8-1.6c1.8-0.5,3-1.5,5.1-1.4C139.3,339.1,142.5,339.4,142.4,338z"/>
	</g>
	<rect x="-18.4" y="30.2" class="st0" width="618.6" height="618.6"/>
	<path class="st6" d="M-28.7,478.8c1.8,0.5,2-0.2,3.8-0.7c3.8-1.9,7.5-3.9,11.3-5.9c11-5.3,21.6-11,32.1-17
		c7.9-5.3,16.7-9.1,25-13.8c9.1-5.2,17.4-6.3,27.3-8.6c9.7-2.2,19.8-3.9,29.6-5.2c5.2-0.7,9.6-1.9,14.8-1.3
		c3.1,0.4,10.5,0.1,13.3,2.4c1.5,1.3,1.3,2.9,2.3,4.6c1.5,2.5,4.3,4.1,6.5,5.8c2.4,1.8,5.2,5.1,8.1,6.1c1.3,0.1,2.6,0.2,4,0.3
		c2.1,0.7,4.3,1.4,6.3,2.4c4.7,1.7,8.2,3.9,12.4,6.7c2.6,1.8,4.9,4.1,7.7,5.6c2.6,1.4,4.9,2,7.1,4.2c1.7,1.6,1.9,2,3.9,3.1
		c2,1.1,4.7,1.4,6.6,2.5c1.7,1,2.5,2.6,4.3,3.7c2.1,1.3,5.1,1.3,7.4,2.1c3.4,1.2,6,2,9,4c2.8,1.7,5.8,3.7,8.6,5.2
		c2,1.1,2.6,1.4,4.4,2.8c2.5,2.1,4.5,3.1,8,3.7c7.8,1.2,15.1,0.5,22.3,4.1c3.4,1.7,7,1.7,10.5,2.8c1.9,0.6,3.1,1.8,4.9,2.6
		c1.8,0.8,3.2,0.7,5.2,0.9c1.5,0.1,3.9,1.1,5.1,1.1c2.7,0,5-2.4,7.2-4c4-2.6,7.7-4.7,12.2-6.3c2.4-0.9,4.9-1.5,7.4-2.1
		c5-1,9.6-2.7,14.5-4c8.7-2,17.3-4.7,26.1-6.4c6.6-1.3,9.9-5.3,15.7-8.1c6-2.9,13.5-2.9,19.7-5.6c5.2-2.2,10.3-6.7,14.9-10
		c5.8-4.3,11.8-4.8,19-4.9c8.3-0.1,16.3,0.2,24.3-2.8c3.4-1.3,6.8-3,9.9-4.8c5.2-2.8,11-4,16.8-4c2.9,0,5.3,0.5,8.2,1
		c3.9,0.6,7.1,0.1,10.9,1.6c9.4,4.1,17.1,11.7,27,15.2c4,1.4,8,1.4,12,2.6c3.4,1.1,5.4,3.3,8.4,5.1c2.9,1.6,6.2,1.1,9.1,2.6
		c3.5,1.9,6.6,5.3,10.2,7.3c8.9,5,19.2,2.1,28.7,4.1c8.2,1.6,12.9,9.1,20.9,11.7c5.5,1.7,11.1,1.4,16.6,2.5
		c3.7,0.7,7.1,2.3,10.6,3.2c7.1,1.9,14.5,2.5,21.8,3.4c3.4,0.4,3.7,2.1,3.9,5.9c0.5,9,0,18.3-0.1,27.3c-0.2,6.4-0.1,12.8,0.2,19.3
		c0.5,7.8,2.8,15.2,3.5,23c0.6,7.3-1.9,14.5-1,21.8c0.7,5.9,2.4,10.9,2.5,16.8c0.2,10.1-0.1,20.3-0.1,30.3c0,7.8,0.9,16.2-0.2,24
		c-0.8,5.4-2.9,10.3-3.7,15.7c-0.6,4.8-1.4,10-2.5,14.6c0.3,1,0,1.8-0.8,2.2c-0.5,0.5-16.8,1-16.2,1c-14,0.7-27.4-3.7-39.9-9.8
		c-4.7-2.8-9.5-5-14.8-6.4c-10.4-2.7-22.3-2.3-33-1.4c-15,1.3-30.3,2.3-45.2,5c-12.8,2.2-27.1,3-40.1,2.4c-7.7-0.7-15.3-1.5-23-2.5
		c-12.2-1.1-24.4-1.5-36.6-2.1c-7.6-0.3-15.1-0.9-22.7-1.6c-10.2-0.8-20.8-0.7-30.7-3.9c-7-2.2-12.7-4.3-20.1-5
		c-9.7-0.8-18.7-1.7-28.2-4.1c-7.4-2.3-15-4-22.8-4.9c-9.9-1.1-19.1-0.3-28.9,1c-5.7,1.2-11.3,1.5-17,0.9
		c-8.5-1.2-16.4-4.5-25.1-5.5c-7.7-0.4-15.5-1.1-23.2-2.1c-7.8-1.3-14.7-2.9-22.7-3.3c-16.3-0.8-33.2-0.6-49.5-0.3
		c-13.7,0.3-27.3,1.1-41,1.3c-15.3,0.1-30.6,1-45.9,1.3C21,661.7,12,663,3,662.9c-5.4,0-11-0.5-16.2,0.9c-0.7-1-0.8-2.1-0.1-3.4
		c-0.3-5-1-9.8-2.2-14.6c-2.2-10.6-5-21.2-6.8-32c-1-7.3-2.3-14.6-4-21.8c-1.6-6.1-2.8-12.3-3.8-18.5c-0.9-9.8,0.6-19.7-0.4-29.4
		c-0.8-8.2-2.3-16.2,0.5-24.1c1.4-2.8,2.5-5.8,3.3-8.8c0.3-3.2,0.8-6.5,1.5-9.7c1-5.1,0.6-10,1.5-15.1
		C-23.2,484.4-25.2,479.2-28.7,478.8z"/>
	<rect x="-18.4" y="30.2" class="st0" width="618.6" height="618.6"/>
	<path class="st7" d="M416.3,674.2c-1.2-1.4-2.5-2.6-3.9-3.8c-0.1-0.4-0.3-0.8-0.4-1.2c0.9,0.9,1.9,1.8,2.9,2.6c0.7,0.5,1.6-0.3,1-1
		c-1.9-2-3.8-4.1-5.7-6.1c-0.5-1.2-1.1-2.4-1.6-3.5c0.5,0.8,1,1.5,1.4,2.3c0.5,0.8,1.6,0.1,1.2-0.7c-1.8-4-4-7.5-6.7-10.9
		c1.2,1,2.4,2,3.8,2.8c0.6,0.4,1.2-0.5,0.7-0.9c-3.7-3.7-7.4-7.4-11.3-10.9c-0.1-0.1-0.2-0.1-0.3-0.1c-0.2-0.3-0.5-0.7-0.7-1
		c2.1,2,4.4,4.1,6.7,6c0.7,0.5,1.5-0.3,1-1c-1.2-1.5-2.6-2.9-4.1-4.3c1.6,0.6,3.3,1.1,5,1.5c0.7,0.2,1.2-0.9,0.5-1.2
		c-2-0.9-4.2-1.6-6.3-2.2l9.5-0.2c0-0.1,0-0.1-0.1-0.2c0.8,1.2,1.7,2.3,2.7,3.3c0.6,0.7,1.7-0.2,1.2-1c-3.2-4.9-6.2-9.8-8.4-15.2
		c-0.1-0.2-0.2-0.3-0.3-0.4c0-0.1-0.1-0.3-0.1-0.4c1.3,1.9,2.7,3.9,4.4,5.6c0.6,0.7,1.8-0.2,1.3-1c-2.1-3.7-4.6-7.3-6.9-10.9
		c0.6,0.3,1.5-0.4,1-1.1c-2.6-3.9-4.9-7.8-6.7-12.1c0.5,0.6,1,1.2,1.5,1.8c0.6,0.7,1.7-0.2,1.2-0.9c-1.7-2.7-3.3-5.7-4.7-8.6
		c2-0.6,4.2-1.2,6.2-1.8c0.5,0.6,1,1.2,1.6,1.7c0.7,0.7,1.9-0.2,1.4-1c-2-2.8-4-5.7-5.5-8.7c1.2,1,2.4,2,3.8,2.9
		c0.7,0.5,1.5-0.6,0.9-1.2c-2.3-2.2-4.5-4.6-6.6-7c0.4,0.4,0.7,0.8,1.1,1.2c0.6,0.6,1.4-0.3,0.9-0.9c-3.1-3.8-5.3-7.7-7-12.1
		c0.8,0.9,1.6,1.8,2.5,2.6c0.5,0.4,1.1-0.2,0.7-0.7c-2.6-3-5-6.4-7-9.8c-0.1-0.1-0.2-0.2-0.3-0.2c-0.3-0.7-0.6-1.5-0.9-2.2
		c-0.3,0.9-0.7,1.8-1.1,2.7c-1.2,1.1-2.1,2.9-3.1,4.2c-2,2.4-4.3,4.4-6.4,6.5c-0.7,0.7-0.1,2.1,0.7,1.6c0.8-0.5,1.5-1,2.2-1.6
		c-2.2,2.7-4.6,5.3-7.1,7.8c-0.6,0.6-0.1,1.8,0.6,1.3c1.6-1.1,3.1-2.4,4.7-3.9c-0.8,1.3-1.7,2.6-2.6,3.9c-2.9,2.6-6.1,5-9.3,7.3
		c-0.6,0.5-0.2,1.8,0.5,1.5c1.1-0.5,2.1-1.1,3.2-1.8c-1,1.1-2.1,2.3-3.1,3.3c-1.7,1-1.5,1.6-3.2,2.6c-0.6,0.4-0.1,1.5,0.4,1.3
		c0.1,0,0.2-0.1,0.3-0.1l8.4,0.6c-2.4,2.8-5,5.7-7.4,8.5c-0.4,0.4-0.1,1.1,0.3,1.3c-0.1,0.1-0.1,0.2-0.2,0.2
		c-0.6,0.7,0.3,1.7,1.1,1.1c0.6-0.5,1.3-1.1,2-1.6c-1.1,1.7-2.3,3.4-3.5,5.1c-0.6,0.9,0.3,2.1,1,1.3c0.4-0.4,0.8-0.9,1.1-1.3
		c-0.4,0.8-0.8,1.5-1.3,2.3c-2.4,3-5.2,5.7-8.1,7.9c-0.6,0.5-0.1,1.6,0.6,1.2c1.4-0.9,2.6-1.9,4-3c-1,1.6-1.9,3.3-3,4.9
		c-2.1,2.9-4.5,5.8-6.7,8.6c-0.6,0.8,0.2,2.2,1,1.6c0.3-0.3,0.6-0.5,0.9-0.8c3.2,0.5,6.6,0.9,9.8,1.4c-0.6,0.4-1.2,0.8-1.7,1.4
		c-0.7,0.7,0.2,1.7,1,1.4c0.8-0.3,1.6-0.7,2.4-1c-1.5,2.4-3.3,4.6-5.6,6.2c-0.4,0.3-0.1,1.3,0.4,1.1c1-0.5,1.9-1.2,2.7-1.9
		c-0.4,0.7-0.8,1.5-1.2,2.2c-2,2.5-4.2,4.9-6.6,6.8c-0.7,0.6-0.1,2,0.7,1.5c0.5-0.3,1-0.7,1.5-1c-0.4,0.6-0.7,1.1-1.1,1.7
		c-2.6,2.5-5.5,4.7-8.5,6.4c-0.7,0.4-0.2,1.7,0.5,1.5c0.5-0.2,0.9-0.3,1.3-0.5c-1.9,1.9-3.9,4-5.7,6.1c-0.6,0.7,0.2,2,0.9,1.4
		c0.9-0.8,1.8-1.6,2.7-2.4c-1,1.3-2,2.6-3,4c23.2-2.1,46.5,0.6,69.8,3.2c-0.2-0.6-0.4-1.2-0.6-1.8c0.5,0.3,0.9,0.7,1.4,1
		C416.1,676,416.8,674.9,416.3,674.2z"/>
	<rect x="-18.4" y="30.2" class="st0" width="618.6" height="618.6"/>
	<path class="st7" d="M486,684.9c-1.2-1.4-2.5-2.6-3.9-3.8c-0.1-0.4-0.3-0.8-0.4-1.2c0.9,0.9,1.9,1.8,2.9,2.6c0.7,0.5,1.6-0.3,1-1
		c-1.9-2-3.8-4.1-5.7-6.1c-0.5-1.2-1.1-2.4-1.6-3.5c0.5,0.8,1,1.5,1.4,2.3c0.5,0.8,1.6,0.1,1.2-0.7c-1.8-4-4-7.5-6.7-10.9
		c1.2,1,2.4,2,3.8,2.8c0.6,0.4,1.2-0.5,0.7-0.9c-3.7-3.7-7.4-7.4-11.3-10.9c-0.1-0.1-0.2-0.1-0.3-0.1c-0.2-0.3-0.5-0.7-0.7-1
		c2.1,2,4.4,4.1,6.7,6c0.7,0.5,1.5-0.3,1-1c-1.2-1.5-2.6-2.9-4.1-4.3c1.6,0.6,3.3,1.1,5,1.5c0.7,0.2,1.2-0.9,0.5-1.2
		c-2-0.9-4.2-1.6-6.3-2.2l9.5-0.2c0-0.1,0-0.1-0.1-0.2c0.8,1.2,1.7,2.3,2.7,3.3c0.6,0.7,1.7-0.2,1.2-1c-3.2-4.9-6.2-9.8-8.4-15.2
		c-0.1-0.2-0.2-0.3-0.3-0.4c0-0.1-0.1-0.3-0.1-0.4c1.3,1.9,2.7,3.9,4.4,5.6c0.6,0.7,1.8-0.2,1.3-1c-2.1-3.7-4.6-7.3-6.9-10.9
		c0.6,0.3,1.5-0.4,1-1.1c-2.6-3.9-4.9-7.8-6.7-12.1c0.5,0.6,1,1.2,1.5,1.8c0.6,0.7,1.7-0.2,1.2-0.9c-1.7-2.7-3.3-5.7-4.7-8.6
		c2-0.6,4.2-1.2,6.2-1.8c0.5,0.6,1,1.2,1.6,1.7c0.7,0.7,1.9-0.2,1.4-1c-2-2.8-4-5.7-5.5-8.7c1.2,1,2.4,2,3.8,2.9
		c0.7,0.5,1.5-0.6,0.9-1.2c-2.3-2.2-4.5-4.6-6.6-7c0.4,0.4,0.7,0.8,1.1,1.2c0.6,0.6,1.4-0.3,0.9-0.9c-3.1-3.8-5.3-7.7-7-12.1
		c0.8,0.9,1.6,1.8,2.5,2.6c0.5,0.4,1.1-0.2,0.7-0.7c-2.6-3-5-6.4-7-9.8c-0.1-0.1-0.2-0.2-0.3-0.2c-0.3-0.7-0.6-1.5-0.9-2.2
		c-0.3,0.9-0.7,1.8-1.1,2.7c-1.2,1.1-2.1,2.9-3.1,4.2c-2,2.4-4.3,4.4-6.4,6.5c-0.7,0.7-0.1,2.1,0.7,1.6c0.8-0.5,1.5-1,2.2-1.6
		c-2.2,2.7-4.6,5.3-7.1,7.8c-0.6,0.6-0.1,1.8,0.6,1.3c1.6-1.1,3.1-2.4,4.7-3.9c-0.8,1.3-1.7,2.6-2.6,3.9c-2.9,2.6-6.1,5-9.3,7.3
		c-0.6,0.5-0.2,1.8,0.5,1.5c1.1-0.5,2.1-1.1,3.2-1.8c-1,1.1-2.1,2.3-3.1,3.3c-1.7,1-1.5,1.6-3.2,2.6c-0.6,0.4-0.1,1.5,0.4,1.3
		c0.1,0,0.2-0.1,0.3-0.1l8.4,0.6c-2.4,2.8-5,5.7-7.4,8.5c-0.4,0.4-0.1,1.1,0.3,1.3c-0.1,0.1-0.1,0.2-0.2,0.2
		c-0.6,0.7,0.3,1.7,1.1,1.1c0.6-0.5,1.3-1.1,2-1.6c-1.1,1.7-2.3,3.4-3.5,5.1c-0.6,0.9,0.3,2.1,1,1.3c0.4-0.4,0.8-0.9,1.1-1.3
		c-0.4,0.8-0.8,1.5-1.3,2.3c-2.4,3-5.2,5.7-8.1,7.9c-0.6,0.5-0.1,1.6,0.6,1.2c1.4-0.9,2.6-1.9,4-3c-1,1.6-1.9,3.3-3,4.9
		c-2.1,2.9-4.5,5.8-6.7,8.6c-0.6,0.8,0.2,2.2,1,1.6c0.3-0.3,0.6-0.5,0.9-0.8c3.2,0.5,6.6,0.9,9.8,1.4c-0.6,0.4-1.2,0.8-1.7,1.4
		c-0.7,0.7,0.2,1.7,1,1.4s1.6-0.7,2.4-1c-1.5,2.4-3.3,4.6-5.6,6.2c-0.5,0.3-0.1,1.3,0.4,1.1c1-0.5,1.9-1.2,2.7-1.9
		c-0.4,0.7-0.8,1.5-1.2,2.2c-2,2.5-4.2,4.9-6.6,6.8c-0.7,0.6-0.1,2,0.7,1.5c0.5-0.3,1-0.7,1.5-1c-0.4,0.6-0.7,1.1-1.1,1.7
		c-2.6,2.5-5.5,4.7-8.5,6.4c-0.7,0.4-0.2,1.7,0.5,1.5c0.5-0.2,0.9-0.3,1.3-0.5c-1.9,1.9-3.9,4-5.7,6.1c-0.6,0.7,0.2,2,0.9,1.4
		c0.9-0.8,1.8-1.6,2.7-2.4c-1,1.3-2,2.6-3,4c23.2-2.1,46.5,0.6,69.8,3.2c-0.2-0.6-0.4-1.2-0.6-1.8c0.5,0.3,0.9,0.7,1.4,1
		C485.9,686.7,486.6,685.6,486,684.9z"/>
	<rect x="-18.4" y="30.2" class="st0" width="618.6" height="618.6"/>
	<path class="st7" d="M552,662.2c-1.2-1.4-2.5-2.6-3.9-3.8c-0.1-0.4-0.3-0.8-0.4-1.2c0.9,0.9,1.9,1.8,2.9,2.6c0.7,0.5,1.6-0.3,1-1
		c-1.9-2-3.8-4.1-5.7-6.1c-0.5-1.2-1.1-2.4-1.6-3.5c0.5,0.8,1,1.5,1.4,2.3c0.5,0.8,1.6,0.1,1.2-0.7c-1.8-4-4-7.5-6.7-10.9
		c1.2,1,2.4,2,3.8,2.8c0.6,0.4,1.2-0.5,0.7-0.9c-3.7-3.7-7.4-7.4-11.3-10.9c-0.1-0.1-0.2-0.1-0.3-0.1c-0.2-0.3-0.5-0.7-0.7-1
		c2.1,2,4.4,4.1,6.7,6c0.7,0.5,1.5-0.3,1-1c-1.2-1.5-2.6-2.9-4.1-4.3c1.6,0.6,3.3,1.1,5,1.5c0.7,0.2,1.2-0.9,0.5-1.2
		c-2-0.9-4.2-1.6-6.3-2.2l9.5-0.2c0-0.1,0-0.1-0.1-0.2c0.8,1.2,1.7,2.3,2.7,3.3c0.6,0.7,1.7-0.2,1.2-1c-3.2-4.9-6.2-9.8-8.4-15.2
		c-0.1-0.2-0.2-0.3-0.3-0.4c0-0.1-0.1-0.3-0.1-0.4c1.3,1.9,2.7,3.9,4.4,5.6c0.6,0.7,1.8-0.2,1.3-1c-2.1-3.7-4.6-7.3-6.9-10.9
		c0.6,0.3,1.5-0.4,1-1.1c-2.6-3.9-4.9-7.8-6.7-12.1c0.5,0.6,1,1.2,1.5,1.8c0.6,0.7,1.7-0.2,1.2-0.9c-1.7-2.7-3.3-5.7-4.7-8.6
		c2-0.6,4.2-1.2,6.2-1.8c0.5,0.6,1,1.2,1.6,1.7c0.7,0.7,1.9-0.2,1.4-1c-2-2.8-4-5.7-5.5-8.7c1.2,1,2.4,2,3.8,2.9
		c0.7,0.5,1.5-0.6,0.9-1.2c-2.3-2.2-4.5-4.6-6.6-7c0.4,0.4,0.7,0.8,1.1,1.2c0.6,0.6,1.4-0.3,0.9-0.9c-3.1-3.8-5.3-7.7-7-12.1
		c0.8,0.9,1.6,1.8,2.5,2.6c0.5,0.4,1.1-0.2,0.7-0.7c-2.6-3-5-6.4-7-9.8c-0.1-0.1-0.2-0.2-0.3-0.2c-0.3-0.7-0.6-1.5-0.9-2.2
		c-0.3,0.9-0.7,1.8-1.1,2.7c-1.2,1.1-2.1,2.9-3.1,4.2c-2,2.4-4.3,4.4-6.4,6.5c-0.7,0.7-0.1,2.1,0.7,1.6c0.8-0.5,1.5-1,2.2-1.6
		c-2.2,2.7-4.6,5.3-7.1,7.8c-0.6,0.6-0.1,1.8,0.6,1.3c1.6-1.1,3.1-2.4,4.7-3.9c-0.8,1.3-1.7,2.6-2.6,3.9c-2.9,2.6-6.1,5-9.3,7.3
		c-0.6,0.5-0.2,1.8,0.5,1.5c1.1-0.5,2.1-1.1,3.2-1.8c-1,1.1-2.1,2.3-3.1,3.3c-1.7,1-1.5,1.6-3.2,2.6c-0.6,0.4-0.1,1.5,0.4,1.3
		c0.1,0,0.2-0.1,0.3-0.1l8.4,0.6c-2.4,2.8-5,5.7-7.4,8.5c-0.4,0.4-0.1,1.1,0.3,1.3c-0.1,0.1-0.1,0.2-0.2,0.2
		c-0.6,0.7,0.3,1.7,1.1,1.1c0.6-0.5,1.3-1.1,2-1.6c-1.1,1.7-2.3,3.4-3.5,5.1c-0.6,0.9,0.3,2.1,1,1.3c0.4-0.4,0.8-0.9,1.1-1.3
		c-0.4,0.8-0.8,1.5-1.3,2.3c-2.4,3-5.2,5.7-8.1,7.9c-0.6,0.5-0.1,1.6,0.6,1.2c1.4-0.9,2.6-1.9,4-3c-1,1.6-1.9,3.3-3,4.9
		c-2.1,2.9-4.5,5.8-6.7,8.6c-0.6,0.8,0.2,2.2,1,1.6c0.3-0.3,0.6-0.5,0.9-0.8c3.2,0.5,6.6,0.9,9.8,1.4c-0.6,0.4-1.2,0.8-1.7,1.4
		c-0.7,0.7,0.2,1.7,1,1.4c0.8-0.3,1.6-0.7,2.4-1c-1.5,2.4-3.3,4.6-5.6,6.2c-0.5,0.3-0.1,1.3,0.4,1.1c1-0.5,1.9-1.2,2.7-1.9
		c-0.4,0.7-0.8,1.5-1.2,2.2c-2,2.5-4.2,4.9-6.6,6.8c-0.7,0.6-0.1,2,0.7,1.5c0.5-0.3,1-0.7,1.5-1c-0.4,0.6-0.7,1.1-1.1,1.7
		c-2.6,2.5-5.5,4.7-8.5,6.4c-0.7,0.4-0.2,1.7,0.5,1.5c0.5-0.2,0.9-0.3,1.3-0.5c-1.9,1.9-3.9,4-5.7,6.1c-0.6,0.7,0.2,2,0.9,1.4
		c0.9-0.8,1.8-1.6,2.7-2.4c-1,1.3-2,2.6-3,4c23.2-2.1,46.5,0.6,69.8,3.2c-0.2-0.6-0.4-1.2-0.6-1.8c0.5,0.3,0.9,0.7,1.4,1
		C551.8,664,552.5,662.9,552,662.2z"/>
	<rect x="-18.4" y="30.2" class="st0" width="618.6" height="618.6"/>
	<path class="st7" d="M625.4,674.2c-1.2-1.4-2.5-2.6-3.9-3.8c-0.1-0.4-0.3-0.8-0.4-1.2c0.9,0.9,1.9,1.8,2.9,2.6c0.7,0.5,1.6-0.3,1-1
		c-1.9-2-3.8-4.1-5.7-6.1c-0.5-1.2-1.1-2.4-1.6-3.5c0.5,0.8,1,1.5,1.4,2.3c0.5,0.8,1.6,0.1,1.2-0.7c-1.8-4-4-7.5-6.7-10.9
		c1.2,1,2.4,2,3.8,2.8c0.6,0.4,1.2-0.5,0.7-0.9c-3.7-3.7-7.4-7.4-11.3-10.9c-0.1-0.1-0.2-0.1-0.3-0.1c-0.2-0.3-0.5-0.7-0.7-1
		c2.1,2,4.4,4.1,6.7,6c0.7,0.5,1.5-0.3,1-1c-1.2-1.5-2.6-2.9-4.1-4.3c1.6,0.6,3.3,1.1,5,1.5c0.7,0.2,1.2-0.9,0.5-1.2
		c-2-0.9-4.2-1.6-6.3-2.2l9.5-0.2c0-0.1,0-0.1-0.1-0.2c0.8,1.2,1.7,2.3,2.7,3.3c0.6,0.7,1.7-0.2,1.2-1c-3.2-4.9-6.2-9.8-8.4-15.2
		c-0.1-0.2-0.2-0.3-0.3-0.4c0-0.1-0.1-0.3-0.1-0.4c1.3,1.9,2.7,3.9,4.4,5.6c0.6,0.7,1.8-0.2,1.3-1c-2.1-3.7-4.6-7.3-6.9-10.9
		c0.6,0.3,1.5-0.4,1-1.1c-2.6-3.9-4.9-7.8-6.7-12.1c0.5,0.6,1,1.2,1.5,1.8c0.6,0.7,1.7-0.2,1.2-0.9c-1.7-2.7-3.3-5.7-4.7-8.6
		c2-0.6,4.2-1.2,6.2-1.8c0.5,0.6,1,1.2,1.6,1.7c0.7,0.7,1.9-0.2,1.4-1c-2-2.8-4-5.7-5.5-8.7c1.2,1,2.4,2,3.8,2.9
		c0.7,0.5,1.5-0.6,0.9-1.2c-2.3-2.2-4.5-4.6-6.6-7c0.4,0.4,0.7,0.8,1.1,1.2c0.6,0.6,1.4-0.3,0.9-0.9c-3.1-3.8-5.3-7.7-7-12.1
		c0.8,0.9,1.6,1.8,2.5,2.6c0.5,0.4,1.1-0.2,0.7-0.7c-2.6-3-5-6.4-7-9.8c-0.1-0.1-0.2-0.2-0.3-0.2c-0.3-0.7-0.6-1.5-0.9-2.2
		c-0.3,0.9-0.7,1.8-1.1,2.7c-1.2,1.1-2.1,2.9-3.1,4.2c-2,2.4-4.3,4.4-6.4,6.5c-0.7,0.7-0.1,2.1,0.7,1.6c0.8-0.5,1.5-1,2.2-1.6
		c-2.2,2.7-4.6,5.3-7.1,7.8c-0.6,0.6-0.1,1.8,0.6,1.3c1.6-1.1,3.1-2.4,4.7-3.9c-0.8,1.3-1.7,2.6-2.6,3.9c-2.9,2.6-6.1,5-9.3,7.3
		c-0.6,0.5-0.2,1.8,0.5,1.5c1.1-0.5,2.1-1.1,3.2-1.8c-1,1.1-2.1,2.3-3.1,3.3c-1.7,1-1.5,1.6-3.2,2.6c-0.6,0.4-0.1,1.5,0.4,1.3
		c0.1,0,0.2-0.1,0.3-0.1l8.4,0.6c-2.4,2.8-5,5.7-7.4,8.5c-0.4,0.4-0.1,1.1,0.3,1.3c-0.1,0.1-0.1,0.2-0.2,0.2
		c-0.6,0.7,0.3,1.7,1.1,1.1c0.6-0.5,1.3-1.1,2-1.6c-1.1,1.7-2.3,3.4-3.5,5.1c-0.6,0.9,0.3,2.1,1,1.3c0.4-0.4,0.8-0.9,1.1-1.3
		c-0.4,0.8-0.8,1.5-1.3,2.3c-2.4,3-5.2,5.7-8.1,7.9c-0.6,0.5-0.1,1.6,0.6,1.2c1.4-0.9,2.6-1.9,4-3c-1,1.6-1.9,3.3-3,4.9
		c-2.1,2.9-4.5,5.8-6.7,8.6c-0.6,0.8,0.2,2.2,1,1.6c0.3-0.3,0.6-0.5,0.9-0.8c3.2,0.5,6.6,0.9,9.8,1.4c-0.6,0.4-1.2,0.8-1.7,1.4
		c-0.7,0.7,0.2,1.7,1,1.4c0.8-0.3,1.6-0.7,2.4-1c-1.5,2.4-3.3,4.6-5.6,6.2c-0.4,0.3-0.1,1.3,0.4,1.1c1-0.5,1.9-1.2,2.7-1.9
		c-0.4,0.7-0.8,1.5-1.2,2.2c-2,2.5-4.2,4.9-6.6,6.8c-0.7,0.6-0.1,2,0.7,1.5c0.5-0.3,1-0.7,1.5-1c-0.4,0.6-0.7,1.1-1.1,1.7
		c-2.6,2.5-5.5,4.7-8.5,6.4c-0.7,0.4-0.2,1.7,0.5,1.5c0.5-0.2,0.9-0.3,1.3-0.5c-1.9,1.9-3.9,4-5.7,6.1c-0.6,0.7,0.2,2,0.9,1.4
		c0.9-0.8,1.8-1.6,2.7-2.4c-1,1.3-2,2.6-3,4c23.2-2.1,46.5,0.6,69.8,3.2c-0.2-0.6-0.4-1.2-0.6-1.8c0.5,0.3,0.9,0.7,1.4,1
		C625.2,676,625.9,674.9,625.4,674.2z"/>
	<rect x="-18.4" y="30.2" class="st0" width="618.6" height="618.6"/>
	<path class="st7" d="M357.9,676.6c-1.2-1.4-2.5-2.6-3.9-3.8c-0.1-0.4-0.3-0.8-0.4-1.2c0.9,0.9,1.9,1.8,2.9,2.6c0.7,0.5,1.6-0.3,1-1
		c-1.9-2-3.8-4.1-5.7-6.1c-0.5-1.2-1.1-2.4-1.6-3.5c0.5,0.8,1,1.5,1.4,2.3c0.5,0.8,1.6,0.1,1.2-0.7c-1.8-4-4-7.5-6.7-10.9
		c1.2,1,2.4,2,3.8,2.8c0.6,0.4,1.2-0.5,0.7-0.9c-3.7-3.7-7.4-7.4-11.3-10.9c-0.1-0.1-0.2-0.1-0.3-0.1c-0.2-0.3-0.5-0.7-0.7-1
		c2.1,2,4.4,4.1,6.7,6c0.7,0.5,1.5-0.3,1-1c-1.2-1.5-2.6-2.9-4.1-4.3c1.6,0.6,3.3,1.1,5,1.5c0.7,0.2,1.2-0.9,0.5-1.2
		c-2-0.9-4.2-1.6-6.3-2.2l9.5-0.2c0-0.1,0-0.1-0.1-0.2c0.8,1.2,1.7,2.3,2.7,3.3c0.6,0.7,1.7-0.2,1.2-1c-3.2-4.9-6.2-9.8-8.4-15.2
		c-0.1-0.2-0.2-0.3-0.3-0.4c0-0.1-0.1-0.3-0.1-0.4c1.3,1.9,2.7,3.9,4.4,5.6c0.6,0.7,1.8-0.2,1.3-1c-2.1-3.7-4.6-7.3-6.9-10.9
		c0.6,0.3,1.5-0.4,1-1.1c-2.6-3.9-4.9-7.8-6.7-12.1c0.5,0.6,1,1.2,1.5,1.8c0.6,0.7,1.7-0.2,1.2-0.9c-1.7-2.7-3.3-5.7-4.7-8.6
		c2-0.6,4.2-1.2,6.2-1.8c0.5,0.6,1,1.2,1.6,1.7c0.7,0.7,1.9-0.2,1.4-1c-2-2.8-4-5.7-5.5-8.7c1.2,1,2.4,2,3.8,2.9
		c0.7,0.5,1.5-0.6,0.9-1.2c-2.3-2.2-4.5-4.6-6.6-7c0.4,0.4,0.7,0.8,1.1,1.2c0.6,0.6,1.4-0.3,0.9-0.9c-3.1-3.8-5.3-7.7-7-12.1
		c0.8,0.9,1.6,1.8,2.5,2.6c0.5,0.4,1.1-0.2,0.7-0.7c-2.6-3-5-6.4-7-9.8c-0.1-0.1-0.2-0.2-0.3-0.2c-0.3-0.7-0.6-1.5-0.9-2.2
		c-0.3,0.9-0.7,1.8-1.1,2.7c-1.2,1.1-2.1,2.9-3.1,4.2c-2,2.4-4.3,4.4-6.4,6.5c-0.7,0.7-0.1,2.1,0.7,1.6c0.8-0.5,1.5-1,2.2-1.6
		c-2.2,2.7-4.6,5.3-7.1,7.8c-0.6,0.6-0.1,1.8,0.6,1.3c1.6-1.1,3.1-2.4,4.7-3.9c-0.8,1.3-1.7,2.6-2.6,3.9c-2.9,2.6-6.1,5-9.3,7.3
		c-0.6,0.5-0.2,1.8,0.5,1.5c1.1-0.5,2.1-1.1,3.2-1.8c-1,1.1-2.1,2.3-3.1,3.3c-1.7,1-1.5,1.6-3.2,2.6c-0.6,0.4-0.1,1.5,0.4,1.3
		c0.1,0,0.2-0.1,0.3-0.1l8.4,0.6c-2.4,2.8-5,5.7-7.4,8.5c-0.4,0.4-0.1,1.1,0.3,1.3c-0.1,0.1-0.1,0.2-0.2,0.2
		c-0.6,0.7,0.3,1.7,1.1,1.1c0.6-0.5,1.3-1.1,2-1.6c-1.1,1.7-2.3,3.4-3.5,5.1c-0.6,0.9,0.3,2.1,1,1.3c0.4-0.4,0.8-0.9,1.1-1.3
		c-0.4,0.8-0.8,1.5-1.3,2.3c-2.4,3-5.2,5.7-8.1,7.9c-0.6,0.5-0.1,1.6,0.6,1.2c1.4-0.9,2.6-1.9,4-3c-1,1.6-1.9,3.3-3,4.9
		c-2.1,2.9-4.5,5.8-6.7,8.6c-0.6,0.8,0.2,2.2,1,1.6c0.3-0.3,0.6-0.5,0.9-0.8c3.2,0.5,6.6,0.9,9.8,1.4c-0.6,0.4-1.2,0.8-1.7,1.4
		c-0.7,0.7,0.2,1.7,1,1.4c0.8-0.3,1.6-0.7,2.4-1c-1.5,2.4-3.3,4.6-5.6,6.2c-0.4,0.3-0.1,1.3,0.4,1.1c1-0.5,1.9-1.2,2.7-1.9
		c-0.4,0.7-0.8,1.5-1.2,2.2c-2,2.5-4.2,4.9-6.6,6.8c-0.7,0.6-0.1,2,0.7,1.5c0.5-0.3,1-0.7,1.5-1c-0.4,0.6-0.7,1.1-1.1,1.7
		c-2.6,2.5-5.5,4.7-8.5,6.4c-0.7,0.4-0.2,1.7,0.5,1.5c0.5-0.2,0.9-0.3,1.3-0.5c-1.9,1.9-3.9,4-5.7,6.1c-0.6,0.7,0.2,2,0.9,1.4
		c0.9-0.8,1.8-1.6,2.7-2.4c-1,1.3-2,2.6-3,4c23.2-2.1,46.5,0.6,69.8,3.2c-0.2-0.6-0.4-1.2-0.6-1.8c0.5,0.3,0.9,0.7,1.4,1
		C357.8,678.3,358.5,677.2,357.9,676.6z"/>
	<rect x="-18.4" y="30.2" class="st0" width="618.6" height="618.6"/>
	<path class="st7" d="M308.6,701.8c-1.2-1.4-2.5-2.6-3.9-3.8c-0.1-0.4-0.3-0.8-0.4-1.2c0.9,0.9,1.9,1.8,2.9,2.6c0.7,0.5,1.6-0.3,1-1
		c-1.9-2-3.8-4.1-5.7-6.1c-0.5-1.2-1.1-2.4-1.6-3.5c0.5,0.8,1,1.5,1.4,2.3c0.5,0.8,1.6,0.1,1.2-0.7c-1.8-4-4-7.5-6.7-10.9
		c1.2,1,2.4,2,3.8,2.8c0.6,0.4,1.2-0.5,0.7-0.9c-3.7-3.7-7.4-7.4-11.3-10.9c-0.1-0.1-0.2-0.1-0.3-0.1c-0.2-0.3-0.5-0.7-0.7-1
		c2.1,2,4.4,4.1,6.7,6c0.7,0.5,1.5-0.3,1-1c-1.2-1.5-2.6-2.9-4.1-4.3c1.6,0.6,3.3,1.1,5,1.5c0.7,0.2,1.2-0.9,0.5-1.2
		c-2-0.9-4.2-1.6-6.3-2.2l9.5-0.2c0-0.1,0-0.1-0.1-0.2c0.8,1.2,1.7,2.3,2.7,3.3c0.6,0.7,1.7-0.2,1.2-1c-3.2-4.9-6.2-9.8-8.4-15.2
		c-0.1-0.2-0.2-0.3-0.3-0.4c0-0.1-0.1-0.3-0.1-0.4c1.3,1.9,2.7,3.9,4.4,5.6c0.6,0.7,1.8-0.2,1.3-1c-2.1-3.7-4.6-7.3-6.9-10.9
		c0.6,0.3,1.5-0.4,1-1.1c-2.6-3.9-4.9-7.8-6.7-12.1c0.5,0.6,1,1.2,1.5,1.8c0.6,0.7,1.7-0.2,1.2-0.9c-1.7-2.7-3.3-5.7-4.7-8.6
		c2-0.6,4.2-1.2,6.2-1.8c0.5,0.6,1,1.2,1.6,1.7c0.7,0.7,1.9-0.2,1.4-1c-2-2.8-4-5.7-5.5-8.7c1.2,1,2.4,2,3.8,2.9
		c0.7,0.5,1.5-0.6,0.9-1.2c-2.3-2.2-4.5-4.6-6.6-7c0.4,0.4,0.7,0.8,1.1,1.2c0.6,0.6,1.4-0.3,0.9-0.9c-3.1-3.8-5.3-7.7-7-12.1
		c0.8,0.9,1.6,1.8,2.5,2.6c0.5,0.4,1.1-0.2,0.7-0.7c-2.6-3-5-6.4-7-9.8c-0.1-0.1-0.2-0.2-0.3-0.2c-0.3-0.7-0.6-1.5-0.9-2.2
		c-0.3,0.9-0.7,1.8-1.1,2.7c-1.2,1.1-2.1,2.9-3.1,4.2c-2,2.4-4.3,4.4-6.4,6.5c-0.7,0.7-0.1,2.1,0.7,1.6c0.8-0.5,1.5-1,2.2-1.6
		c-2.2,2.7-4.6,5.3-7.1,7.8c-0.6,0.6-0.1,1.8,0.6,1.3c1.6-1.1,3.1-2.4,4.7-3.9c-0.8,1.3-1.7,2.6-2.6,3.9c-2.9,2.6-6.1,5-9.3,7.3
		c-0.6,0.5-0.2,1.8,0.5,1.5c1.1-0.5,2.1-1.1,3.2-1.8c-1,1.1-2.1,2.3-3.1,3.3c-1.7,1-1.5,1.6-3.2,2.6c-0.6,0.4-0.1,1.5,0.4,1.3
		c0.1,0,0.2-0.1,0.3-0.1l8.4,0.6c-2.4,2.8-5,5.7-7.4,8.5c-0.4,0.4-0.1,1.1,0.3,1.3c-0.1,0.1-0.1,0.2-0.2,0.2
		c-0.6,0.7,0.3,1.7,1.1,1.1c0.6-0.5,1.3-1.1,2-1.6c-1.1,1.7-2.3,3.4-3.5,5.1c-0.6,0.9,0.3,2.1,1,1.3c0.4-0.4,0.8-0.9,1.1-1.3
		c-0.4,0.8-0.8,1.5-1.3,2.3c-2.4,3-5.2,5.7-8.1,7.9c-0.6,0.5-0.1,1.6,0.6,1.2c1.4-0.9,2.6-1.9,4-3c-1,1.6-1.9,3.3-3,4.9
		c-2.1,2.9-4.5,5.8-6.7,8.6c-0.6,0.8,0.2,2.2,1,1.6c0.3-0.3,0.6-0.5,0.9-0.8c3.2,0.5,6.6,0.9,9.8,1.4c-0.6,0.4-1.2,0.8-1.7,1.4
		c-0.7,0.7,0.2,1.7,1,1.4s1.6-0.7,2.4-1c-1.5,2.4-3.3,4.6-5.6,6.2c-0.4,0.3-0.1,1.3,0.4,1.1c1-0.5,1.9-1.2,2.7-1.9
		c-0.4,0.7-0.8,1.5-1.2,2.2c-2,2.5-4.2,4.9-6.6,6.8c-0.7,0.6-0.1,2,0.7,1.5c0.5-0.3,1-0.7,1.5-1c-0.4,0.6-0.7,1.1-1.1,1.7
		c-2.6,2.5-5.5,4.7-8.5,6.4c-0.7,0.4-0.2,1.7,0.5,1.5c0.5-0.2,0.9-0.3,1.3-0.5c-1.9,1.9-3.9,4-5.7,6.1c-0.6,0.7,0.2,2,0.9,1.4
		c0.9-0.8,1.8-1.6,2.7-2.4c-1,1.3-2,2.6-3,4c23.2-2.1,46.5,0.6,69.8,3.2c-0.2-0.6-0.4-1.2-0.6-1.8c0.5,0.3,0.9,0.7,1.4,1
		C308.5,703.6,309.2,702.4,308.6,701.8z"/>
	<rect x="-18.4" y="30.2" class="st0" width="618.6" height="618.6"/>
	<g class="st1">
		<path class="st8" d="M-55.9,517.3c-0.6-0.8-1.1-1.4-1.2-1.7C-57.3,516.4-56.8,517-55.9,517.3z"/>
		<path class="st8" d="M393.6,539.1c-2-0.5-4.6,0.3-6.7-0.1c-2-0.4-4.7-1.1-6.6-2c-4.1-1.8-8-3.4-11.9-5.7c-3.9-2.3-7.8-2.9-12.2-4
			c-4.8-1.1-8.5-1.8-13.6-1.9c-12.3-0.3-23.9-3.1-36.2-3.8c-15.6-0.8-31,0-46.5-2.2c-5.4-0.4-10.5-1.7-15.3-4.1
			c-1.7-0.8-3.3-1.5-5.1-2.3c-8-2.8-17.4-2.3-25.8-2.3c-23.5-0.1-47.1,0.9-70.6,1c-12.2,0-24.1,1.2-36.3,2.2
			c-19.9,1.6-39.7,2.9-59.6,2.8c-29.2-0.1-58.7-3.1-87.8-0.1c-0.5,0-11.7,2.2-15.4,0.7c3.1,4.1,11.8,13.6,12.3,15c0.2,1,0.3,2,0.1,3
			c0.1,3.5,0,7,0,10.5c0,9.8-0.3,19.3,1.8,28.9c1.3,5.9,3.3,11.8,3.9,17.7c0.2,4.4,0.2,8.6,0,13c0,9.7,0.3,19,2.5,28.4
			c2.1,6.7,3.9,13.5,5.2,20.4c0.8,4.3,0.8,11.2,2.7,15.2c-0.1,0.9,0.3,1.5,1.1,1.6c1.2,0.7,5.5,0.7,7,0.8c3.9,0.3,7.4,1.3,11.2,1.8
			c3.4,0.3,6.9,0.3,10.4,0.2c7.9-0.1,15.5-0.2,23.4-0.8c15.9-1.1,31.7-0.8,47.7-1.1c7.1-0.1,13.9-3,21-3c6.4-0.1,12.4-1,18.7-1.9
			c8.3-1.3,16.6-0.9,25-0.9c4.8,0,9.6-0.4,14.4-0.1c1.5,0.1,2.9,0.4,4.4,0.9c1.9,0,3.9-0.5,5.6-1.5c3.4-1.3,7-3,10.6-4.2
			c0.2,0.1,0.3,0.2,0.5,0.4c1.7,1.6,1.9,3.3,4.6,4c3,0.7,6.8,0,9.8,0.2c6.8,0.6,14,1.3,20.9,0.6c5.3-0.6,10-2.9,15.2-3.8
			c3.5-0.5,6.5-0.7,9.9-1.7c4.3-1.2,9.6-0.9,13.6-2.8c1.7-0.8,3.3-2.2,5-3.1c2-1.2,4.1-2.2,6.1-3.7c2.5-1.8,3.7-3.8,5.4-6.3
			c2.5-3.8,1.3-7.8,3.7-11.6c2.4-4,6.4-6.4,9.9-9.2c3.1-2.6,6.7-4.6,9.8-7.1c2.6-2.1,5.1-4.5,7.7-6.7c2.2-1.8,4.3-3.8,5.7-6.4
			c1.4-2.6,1.2-5.4,2.3-8c1-2.4,2.9-5.5,5-7.8c0.2,0,0.4-0.1,0.6-0.1c8.7-1.8,16.5-6,25.4-7.4c3.4-0.6,6.5,0.1,9.9-1.1
			c3.8-1.4,7.8-1.4,11.5-2.9c3.7-1.5,6.4-4.3,10-5.7c2.1-0.8,6-2.8,6.8-5.1c1-2.6-0.6-6.1,0.6-8.9c1-2.4,2.6-4.7,5.1-5.9
			c2.7-1.4,5.8-1.4,8.4-3.1c2.3-1.5,3.8-2.1,6.4-2.9C395.9,543.8,397.3,540.1,393.6,539.1z"/>
	</g>
	<rect x="-18.4" y="30.2" class="st0" width="618.6" height="618.6"/>
	<path class="st7" d="M380.3,672.8c-1-1.2-2.1-2.1-3.2-3.1c-0.1-0.3-0.2-0.7-0.4-1c0.8,0.7,1.6,1.5,2.4,2.2c0.5,0.5,1.3-0.3,0.8-0.8
		c-1.5-1.7-3.1-3.3-4.8-5c-0.4-1-0.9-2-1.3-2.9c0.4,0.6,0.8,1.3,1.2,1.9c0.4,0.7,1.3,0.1,1-0.6c-1.5-3.2-3.3-6.3-5.6-9
		c1,0.8,2,1.6,3.1,2.3c0.5,0.3,1-0.4,0.6-0.8c-3-3-6.2-6.1-9.3-9c-0.1-0.1-0.2-0.1-0.3-0.1c-0.2-0.3-0.4-0.5-0.6-0.8
		c1.8,1.7,3.7,3.4,5.6,5c0.6,0.4,1.2-0.2,0.8-0.8c-1-1.3-2.2-2.4-3.4-3.5c1.3,0.5,2.7,0.9,4.2,1.3c0.6,0.1,1-0.7,0.4-1
		c-1.7-0.8-3.4-1.3-5.3-1.8l7.9-0.2c0-0.1,0-0.1-0.1-0.2c0.7,1,1.4,1.9,2.3,2.8c0.5,0.5,1.4-0.2,1-0.8c-2.6-4.1-5.2-8.1-7-12.6
		c-0.1-0.1-0.2-0.2-0.3-0.3c0-0.1-0.1-0.2-0.1-0.3c1.1,1.6,2.3,3.1,3.5,4.7c0.5,0.6,1.5-0.2,1.1-0.8c-1.8-3-3.8-6-5.7-9
		c0.5,0.3,1.2-0.3,0.9-0.9c-2.1-3.2-4-6.5-5.6-10c0.4,0.5,0.8,1,1.3,1.5c0.5,0.5,1.4-0.2,1-0.8c-1.4-2.3-2.8-4.7-4-7.2
		c1.7-0.5,3.4-1,5.2-1.5c0.4,0.5,0.8,1,1.3,1.4c0.6,0.5,1.6-0.2,1.1-0.9c-1.7-2.3-3.2-4.7-4.5-7.3c1,0.9,2,1.7,3.1,2.4
		c0.6,0.4,1.3-0.5,0.8-1c-1.9-1.8-3.7-3.9-5.5-5.8c0.3,0.3,0.6,0.7,0.9,1c0.5,0.5,1.2-0.2,0.7-0.7c-2.5-3.1-4.4-6.4-5.8-10
		c0.6,0.7,1.3,1.5,2,2.2c0.4,0.4,0.9-0.2,0.6-0.6c-2.1-2.5-4.2-5.3-5.8-8.2c-0.1-0.1-0.1-0.2-0.2-0.2c-0.2-0.6-0.5-1.2-0.7-1.8
		c-0.3,0.7-0.6,1.5-0.9,2.2c-1,0.9-1.8,2.4-2.6,3.4c-1.6,2-3.5,3.7-5.4,5.4c-0.6,0.6-0.1,1.7,0.6,1.3c0.6-0.4,1.2-0.8,1.8-1.3
		c-1.8,2.2-3.8,4.4-5.9,6.5c-0.5,0.5-0.1,1.5,0.5,1.1c1.3-0.9,2.6-2,3.9-3.2c-0.7,1.1-1.4,2.1-2.2,3.2c-2.4,2.1-5.1,4.2-7.7,6.1
		c-0.5,0.4-0.2,1.5,0.4,1.2c0.9-0.4,1.8-0.9,2.6-1.5c-0.8,1-1.7,1.9-2.6,2.8c-1.4,0.8-1.2,1.3-2.7,2.2c-0.5,0.3-0.1,1.2,0.4,1.1
		c0.1,0,0.1-0.1,0.2-0.1l7,0.5c-2,2.3-4.1,4.7-6.1,7.1c-0.3,0.3-0.1,0.9,0.2,1c-0.1,0.1-0.1,0.1-0.2,0.2c-0.5,0.6,0.3,1.4,0.9,0.9
		c0.5-0.4,1.1-0.9,1.7-1.4c-0.9,1.4-1.9,2.8-2.9,4.3c-0.5,0.7,0.3,1.7,0.9,1.1c0.3-0.4,0.6-0.7,0.9-1.1c-0.3,0.6-0.7,1.3-1,1.9
		c-2,2.5-4.4,4.7-6.8,6.6c-0.5,0.4-0.1,1.4,0.5,1c1.1-0.7,2.2-1.6,3.2-2.5c-0.8,1.3-1.6,2.7-2.5,4c-1.7,2.4-3.7,4.8-5.6,7.1
		c-0.5,0.7,0.2,1.8,0.8,1.3c0.3-0.2,0.5-0.5,0.7-0.7c2.7,0.4,5.5,0.8,8.2,1.1c-0.5,0.3-1,0.7-1.4,1.1c-0.6,0.6,0.2,1.4,0.9,1.1
		c0.6-0.3,1.3-0.6,2-0.8c-1.2,2-2.8,3.9-4.6,5.1c-0.4,0.3-0.1,1.1,0.3,0.9c0.8-0.4,1.6-1,2.3-1.6c-0.3,0.6-0.7,1.2-1,1.8
		c-1.6,2.1-3.4,4.1-5.5,5.7c-0.6,0.5-0.1,1.7,0.6,1.2c0.4-0.3,0.8-0.6,1.2-0.9c-0.3,0.5-0.6,0.9-0.9,1.4c-2.1,2.1-4.6,3.9-7.1,5.3
		c-0.6,0.3-0.1,1.4,0.4,1.2c0.4-0.1,0.7-0.3,1.1-0.4c-1.6,1.6-3.1,3.3-4.7,5.1c-0.5,0.6,0.2,1.6,0.7,1.2c0.8-0.7,1.5-1.3,2.3-2
		c-0.8,1.1-1.7,2.2-2.5,3.2c19.3-1.7,38.6,0.5,57.9,2.7c-0.2-0.5-0.3-1-0.5-1.5c0.4,0.3,0.8,0.6,1.2,0.8
		C380.2,674.4,380.8,673.4,380.3,672.8z"/>
	<rect x="-18.4" y="30.2" class="st0" width="618.6" height="618.6"/>
	<path class="st7" d="M323,679.8c-1-1.2-2.1-2.1-3.2-3.1c-0.1-0.3-0.2-0.7-0.4-1c0.8,0.7,1.6,1.5,2.4,2.2c0.5,0.5,1.3-0.3,0.8-0.8
		c-1.5-1.7-3.1-3.3-4.8-5c-0.4-1-0.9-2-1.3-2.9c0.4,0.6,0.8,1.3,1.2,1.9c0.4,0.7,1.3,0.1,1-0.6c-1.5-3.2-3.3-6.3-5.6-9
		c1,0.8,2,1.6,3.1,2.3c0.5,0.3,1-0.4,0.6-0.8c-3-3-6.2-6.1-9.3-9c-0.1-0.1-0.2-0.1-0.3-0.1c-0.2-0.3-0.4-0.5-0.6-0.8
		c1.8,1.7,3.7,3.4,5.6,5c0.6,0.4,1.2-0.2,0.8-0.8c-1-1.3-2.2-2.4-3.4-3.5c1.3,0.5,2.7,0.9,4.2,1.3c0.6,0.1,1-0.7,0.4-1
		c-1.7-0.8-3.4-1.3-5.3-1.8l7.9-0.2c0-0.1,0-0.1-0.1-0.2c0.7,1,1.4,1.9,2.3,2.8c0.5,0.5,1.4-0.2,1-0.8c-2.6-4.1-5.2-8.1-7-12.6
		c-0.1-0.1-0.2-0.2-0.3-0.3c0-0.1-0.1-0.2-0.1-0.3c1.1,1.6,2.3,3.1,3.5,4.7c0.5,0.6,1.5-0.2,1.1-0.8c-1.8-3-3.8-6-5.7-9
		c0.5,0.3,1.2-0.3,0.9-0.9c-2.1-3.2-4-6.5-5.6-10c0.4,0.5,0.8,1,1.3,1.5c0.5,0.5,1.4-0.2,1-0.8c-1.4-2.3-2.8-4.7-4-7.2
		c1.7-0.5,3.4-1,5.2-1.5c0.4,0.5,0.8,1,1.3,1.4c0.6,0.5,1.6-0.2,1.1-0.9c-1.7-2.3-3.2-4.7-4.5-7.3c1,0.9,2,1.7,3.1,2.4
		c0.6,0.4,1.3-0.5,0.8-1c-1.9-1.8-3.7-3.9-5.5-5.8c0.3,0.3,0.6,0.7,0.9,1c0.5,0.5,1.2-0.2,0.7-0.7c-2.5-3.1-4.4-6.4-5.8-10
		c0.6,0.7,1.3,1.5,2,2.2c0.4,0.4,0.9-0.2,0.6-0.6c-2.1-2.5-4.2-5.3-5.8-8.2c-0.1-0.1-0.1-0.2-0.2-0.2c-0.2-0.6-0.5-1.2-0.7-1.8
		c-0.3,0.7-0.6,1.5-0.9,2.2c-1,0.9-1.8,2.4-2.6,3.4c-1.6,2-3.5,3.7-5.4,5.4c-0.6,0.6-0.1,1.7,0.6,1.3c0.6-0.4,1.2-0.8,1.8-1.3
		c-1.8,2.2-3.8,4.4-5.9,6.5c-0.5,0.5-0.1,1.5,0.5,1.1c1.3-0.9,2.6-2,3.9-3.2c-0.7,1.1-1.4,2.1-2.2,3.2c-2.4,2.1-5.1,4.2-7.7,6.1
		c-0.5,0.4-0.2,1.5,0.4,1.2c0.9-0.4,1.8-0.9,2.6-1.5c-0.8,1-1.7,1.9-2.6,2.8c-1.4,0.8-1.2,1.3-2.7,2.2c-0.5,0.3-0.1,1.2,0.4,1.1
		c0.1,0,0.1-0.1,0.2-0.1l7,0.5c-2,2.3-4.1,4.7-6.1,7.1c-0.3,0.3-0.1,0.9,0.2,1c-0.1,0.1-0.1,0.1-0.2,0.2c-0.5,0.6,0.3,1.4,0.9,0.9
		c0.5-0.4,1.1-0.9,1.7-1.4c-0.9,1.4-1.9,2.8-2.9,4.3c-0.5,0.7,0.3,1.7,0.9,1.1c0.3-0.4,0.6-0.7,0.9-1.1c-0.3,0.6-0.7,1.3-1,1.9
		c-2,2.5-4.4,4.7-6.8,6.6c-0.5,0.4-0.1,1.4,0.5,1c1.1-0.7,2.2-1.6,3.2-2.5c-0.8,1.3-1.6,2.7-2.5,4c-1.7,2.4-3.7,4.8-5.6,7.1
		c-0.5,0.7,0.2,1.8,0.8,1.3c0.3-0.2,0.5-0.5,0.7-0.7c2.7,0.4,5.5,0.8,8.2,1.1c-0.5,0.3-1,0.7-1.4,1.1c-0.6,0.6,0.2,1.4,0.9,1.1
		c0.6-0.3,1.3-0.6,2-0.8c-1.2,2-2.8,3.9-4.6,5.1c-0.4,0.3-0.1,1.1,0.3,0.9c0.8-0.4,1.6-1,2.3-1.6c-0.3,0.6-0.7,1.2-1,1.8
		c-1.6,2.1-3.4,4.1-5.5,5.7c-0.6,0.5-0.1,1.7,0.6,1.2c0.4-0.3,0.8-0.6,1.2-0.9c-0.3,0.5-0.6,0.9-0.9,1.4c-2.1,2.1-4.6,3.9-7.1,5.3
		c-0.6,0.3-0.1,1.4,0.4,1.2c0.4-0.1,0.7-0.3,1.1-0.4c-1.6,1.6-3.1,3.3-4.7,5.1c-0.5,0.6,0.2,1.6,0.7,1.2c0.8-0.7,1.5-1.3,2.3-2
		c-0.8,1.1-1.7,2.2-2.5,3.2c19.3-1.7,38.6,0.5,57.9,2.7c-0.2-0.5-0.3-1-0.5-1.5c0.4,0.3,0.8,0.6,1.2,0.8
		C322.9,681.4,323.5,680.4,323,679.8z"/>
	<rect x="-18.4" y="30.2" class="st0" width="618.6" height="618.6"/>
	<path class="st7" d="M456.2,658.8c-1.2-1.4-2.5-2.6-3.9-3.8c-0.1-0.4-0.3-0.8-0.4-1.2c0.9,0.9,1.9,1.8,2.9,2.6c0.7,0.5,1.6-0.3,1-1
		c-1.9-2-3.8-4.1-5.7-6.1c-0.5-1.2-1.1-2.4-1.6-3.5c0.5,0.8,1,1.5,1.4,2.3c0.5,0.8,1.6,0.1,1.2-0.7c-1.8-4-4-7.5-6.7-10.9
		c1.2,1,2.4,2,3.8,2.8c0.6,0.4,1.2-0.5,0.7-0.9c-3.7-3.7-7.4-7.4-11.3-10.9c-0.1-0.1-0.2-0.1-0.3-0.1c-0.2-0.3-0.5-0.7-0.7-1
		c2.1,2,4.4,4.1,6.7,6c0.7,0.5,1.5-0.3,1-1c-1.2-1.5-2.6-2.9-4.1-4.3c1.6,0.6,3.3,1.1,5,1.5c0.7,0.2,1.2-0.9,0.5-1.2
		c-2-0.9-4.2-1.6-6.3-2.2l9.5-0.2c0-0.1,0-0.1-0.1-0.2c0.8,1.2,1.7,2.3,2.7,3.3c0.6,0.7,1.7-0.2,1.2-1c-3.2-4.9-6.2-9.8-8.4-15.2
		c-0.1-0.2-0.2-0.3-0.3-0.4c0-0.1-0.1-0.3-0.1-0.4c1.3,1.9,2.7,3.9,4.4,5.6c0.6,0.7,1.8-0.2,1.3-1c-2.1-3.7-4.6-7.3-6.9-10.9
		c0.6,0.3,1.5-0.4,1-1.1c-2.6-3.9-4.9-7.8-6.7-12.1c0.5,0.6,1,1.2,1.5,1.8c0.6,0.7,1.7-0.2,1.2-0.9c-1.7-2.7-3.3-5.7-4.7-8.6
		c2-0.6,4.2-1.2,6.2-1.8c0.5,0.6,1,1.2,1.6,1.7c0.7,0.7,1.9-0.2,1.4-1c-2-2.8-4-5.7-5.5-8.7c1.2,1,2.4,2,3.8,2.9
		c0.7,0.5,1.5-0.6,0.9-1.2c-2.3-2.2-4.5-4.6-6.6-7c0.4,0.4,0.7,0.8,1.1,1.2c0.6,0.6,1.4-0.3,0.9-0.9c-3.1-3.8-5.3-7.7-7-12.1
		c0.8,0.9,1.6,1.8,2.5,2.6c0.5,0.4,1.1-0.2,0.7-0.7c-2.6-3-5-6.4-7-9.8c-0.1-0.1-0.2-0.2-0.3-0.2c-0.3-0.7-0.6-1.5-0.9-2.2
		c-0.3,0.9-0.7,1.8-1.1,2.7c-1.2,1.1-2.1,2.9-3.1,4.2c-2,2.4-4.3,4.4-6.4,6.5c-0.7,0.7-0.1,2.1,0.7,1.6c0.8-0.5,1.5-1,2.2-1.6
		c-2.2,2.7-4.6,5.3-7.1,7.8c-0.6,0.6-0.1,1.8,0.6,1.3c1.6-1.1,3.1-2.4,4.7-3.9c-0.8,1.3-1.7,2.6-2.6,3.9c-2.9,2.6-6.1,5-9.3,7.3
		c-0.6,0.5-0.2,1.8,0.5,1.5c1.1-0.5,2.1-1.1,3.2-1.8c-1,1.1-2.1,2.3-3.1,3.3c-1.7,1-1.5,1.6-3.2,2.6c-0.6,0.4-0.1,1.5,0.4,1.3
		c0.1,0,0.2-0.1,0.3-0.1l8.4,0.6c-2.4,2.8-5,5.7-7.4,8.5c-0.4,0.4-0.1,1.1,0.3,1.3c-0.1,0.1-0.1,0.2-0.2,0.2
		c-0.6,0.7,0.3,1.7,1.1,1.1c0.6-0.5,1.3-1.1,2-1.6c-1.1,1.7-2.3,3.4-3.5,5.1c-0.6,0.9,0.3,2.1,1,1.3c0.4-0.4,0.8-0.9,1.1-1.3
		c-0.4,0.8-0.8,1.5-1.3,2.3c-2.4,3-5.2,5.7-8.1,7.9c-0.6,0.5-0.1,1.6,0.6,1.2c1.4-0.9,2.6-1.9,4-3c-1,1.6-1.9,3.3-3,4.9
		c-2.1,2.9-4.5,5.8-6.7,8.6c-0.6,0.8,0.2,2.2,1,1.6c0.3-0.3,0.6-0.5,0.9-0.8c3.2,0.5,6.6,0.9,9.8,1.4c-0.6,0.4-1.2,0.8-1.7,1.4
		c-0.7,0.7,0.2,1.7,1,1.4s1.6-0.7,2.4-1c-1.5,2.4-3.3,4.6-5.6,6.2c-0.4,0.3-0.1,1.3,0.4,1.1c1-0.5,1.9-1.2,2.7-1.9
		c-0.4,0.7-0.8,1.5-1.2,2.2c-2,2.5-4.2,4.9-6.6,6.8c-0.7,0.6-0.1,2,0.7,1.5c0.5-0.3,1-0.7,1.5-1c-0.4,0.6-0.7,1.1-1.1,1.7
		c-2.6,2.5-5.5,4.7-8.5,6.4c-0.7,0.4-0.2,1.7,0.5,1.5c0.5-0.2,0.9-0.3,1.3-0.5c-1.9,1.9-3.9,4-5.7,6.1c-0.6,0.7,0.2,2,0.9,1.4
		c0.9-0.8,1.8-1.6,2.7-2.4c-1,1.3-2,2.6-3,4c23.2-2.1,46.5,0.6,69.8,3.2c-0.2-0.6-0.4-1.2-0.6-1.8c0.5,0.3,0.9,0.7,1.4,1
		C456,660.7,456.7,659.6,456.2,658.8z"/>
	<rect x="-18.4" y="30.2" class="st0" width="618.6" height="618.6"/>
	<path class="st7" d="M593.5,657.6c-1.2-1.4-2.5-2.6-3.9-3.8c-0.1-0.4-0.3-0.8-0.4-1.2c0.9,0.9,1.9,1.8,2.9,2.6c0.7,0.5,1.6-0.3,1-1
		c-1.9-2-3.8-4.1-5.7-6.1c-0.5-1.2-1.1-2.4-1.6-3.5c0.5,0.8,1,1.5,1.4,2.3c0.5,0.8,1.6,0.1,1.2-0.7c-1.8-4-4-7.5-6.7-10.9
		c1.2,1,2.4,2,3.8,2.8c0.6,0.4,1.2-0.5,0.7-0.9c-3.7-3.7-7.4-7.4-11.3-10.9c-0.1-0.1-0.2-0.1-0.3-0.1c-0.2-0.3-0.5-0.7-0.7-1
		c2.1,2,4.4,4.1,6.7,6c0.7,0.5,1.5-0.3,1-1c-1.2-1.5-2.6-2.9-4.1-4.3c1.6,0.6,3.3,1.1,5,1.5c0.7,0.2,1.2-0.9,0.5-1.2
		c-2-0.9-4.2-1.6-6.3-2.2l9.5-0.2c0-0.1,0-0.1-0.1-0.2c0.8,1.2,1.7,2.3,2.7,3.3c0.6,0.7,1.7-0.2,1.2-1c-3.2-4.9-6.2-9.8-8.4-15.2
		c-0.1-0.2-0.2-0.3-0.3-0.4c0-0.1-0.1-0.3-0.1-0.4c1.3,1.9,2.7,3.9,4.4,5.6c0.6,0.7,1.8-0.2,1.3-1c-2.1-3.7-4.6-7.3-6.9-10.9
		c0.6,0.3,1.5-0.4,1-1.1c-2.6-3.9-4.9-7.8-6.7-12.1c0.5,0.6,1,1.2,1.5,1.8c0.6,0.7,1.7-0.2,1.2-0.9c-1.7-2.7-3.3-5.7-4.7-8.6
		c2-0.6,4.2-1.2,6.2-1.8c0.5,0.6,1,1.2,1.6,1.7c0.7,0.7,1.9-0.2,1.4-1c-2-2.8-4-5.7-5.5-8.7c1.2,1,2.4,2,3.8,2.9
		c0.7,0.5,1.5-0.6,0.9-1.2c-2.3-2.2-4.5-4.6-6.6-7c0.4,0.4,0.7,0.8,1.1,1.2c0.6,0.6,1.4-0.3,0.9-0.9c-3.1-3.8-5.3-7.7-7-12.1
		c0.8,0.9,1.6,1.8,2.5,2.6c0.5,0.4,1.1-0.2,0.7-0.7c-2.6-3-5-6.4-7-9.8c-0.1-0.1-0.2-0.2-0.3-0.2c-0.3-0.7-0.6-1.5-0.9-2.2
		c-0.3,0.9-0.7,1.8-1.1,2.7c-1.2,1.1-2.1,2.9-3.1,4.2c-2,2.4-4.3,4.4-6.4,6.5c-0.7,0.7-0.1,2.1,0.7,1.6c0.8-0.5,1.5-1,2.2-1.6
		c-2.2,2.7-4.6,5.3-7.1,7.8c-0.6,0.6-0.1,1.8,0.6,1.3c1.6-1.1,3.1-2.4,4.7-3.9c-0.8,1.3-1.7,2.6-2.6,3.9c-2.9,2.6-6.1,5-9.3,7.3
		c-0.6,0.5-0.2,1.8,0.5,1.5c1.1-0.5,2.1-1.1,3.2-1.8c-1,1.1-2.1,2.3-3.1,3.3c-1.7,1-1.5,1.6-3.2,2.6c-0.6,0.4-0.1,1.5,0.4,1.3
		c0.1,0,0.2-0.1,0.3-0.1l8.4,0.6c-2.4,2.8-5,5.7-7.4,8.5c-0.4,0.4-0.1,1.1,0.3,1.3c-0.1,0.1-0.1,0.2-0.2,0.2
		c-0.6,0.7,0.3,1.7,1.1,1.1c0.6-0.5,1.3-1.1,2-1.6c-1.1,1.7-2.3,3.4-3.5,5.1c-0.6,0.9,0.3,2.1,1,1.3c0.4-0.4,0.8-0.9,1.1-1.3
		c-0.4,0.8-0.8,1.5-1.3,2.3c-2.4,3-5.2,5.7-8.1,7.9c-0.6,0.5-0.1,1.6,0.6,1.2c1.4-0.9,2.6-1.9,4-3c-1,1.6-1.9,3.3-3,4.9
		c-2.1,2.9-4.5,5.8-6.7,8.6c-0.6,0.8,0.2,2.2,1,1.6c0.3-0.3,0.6-0.5,0.9-0.8c3.2,0.5,6.6,0.9,9.8,1.4c-0.6,0.4-1.2,0.8-1.7,1.4
		c-0.7,0.7,0.2,1.7,1,1.4c0.8-0.3,1.6-0.7,2.4-1c-1.5,2.4-3.3,4.6-5.6,6.2c-0.4,0.3-0.1,1.3,0.4,1.1c1-0.5,1.9-1.2,2.7-1.9
		c-0.4,0.7-0.8,1.5-1.2,2.2c-2,2.5-4.2,4.9-6.6,6.8c-0.7,0.6-0.1,2,0.7,1.5c0.5-0.3,1-0.7,1.5-1c-0.4,0.6-0.7,1.1-1.1,1.7
		c-2.6,2.5-5.5,4.7-8.5,6.4c-0.7,0.4-0.2,1.7,0.5,1.5c0.5-0.2,0.9-0.3,1.3-0.5c-1.9,1.9-3.9,4-5.7,6.1c-0.6,0.7,0.2,2,0.9,1.4
		c0.9-0.8,1.8-1.6,2.7-2.4c-1,1.3-2,2.6-3,4c23.2-2.1,46.5,0.6,69.8,3.2c-0.2-0.6-0.4-1.2-0.6-1.8c0.5,0.3,0.9,0.7,1.4,1
		C593.4,659.4,594.1,658.3,593.5,657.6z"/>
	<rect x="-18.4" y="30.2" class="st0" width="618.6" height="618.6"/>
	<path class="st7" d="M515.6,667.4c-1-1.2-2.2-2.3-3.4-3.3c-0.1-0.3-0.3-0.7-0.4-1c0.8,0.8,1.7,1.5,2.6,2.3c0.6,0.5,1.4-0.3,0.8-0.8
		c-1.6-1.8-3.3-3.5-5-5.3c-0.5-1-0.9-2.1-1.4-3.1c0.4,0.7,0.8,1.3,1.2,2c0.4,0.7,1.4,0.1,1.1-0.6c-1.6-3.4-3.4-6.6-5.9-9.5
		c1,0.9,2.1,1.7,3.2,2.5c0.5,0.3,1-0.4,0.6-0.8c-3.1-3.2-6.5-6.5-9.8-9.5c-0.1-0.1-0.2-0.1-0.3-0.1c-0.2-0.3-0.4-0.6-0.6-0.8
		c1.9,1.8,3.9,3.5,5.9,5.2c0.6,0.5,1.3-0.2,0.8-0.8c-1.1-1.3-2.3-2.6-3.5-3.8c1.4,0.5,2.8,1,4.4,1.3c0.6,0.2,1-0.8,0.4-1
		c-1.8-0.8-3.7-1.4-5.5-1.9l8.3-0.2c0-0.1,0-0.1-0.1-0.2c0.7,1,1.5,2,2.4,2.9c0.5,0.6,1.5-0.2,1.1-0.8c-2.8-4.3-5.5-8.6-7.4-13.3
		c-0.1-0.1-0.2-0.2-0.3-0.3c0-0.1-0.1-0.2-0.1-0.3c1.1,1.7,2.4,3.3,3.8,4.9c0.6,0.6,1.5-0.2,1.1-0.9c-1.9-3.2-4-6.4-6-9.4
		c0.5,0.3,1.3-0.3,0.9-0.9c-2.2-3.4-4.3-6.9-5.9-10.5c0.4,0.6,0.9,1.1,1.3,1.6c0.5,0.6,1.5-0.2,1.1-0.8c-1.5-2.4-2.9-5-4.2-7.6
		c1.8-0.5,3.7-1.1,5.4-1.6c0.4,0.5,0.9,1,1.4,1.5c0.6,0.6,1.7-0.2,1.2-0.9c-1.7-2.5-3.4-5-4.8-7.7c1,0.9,2.1,1.8,3.2,2.5
		c0.6,0.4,1.4-0.5,0.8-1.1c-2-1.9-3.9-4.1-5.8-6.1c0.3,0.3,0.7,0.7,1,1c0.5,0.5,1.2-0.2,0.8-0.8c-2.7-3.2-4.7-6.7-6.1-10.5
		c0.7,0.8,1.4,1.5,2.1,2.3c0.4,0.4,1-0.2,0.6-0.6c-2.3-2.6-4.4-5.6-6.1-8.6c-0.1-0.1-0.2-0.2-0.2-0.2c-0.3-0.6-0.5-1.3-0.8-1.9
		c-0.3,0.8-0.6,1.6-0.9,2.3c-1,1-1.9,2.6-2.8,3.7c-1.7,2.1-3.8,3.9-5.6,5.7c-0.6,0.6-0.1,1.8,0.6,1.4c0.7-0.4,1.3-0.9,1.9-1.4
		c-1.9,2.4-4,4.7-6.2,6.8c-0.5,0.5-0.1,1.6,0.6,1.2c1.4-0.9,2.7-2.1,4.1-3.3c-0.7,1.1-1.5,2.3-2.3,3.4c-2.6,2.3-5.4,4.4-8.2,6.4
		c-0.5,0.4-0.2,1.6,0.4,1.3c0.9-0.5,1.9-1,2.8-1.6c-0.9,1-1.8,2-2.7,2.9c-1.5,0.9-1.3,1.4-2.8,2.3c-0.5,0.3-0.1,1.3,0.4,1.1
		c0.1,0,0.2-0.1,0.2-0.1l7.3,0.5c-2.1,2.5-4.4,5-6.4,7.5c-0.3,0.4-0.1,1,0.2,1.1c-0.1,0.1-0.1,0.1-0.2,0.2c-0.6,0.6,0.3,1.5,0.9,0.9
		c0.6-0.5,1.2-0.9,1.8-1.4c-1,1.5-2,2.9-3,4.5c-0.6,0.8,0.3,1.8,0.9,1.1c0.3-0.4,0.7-0.8,1-1.1c-0.4,0.7-0.7,1.3-1.1,2
		c-2.1,2.6-4.6,5-7.1,7c-0.5,0.4-0.1,1.4,0.5,1.1c1.2-0.8,2.3-1.6,3.4-2.6c-0.8,1.4-1.7,2.8-2.6,4.3c-1.8,2.6-3.9,5.1-5.9,7.5
		c-0.6,0.7,0.2,1.9,0.9,1.4c0.3-0.2,0.5-0.5,0.8-0.7c2.8,0.4,5.8,0.8,8.6,1.2c-0.5,0.3-1,0.7-1.5,1.2c-0.7,0.6,0.2,1.5,0.9,1.2
		c0.7-0.3,1.4-0.6,2.1-0.9c-1.3,2.1-2.9,4.1-4.9,5.4c-0.4,0.3-0.1,1.2,0.3,0.9c0.9-0.5,1.7-1,2.4-1.6c-0.3,0.6-0.7,1.3-1.1,1.9
		c-1.7,2.2-3.7,4.3-5.7,6c-0.7,0.5-0.1,1.8,0.6,1.3c0.4-0.3,0.9-0.6,1.3-0.9c-0.3,0.5-0.6,1-1,1.5c-2.3,2.2-4.8,4.1-7.5,5.6
		c-0.6,0.3-0.2,1.5,0.4,1.3c0.4-0.1,0.8-0.3,1.2-0.5c-1.7,1.7-3.3,3.4-5,5.4c-0.5,0.6,0.2,1.7,0.8,1.2c0.8-0.7,1.6-1.4,2.4-2.1
		c-0.9,1.1-1.7,2.3-2.6,3.4c20.4-1.8,40.8,0.5,61.1,2.8c-0.2-0.5-0.3-1-0.5-1.6c0.4,0.3,0.8,0.6,1.3,0.9
		C515.4,669,516.1,668,515.6,667.4z"/>
	<rect x="-18.4" y="30.2" class="st0" width="618.6" height="618.6"/>
	<path class="st7" d="M357.5,283.5c0-0.2-0.5,0.1-1.2,0.5c-0.4-0.6-0.9-1.2-1.4-1.6c-0.3-0.3-0.9-0.1-0.9,0.4c0,0.8,0,1.5,0,2.3
		c0,0.1,0,0.3,0,0.4c0,0-0.1,0.1-0.2,0.1c-0.3-0.1-0.5-0.2-0.8-0.4c-0.2-0.1-0.5-0.1-0.7,0.2c-0.3,0.6-0.7,1.2-1,1.7
		c-0.1,0.1-0.2,0.1-0.3,0.2c-0.5-0.2-1.1-0.2-1.5,0.2c-0.3,0.3-0.5,0.7-0.6,1c-0.4-0.2-1-0.3-1.5-0.4c-0.2,0-0.4,0.1-0.5,0.3
		c-0.2,0.4-0.4,0.8-0.5,1.2c-0.6-0.2-1.3,0-1.7,0.5c-1.4-0.2-1.3-1.8-0.2-4c0.3-0.1,0.6-0.1,0.8-0.2c0.3-0.1,0.5-0.4,0.4-0.7
		c-0.1-0.2-0.1-0.5-0.1-0.7c0,0,0-0.1,0.1-0.1c0.4,0,0.9,0,1.3-0.3c0.3-0.2,0.5-0.5,0.6-0.9c0.5-0.1,1-0.1,1.5-0.2
		c0.3,0,0.5-0.4,0.4-0.7c-0.1-0.4-0.3-0.9-0.4-1.3c0.4-0.2,0.8-0.4,1.1-0.6c0.3-0.2,0.3-0.5,0.2-0.8c-0.2-0.3-0.3-0.6-0.4-0.9
		c0.6-0.2,1.2-0.4,1.7-0.5c0.3-0.1,0.6-0.5,0.5-0.8c-0.2-0.4-0.3-0.9-0.4-1.3c0.4,0.2,0.9,0.4,1.4,0.4c0.3,0,0.5-0.4,0.4-0.6
		c-0.4-1-0.7-2-0.9-3.1c0.3-0.9,0.5-1.5,0.5-1.5s0.8-6.8,0.5-8.9c-0.3-2.1-1-5.8-2.8-6.5c-1.8-0.8-4.2,1.5-5,2.6
		c-0.8,1-6.5,5.3-11,8.3l0,0c-4.3,2.6-8.6,5.1-13,7.6c-3,0.1-6.7,0.1-8.7,0.5c-1.4,0-2.8,0.3-4.2,0.6c-0.4,0.1-0.3,0.8,0.1,0.7
		c0.3,0,0.6,0,0.9-0.1c-2.2,0.9-4.4,2.2-5.9,3.8c-0.3,0.3,0.1,0.9,0.5,0.6c1-0.6,1.9-1.2,2.9-1.8c-0.6,0.5-1.2,1.1-1.8,1.7
		c-2.8,1.9-5.6,4.1-8.6,5.5c-0.4,0.2-0.1,0.9,0.3,0.8c1-0.3,1.9-0.7,2.8-1.2c-2.2,2.1-4.4,4.2-5.9,5.5c-1.3,0.8-2.8,1.3-4.5,1.5
		c-0.4,0-0.6,0.5-0.4,0.8c-3.2,0.6-8.7,1.6-13.1,3c-0.8,0.2-1.6,0.4-2.4,0.6c-2.3,0.5-4.6,1.4-5.7,3.7c-0.1,0.2,0.2,0.5,0.4,0.3
		c0.4-0.4,0.8-0.8,1.3-1.2c-0.1,0.9,0.1,1.9,0.4,2.6c0.4,1.2,1.2,2.1,2.2,2.8c0.4,0.2,0.8-0.3,0.5-0.6c-0.7-0.7-1.3-1.4-1.7-2.3
		c2.2,2.4,7.4,5.6,11.9,6.3c-2.3,1-4.6,2.2-6.9,3.2c-0.5,0.2-0.2,1.1,0.4,0.9c1.1-0.3,2.3-0.7,3.5-1.2c-0.9,0.6-1.9,1.3-2.9,2
		c-4.9,2.4-9.3,5.9-13.1,9.7c-0.4,0.4,0.2,1.3,0.7,0.9c0.4-0.3,0.8-0.6,1.2-0.9c-1.9,2.1-4,4.9-6.1,7.7c-4,3.9-7.7,7.9-11.2,12.3
		c-0.4,0.5,0.2,1.2,0.7,0.7c1.4-1.4,2.9-2.9,4.4-4.5c-2.7,4-5.2,7.7-6.9,10.2c-0.4,0.5-0.8,1.2-1.2,1.9c-3,3.5-6,7.2-8.7,11.1
		c-0.3,0.5,0.4,1,0.8,0.6c0.4-0.4,0.7-0.8,1.1-1.1c-0.8,1.1-1.5,2.3-2.4,3.5c-3,3.2-6.2,6.2-9.8,8.9c-0.4,0.3-0.1,0.9,0.4,0.7
		c1.7-0.9,3.4-2,5.1-3.3c-2,2.9-4.2,5.8-6.3,8.3c-1.2,1-2.6,1.9-4.2,2.6c-0.6,0.3-0.2,1.2,0.4,1c0.3-0.1,0.7-0.3,1-0.4
		c-1.3,1.5-2.6,2.8-3.9,4c-2.9,1.7-6,3.5-8.8,5.5c-0.4,0.3,0,0.9,0.4,0.6c1.4-0.8,2.8-1.6,4.2-2.4c-0.7,0.6-1.4,1.2-2.1,1.9
		c-4.1,2.9-8.1,5.8-12.5,8.5c-0.6,0.4-0.1,1.2,0.5,0.9c1-0.5,2.1-1,3.1-1.5c-3.8,3.3-7.8,7.1-11.8,10.9c-5.1,3.3-10.1,6.6-15.2,9.9
		c-0.4,0.3-0.1,1,0.4,0.7c3.1-1.6,6.1-3.4,9.1-5.3c-0.5,0.5-1,0.9-1.5,1.4c-6.1,4.3-12.2,8.7-17.2,14c-0.4,0.4,0.1,1.1,0.6,0.8
		c0.5-0.4,1-0.7,1.5-1.1c-2.8,2.8-5.5,6-7.5,9.3c-0.2,0.4,0.3,0.8,0.6,0.5c0.9-1,1.8-2,2.7-3c-0.2,0.3-0.4,0.6-0.6,0.9
		c-2.6,4.1-7,12.3-11.7,20.7c-3.1,4.1-6.4,8-9.5,12.1c-0.3,0.4,0.2,0.9,0.6,0.6c1-1,2-2,3-3c-3.9,7.5-8.3,14.5-17,17.2
		c-0.7,0.2-0.4,1.2,0.3,1.1c2.1-0.4,4.1-1.1,5.8-2.1c-4.6,3.3-9.9,4.3-16.3,3.8c-0.8-0.1-0.8,1-0.2,1.3c0.1,0,0.1,0,0.2,0.1
		c-1.4,0.1-2.9,0.1-4.5,0.1c-6.6-1.7-13.5-1.9-20.3-0.3c-0.7,0.2-0.5,1.3,0.2,1.2c0.8-0.1,1.7-0.2,2.5-0.2c-5.6,1-11.6,3.4-17.1,6.4
		c-7.8,3.2-15.1,8.3-21.8,13c-0.6,0.4-0.1,1.3,0.6,1c1.8-0.8,3.7-1.8,5.5-2.7c-0.2,0.2-0.4,0.3-0.5,0.5c-4.7,4.7-9.2,9.1-13.4,12.3
		c-3,1.4-6.2,2.5-9.3,3c-0.9,0.1-0.5,1.3,0.2,1.4c1.1,0.1,2.1,0,3.1-0.2c1.5,1,3.3,1.7,5.3,2.3c1.3,0.5,2.8,1.1,4.6,1.7
		c-1.6-0.1-3.1-0.3-4.8-0.6c-0.6-0.1-0.8,0.7-0.2,0.9c3,1,6.4,1.6,9.6,1.2c11.3,3.2,28.8,6.1,53,3.9c13.6-1.2,23.8-3.3,31.4-5.7
		c-0.7,0.3-1.3,0.7-2,1c-0.4,0.2-0.1,0.8,0.3,0.7c2.8-0.6,5.6-2,8-4c1.7-0.7,3.2-1.4,4.7-2c-1,0.7-1.9,1.5-2.9,2.3
		c-0.3,0.3,0.1,0.9,0.5,0.6c3-2.1,6-4.6,8.9-6.9c0,0,0-0.1,0.1-0.1c0.1,0,0.1-0.1,0.2-0.1c-0.5,0.5-1,1-1.5,1.5
		c-0.4,0.4,0.1,1.2,0.6,0.8c2.1-1.6,4.1-3.5,5.8-5.6c0.1,0.1,0.1,0.2,0.2,0.2c0.3,0.9,0.6,1.8,0.9,2.6c0.1,0.4,0.8,0.4,0.8-0.1
		c0-0.2-0.1-0.5-0.1-0.7c0.9,1.1,1.6,2.2,1.6,3c0,1.8-4.7,2.6-2.8,6.3s31.3,2.6,44.4,5.3c13.1,2.6,23.5,1.5,25.7,0.3
		c0.7-0.4,0.9-1.4,0.8-2.5c0.4,0.3,1-0.1,0.7-0.6c-0.4-0.7-0.8-1.3-1.4-1.9c-0.3-0.7-0.6-1.4-1.1-2.1c0.1,0,0.1,0.1,0.2,0.1
		c0.6,0.4,1.3-0.3,0.8-0.8c-1.1-1.2-2.6-2.1-4.3-2.7c-1.4-0.7-3.5-1.2-5.9-1.6c0.2-0.3,0.2-0.8-0.2-0.8c-2.9-0.5-6.5-0.8-9.6-0.5
		c-0.6-0.1-1-0.2-1.2-0.2c-0.3-0.1,0.5-0.8,1.9-1.9c-0.1,0.4-0.2,0.8-0.1,1.2c0,0.3,0.5,0.4,0.7,0.2c0.8-0.8,1.2-2.2,1.8-3.2
		c0.5-0.4,1-0.8,1.6-1.2c-0.1,0.2-0.2,0.4-0.3,0.6c-0.2,0.5,0.4,1.1,0.8,0.6c1.8-2.2,4-4.2,6.2-6.1c2.6-1.9,5.4-4,8.1-6
		c-0.7,0.7-1.3,1.5-2,2.2c-0.4,0.5,0.2,1.2,0.7,0.7c3.1-2.9,6.2-6.1,9.1-9.3c1.9-1.7,3.5-3.2,4.8-4.7c0.3-0.4,0.6-0.7,0.9-1.1
		c-0.8,1.2-1.6,2.3-2.3,3.5c-0.3,0.4,0.4,1,0.7,0.6c3.2-4.1,7.7-9.2,9.1-14.7c0.6-1,1.1-1.9,1.6-2.7c-0.3,0.8-0.6,1.7-0.9,2.5
		c-0.2,0.5,0.6,0.8,0.9,0.4c0.9-1.4,1.6-2.8,2.1-4.4c0.1-0.2,0.2-0.5,0.3-0.8c0,0.3,0.1,0.5,0.1,0.6c0,1,0,1.9,0,2.9
		c-0.1,2.3-0.3,4.6-0.6,6.9c-0.1,0.6,0.9,0.7,1,0.1c0.3-1,0.4-2.1,0.6-3.1c0.1,4.4,0.1,9.4-0.7,13.3c-1.2,3.5-2.7,7.1-4.2,10.6
		c-0.2,0.4,0.6,0.8,0.8,0.3c0.8-1.6,1.5-3.2,2.3-4.9v0.1c-1.8,4.3-1.9,9.7-1,13.9c0.1,0.6,1.1,0.5,1.1-0.1c-0.1-1.2-0.1-2.4-0.2-3.7
		c0.2,1.1,0.4,2.1,0.6,3.1c0,2.3,0.2,4.7,0.8,6.7c0.1,0.5,0.9,0.4,0.9-0.1c0-0.2,0-0.4,0-0.6c1.1,3.5,2.4,6.6,5.1,7.9
		c4,1.8,7.1,2.3,9.6,2.1c2.6-0.3,13.1,0,15.4-2.1c1-0.9,0.3-2.9-1-5.2c0.1,0,0.2-0.2,0.1-0.3c-0.8-1.5-1.9-2.7-3.1-3.8
		c-0.8-0.9-1.6-1.7-2.3-2.3c0.6,0.3,1.2,0.5,1.9,0.6c0.3,0.1,0.5-0.4,0.1-0.5c-2.1-0.7-4-2-5.3-3.8c-1.2-4.4-1.4-13.3-1-21.4
		c0.2,1.3,0.4,2.6,0.7,4c0.1,0.4,0.9,0.4,0.8-0.1c-0.7-6-0.9-11.8,0.2-17.7c0-0.1,0-0.2-0.1-0.3c0.1-0.4,0.1-0.7,0.2-1
		c0.1,1.3,0.1,2.5,0.3,3.8c0.1,0.6,1,0.4,1-0.1c0.2-5.7,0.5-11.1,1.4-16.4c0.4-1.8,0.9-3.8,1.3-5.6c-0.1,1.8-0.2,3.7-0.2,5.4
		c0,0.5,0.8,0.6,0.8,0.1c0.6-4.2,0.7-8.4,1.2-12.6c0.4-1.3,0.7-2.6,1.1-3.8c0.2,0.1,0.4,0,0.6-0.2c1.3-3.1,2.7-6.2,4.5-8.9
		c-0.1,0.2-0.1,0.3-0.2,0.4c-0.2,0.5,0.6,0.8,0.8,0.3c2.7-5.5,9.1-7.8,12.1-13.1c0.1-0.1,0.1-0.2,0.2-0.3c-0.2,0.6-0.5,1.1-0.7,1.7
		c-0.3,0.6,0.5,1,0.8,0.5c1.9-2.9,3.2-6.7,3.9-10.3c0.5-1.3,0.8-2.4,1.1-3.1c-0.1,1.3-0.2,2.5-0.2,3.9c0,0.6,0.9,0.7,1,0.1
		c1.1-6.2,1.3-12.7,1.1-19.1c0.2,1.1,0.3,2.3,0.5,3.4c0.1,0.4,0.7,0.3,0.7-0.1c-0.2-2.2-0.4-4.6-0.6-6.8c-0.1-1.1-0.2-2.2-0.3-3.2
		c0.2-2.3,0.5-4.7,0.8-7.1c0,0.2,0,0.3,0,0.5c0.1,0.7,1,0.7,1.1,0c0.2-6.1,1.1-11.9,2.2-17.7c-0.1,2.1,0,4.3,0.1,6.4
		c0,0.6,0.9,0.6,1,0c0.2-3.2,0.2-6.5,0.5-9.7c0.3-3,1.4-5.9,2.2-8.8c0.4-0.8,0.8-1.7,1.1-2.5c-0.3,1.7-0.6,3.4-1.2,5.1
		c-0.2,0.5,0.6,0.8,0.8,0.3c1.7-3.4,2-7.6,1.9-11.7c0.2-1.6,0.4-3.2,0.4-4.8c0.3,0.2,0.8,0,0.9-0.4c0.1-6.7-0.5-13.2,1.7-19.5
		c-0.3,1.2-0.6,2.5-0.7,3.8c-0.1,0.4,0.6,0.5,0.7,0.1c2-6,4-11.8,6.6-17.4c0.3-0.4,0.7-0.9,1.1-1.3c-0.4,0.8-0.8,1.5-1.1,2.3
		c-0.2,0.5,0.4,0.9,0.8,0.5c1.1-1.5,2.1-3.1,3.2-4.7c0.5-0.4,0.9-0.7,1.3-1.2c-0.4,0.7-0.8,1.3-1.2,2c-0.3,0.5,0.4,1,0.7,0.6
		c2.1-2.6,4-5.5,5.6-8.5c1.1-1.2,2.1-2.4,3.1-3.5c0,0.4,0.5,0.7,0.8,0.4c1.9-2.3,3.7-5.1,4.9-7.9c0.2-0.2,0.3-0.5,0.5-0.7
		C360.2,286.7,357.5,284.3,357.5,283.5z"/>
	<rect x="-85.6" y="54.8" class="st0" width="618.6" height="618.6"/>
	<path class="st9" d="M427.2,148.8c-11.2,1.8-21.8,5.3-33.3,6.1c-9.1,0.6-18.4,0.1-27.5,0.1c-1.2,0-10-0.7-12,0.1
		c6,2.7,11.8,4.8,18.3,6.2c8.6,1.9,17,4.2,25.7,6.2c11.6,2.7,23.1,3.4,34.9,1.1c10.4-2,20.8-0.1,31.2-1.4c6.2-0.8,12.2-2.3,18.4-3.2
		c1.6-0.2,5.7,0.2,5-2.8c-1.3-1-2.7-1.5-4.5-1.4c-6.3-1.2-12.4-3.3-18.7-4.6c-3.8-0.7-5.9-2.7-9-4.8c-1.3-0.7-2.4-1.5-3.5-2.5
		c-3.4-2.3-6.8-1.3-10.7-1.4C435.4,146.3,433.3,147.8,427.2,148.8z"/>
	<rect x="21.1" y="64.7" class="st0" width="618.6" height="618.6"/>
	<path class="st9" d="M164.3,91.5c5-1.4,10.1-1.3,15-2.4c2-0.5,4.8-1.8,6.7-2.5c3.8-1.4,7.4-1.9,11.5-2.7c5.2-0.9,10-2.5,15.1-3.9
		c7.9-2,16.6-2.1,24.8-2.1c4.8,0,9.5,0.3,14.3,0.1c5.7-0.2,11.2-1.4,16.9-1.3c10.1,0.1,19.9,0.5,29.9,1.3c4.2,0.3,7.9,1.1,11.9,2.5
		c5,1.7,9.9,1.2,15.2,1.2c12.5,0,24.9,0.1,37.4,0c6.5,0,12.7,0.5,19,1.6c3.9,0.6,9.5,0.4,12.4,3.4c-0.4,2.2-7.6,3.1-9.2,3.4
		c-5.2,0.7-10.4,1.1-15.6,1.5c-5,0.3-9.4,2.4-14.3,2.6c-6,0.2-12-0.1-17.9-0.1c-5,0-9.7-0.6-14.5,1.2c-3.4,1.3-6.7,2.4-10.4,2.5
		c-5.4,0.2-16.8-2.5-20.8,2.4c0.6,2.6,4.5,2.3,6.4,2.7c2.7,0.6,5.4,1.3,7.9,2.2c4.3,1.2,8.5,2.6,12.8,3.8c-7.2-0.7-14.7,0.1-21.9,0
		c-10-0.2-19.7-2.3-29.6-3.4c-7.9-0.9-15.8-1.1-23.7-1.8c-7.3-0.7-14.7-2.2-22-2.3c-2.1,0-4.4,0.1-6.5,0.1c-2.3,0.1-4.6,0.2-6.9,0.3
		c-8.7-0.3-17.4-0.8-26.2-1.6c-4.3-1-8.1-2.7-11.7-5.2C168.5,93.7,166.6,91.8,164.3,91.5z"/>
	<rect x="-18.4" y="30.2" class="st0" width="618.6" height="618.6"/>
	<path class="st9" d="M49.6,180.5c7.4-1.2,14.2-2.4,21.8-2.6c6.2-0.1,12.4,0,18.5,0.2c5.8,0.5,11.4,1.7,16.8,3.7
		c15,3.7,31.4,3.9,46.9,4.7c6,0.1,12.1,0.3,18.1,0.4c2.4-0.4,4.1,0.3,4.9,2.2c-1.7,1.7-3.9,2.5-6.4,2.5c-7.7,1.6-15.9,1.4-23.7,2.1
		c-8.6,0.7-16.8,1.6-25.5,1.5c-2.8-0.2-5.6-0.1-8.3,0.2c-4.1,0.7-7.7,2.7-11.9,3.3c-6.8,1-13.4-0.4-20.1-1c-1.8,0.1-3.4-0.3-5-1.2
		c-4.5-1.9-8.4-2.5-13.3-2.6c-5.4-0.1-10.9,0.1-16.2,0.1c-8,0-18.3,1.6-25.9-1.5c5.5-2.4,12.2-2.8,17.9-4.7
		C43,186.5,44.9,181.3,49.6,180.5z"/>
	<rect x="-18.4" y="30.2" class="st0" width="618.6" height="618.6"/>
	<path class="st9" d="M55.8,205.3c13.3-2.1,26.8-1.2,40.2-1.2c6.9,0,13.4-0.5,20.2-1c3.3-0.2,14.6-2.3,17.5,0.9
		c-1.3,3-7.4,3.2-9.7,3.8c-6.7,1.4-12.9,3.2-19.4,5.2c-5.3,1.5-11.3,2.3-16.6,3.2c-5.1,0.8-10.9,0.5-16,0.4c-3.1-0.1-5.1-1-7.7-2.5
		C60.2,211.6,60.3,205.2,55.8,205.3z"/>
	<rect x="-131" y="-4.5" class="st0" width="618.6" height="618.6"/>
	<path class="st9" d="M394,336.9c-20.1-0.2-40-2.4-60-2.5c-5.8,0-10.9,0-16.5,1.2c-5.2,1.2-9.7,1-15,1.2c-8,0.2-16,1.8-22.1,7
		c4,1.6,10.6,0.4,14.8,0.7c7.2,0.5,14.2,1.1,21.5,1c4.4,0,8.8-0.4,13.1,0.2c2.9,0.4,6.7,0.4,9.5,1.1c3.3,0.9,6.2,3.9,9.5,5.2
		c5.7,2.2,11.6,3.4,17.6,3.4c4.2,0,8.8,0.4,12.9-0.4c8.3-1.4,16.5-3.7,24.4-5.7c1.9-0.5,6.5,0.1,7.4-2.7
		C412.3,343.2,395.8,336.9,394,336.9z"/>
	<rect x="-86.3" y="41.4" class="st0" width="618.6" height="618.6"/>
	<path class="st9" d="M440.8,271.5c-7.9,0-15.7-0.4-23.5,1.2c-6.5,1.3-12.6,2.2-19.2,2.9c-2.9,0.3-10,0.8-10,0.8s11.6,3.7,17.2,5.2
		c3.9,1,7.9,1.7,11.6,3.2c3.3,1.4,6,2.7,9.8,2.9c5.5,0.2,11.1,0.1,16.5-0.1c7.9-0.3,15.3-4.2,23-6c2.7-0.7,5.2-0.4,7.7-1.7
		c1.4-0.7,3.2-2.2,4.6-3.1c-1.2-0.8-5.6-0.2-6.8-0.2c-3.8,0-7.8,0.5-11.5-0.2C457,275.5,442.9,274.2,440.8,271.5z"/>
	<rect x="-18.4" y="30.2" class="st0" width="618.6" height="618.6"/>
	<path class="st9" d="M33.4,333.5c3.9,0.1,7.3-0.5,11.1-1c10.6-1.2,20.6,2,31.1,2.3c10,0.3,20.3-0.1,30.3-0.1
		c9.1,0,18.2-1.1,27.3-1.1c-1.4,1.1-3,1.9-4.9,2.3c-4.7,1.6-9.5,3.1-14.2,4.8c-7.4,2.4-15.1,2.6-22.5,5.3c-6,2.1-14.9,2-21.1,0.9
		c-3-0.6-6.2-0.6-9.3-1.2c-4-0.8-7.9-0.5-11.9-1.2c-2.7-0.5-6.1-0.7-8.6-1.8C38.8,341.7,32.5,336.4,33.4,333.5z"/>
	<rect x="107.3" y="-25.6" class="st0" width="618.6" height="618.6"/>
	<path class="st9" d="M516.2,396.3c-5.8,0-11.6,0.2-17.3,0.1c-7.1-0.1-13-2.5-19.7-4.8c-7.2-2.3-15.4-4.1-22.9-5
		c-4.1-0.5-7.9-0.3-11.9-1.5c5.4,0.4,11.5-0.9,16.8-1.5c8.7-1,17.7-3.1,26.6-3.4c3.9-0.2,7.8,0.1,11.7,0c2.2-0.2,4.6-0.1,6.8,0.2
		c2.2,0.8,2.3,1.8,5,2.2c3.7,0.6,5.6,1.8,8.8,3.4c3.4,1.7,7.2,1.7,11,2.7c2.6,0.7,4.8,1.2,7.6,1.2c2.1,0,5.4-0.7,7.3,0.3
		c-0.2,1.7-4.7,1-5.8,1.2C535.9,392,519.8,400.3,516.2,396.3z"/>
	<rect x="-18.4" y="30.2" class="st0" width="618.6" height="618.6"/>
	<path class="st9" d="M122.8,394.9c1.6-1.7,5.1-2.1,7.3-2.5c8.2-1.4,17-0.9,25.4-1.4c4.7-0.2,9.2-0.2,13.9-0.2
		c3.8,0,8.2-0.7,11.9,0.2c-1,0.9-3.7,1.8-4.9,2.5c-5.6,3.4-11.7,5.3-18.2,5.6c-3.3,0.1-6.3,1.5-9.6,1.7c-2.5,0.1-5.2-0.1-7.7-0.1
		c-3.3,0-7.4,0.1-10.5-1.4c-1.2-0.6-2-1.6-3.2-2.1C125.1,396.3,124.2,396.5,122.8,394.9z"/>
	<rect x="-18.4" y="30.2" class="st0" width="618.6" height="618.6"/>
	<path class="st9" d="M511.8,243.9c-1.9-0.4-5.4,1-7,1.4c-5.5,1.3-11.2,2.4-16.6,3.3c-2,0.3-7.4,0.3-8.6,2.4
		c7.3,0.8,14.6,1.7,21.8,2.5c4.5,0.5,7.3-1.1,11.6-2.1c4.3-1.1,8.5-2.1,12.7-3.5c0.4-0.1,2.8-0.5,3.3-0.9c0.6-0.5,0.7-1.2,1.6-1.5
		C527.3,245.6,514,246.9,511.8,243.9z"/>
	<rect x="10.6" y="54.8" class="st0" width="618.6" height="618.6"/>
	<path class="st9" d="M492.5,140.2c-3.7-0.3-7.7,0.7-11.4,1.2c-2.6,0.3-5.3,0.7-7.8,1.3c-3.9,0.3-7.7,0.5-11.6,0.5
		c-0.1,0.5-0.1,1-0.2,1.5c4.5,1.8,9,3.1,13.8,3.8c2.9,0,6-1.4,8.9-0.8c2.4,0.5,4.7,1.7,7.1,2.2c3.7,0.8,7.4-0.6,11-1.3
		c1.8-0.4,3.4-0.3,5.4-0.4c1.7-0.1,3.2-0.8,4.8-1.4c-0.9-1-4-1.1-5.3-1.6c-1.3-0.5-3.3-2.6-4.8-2.5
		C502.3,142,492.4,140.8,492.5,140.2z"/>
	<rect x="4.6" y="20.3" class="st0" width="618.6" height="618.6"/>
	<g>
		<path class="st10" d="M163.4,59c0.1,0.4,0.2,0.8,0.2,1.2c0.1,0.6,1.1,0.6,1.2,0c0.1-0.4,0.2-0.8,0.2-1.2
			C165.4,57.5,163.1,57.5,163.4,59z"/>
		<path class="st10" d="M124.4,92.2c-0.8-1.1-1.8-0.8-2.9-0.4c-0.7,0.3-0.7,1.6,0,2c1.1,0.5,2.1,0.8,2.9-0.4
			C124.7,93.2,124.7,92.6,124.4,92.2z"/>
		<path class="st10" d="M30.7,124.4c-3,0-3,4.7,0,4.7C33.6,129,33.6,124.4,30.7,124.4z"/>
		<path class="st10" d="M179.7,262.6c-2,0-2,3,0,3C181.7,265.7,181.7,262.6,179.7,262.6z"/>
		<path class="st10" d="M30.3,270.2c-0.1,0.6,0,1,0.2,1.6c0.5,1.3,2.1,1.3,2.6,0c0.2-0.5,0.3-1,0.2-1.6
			C33.2,268.3,30.5,268.3,30.3,270.2z"/>
		<path class="st10" d="M134.1,169.1c0-0.3-0.1-0.6-0.1-0.9c-0.2-1.3-2.5-1.3-2.7,0c0,0.3-0.1,0.6-0.1,0.9c-0.1,0.8,0.2,1.7,1.1,1.9
			c0.3,0.1,0.5,0.1,0.8,0C133.9,170.9,134.2,170,134.1,169.1z"/>
		<path class="st10" d="M231.1,337.6c-2.5,0-2.5,3.9,0,3.9C233.6,341.5,233.6,337.6,231.1,337.6z"/>
		<path class="st10" d="M107.3,372.4c-2,0-2,3.1,0,3.1C109.3,375.7,109.3,372.4,107.3,372.4z"/>
		<path class="st10" d="M315.1,384.3c0-0.1-0.1-0.1-0.1-0.2c-0.5-0.8-1.6-0.8-2.1,0c0,0.1-0.1,0.1-0.1,0.2c-0.3,0.5-0.2,1.2,0.2,1.6
			c0.1,0.1,0.1,0.2,0.2,0.3c0.3,0.6,1.2,0.6,1.6,0c0-0.1,0.1-0.2,0.2-0.3C315.3,385.6,315.4,384.9,315.1,384.3z"/>
		<path class="st10" d="M451.3,414.4l-1.2-0.2c-1.1-0.2-1.1,1.5,0,1.3l1.2-0.2C451.8,415.3,451.8,414.4,451.3,414.4z"/>
		<path class="st10" d="M534.4,328.4c-0.6-0.4-1.2-0.4-1.9-0.4c-0.9,0.1-1.6,0.7-1.6,1.6c0,0.9,0.7,1.6,1.6,1.6
			c0.7,0.1,1.3,0,1.9-0.4C535.3,330.2,535.3,329,534.4,328.4z"/>
		<path class="st10" d="M547.8,246.8c-2.5,0-2.5,4,0,4C550.3,250.8,550.3,246.8,547.8,246.8z"/>
		<path class="st10" d="M374.1,207.6c-2.4,0-2.4,3.8,0,3.8C376.5,211.4,376.5,207.6,374.1,207.6z"/>
		<path class="st10" d="M547.8,198c-1.4,0-1.4,2.1,0,2.1C549.2,200.3,549.2,198,547.8,198z"/>
		<path class="st10" d="M508.2,136.5c-1.8,0-1.8,2.9,0,2.9C510,139.3,510,136.5,508.2,136.5z"/>
		<path class="st10" d="M569.7,122.5c-2.4,0-2.4,3.9,0,3.9C572.3,126.3,572.3,122.5,569.7,122.5z"/>
		<path class="st10" d="M425.9,53.2l-0.3-1.1c-0.4-1.4-2.5-1.4-2.9,0l-0.3,1.1c-0.3,1.2,0.6,2.4,1.8,2.4
			C425.3,55.6,426.3,54.4,425.9,53.2z"/>
		<path class="st10" d="M287.5,36.7c-0.3-0.4-0.8-0.8-1.2-1.1c-1.2-1-2.8,0.5-1.7,1.7c0.3,0.4,0.7,0.9,1.1,1.2
			c0.5,0.3,1.2,0.3,1.7-0.1C287.8,38,287.8,37.2,287.5,36.7z"/>
		<path class="st10" d="M379.8,138.5c-0.8-0.8-2-0.5-2.6,0.3c-0.3,0.4-0.7,0.9-1,1.3c-0.8,1.1,0.8,2.7,1.9,1.9
			c0.5-0.3,0.9-0.7,1.3-1C380.3,140.5,380.6,139.4,379.8,138.5z"/>
		<path class="st10" d="M505.6,339.9c-0.3,0-0.7-0.1-1-0.1c-0.5-0.1-1.1,0.3-1.3,0.8c-0.3,0.6-0.3,1,0,1.6c0.2,0.4,0.9,0.8,1.3,0.8
			c0.3,0,0.7-0.1,1-0.1C507.5,342.6,507.5,340.1,505.6,339.9z"/>
		<path class="st10" d="M378.1,283.6c0-1.1-0.9-2-2-2c-0.9,0-1.7,0.6-1.9,1.5c-0.3,1,0.3,1.9,1.1,2.4c0.5,0.5,1.2,0.4,1.7,0
			C377.6,285.1,378.1,284.5,378.1,283.6z"/>
		<path class="st10" d="M40.4,401.6c-1.4,0-1.4,2.1,0,2.1C41.7,403.7,41.7,401.6,40.4,401.6z"/>
		<path class="st10" d="M225.3,400.8c-0.5-0.8-1-1.5-1.9-1.8c-0.9-0.3-1.8,0.6-1.5,1.5c0.3,1,1,1.5,1.8,1.9
			C224.7,403.1,225.9,401.9,225.3,400.8z"/>
		<path class="st10" d="M265,186.5c-0.5,0.8-1,1.5-1.5,2.3c-0.4,0.6-0.1,1.4,0.5,1.7c0.7,0.4,1.6,0,1.8-0.8l0.9-2.5
			C267.1,186.2,265.6,185.7,265,186.5z"/>
	</g>
</g>
</svg>
