<?xml version="1.0" encoding="utf-8"?>
<!-- Generator: Adobe Illustrator 22.0.1, SVG Export Plug-In . SVG Version: 6.00 Build 0)  -->
<svg version="1.1" id="Слой_1" xmlns="http://www.w3.org/2000/svg" xmlns:xlink="http://www.w3.org/1999/xlink" x="0px" y="0px"
	 viewBox="0 0 583 544" style="enable-background:new 0 0 583 544;" xml:space="preserve">
<style type="text/css">
	.st0{display:none;clip-path:url(#SVGID_2_);}
	.st1{display:inline;fill:#FFFBEE;}
	.st2{display:inline;fill:#E2E5D9;}
	.st3{display:inline;}
	.st4{fill:#CAC8BE;}
	.st5{display:none;clip-path:url(#SVGID_2_);fill:#151030;}
	.st6{display:none;clip-path:url(#SVGID_2_);fill:#0F0F1E;}
	.st7{display:inline;fill:#0F0F1E;}
	.st8{clip-path:url(#SVGID_2_);fill:#252659;}
	.st9{clip-path:url(#SVGID_2_);}
	.st10{fill:#FFFBEE;}
</style>
<g>
	<defs>
		<rect id="SVGID_1_" x="-8" y="0" width="610" height="610"/>
	</defs>
	<clipPath id="SVGID_2_">
		<use xlink:href="#SVGID_1_"  style="overflow:visible;"/>
	</clipPath>
	<g class="st0">
		<circle class="st1" cx="301.6" cy="220.6" r="196.4"/>
		<path class="st2" d="M456.1,231.6c-1.5,0.1-3.4,1.3-4.8,1.7c-5.5,1.7-11.1,4.7-16,7.9c1.7,0.9,3.7,1,5.5,1.8
			c3.9,1.7,7.6,4.6,10.8,7.4c1.3,1.1,2.1,2.6,3.4,3.8c1.8,1.6,3,1.7,5.2,2c3,0.4,4.7,1,7,2.9c1.3,1.1,2.4,1.8,4.3,1.9
			c2.4,0.1,5.6-0.6,8-1c2.1-0.4,5.8-1.5,7.3-3.1c-1.7-1.8-4.3-2.4-6.5-3.5c-2.4-1.2-4.9-2.5-7.2-3.9c-2.4-1.4-4.7-3.7-7.3-4.8
			c-2.6-1.2-6.7,0.6-6.6-3.2c0.1-4.1,5.5-4.8,8.8-4.9c1.9,0,6.2,0.8,7.3-1.8c1.1-2.6-4.3-2.2-5.6-2.2c-2.5,0-3.2-0.2-5-1.6
			C462.1,228.6,459.5,231.2,456.1,231.6z"/>
		<path class="st2" d="M429.4,118.4c0.9,0,1.5,0.5,2,1.3c1.7,2.3,3.6,4.5,5.7,6.4c4.8,4.4,10,6.4,16.1,8.6c1.8,0.7,5,1.5,6.4-0.1
			c2.9-3.4-4.2-9.3-6-11.4c-2.5-3-2.5-6.7-4.7-9.9c-0.7-0.9-1.4-1.6-2.3-2.3c-0.8-0.9-1.3-2-1.7-3.1c-1.6-2.6-4.8-3.1-6.4-5.8
			c-1.2-1.9-1.3-4.9-3.4-6.2c-2-1.2-4.8-1.3-7.1-2c-1.2-0.3-2-1.1-3.2-0.4c-1.2,0.8-1.2,5.7-0.9,6.9c0.5,0.8,0.9,1.5,1.4,2.3
			c0.2,0.9,0.2,1.8,0.1,2.7C425.6,107.1,429.7,116.7,429.4,118.4z"/>
		<path class="st2" d="M412.5,106.3c2,0,3.7-0.1,5.5,0.8c0.9,0.4,2.1,1.9,3.2,1.4c1.1-0.5,1-5.5,1-6.4c0-2.7-0.4-4.7,1-7.1
			c0.9-1.6,2-3.9,2.1-5.7c0.2-2.3-1.9-3.5-3.3-5.3c-3-3.7-5.6-7.9-8.8-11.5c-1.3-1.4-2.4-3-3.8-4.3c-1.5-1.3-3.4-1.8-4.8-3.2
			c0-0.7-0.4-1.2-1.1-1.5c-1.8-0.8-3.6-1.9-5.2-3.1c-2.2-1.7-4.3-3.8-6.8-5.1c-1.6-0.8-4.3-1.2-5.6-2.6c-0.5-0.6-0.3-1.4-1.1-2
			c-0.8-0.6-2.2-0.5-3.1-1.1c-1.5-1.1-1.9-2.9-3.9-3.1c-0.5,3.3-1.4,6.5-2,9.8c-0.4,2.7-0.9,4.6-3,6.2c-2.2,1.7-4.1,4.6-4,7.5
			c0.1,2.9-0.4,6.1,0.1,9c0.8,3.9,3.4,7.3,5.2,10.8c1.6,2.9,1.7,5.8,3.6,8.7c0.7,1.1,1.4,2.5,2.4,3.4c0.1-1.2,0.9-4.5,1.6-5.4
			c1.7-1.8,2.6,0.5,3.5,2.5c1.2,2.6,1.9,5.2,3.8,7.4c1.2,1.3,2.5,2,2.6,3.9c3.6,0.4,6.5,4.8,10.5,3.4c1.2-0.4,1.9-1.9,3.1-2.3
			C406.2,110.9,412.9,107.5,412.5,106.3z"/>
		<path class="st2" d="M385,145.1c-0.1-0.1-0.3-0.3-0.4-0.4c2.6-4.2,6.1-6.7,10.4-9.1c3-1.6,2.9-2.5,4.8-0.1
			c1.9,2.4,2.9,4.6,3.9,7.6c0.3,1.6,0.9,3,1.7,4.4c1.7,1.8,5.3,1.5,7.4,2c3.9,0.9,5.5,2.5,8.6,4.5c4.3,2.7,7.6,5.9,11.2,9.6
			c3.5,3.6,7.7,6.6,10.6,10.8c0.6,0.9,1.2,1.9,1.9,2.8c0.2,0.3,3,2.3,2.9,2.6c-2.3,0.2-3.3,0.8-5,2.5c-2.9,2.9-5.8,4.1-9.3,6
			c-2.3,1.2-4.7,2.9-6.5,4.8c-4.1,4.3,0.1,10.2,3.8,13.3c2.6,2.2,5.7,3.7,8.3,5.7c1.3,1,3.3,2,4,3.3c-4.2,1.3-10.2-1.2-14.1,1.7
			c-3.1,2.3-3,7.6-6.9,9.4c-2,1-3.4,0.7-4,3.3c-0.9,3.4,0.2,7.3,1.3,10.5c1.2,3.4,2.4,6.4,4,9.6c0.8,1.9,1.7,3.8,2.8,5.5
			c0.7,0.4,1.2,1,1.4,1.7c-1.4-0.6-3-0.4-4.4-0.3c-2.4,0-4.6-0.4-7-0.7c-3.9-0.4-7.8-0.2-11.5-1.7c-3.2-1.4-5.7-3.6-8.5-5.5
			c-1.3-0.9-2.3-1.7-3.4-2.6c-2.8-2.3-4.9-1.9-7.9,0.5c-3.1,2.5-4.8,6.1-7.2,9.2c-0.9,1.2-1.2,2-1.7,3.2c-0.8,1.6-2.3,2.8-3.9,3.9
			c-1.8,1.2-1,1.2-2.3,0c-0.2-0.4-0.4-0.7-0.6-1.1c-0.6-0.5-1.3-0.8-2-0.9c-3-1.7-4.6-5.1-8.2-2.5c-2.3,1.7-3.9,4.8-6.3,6.2
			c-2.3,1.4-6.4,1.7-8.9,2.5c-3.5,1.1-7,2.1-10.7,1.7c-1.3-0.2-2.7-0.4-4-0.7c-2-0.1-4-0.2-6-0.3c-2.2-0.8-1.3-1.5-4-1.3
			c-2.9,0.2-5,1.4-7.6-0.3c-0.3-0.4-0.7-0.7-1-1.1c-1.4-0.4-2.8-0.6-4.2-0.5c-4.7-0.6-2.7-3.1-0.5-5.6c2.6-3,5.3-6,8.3-8.6
			c1.3-1.2,2.3-1.8,3.3-3.1c0.7-1,1.7-2.8,1.4-4.1c-0.6-1-1.4-1.8-2.4-2.3c-1.3-0.8-2.1-2-2.5-3.5c-1.3-3.2-2.8-6.2-3.2-9.7
			c-0.2-1.9-1.2-3.3-1.5-5c-0.5-2.9,0.7-4.4,2.1-6.8c-1.2-1.5-3.3-2.1-3.8-4.2c-0.4-1.7,0.6-2.6,1.5-4c1.6-2.2,3.5-2.8,5.9-4.4
			c3.2-2.1,6.3-4,9.4-6.1c4.1-2.8,8.8-2,11.6-6.6c3.6-6,10.7-9.3,17.5-10.6c6.9-1.3,14.1-2.1,19.5-7.1c0.9-0.8,1.7-1.9,2.4-2.7
			c1.4-1.6,1.9-2.2,2.6-4c0.4-1.1,0.7-2.8,1.6-3.7c1.5-1.5,3.9-1.5,5-3.6C385.6,156.5,385,147.4,385,145.1z"/>
		<path class="st2" d="M223.3,193.6c-0.1-4-5.6-7.6-8-10.3c-2.3-2.6-1.9-7.2-2.4-10.5c-0.2-1.4,0.1-2.9-0.3-4.2
			c-0.4-1.2-1.1-2.2-1.4-3.4c-1.3-4.2-4.6-4.9-8.9-4.8c-2.5,0.1-4.4,1.1-6.4,2.4c-3.2,2.1-6.4,3.8-9.6,5.8c-2.1,1.2-4.1,3.2-6.4,3.9
			c-2.6,0.9-6.5,0.1-9.2,0.1c-5.1,0-10-0.8-15.2-0.8c-4,0-9-0.8-12.9,0.1c-0.2,1.1,1.1,1.7,1.6,2.4c0.6,1,1.2,2.8,0.9,4
			c-0.4,1.5-1,1.6-2.4,2.1c-2.7,1.1-5.2,2.3-7.9,3.5c-1.1,0.5-2.3,0.9-3.3,1.5c-1.8,1-1.9,1.5-2.7,3.3c-0.6,1.6-0.5,1.9-1.5,3.4
			c-1.5,2-3.3,3.8-4.7,5.8c-2.4,3.4-2.8,7.1-2,11c0.9,4-0.9,7.8-0.7,11.9c0.2,4.1,1.6,7.4,0.1,11.4c-0.8,2.1-2.1,3.6-3.3,5.4
			c-0.4,0.6-3.6,4.3-3.1,5.2c1.1,0.1,2.1-0.1,3.1-0.7c2.6-0.8,5.4-1,8.1-1.7c1.5-0.5,3-0.8,4.5-0.9c1.5,0.2,2.2,1.2,3.7,1.8
			c3.9,1.5,9.5,1.1,13.6,0.8c2.9-0.2,5.9-2.3,8.2-4c2.7-2,3.9-5.2,6.4-7.4c1-0.5,2-1.1,3-1.7c2.3-1.5,4.7-3.1,6.9-4.8
			c2.2-1.7,4.2-3.1,5.3-5.7c0.7-1.7,1.1-3.2,2.3-4.7c0.9-1.1,2.7-3.6,4.3-3.4c-0.1,1-0.9,4.8-0.1,5.6c1,1.1,5.1-0.3,6-0.7
			c3.5-1.5,6.3-4.4,9.8-5.9c1.5-0.7,2.8-1.1,4.1,0.2c0.1,0.6,0.4,1.1,0.9,1.5c0.8,0.6,3.1,0.2,4,0.1c2.1-0.1,2.6-0.8,3.9-2.4
			c1.3-1.6,2.8-3,4.1-4.6c1-1.1,1.9-2.7,3.6-2.9C219.9,200.6,224.4,194.2,223.3,193.6z"/>
		<path class="st2" d="M469,269.5c0.6,0,1.1-0.2,1.5-0.6c-1-0.5-2.1-0.6-3.3-0.1c-5.5,0.5-10.4,2.5-15.3,4.8
			c-6.9,3.2-13.5,5.9-17.5,12.8c-1.3,2.3-2.6,4-4.4,6c-2,2.3-3,4.7-4.6,7.2c-3.4,5.2-9.3,5.5-14.9,6.8c-3.2,0.7-8.5,2.3-11.7,1
			c-2.1-0.8-1.2-1.8-3.8-1.3c-1,0.4-2.1,0.9-3.1,1.3c-1.4,0.4-2.1,1.2-2.1,2.5c-0.8,1-2.4,3-2.5,4.3c-0.1,1.1,0.9,1.9,1,3
			c0.5,3.2-3,4.3-5.1,5.7c-4,2.5-8,6.2-12.9,6.5c-3.4,0.2-6.8,0.7-10.2,0.8c-2,0.1-3.3,0.2-5-0.8c-0.3-0.4-0.6-0.7-0.9-1.1
			c-1.3-1.2-2.8-1.9-4.6-2.2c-3.8-0.7-8.7,0.4-12.4,1.3c-5.4,1.3-9.9,5.2-15.3,6.5c-4,1-8.6-1.4-12.6-2c-2-0.3-4,0.2-5.9-0.1
			c-1-0.2-1.6-0.7-2.5-0.9c-2.4-0.6-4.6,1-6.3,2.5c-1.2,0.9-2,2.2-3.2,3.1c-1.6,1.3-2,0.9-4.2,0.9c-2.6,0-4.5,1-6.9,1.5
			c-2.3,0.4-4.6,0-6.8,0.1c-5.4,0.1-10.5,2.7-15.9,3.5c-1.5,0.1-3,0.5-4.5,1c-1.7,0.6-3.1,1.8-4.9,2.1c-2.4,0.4-4.7,1.5-7,2.5
			c-7.3,3.3-9.6,10.3-11.7,17.3c-1.2,4-1.4,7.6-1.4,11.7c0,2-0.2,3.6,1,5.4c1.6,2.3,4.1,3.4,6.8,4c3.5,0.8,6.6,2.2,9.9,3.4
			c1.6,0.6,2.3,0.5,3.8,0.7c1.4,0.3,2.2,0.8,3.4,1.5c2,1,4.3,2.7,6.6,2.7c2,0.1,2.9-0.8,4.6-1.7c2.3-1.1,4.4-1.9,6.6-3.3
			c2.1-1.3,3.2-2.1,5.5-2.5c0.9-0.1,1.2,0.2,1.9-0.5c2.6,3.4,1.5,8,2.3,11.8c3.5,0.3,6.6,1.4,10.2,0.6c4.5-1,8.2-3.9,12.2-6.1
			c3.5-1.9,8.5-3,10.1,1.8c0.8,2.3,0.4,4.2,2.2,6.1c2.4,2.7,5.3,3.3,8.7,3.2c3.2-0.1,6,0.9,9.2,0.8c5.5,0,11.3,0.6,16.7-0.1
			c2.9-0.4,6.1-1.8,8.8-3c2.9-1.2,5.3-3.2,8.3-4.2c2.5-0.9,5-1.8,7.4-2.8c3.2-1.3,7.8-2.6,10.4-5.1c1.6-1.6,2.4-4.5,3.8-6.3
			c0.8-1,1.8-2.3,2.7-3.3c0.9-0.5,1.6-1.2,2.2-2c0.6-0.6,3.9-3.2,4.1-4.1c0.4-2.1-2.5-4.1-2.5-6.5c0-5.6,9.1-8,13.2-9.5
			c2.3-0.9,4.6-1.4,7-1.6c1.9-0.1,3.9-0.3,5.7-1.1c2.8-1.2,5-3.7,7.5-5.3c2.6-1.7,5-3.2,7.5-5.1c2.1-1.7,3.2-2.4,5.6-3.1
			c1.8-0.5,2.2-0.4,3.8-1.9c2.4-2.3,5.1-5.9,6.2-9.1c0.8-2.3,0.9-6.9,0.2-9.2c-0.8-2.7-4-3.9-1.3-6.4c0.7-0.4,1.5-0.8,2.2-1.2
			c1.2-0.7,2.1-1.7,2.6-2.9c1.4-1.3,2.8-1.9,4.5-2.8c3-1.6,3.8-4.9,6.7-6.8c1.1-0.7,1.7-0.8,2.5-1.6c1-0.9,1.7-2.3,2.2-3.5
			c0.5-1.1,1-2.2,1.5-3.3c0.3-1.3,0.1-2.2,0.8-3.4c0.7-1.1,2.7-2.5,3.6-3.4c1.1-1.2,2.2-2.4,3.2-3.6c1.1-1.2,3.8-3.7,3.9-5.5
			c0-0.6-0.7-2.5-0.9-3.1c-0.3-0.9-0.7-1.8-0.8-2.8c-0.3-1.7,1.5-4.2,0.7-5.5C482.4,264.4,470.8,269.5,469,269.5z"/>
		<path class="st2" d="M292,316.4c0.2-1.2,2.6-2.7,3.3-3.5c2.5-2.6,7.6-7.1,8.1-10.8c0.5-3.4-2.8-6.7-3.7-9.7c-0.8-2.6,0.3-5-1.5-7
			c-1.7-1.9-3.7-2.9-3.9-5.8c-0.2-3.1,1.2-4-2.2-5.8c-1.3-0.7-4.8-1.5-5.2-3.4c-0.3-1.6,1.1-3.9,2.1-4.9c1.5-1.6,3.9-1.8,5.3-3.5
			c0.7-1.5,1.3-3,1.9-4.5c0.8-1.2,1.8-2,3-2.6c1.6-1.6,0.9-4.8,0.9-7c0-1.2-0.3-2.9,0-4.1c0.3-1.5,1.3-2,0.1-3.4
			c-2.5-3.1-8.4-0.5-11.2-3c2.5-0.3,9-4.4,6.2-7.3c-0.9-0.9-3.4-1-4.6-1.7c-0.6-0.6-1.2-1.1-1.9-1.5c-1.3-0.7-3.4-0.3-4.6-1.1
			c-0.5-0.3-0.9-0.7-1.1-1.3c-0.4-0.2-0.9-0.3-1.4-0.1c-1.7-0.8-2.9-1.4-4.8-1.8c-4.7-1.1-9.7-2.3-14.6-2.2c-1.8,0-3.7,0.1-5.6,0
			c-1.9-0.1-3.4-0.8-5.3-0.9c-1.2-0.1-2.4,0-3.5,0.2c-0.8,0.5-1.7,1-2.6,1.4c-2.8,0.7-2.5-0.6-3.9-2.3c-1.2-1.5-3.4-2-5.1-2.6
			c-2.1-0.8-4.8-2.6-7.2-2.3c-2.2,0.3-1.5,2-2.6,4.2c-1.3,2.1-2.8,4.1-4.4,6c-0.7,1-0.8,1.7-1.8,2c-1,0.4-3.9,0.1-4.9,0.1
			c-4.5-0.3-8-3.5-12.2-4.4c-3.3-0.7-5.6,1.5-7.8,3.5c-0.7,0.6-1.3,1.4-1.8,2.2c-1.8,1.8-4,3-6.1,4.3c-3.1,1.9-5.4,4.3-8.3,6.4
			c-1.1,0.8-2.4,1.3-3.7,1.5c-3.1,0.8-5.5,2-8.2,3.8c-1.6,1.1-3.6,1.3-5.1,2.5c-0.5,0.7-1.1,1.4-1.6,2.2c-0.7,0.6-1.4,0.6-1.7,1.5
			c-0.5,1.7,1.2,2.8,1.6,4.1c0.7,2.7-1.1,2.9-3.4,3.4c-2.8,0.6-5.6,2.1-8.5,2.3c-1.4,0.1-2.8-0.1-4.2-0.1c-7.6,0-15.1,0.5-22.7,1.4
			c-2.7,0.3-2.6-0.1-3.8,2c-0.8,1.4-3.3,3.8-3,5.4c2,0.4,2.7-0.7,3.6,1.6c0.2,1.2,0.5,2.3,0.9,3.4c0.9,2,2.5,3,4.2,4.2
			c2,1.6,4.2,4,5.6,6.2c2.4,3.8,4.8,5.8,9.4,6.4c3.9,0.5,8,0.4,11.8-0.6c1.9-0.4,3.6-1,5.3-1.9c1.9-1.1,3.3-2.4,5.5-3.1
			c3.5-1.2,7-0.6,10.6-0.7c4.6-0.1,9.1-0.9,13.7-0.8c2.6,0,5.4-0.3,8,0c2.1,0.2,2.9,1.5,4.7,2.3c1.1,0,2,0.3,2.9,1
			c1.2,2-0.7,6.3-1.4,8c-0.6,1.3-1.2,2.7-1.8,4.1c0,1.3,0.8,1.5,1.4,2.6c0.3,0.9,0.5,1.9,0.7,2.8c0.8,2.3,2.6,4.3,4.3,6
			c2.4,2.4,7.6,4.8,5.4,8.9c-0.6,0.9-1.3,1.7-2.2,2.4c-1.1,1.5-1.3,2.3-1.8,4.2c-0.6,2.6-1.9,5.2-2.2,7.9c1.7,0.4,3.9,0.1,5.6,0.1
			c4.4,0,8-0.5,12.2-1.6c4.9-1.3,10.6-2.7,14.7-5.7c1.6-1.2,5.7-5.4,6.3-1.7c0.4,2.1-0.7,3.3,0.9,5c1.3,1.4,3.8,1.9,5.5,2.2
			c3,0.6,7.2-0.9,9.7,0.9c1.8,1.3,1.2,1.9,3.3,0.9c3-1.3,5.5-3.2,8.2-4.9c2.4-1.5,4.3-2.8,6.2-4.8c1.7-1.7,3.1-3.1,5.3-4.1
			c1.4-0.6,2.1-0.8,3.6-0.7c1.5,0.1,2.8,0.9,4.3,0.7C289.5,318,293.2,316.7,292,316.4z"/>
		<path class="st2" d="M292.8,46.5c-0.9-3.8-10.8-5-13.6-5.4c-5.2-0.8-10.9-0.7-16.2,0.1c-1.5,0.2-6,0.7-7.3,2.1
			c1,1.3,3.6,1.7,4.1,3.4c1,3.4-7,4.6-8.8,5c-3.2,0.6-6.6,1.1-9.2,3.2c-1.9,1.5-0.7,2.6-2,3.9c-1.3,1.3-4.7,0.8-6.2,0.8
			c-4.4,0-8.9-0.3-13.2,0.8c-3.1,0.8-6.3,1.5-9.1,2.9c-2.2,1.1-4.7,1.6-6.9,2.8c-4.3,2.3-8.5,4.9-11.9,8.3c-0.8,0.7-1.5,1.5-2.2,2.3
			c-0.3,0.5-0.2,1,0.2,1.5c0.5,0.8,0.4,1.6-0.3,2.4c-0.9,1.8-3.4,3.5-4.8,4.9c-1.1,1.1-4.7,3.8-4.2,5.8c0.5,2,2.6,0.1,1.5,3.4
			c-1.3,3.7-7.1,7.5-10.4,9.5c-2.3,1.3-4.6,2.6-6.9,3.9c-0.5,0.3-4.2,2-4.3,3.2c4.1,2,12.3,1,13.7,6.6c0.9,3.8,0.1,8.8,0.1,12.8
			c0,3.7,0.9,7.8-1.8,10.8c-1.5,1.7-2.1,1.8-3.1,4c-0.6,0.8-0.8,1.6-0.8,2.6c0.7,1.3,4.5,0.7,5.4,0.7c3.2,0,6.1-0.5,9.2-0.8
			c1.3,0,2.5-0.2,3.7-0.8c0.8-0.6,1.7-1.1,2.6-1.5c1.1-0.3,2.2-0.1,3.3-0.1c2.1,0,5.2-0.7,7.2,0.1c0.7,0.4,1.3,0.9,1.9,1.5
			c1,0.5,2,1.1,3,1.5c1.7,1.5,0,3.4,1,4.8c1,1.6,5.8,1,7.1,1c5.4-0.2,10.9-1.7,16.3-0.7c1,3.6-3.4,7.1-5.3,9.4
			c-1.2,1.2-2.1,2.6-2.8,4.1c0,1.8,3,1.7,4.2,2c3.3,0.9,6.6,1.8,9.9,2.7c2.1,0.3,4,1,5.9,2c2.5,1.4,2.7,3,4.3,4.9
			c0.9,0.4,1.6,0.9,2.3,1.6c0.7,0.8,1.3,1.7,2,2.5c1.8,2.1,2.7,4.4,3.8,6.9c0.5,1.1,1,2.2,1.6,3.3c-0.2,2-3.1,3.6-4.5,5
			c-0.8,0.7-9.9,9.1-9.1,10.4c2.5,0.4,5,0,7.5,0.1c1.1,0.1,2.2,0.1,3.4,0.2c2,0.2,3.9,0.4,5.9,0.7c1.5,1.1,0.3,2.6,2,3.7
			c1.5,0.9,4.5,0.5,6.2,1c3.3,1.1,6.7,2.4,10.3,1.8c4.8-0.8,7.3-7.2,9.9-10.7c1.3-1.7,2.5-3.5,4.7-3.9c2.3-0.4,4.4,1,6.7,1
			c6.3-0.1,8.1-5.2,10.5-9.7c1.5-2.7,2.8-7.4,5.3-9.4c1.8-1.5,3.4-2.9,5.1-4.6c2-2,3.7-3,6.6-2.2c4.3,1.1,7.2-0.9,10.6-3.2
			c2.4-1.6,5.3-2.5,7.7-4.2c1-0.7,2.9-2.1,3.3-3.3c0.3-0.8-0.2-1.7,0-2.4c0.8-2.1,4.8,0.8,6.5,0.9c4.8,0.3,6-2.6,9.3-5.6
			c1.7-1.5,3.4-2.9,5.2-4.3c1.1-0.8,1.8-1,1.7-2.4c-0.1-2.1-1.8-4.8-2.2-7c-0.6-3.8-1.8-7.2-3.5-10.7c-1.4-2.9-2.3-6-3-9.1
			c-0.7-2.9-1.7-6.8-1-9.7c0.5-2.2,2.6-4.1,4.8-4.6c2.1-0.5,4.6,0.7,6.5-0.9c4.5-3.9-1.1-11.1-3.2-14.5c-1.8-3-3.9-7.2-6.6-9.5
			c-1-0.9-3.3-1.4-3.9-2.6c-0.4-0.8-0.1-1.7,0.1-2.5c0.6-2.4,1.4-4,1.5-6.7c0.1-2.4,0.3-4,1.9-6c1.5-1.9,4.6-3.3,5.4-5.8
			c1.4-4.7-3.3-6.7-6.9-8.6c-3.7-2-8.2-3.8-12.4-4.3c-1-0.1-3,0.4-3.5-0.8c-0.3-0.8,0.6-1.9,0.8-2.5c0.6-2.1,0-4.4-0.4-6.5
			c-0.7-3.8-2.2-5.3-6.1-5.6c-2.3-0.2-4.8,0-7.1,0c-4,0-7.6,0.8-11.5,1.8c-2.4,0.7-3.7,1.7-5.7,2.8c-3.2,1.7-6.9,0.5-10.3,1.2
			C301.5,39.8,295.4,46.2,292.8,46.5z"/>
		<g class="st3">
			<path class="st4" d="M360.6,169.9c-0.4-0.3-0.7-0.4-1.2-0.7c-1.6,2-2.9,11.6-7.6,9.5c-1.8-0.8-1-3.1-2.4-4
				c-0.7-0.5-1.7,0.4-2.4-0.3c-0.1-0.5-0.1-1.1-0.2-1.6c-0.3-0.4-0.7-0.6-1.2-0.7c-0.6-0.3-1.6-1.1-2.3-1.1c-1.2-0.1-0.7-0.1-1.4,1
				c-0.8,1.2-1.6,3.1-2.2,4.5c-0.6,1.3-0.3,2.4-0.5,3.6c-0.6,3-5.4,3-7.5,4.8c-0.9,0.7-1.5,1.5-2.6,2c-0.5,0.3-1.9,0.5-2.3,1
				c-0.6,0.8,0,2.9-0.6,4c-0.8,1.5-2.5,2.3-3.6,3.6c-0.9,1.1-1.6,2.4-2.6,3.4c-0.8,0.9-1.6,1.8-2.7,2.4c-0.7,0.4-1.9,0.5-2.4,1.2
				c-1.8,3,6.2,1.2,7,1.2c1.8,0,3.6,0,5.4,0c1.2,0,3.2-0.4,3.6,1.2c0.2,0.8-0.5,1,0.3,1.7c0.5,0.5,3.1,0.2,4,0.5
				c0.8,0.3,1,0.1,1.6,0.8c0.9,1,0.1,1.2,1.2,1.7c0.7,0.3,2.9-0.1,3.7-0.1c1.1,0,2.3-0.2,3.3,0.5c1.4,1,1.8,3.8,1.1,5.3
				c-1,2.1-5.9,2.4-3.3,5.4c1.7,2,4.6,1.8,6.9,2.5c2.1,0.6,3.9,0.3,5.6,1.7c1.8,1.5,2.5,3,4.9,3c1.3,0,1.8-0.3,2.7,0.7
				c0.4,0.9,0.9,1.5,1.7,2.1c1,0.4,2.1,0.6,3.1,0.9c2.4,0.5,4.6,0.4,7,0.6c1.4,0.1,2.9,0.8,4.3,0.6c1.6-0.2,3.3-1.8,4.4-2.9
				c1.1-1,0.9-0.7,1.2-1.8c0-0.3-0.1-0.6-0.1-0.9c0.8-1.4,1.8-2.6,3.2-3.5c1.3-1.1,2.2-1.6,3.5-2.4c1.4-0.8,3.1-1.8,4.3-2.9
				c1.8-1.4,2.2-3.4,3.2-5.3c1.3-2.7,2.3-5.4,1.5-8.4c-0.3-1.1-0.8-2-1.1-3.1c-0.3-1.1-0.1-2.1-1.2-2.9c-1.3-0.8-3.3-0.6-4.7-0.5
				c-2,0.1-0.8,0-2-0.6c-4-1.9-7.5-0.6-11,1.3c-3.4,1.8-8.2,1.6-12.1,1.6c-1.4,0-2.4-0.5-3.7-0.7c-1.9-0.2-3.8,1.1-5.8,0.6
				c-0.8-1.4,2.1-3,2.9-3.4c1.3-0.8,2.1-0.7,3.5-0.7c2.3,0,4.1-0.7,6.1-1.9c0.4-0.4,0.8-0.7,1.3-0.9c0.7-0.1,1.5-0.2,2.2-0.1
				c1-0.3,1.2-0.6,2.4-0.6c2.3,0,4.5,0.2,6.6-0.8c1.9-0.9,4.3-0.6,6.1,0.1c3.1,1.2,6.1,1.3,9.4,1.8c1.7,0.2,3.1,1.5,4.8,1.3
				c1.6-0.1,3.4-1.8,4.8-2.6c1.5-0.9,2.7-1.7,4-2.8c0.9-0.8,3.8-2,3.6-3.5c-1.6-0.8-4-0.2-5.4-1.1c-0.9-0.6-0.6-1.3-0.6-2.4
				c0-1.3,0-2.5-0.5-3.7c-0.9-2-2.3-1.6-3.7-2.9c-0.6-0.6-1-1.7-1.3-2.5c-0.7-1.9-2-3.5-1.6-5.6c0.4-1.7,1-3.2,1.1-4.9
				c0.1-1.4,0.4-3.6-0.1-4.9c-1.1-0.2-2.3,1.1-3,1.6c-1.4,0.9-2.9,2.4-4.4,3c-0.7,0.3-1.9,0.4-2.6,0.2c-1.2-0.3-1.3-1.2-2.2-1.9
				c-1.5-1.2-3.8-0.1-5.5,0.8c-2.1,1.1-3.7,2.3-6.1,3c-1.7,0.5-3,0.7-4.6-0.3c-1.6-1.1-2.8-1.6-4.8-0.5c-1.7,1-1.6,2.8-3.5,3.5
				c-1.4,0.5-2.7,0.4-4.1,0.8C363.6,169,360.6,169.8,360.6,169.9z"/>
			<path class="st4" d="M214.3,161c-0.2,0-0.3,0-0.5,0c-0.4,1.3-0.1,2.8-0.1,4.1c0,3.3,0.2,5.9,1.8,8.9c0.9,1.7,2.1,3.3,2.9,5
				c1,2,0.7,4.3,0.7,6.5c0,2-1,3.8-3,4.6c-2.3,0.9-2.8-1-4.2-2.3c-1.2,0.1-0.4,4.1-0.6,5.1c-0.5,2.2-2.4,3.1-1.6,5.7
				c0.4,1.4,2.5,4.5,0.1,5.3c-2,0.7-3.2-2.3-3.9-3.6c-0.8-1.4-2.1-2.7-3.5-3.4c-0.7-0.4-2-0.7-2.8-0.8c-1.3-0.1-0.7,0-1.4,0.7
				c-0.8,0.8-0.3,1.8-1.7,1.8c-0.5-0.5-1-0.9-1.6-1.4c-1.3-1.5-2.3-3.2-3-5.1c-0.7-2-1.5-4-4.1-4c1.7,1.8,2.6,3.8,2.7,6.2
				c0.1,1.8-0.9,5.3,1.1,6.1c-0.7,3-4.5-0.9-5.2-2c-0.6-1-1.2-2.1-1.3-3.2c-0.3-1.9,0.7-3.7-0.7-5.1c-1.1-1.2-2-1.4-2.8-2.9
				c-0.4-0.9-1-1.7-1.8-2.4c-1.1-0.8-1.7-0.4-2.9-0.8c-2.6-0.8-5.1-3.6-8-3.3c0.4-1.1,1.4-1.7,2.9-1.7c2.3-1,4.9-2,7.5-2
				c2.2,0,4.2,0.4,6-1.3c2.9-2.5,2.5-8.5,6.3-9.9c1.8-0.6,3.6-1.1,5.4-1.9c2.3-1,2.8-3.3,4.7-4.7c1.1-0.9,1.6-0.6,2.9-0.6
				c1.3-0.1,3.1-0.9,4.4-0.7c1,0.2,1.6,0.6,2.7,0.7C211.6,158.9,214.4,160.8,214.3,161z"/>
			<path class="st4" d="M170.3,186.6c-0.9-0.8-2.5-0.9-3.5-1.2c-2.5-0.7-4.6-0.4-7.1-0.6c-1.3-0.1-2.4-0.6-3.6-0.6
				c-1.3-0.1-2.7,0-4,0c-1.1,0-2.1-0.1-3.1,0.1c-2,0.4-1.2,0.7-2.3,2.1c-1.1,1.4-2.3,0.9-3.7,1.3c-0.8,0.2-2.5,1.3-2.7,2
				c4.2,1.3,9.2-0.9,13.2,0.8c0.7,0.3,1.4,0.7,2,1.3c0.6,0.4,1.2,0.7,1.9,0.9c0.7,0.8,0.7,1.8,0.5,2.8c-1.2,0.2-2.4,0.4-3.6,0.5
				c-0.9,0.1-2.8-0.3-3.4,0.7c-0.4,0.7,0,2.2,0,3c-0.1,2.5-1.3,2.8-3.5,3.2c-1.5,0.3-2.9,0.9-4.4,1c-0.8,0.1-1.5,0-2.3,0.1
				c-2.4,0.4-7,1.8-7.7,4.5c1.7,2.3,6.8,0.5,6.5,4.3c-0.2,2.6-2.8,5.1-4.2,7.3c-0.7,1.1-1.5,2-2.3,3c-0.7,1-1.1,2.2-1.7,3.3
				c-0.9,1.4-1.9,1.9-0.7,3.3c1.3,1.5,3.2,1.1,4.6,2.2c0,0.4,0,0.8-0.1,1.3c3.5-0.7,5.7-3.2,8.6-4.9c2-1.2,2.7-1.5,3.6,0.8
				c0.4,1,0.5,2.4,1.6,2.8c1.2,0.5,3,0.3,4.2,0.7c1.6,0.5,1.7,0.6,2.2-1.4c0.4-1.6,0.8-3.1,1.4-4.6c0.4-0.9,0.3-1.6,0.5-2.5
				c0.5-1.8,2.9-3,4.2-4.1c0.8-0.7,1.3-1.3,2.3-1.8c0.7-0.4,1.7-0.5,2.4-1c1.4-0.9,2.6-3,3.5-4.4c1-1.5,0.4-2.6,0.8-4.3
				c0.4-1.6,1.7-3.5,2.9-4.7c1.1-1.1,2.5-1.4,3.2-3c0.7-1.5,1.2-2.8,2.1-4.2c0.7-1.1,0.7-1.6,0.7-3c0-1.8-0.2-2.6-1.8-3.6
				C176.1,189.1,171.4,187.6,170.3,186.6z"/>
			<path class="st4" d="M300.5,43.2c0.4-3-5.9-2.5-7.3-1.8c-1,0.4-2.1,1.1-2.8,2c-0.6,0.8-0.7,1.3-1.7,1.7c-0.9,0.3-3.3-0.3-4,0.6
				c-0.7,0.8-0.5,4.4-0.2,5.4c0.7,2.1,3,2.1,4.7,2.9c1.1,0.5,1.6,1.4,2.6,1.9c1.3,0.8,1.5,0,1.7,1.6c0.1,0.8,0,1.7-0.1,2.5
				c-0.5,2.8-1.2,5.2-1.1,8.2c0.1,2.8,1.7,5,2.3,7.6c0.3,1.3,0.3,2.5-0.4,3.6c-0.4,0.6-1.8,2.7-2.4,2.9c-0.8-0.3-1.1-2.8-1.3-3.6
				c-0.3-1.1-0.8-2.3-1.1-3.4c-0.3-1.5,1-2.8,0.6-4.2c-0.2-0.7-0.9-1-1.1-1.7c-0.2-0.8,0.1-2,0.1-2.9c-0.1-1.6-0.6-2.3-1.1-3.7
				c-0.4-1.4,0.3-2.4-0.8-3.6c-0.9-1-3.1-1.6-4.2-2.3c-0.4-0.2-1.9-0.9-2.1-1.3c-0.3-0.5,0-1.1,0-1.7c-0.2-1.3-0.6-2.2-0.6-3.6
				c0-1,0.1-2,0-2.9c-0.1-1.4-0.3-1.9-1.8-1.8c-2,0.1-4.1,2.4-4.7,4.2c-0.5,1.5,0.4,2.1-1.7,2.4c-1.4,0.2-3.5-0.7-4.8,0.1
				c-1.2,0.7-1.6,2.8-1.4,4.1c0.2,1.5,1.3,1.7,1.9,2.9c0.6,1.2,0.4,1.6,0.4,2.9c0.2,1.4,0.7,2.6,1.6,3.7c0.3,0.4,2.1,2.8,1.6,3.6
				c-0.8,1.3-3.2,0.4-4.2-0.1c-1.1-0.5-2.1-1.2-3.1-1.8c-1.4-0.8-1.8-0.4-3.1-0.1c-0.3,0.2-0.7,0.2-1,0.1c-0.8,0.3-1.7,0.9-2.5,1.1
				c-1.1,0.3-2.4,0.1-3.5,0.1c-1,0-3.5-0.5-4.3,0c-2.1,1.2,0.7,3.1,1.9,3.6c4,2,0.3,4-2.3,4.6c-1.3,0.3-2.3,0.7-3.7,0.8
				c-1.8,0-2.7-0.7-4.3-1.4c-3.3-1.3-5.6-1.2-8.8,0.3c-2.9,1.3-7.7,1.8-9.4,4.8c1,0.9,3.5,0.4,4.7,0.4c2.1,0,3.9-0.5,6-0.6
				c1.1-0.1,2.3-0.1,3.4,0c2.1,0.1,3.9,1.2,6,1.2c3,0.1,5.9-0.4,8.9-0.6c1.3-0.1,3.6-1.3,4.9-0.5c2.8,1.6-3,2.8-3.5,3
				c-2.3,0.8-4.8,2.2-7.3,2.3c-1.9,0.1-2.8-0.2-4,1.6c-1,1.4-0.9,2.9-3.2,2.6c-1.7-0.2-1.9-1.2-2.8-2.3c-0.4-0.6-1-1.2-1.7-1.4
				c-2.2-0.7-2.9,1.2-3.7,2.7c-1.1,1.9-1.8,3.3-4,3.8c-1.9,0.4-2.7,0.4-3.7-1.1c-0.3-0.4-0.6-0.8-0.9-1.2c-0.1-0.4-0.1-0.7-0.2-1.1
				c-1.5-0.8-3,2-3.7,2.9c-1.1,1.5-1.9,2.8-3.3,4.2c-1.4,1.4-2.8,2.2-4.8,3.3c-1.6,0.9-2.4,0.5-3.9,1.1c-1.8,0.6-3,2.2-4.6,2.9
				c-0.6,0.1-1.2,0.3-1.7,0.5c-0.7,0.6-0.7,1.9-1.1,2.8c-0.8,1.5-2.4,2.6-2.9,4.2c-0.4,1.6,0.1,3.2,0,4.8c-0.3,2.7-1.9,5.1-2.8,7.7
				c-1,3,1.4,2.5,3.9,3.6c1.3,0.8,2.8,1.4,4.3,1.8c1.4,0.2,2.8-0.1,4.3,0.2c2,0.4,2.3,1.1,3.5-0.8c0.6-1,1.2-1.9,2-2.8
				c1.9-1.8,4.6-2.7,6.7-4.3c1.8-1.4,3.5-1.5,5.3-3c1.3-1.1,3.5-2.8,3.4-4.7c-2.1-0.4-6,1.1-7.6-0.7c-1-1.2-2-3.1-1.2-4.2
				c1-1.4,4.4-2.1,6-1.6c1.7,0.5,3.9,2.4,5.3,3.5c1.2,0.9,2.2,2,2.5,3.5c0.3,1.3-0.4,2.9-0.1,4.2c0.1,0.5,0.5,0.6,0.7,1.1
				c0.1,0.5-0.3,1.4-0.1,1.9c0.5,1.1,2.4,0.5,3.5,0.5c4.5,0.2,1.8,5,4.9,6.6c1.7,0.8,3.1,1.9,4.7,3c1.5,1,2.2,1,4.1,1.3
				c0.8,0.2,2.9,0.5,3.6,1.2c0.6,0.6,0.4,1.1,1.3,1.5c1.4,0.7,3.2,0.4,4.7,0.8c1.7,0.5,1.2,0.9,2.1,2.1c0.7,1.1,1.8,1.8,2.6,2.7
				c1.5,1.6,1.3,3.1,1.3,5.2c0,1.7-0.3,3.1,1.3,4.2c2.2,1.5,4.7,0.6,6.9,1.9c1,0.6,1.5,1.2,2.5,1.7c1.6,0.8,3.2,0.9,4.9,1.4
				c3.4,1.1,3.4,3.5,5.2,6.2c1.1,1.7,2.8,2.6,3.7,4.5c0.4,0.7,2.4,3.3,1.8,4.2c-0.4,0.5-2.3,0.5-2.9,0.6c-1.8,0.4-3.4,1.1-5.2,1.7
				c-1.9,0.6-3.8,0.6-5.6,1.3c-1.5,0.6-3.2,1.3-4.6,2.1c-1.1,0.6-2.1,1.1-2.7,2.3c-0.9,2-0.8,4.2,1.5,4.8c2.4,0.7,3.8,1.4,3.6,4.1
				c-0.2,2.3-2.3,3.7-2.9,5.9c-0.4,1.3-0.5,4-0.2,5.3c0.4,1.8,2.1,1.6,3.6,0.9c4.1-1.9,3.5-7.7,7.1-10.2c0.3,1.3-0.6,3.1,0.7,4.1
				c1.2,0.8,4.2-0.6,5.2-1.3c1.5-1,3.3-2.5,4.3-4c1.3-2.1,2-5.5,4-7c1.4-1.1,2.8-0.8,4.3-0.8c2.2,0.1,2.6-0.4,3.6-2.2
				c1.8-3.2,3.1-6.2,1.8-9.7c-0.5-1.3-1-2.6-0.6-4.1c0.3-1.3,1.2-2.4,1.9-3.6c0.6-1.1,1.1-2.2,1.7-3.3c1.2-1.9,1.5-2.4,0.1-4.4
				c-2.2-3.3-7-3.4-8.6-7.2c-0.5-1.3-0.3-2.5-0.5-3.9c-0.2-0.9-1.2-3.2,0-3.9c1.8,1.4,2.9,3.4,5,4.6c2.1,1.2,4.1,1.3,5.9,3
				c1.5,1.5,2.5,3,3.5,4.7c0.7,1.3,0.7,1.2,2.5,1.2c2.1,0,4,0.2,5.9-0.6c1.3-0.5,2.5-1.1,3.8-1.8c1-0.6,1.9-1.1,2.9-1.7
				c0.6-0.3,2.7-0.9,2.8-1.8c-0.8-0.4-1.6-1-2.4-1.4c-1.2-0.6-1.9-0.4-3.1-0.5c-0.8-0.1-2.8-0.2-3.4-0.7c-0.9-0.8-0.4-1-0.7-2.2
				c-0.3-1.1-1-1.9-1.1-3c-0.1-0.8,0-1.7,0-2.4c0-1.5,0.1-3.1,0-4.6c0-1.2-0.6-2.4-0.6-3.6c1.4-0.8,4,1.5,4.8,2.4
				c1.2,1.5,2.3,3.7,4,4.7c0.7,0.4,0.4,1.1,1.2-0.1c0.5-0.7,0.1-3.3,0.1-4.1c0-1.7,0.1-3.2-0.6-4.7c-0.3-0.7-0.8-1-0.7-1.8
				c0.2-2,2.8-2.4,4.1-3.4c2.3-1.8,2.2-4.6,1.9-7.3c-0.3-3.1-3-3.3-4.3-5.6c-0.7-1.1-0.2-2-0.6-3.2c-0.4-1.1-1.9-1.3-2.3-2.3
				c-0.9-2.1,1.3-3.7,1.7-5.4c0.4-1.5-0.1-3.5,1.2-4.8c1.5-1.4,2.5,0,3.8,0.6c1.1,0.4,2.1,0.8,3.2,1.2c1.2,0.8,1.3,1.9,2.1,3
				c1.7,2.5,5.2,4.1,7.5,6c1.4,1.1,4.5,2.7,6.1,1c1.3-1.4-1.2-2.9-2.4-3.5c-1.3-0.6-3.7-0.1-4.3-1.7c-0.3-1,0.5-0.9-0.6-1.7
				c-0.8-0.6-1.9,0.2-2.8-0.6c-1.5-1.3-1.6-4-0.7-5.6c0.5-0.9,1-1.2,1.8-1.7c0.8-0.5,2.6-0.7,3-1.6c0.4-0.9,0.2-3.2,0.1-4.2
				c-0.2-1.5-0.8-2.8-1.4-4.1c-0.7-1.7-1.2-3.1-2.8-4.2c-2.4-1.7-3,0.4-3.7,2.3c-0.5,1.3-0.9,1.5-2.3,1.3c-1.3-0.1-1.5-0.4-2.4-1.2
				c-0.7-0.7-1-1.4-2.1-1.7c-2-0.6-2.5,0.3-3.7,1.7c-0.9,1.1-1.6,2.9-3.1,2.9c-1.5,0-3-1.5-4.6-1.7c-1.4-0.2-2.5,0.1-3.4,1.2
				c-0.9,1.1-1.7,2.9-3.1,3.5c-1.1,0.5-3.7,0.3-4.7,0c-0.5-1.3,0.3-2.5,1-3.5c0.5-0.8,1-1.6,1.5-2.4c0.4-0.5,2.6-2.1,2.4-3
				c-0.2-1.1-2.1-1.4-2.4-2.7c-0.1-1.5-0.2-3-0.3-4.5c-0.4-3.8-1-6.7-2.3-10.2c-0.4-1.2-1.2-2.8-1.5-4c-0.4-1.6,1.1-2.5,2.3-3.4
				c1.3-1,2.1-1.4,2.4-3.1c0.2-1.3,0.3-4-0.1-5.3c-0.3-0.5-0.6-1-0.9-1.5c-0.2-0.7-0.7-1.2-1.3-1.6c-0.6-0.5-0.7-1-0.2-1.6
				c0.4-1.1,1.6-0.9,1.2-2.4c-0.2-0.9-1.8-1.9-2.4-2.6c-1.6-1.6-3.4-3.9-5.9-3.5c-1.7,0.2-1.9,0.9-1.8,2.5c0.1,1.9-0.6,4.8,0,6.6
				c0.3,0.9,0.7,0.6,0.5,1.7C302.6,40,301.6,43.3,300.5,43.2z"/>
			<path class="st4" d="M206.5,84.9c-0.2,0-0.4,0-0.6,0c3-2.1,6.6-3.5,9.5-5.9c1.7-1.4,3-3.2,4.2-4.9c0.8-1,2.1-2.6,1.8-4
				c-0.6-2.9-5.3-0.1-6.7,0.6c-1.9,0.9-3.5,1.7-5.6,2.2c-2.8,0.7-5.9,1.4-7.6,4c-0.8,1.2-1.7,3.6-1,5.1c0.3,0.4,0.7,0.7,1.1,1.1
				c0.3,1.1-1.3,2.2-2.1,2.6C199.5,85.4,206.6,85.1,206.5,84.9z"/>
			<path class="st4" d="M232.1,133.6c0-0.2,0-0.3,0-0.5c-3.8-1.2-7.4,1.6-10.2,3.7c0.3,0.4,0.7,0.6,1.3,0.6c2.2,1,3.7,1.8,5.1,3.7
				c2,2.7,4.7,3.4,8.1,3.7c1.5,0.1,3,0.2,4.5,0.1c1,0.2,1,0.7,1.9,1.1c0.9,0.4,3.2,0.4,3.7-0.4c0.6-1.2-0.7-2.9-1.1-3.8
				c-1-1.9-1-2.1-3-2.8c-0.5,0.1-1-0.1-1.3-0.5c-0.6-0.4-0.7-1.4-1.3-1.7c-0.5-0.1-1.1-0.2-1.6-0.2
				C236.2,136.2,233.8,134.8,232.1,133.6z"/>
			<path class="st4" d="M192.3,146.1c0-0.2,0-0.3-0.1-0.5c-2.6-1-5.8,1.4-7.7,2.8c-1.6,1.2-2.8,2.7-4.2,4.2
				c-0.8,0.9-1.8,1.7-2.1,2.9c1.7,0.3,3.7,0,5.3,0c1.7,0,4.1,0.4,5.8,0.1c1.3-0.2,1.9-1,2.9-1.7c1.5-1.1,2.6-1,4.2-1.5
				c1.1-0.3,2.9-1.1,3.4-2.2C201.3,147.5,193.7,146.1,192.3,146.1z"/>
			<path class="st4" d="M375.5,62.9c0,3.4-0.5,7.1,0.4,10.5c1.3,4.3,3.8,7.7,7.6,10.4c3.4,2.6,6.9,5,10.7,7c1.7,1,3,2.4,3.9,4.2
				c0.6,1.4,1.6,2.4,3,3.1c1.4,0.7,4.6,1.3,5.8-0.1c-1.7-2.7-3.8-5.1-5.5-7.9c-1-1.5-1.7-3.1-2.2-4.9c-0.1-1.5-0.1-3,0-4.5
				c0-2,0-4.3-1.4-5.9c-1.4-1.6-2.7-2.9-3.9-4.7c-1.2-2-3-4.2-5-5.5c-1.6-1.1-3.6-1.2-5.4-1.5C381.5,62.6,377.6,62.8,375.5,62.9z"/>
			<path class="st4" d="M407.6,89c-0.4,2.7,2.1,6.6,4.4,7.8c1.5,0.8,3.4,1,5,1.8c0.6,0.3,1.2,1,1.8,1.1c0.7-1.7-0.2-4.2-0.6-5.8
				c-0.2-0.6-0.4-1.2-0.6-1.7c-0.6-1-1-0.8-1.7-1.4c-0.8-0.7-0.9-1.7-1.6-2.4c-0.8-0.4-1.6-0.7-2.4-1.1
				C411.2,86.9,408.4,89.1,407.6,89z"/>
			<path class="st4" d="M339.8,122.9c0-0.2,0.1-0.4,0.1-0.6c0.9,0.1,2.1,2.8,2.6,3.5c2,2.6,3.5,5.5,7,6c2.4,0.4,7.4,1,6.3-2.9
				c-0.6-2.1-2.5-2.9-4.3-3.6c-0.8-0.2-1.5-0.6-2.1-1.1c-0.7-0.9-0.3-1.6-1.4-2.3c-0.6-0.1-1.1-0.3-1.7-0.5
				c-0.5-0.3-0.9-0.7-1.1-1.2C343.6,118.5,342,123.2,339.8,122.9z"/>
			<path class="st4" d="M247,230.6c-2.5-3.2-7.4-0.2-9.6,1.6c-1.7,1.4-3.5,4.1-5.8,4.4c-3.1,0.3-6.5,0-9.6,0
				c-3.8,0-7.4,0.2-11.1,1.1c-3.2,0.8-5.8,2.7-9,3.6c-4.5,1.3-9.2,1.3-13.8,2.4c-3.8,0.9-7.4,1.9-10.6,4.2c-0.8,0.6-1.7,1.1-2.5,1.7
				c-0.9,0.7-1.4,2-2.4,2.6c0.5,1,2.8,1.3,3.6,1.7c1.4,0.7,3,1.8,3.5,3.4c0.4,1.3,0.2,3.6-0.5,4.7c-0.6,1-1.8,1.9-2.5,2.9
				c-0.8,1.1-0.9,1.1-2.2,1.6c-1,0.4-2.1,0.5-3,0.9c-1.6,0.6-3,1.7-4.8,1.9c-1.4,0.2-2.7-0.5-4.2-0.6c-1.1,0-2.2,0.2-3.2-0.1
				c-2.5-0.6-3.1-2.9-5-4.1c-1.8-1.2-5.7-0.7-7.2,0.8c-0.8,0.8-0.7,1.4-1.9,2.1c-2.3,1.5-6.2,2-8.9,2.4c-1.2,0.2-2.4,0-3.6,0.2
				c-1,0.2-2,0.6-2.9,0.9c-2.3,0.6-4.6,1.2-6.9,2c-1.1,0.4-2.2,0.7-2.6,1.9c-0.5,1.3,0.4,2.3,0.9,3.4c0.9,1.7,1.8,3.4,2.5,5.2
				c1.2,2.9,2.6,2.9,5.7,3.2c4.2,0.3,8.4,0,12.6,0.5c3.5,0.4,8.4,0.7,11.5-1c2.2-1.2,2.3-4,3.6-6.1c1.1-1.7,2.7-1.1,4.7-1.1
				c1.5,0,3.4-0.3,4.9,0.1c1.3,0.4,1.9,1.4,2.8,2.3c2.5,2.3,5.7,2.2,8.5,0.5c2.3-1.4,4.8-2.1,7.1-3.5c2.1-1.4,4-3.9,6.4-4.6
				c2.5-0.7,5,0.4,7.4,0.6c3.3,0.3,12.4-8.9,14.6-4c1.1,2.4-0.6,6.1,1.2,8c1.2,1.4,3.4,1.1,5,1.4c2.5,0.4,4.9,1.7,5.6,4.4
				c1.3,4.8-2.5,7-4.5,10.7c-1.4,2.5-2.1,4.6-4.2,6.7c-1.2,1.2-1.8,1.3-2.1,2.8c-0.5,3.4,0.8,5.6,3.1,8c1.2,1.2,2.6,2.1,4,3.1
				c0.9,0.7,1.6,1.7,2.5,2.4c1,0.8,2.2,1.2,3.5,1.2c1.1,0,2.2-0.5,2.9,0.6c0.7,1.1,0,4,0,5.3c0.1,1.9,0.3,4.2,2.5,4.7
				c1.2,0.3,2.7,0.1,4,0.1c0.7,0.1,1.5,0,2.2-0.1c0.7-0.3,1.4-0.6,2-1.1c0.3,0,0.5,0,0.8-0.1c2.1,2.6-0.3,7.2-1.3,9.7
				c-0.6,1.6-1.2,3,0.6,3.5c3.4,1,6.2-3.1,6.6-5.9c0.1-1.1-0.2-2.1,0.2-3.1c0.3-0.6,2-1.6,2.6-1.7c0.4,1.2,1.7,1.1,2.7,1.6
				c1.9,1.2,2.8,3.4,4.7,4.6c3.1,2,10.6,0.9,9.2-4.2c-0.7-2.5-3.3-3.7-4.6-5.8c-0.6-0.9-0.8-1.9-0.8-3c0.1-1.8,1.4-2.1,1.8-3.4
				c0.4-1.2-0.5-2.8,1.2-3c0.7,0.1,1.3,0.3,1.8,0.8c1.2,0.7,2.4,1.4,3.8,1.1c1.7-0.3,1.6-1.2,2.8-2.2c0.4-0.3,0.8-0.6,1.2-0.7
				c0.5-0.4,0.6-0.8,1.1-1.2c1.3-1,2.8-1.3,4.4-1.4c1.2,0,2.6,0.4,2.7-1.3c0.2-1.8-3.7-3.9-5-4.4c-1.6-0.6-4.9-0.7-5.6-2.8
				c-0.7-2.1,3.1-4.8,3.5-7c0.2-1,0.1-2.5,0-3.5c-2.8-0.6-6.1-1.6-8.5,0.6c-2.2,1.9-3.9,6.1-7.5,5.2c-0.2-1,0-2.7-0.7-3.4
				c-0.9-0.9-4-1.1-5.3-1.2c-1.4-0.2-3-0.5-3.6-1.8c-1-2.1,1.5-5.5,2.3-7.2c0.5-1,0.3-2.2,0.8-3.1c0.8-1.6,2.7-1.5,3.4,0.2
				c0.1,1.3,0.4,2.7,0.7,4c0.1,0.2,0.4,2.3,0.7,2.6c1,1.6,2.9,0,3.9-0.6c1.3-0.8,2.7-1.6,4.4-1.7c1.8-0.2,2.8,1.2,4.1,2.2
				c1,0.7,2,1.5,3.2,1.8c2.7,0.6,4.3,0,5.3,3.1c0.4,1.3,0.9,2.5,1.4,3.7c0.6,1.6,1.5,2.6,2.4,4c0.5,0.8,0.7,2.3,1.4,2.9
				c1.2,1,4.7-0.6,5.8-1.1c1-0.5,2.4-1.3,2.9-2.4c0.3-0.8,0.9-2.2,0.6-3c-0.3-0.4-0.7-0.8-1-1.1c-0.5-1.2,0.3-2.4,1-3.4
				c0.5-0.6,1-1.2,1.3-1.9c0.4-1.1,0-2.5,0.1-3.7c0-1.3,0.2-2.1-1.1-3c-1.7-1.2-3.2-0.1-4.8-0.7c-0.7-0.5-1.3-1.1-1.8-1.8
				c-1.2-1.1-2.1-1.1-3.5-1.6c-1.8-0.6-2.7-1.3-3.6-3c-0.6-1.2-0.8-2.4-0.7-3.7c0.1-1.7,1.2-3.6,0.5-5.2c-0.7-1.8-2.1-2.4-3.9-2.5
				c-1.8,0-3.2-0.3-4.9-0.7c-1.6-0.4-2.9-0.3-4.5,0.3c-0.8,0.3-1.5,0.6-2.2,1c-1.2,0.1-2.7-0.6-3.8-1.1c-3.1-1.3-1.1-3.3-2.6-5.5
				c-0.4-0.3-0.8-0.6-1.1-1c-0.5-0.9-0.2-2.4,0.6-3.1c2.1-0.1,2.9,2.4,4.1,3.7c1.3,1.3,3.7,3.7,5.7,3.5c1.1-0.1,2.1-0.5,3.2-0.5
				c2.4-0.1,4.6,0.1,7-0.6c1.6-0.5,2.7-0.4,4.3-0.6c2-0.2,1.6-2,0.8-3.6c-1.2-2.2-3.8-1.9-5.2-3.5c-0.9-1-1-2-2.1-2.9
				c-0.8-0.4-1.3-1-1.7-1.8c-0.4-0.7-0.5-1.5-0.5-2.3c0.1-0.6-0.1-1-0.7-1.1c-0.5-0.4-2.1-0.9-2.7-1.3c-0.7-0.5-1.5-0.9-2.3-1.2
				c-1.2-0.6-1.9-1.5-2.9-2.3c-1.5-1.1-3-1.3-4.5-2.5c-2.2-1.8-6.2-2.3-7.1-5.4c-0.3-1.1-0.4-1.8-0.9-2.8
				C251.6,231.3,246.8,232.2,247,230.6z"/>
			<path class="st4" d="M259.5,224.1c0.2,1.3,1.2,2,3.1,2c3.1,1.3,6.2,2.7,9.2,4.3c1.4,1.4,1.6,2.5,3.6,3.1c2.6,0.8,9.2,3.2,11.2,0
				c-1.2-1.3-3.3-2.3-4.8-3.3c-1.5-1-3-2.4-4.1-3.7c-0.8-0.9-0.8-1.8-1.5-2.6c-0.8-0.5-1.7-0.8-2.7-0.9c-2-0.3-2.4,0-4-1.1
				c-2.3-1.7-6.2-3.1-9.1-3.2c-0.9,0-2.6-0.3-3.4,0C255.7,219.1,258,223.2,259.5,224.1z"/>
			<path class="st4" d="M278.5,244.9c4.9,0,9.7-0.9,13.8,2.3c0.7,0.5,3.2,1.7,3.4,2.5c0.5,1.8-2.7,1.7-3.8,1.8c-2,0.1-4.3,0.2-6.2,0
				c-1.3-0.1-1.9-0.9-2.9-1.8C281.8,248.8,280.1,244.6,278.5,244.9z"/>
			<path class="st4" d="M388.5,350.2c-1.4-3.3-4.4-6.3-3.5-10.2c0.4-1.8,1.4-3.9,3.3-4.1c1.4-0.2,2.8,1.1,4.3,0.7
				c0.2-1-0.1-1.9,0-2.9c0.1-1.5,1.3-3.2,2.5-4.1c1-0.8,1.8-1.2,3-0.2c0.9,2.2,1.2,4.5,0.7,6.8c-0.3,1-0.4,2-0.1,3
				c1.5,1.7,4.6,0.6,6.5,0.4c2.6-0.2,4.1-2.8,5.9-4.3c2.3-2,5-1.3,7.4-2.8c1.3-0.8,1.9-2.2,2.6-3.5c0.8-1.4,1.8-2,3.1-3
				c1.5-1.1,1.9-1.2,3.5-0.9c2.7,0.6,5.4-0.3,7.6-1.9c2.5-1.7,4.3-4.2,6.6-6.1c0.5-0.5,2.9-3,3.7-2.5c0.2,1.4-0.7,2.9-1.2,4.1
				c-1.3,2.9-3,5.5-4.6,8.2c-0.7,1.2-1.1,2.5-1.9,3.6c-1.1,1.6-3,2.6-4,4.2c-0.4,0.7-0.5,1.5-0.8,2.3c-0.8,2.1-2.7,3.8-4.8,4.7
				c-2.1,1-4.6,1.7-7,1.9c-1.9,0.1-2.2,1.1-3.6,2.2c-2.5,2-4.8,4.1-7.3,6.1c-1.1,0.9-1.9,1.7-3.3,1.8c-1.1,0.1-2.4,0-3.6-0.1
				c-2.4,0-4.4,0.2-6.7,1C395.9,355.1,388.1,352.6,388.5,350.2z"/>
			<path class="st4" d="M376.7,349c-1.6-2.1-6,0.4-8.2,0c-0.7-2.1,1.4-4.5,0.3-6.4c-0.7-1.2-2.7-1.7-4-1.2c-1.9,0.7-3.7,4.3-4.8,5.9
				c-0.9,1.2-1.2,1.9-1.8,3.1c-0.4,0.9-0.8,2.3-1.6,2.9c-1.3,1-3.3,0.4-4.8,0.6c-3.4,0.5-4.5,2.2-6.7,4.5c-1.5,1.6-2.4,2.2-4.7,2.5
				c-2.9,0.4-5.4,1.7-8.4,1.8c-4,0.2-4.9-1.6-5.1-5.3c-0.2-2.8-1.8-2.3-4.1-2.5c-1.9-0.1-3.4-0.9-5.5-0.5
				c-5.8,1.2-10.4-1.2-14.8-5.1c-1-0.9-1-1.2-2.3-1.8c-0.8-0.3-1.7-0.6-2.5-0.9c-2.5-0.9-5-0.8-7.7-0.7c-0.8,0-1.6,0.1-2.4-0.1
				c-1.5-0.4-2.6-1.6-4-2.1c-2.5-0.9-5.1,0.8-6.8-1.4c-1.1-1.3-1.7-2.2-3.3-3c-1.3-0.7-2.2-0.6-3.7-0.6c-1.8,0-3.5-0.1-5.3,0.6
				c-1.9,0.8-2.8,2.7-4.7,3.5c-1.8,0.7-4.5,1.1-6.5,0.6c-1-0.2-2.6-1-3.7-0.4c-0.8,0.4-0.7,1.5-1,2.2c-0.2,0.5-0.7,0.7-0.8,1.3
				c-0.4,1.6,0,2.8-1.7,3.8c-1.4,0.8-2.3,1.3-3.7,0.5c-1.9-1.1-3.4-3.8-5.7-2.5c-1,0.6-1.8,2-2.5,2.9c-0.9,1.2-1.9,2.3-2.7,3.6
				c-1.8,2.8-3.1,5.7-4,8.9c-1.1,4.2-2,8.5-2.2,12.8c-0.1,2-1.3,3.3-2.4,4.8c-0.5,0.6-0.8,1.6-1.3,2.2c-0.6,0.7-1.7,0.9-2.2,1.9
				c-1.2,2.7,2.2,4.3,4.1,5.4c1.8,1.1,3.4,2.4,5.2,3.5c2,1.2,3.8,1.1,6,1.4c3.2,0.5,6.5,0.9,9.7-0.1c2.1-0.6,4.2-1.7,6.5-1.9
				c1.7-0.1,3.1,0.2,4.8-0.4c0.2-1.7-1.6-3-2.3-4.4c-0.9-1.6-1.5-3.3-1.2-5.2c0.2-1.3,1.1-2.4,1.7-3.5c1.4-2.5,0.4-1.8-1-3.7
				c-0.6-0.8-1.1-2.5-1.2-3.4c-0.3-2.2,1.1-3.8,2.3-5.6c1.4-2,4.4-5.4,7.2-5.3c1.2,1.7,1,4.7,1.7,6.7c0.5,1.5,1.1,3.3,1.9,4.7
				c0.4,0.6,1,1.3,1.5,1.9c0.2,0.4,0.4,0.7,0.7,0.9c0.8,0.5,2.6,0.1,3.5,0.1c2.2,0,4.5,0.3,6.5-0.5c1.7-0.7,1.9-2.1,3.2-2.9
				c1.6-1,3.7-1.4,5.3-2.4c2.1-1.2,5.2-4.1,7.7-3.8c1.2,9.8,17.4,2.2,22.7,1.8c2.4-0.2,7-1.7,9.3-0.4c1.8,1,1.3,2.8,1.3,4.5
				c0,1.8-0.4,2.6,1.2,3.4c1.9,1,4.8,1.3,5.8,3.1c0.9,1.7,0.7,3,0.7,4.9c0,2,0.4,4.1-1.2,5.7c-0.8,0.8-1.4,0.7-1.1,1.9
				c0.5,1.9,4.3,3.2,5.8,3.5c2.4,0.5,4.2,0,6.2-1.2c1-0.6,2-1.2,2.9-1.8c0.9-0.7,1.4-1.7,2.3-2.4c1.1-0.9,2.4-1.8,3.6-2.7
				c1.3-1,2.6-1.6,4.2-1.2c0.9,0.5,1.8,0.8,2.8,1c1.8,0.2,3.7,0.2,5.5,0.1c2.4,0,4.6,0.6,7,0.6c1.3,0,3.1,0.3,4.3-0.1
				c2.4-0.8,2.1-2.8,2.5-4.6c0.8-4,2.5-6.1,5.9-8.3c2.4-1.6,2.6-3.5,2.4-6.3c0-1.4-0.4-2.6-1.2-3.8c-0.6-0.9-2.2-1.6-2.7-2.4
				c-0.5-0.9,0.1-2.1,0.4-3.1c0.6-2.2,1.5-4.3,1.1-6.6c-0.2-1.1-1-2.6-1.8-3.3C381.3,348.1,377.8,350.5,376.7,349z"/>
			<path class="st4" d="M434.9,112.2c4.8-0.1,7,2.6,10,5.9c0.5,0.5,1.2,1.5,1.8,1.9c1.1,0.7,1.8,0.3,2.9,0.6
				c0.9,2.1-2.3,2.3-3.5,2.3c-0.7,0-1.7,0.2-2.4-0.1c-0.9-0.3-1.6-1.6-2.4-2.1c-0.8-0.7-1.6-2-2.5-2.5c-1.1-0.5-2.9,0-4-0.7
				C433.2,116.6,434.9,114.2,434.9,112.2z"/>
			<path class="st4" d="M437.3,316.3c1.4,0.1,3.4-2.2,4.4-2.9c3.1-2.1,6.5-4.4,8.8-7.4c1-1.3,1.8-2.6,2.9-3.8c0.7-0.7,1.4-1.4,2.2-2
				c0.5-0.7,0.3-1.1,0.9-1.9c1.6-2.2,3.9-3.1,5.1-5.7c1.1-2.4,4.3-2.4,6.7-3c3.6-0.9,4.7-2,5.9-5.2c-2.1-1.3-6.2-1.1-8.5-0.6
				c-2.4,0.5-4,2.9-6.4,3.7c-2.4,0.8-4.8-0.1-7.1,1.1c-2.2,1.1-4.1,2.8-5.4,4.9c-1.1,1.7-2.4,3.3-3.4,5.1c-0.8,1.4-0.9,2.6-1.4,4
				c-0.7,1.9-2.8,3.6-4.2,5c-1,1-2,2.1-2.4,3.6C435,312.1,437.3,314.9,437.3,316.3z"/>
			<path class="st4" d="M323.7,250.2c2.6,0,21.2-0.7,18.9,4.7c-1.2,0.5-2.5,0.5-3.8,0.8c-1.9,0.3-3.7,1.2-5.6,1.6
				c-1.7,0.4-4.3,0.4-5.9,0.1c-0.9-0.2-1-0.7-1.8-1.1c-0.6-0.3-1.2-0.1-1.8-0.5c-0.8-0.5-0.6-1-1-1.8
				C322.2,252.8,324.7,251.2,323.7,250.2z"/>
			<path class="st4" d="M235.7,211.6c1,1.5,1.9,3.1,2.8,4.6c1.1,1.7,2.6,3.9,2.8,5.9c-2.7,1.2-7-0.7-9.8-1.1
				c-0.1-1.5-1.2-1.8-1.9-2.9c-0.7-1-0.9-3-0.6-4.2c0.6-2.1,3.2-3.9,5.3-4.5C234.4,209.9,236.4,211.8,235.7,211.6z"/>
		</g>
		<path class="st2" d="M328.4,292.2c1.9,0.8,4.4-1.6,5.6-2.4c3.8-2.2,8.3-4.1,12.8-4.1c2.9,0,5.1,1.5,7.9,1.8
			c4.3,0.4,8.7-1.7,13-2.3c4-0.6,8.1,0.4,12-0.6c2.6-0.7,5.3-2,7.9-3c1.8-0.7,4.2-2.2,6.1-2.1c-1.4,4.5-6.5,7.6-9.5,10.9
			c-3.8,4.1-8.4,9.2-13.9,10.7c-3.4,0.9-6.8,1.2-10.3,1.8c-2,0.4-4,0.8-6,1.3c-1.2,0.4-2.2,0.2-3-0.6c-1.8,0.1-6,2.2-7.4,2.7
			c-4.3,1.5-8.9,3.6-13.4,4.3c-4.3,0.7-8.9,1.8-12.9-0.1c-1.8-0.9-5.9-1.1-3.3-3.8c1.8-1.8,4.9-2.3,6.9-3.8c1.5-1.1,1.3-0.8,1.2-2.7
			c0-0.9-0.3-2.2,0.1-3.1C322.6,295.9,328,293.4,328.4,292.2z"/>
		<path class="st2" d="M150.6,303.5c6.9,0.1,12.9,0.1,18.8,4.5c4.9,3.6,1.9,8.8,3.4,13.8c1.5,5,5,10.4,8.6,14.1
			c2.5,2.7,5.4,4.9,6.9,8.3c-3.1,1.9-8.7-1.2-11.5-2.5c-1.1-0.7-2.3-1.3-3.5-1.6c-1.9-0.4-3.2,0.5-3.9-1.8c0-1.5-0.1-3-0.2-4.5
			c-0.5-1.4-2.2-2.1-3.2-3.2c-2.3-2.7-2.4-5.9-3.8-9c-1.3-2.7-2.6-2.2-5.2-3.3c-1.3-0.6-2.4-1.4-3.4-2.4c-1.8-1.1-4.1-1.2-6.2-1.7
			c-3.6-1-5.9-2.9-8.7-5c0.1-1.7,2.6-1.3,3.7-1.6c1.8-0.5,3-1.5,5-1.4C147.5,304.6,150.7,304.9,150.6,303.5z"/>
	</g>
	<path class="st5" d="M-18.2,442.4c1.8,0.5,2-0.2,3.7-0.7c3.7-1.9,7.4-3.8,11.1-5.8c10.8-5.2,21.3-10.8,31.7-16.8
		c7.8-5.2,16.5-9,24.7-13.6c9-5.1,17.2-6.2,26.9-8.5c9.6-2.2,19.5-3.8,29.2-5.1c5.1-0.7,9.5-1.9,14.6-1.3c3.1,0.4,10.4,0.1,13.1,2.4
		c1.5,1.3,1.3,2.9,2.3,4.5c1.5,2.5,4.2,4,6.4,5.7c2.4,1.8,5.1,5,8,6c1.3,0.1,2.6,0.2,3.9,0.3c2.1,0.7,4.2,1.4,6.2,2.4
		c4.6,1.7,8.1,3.8,12.2,6.6c2.6,1.8,4.8,4,7.6,5.5c2.6,1.4,4.8,2,7,4.1c1.7,1.6,1.9,2,3.8,3.1c2,1.1,4.6,1.4,6.5,2.5
		c1.7,1,2.5,2.6,4.2,3.6c2.1,1.3,5,1.3,7.3,2.1c3.4,1.2,5.9,2,8.9,3.9c2.8,1.7,5.7,3.6,8.5,5.1c2,1.1,2.6,1.4,4.3,2.8
		c2.5,2.1,4.4,3.1,7.9,3.6c7.7,1.2,14.9,0.5,22,4c3.4,1.7,6.9,1.7,10.4,2.8c1.9,0.6,3.1,1.8,4.8,2.6c1.8,0.8,3.2,0.7,5.1,0.9
		c1.5,0.1,3.8,1.1,5,1.1c2.7,0,4.9-2.4,7.1-3.9c3.9-2.6,7.6-4.6,12-6.2c2.4-0.9,4.8-1.5,7.3-2.1c4.9-1,9.5-2.7,14.3-3.9
		c8.6-2,17.1-4.6,25.7-6.3c6.5-1.3,9.8-5.2,15.5-8c5.9-2.9,13.3-2.9,19.4-5.5c5.1-2.2,10.2-6.6,14.7-9.9c5.7-4.2,11.6-4.7,18.7-4.8
		c8.2-0.1,16.1,0.2,24-2.8c3.4-1.3,6.7-3,9.8-4.7c5.1-2.8,10.8-3.9,16.6-3.9c2.9,0,5.2,0.5,8.1,1c3.8,0.6,7,0.1,10.7,1.6
		c9.3,4,16.9,11.5,26.6,15c3.9,1.4,7.9,1.4,11.8,2.6c3.4,1.1,5.3,3.3,8.3,5c2.9,1.6,6.1,1.1,9,2.6c3.5,1.9,6.5,5.2,10.1,7.2
		c8.8,4.9,18.9,2.1,28.3,4c8.1,1.6,12.7,9,20.6,11.5c5.4,1.7,10.9,1.4,16.4,2.5c3.6,0.7,7,2.3,10.5,3.2c7,1.9,14.3,2.5,21.5,3.4
		c3.4,0.4,3.6,2.1,3.8,5.8c0.5,8.9,0,18-0.1,26.9c-0.2,6.3-0.1,12.6,0.2,19c0.5,7.7,2.8,15,3.5,22.7c0.6,7.2-1.9,14.3-1,21.5
		c0.7,5.8,2.4,10.7,2.5,16.6c0.2,10-0.1,20-0.1,29.9c0,7.7,0.9,16-0.2,23.7c-0.8,5.3-2.9,10.2-3.6,15.5c-0.6,4.7-1.4,9.9-2.5,14.4
		c0.3,1,0,1.8-0.8,2.2c-0.5,0.5-16.6,1-16,1c-13.8,0.7-27-3.6-39.3-9.7c-4.6-2.8-9.4-4.9-14.6-6.3c-10.3-2.7-22-2.3-32.5-1.4
		c-14.8,1.3-29.9,2.3-44.6,4.9c-12.6,2.2-26.7,3-39.5,2.4c-7.6-0.7-15.1-1.5-22.7-2.5c-12-1.1-24.1-1.5-36.1-2.1
		c-7.5-0.3-14.9-0.9-22.4-1.6c-10.1-0.8-20.5-0.7-30.3-3.8c-6.9-2.2-12.5-4.2-19.8-4.9c-9.6-0.8-18.4-1.7-27.8-4
		c-7.3-2.3-14.8-3.9-22.5-4.8c-9.8-1.1-18.8-0.3-28.5,1c-5.6,1.2-11.1,1.5-16.8,0.9c-8.4-1.2-16.2-4.4-24.8-5.4
		c-7.6-0.4-15.3-1.1-22.9-2.1c-7.7-1.3-14.5-2.9-22.4-3.3c-16.1-0.8-32.7-0.6-48.8-0.3c-13.5,0.3-26.9,1.1-40.4,1.3
		c-15.1,0.1-30.2,1-45.3,1.3c-8.9,0.1-17.8,1.4-26.7,1.3c-5.3,0-10.8-0.5-16,0.9c-0.7-1-0.8-2.1-0.1-3.4c-0.3-4.9-1-9.7-2.2-14.4
		c-2.2-10.5-4.9-20.9-6.7-31.6c-1-7.2-2.3-14.4-3.9-21.5c-1.6-6-2.8-12.1-3.7-18.2c-0.9-9.7,0.6-19.4-0.4-29
		c-0.8-8.1-2.3-16,0.5-23.8c1.4-2.8,2.5-5.7,3.3-8.7c0.3-3.2,0.8-6.4,1.5-9.6c1-5,0.6-9.9,1.5-14.9
		C-12.7,447.9-14.7,442.8-18.2,442.4z"/>
	<path class="st6" d="M420.7,635c-1.2-1.4-2.5-2.6-3.8-3.7c-0.1-0.4-0.3-0.8-0.4-1.2c0.9,0.9,1.9,1.8,2.9,2.6c0.7,0.5,1.6-0.3,1-1
		c-1.9-2-3.7-4-5.6-6c-0.5-1.2-1.1-2.4-1.6-3.5c0.5,0.8,1,1.5,1.4,2.3c0.5,0.8,1.6,0.1,1.2-0.7c-1.8-3.9-3.9-7.4-6.6-10.7
		c1.2,1,2.4,2,3.7,2.8c0.6,0.4,1.2-0.5,0.7-0.9c-3.6-3.6-7.3-7.3-11.1-10.7c-0.1-0.1-0.2-0.1-0.3-0.1c-0.2-0.3-0.5-0.7-0.7-1
		c2.1,2,4.3,4,6.6,5.9c0.7,0.5,1.5-0.3,1-1c-1.2-1.5-2.6-2.9-4-4.2c1.6,0.6,3.3,1.1,4.9,1.5c0.7,0.2,1.2-0.9,0.5-1.2
		c-2-0.9-4.1-1.6-6.2-2.2l9.4-0.2c0-0.1,0-0.1-0.1-0.2c0.8,1.2,1.7,2.3,2.7,3.3c0.6,0.7,1.7-0.2,1.2-1c-3.2-4.8-6.1-9.7-8.3-15
		c-0.1-0.2-0.2-0.3-0.3-0.4c0-0.1-0.1-0.3-0.1-0.4c1.3,1.9,2.7,3.8,4.3,5.5c0.6,0.7,1.8-0.2,1.3-1c-2.1-3.6-4.5-7.2-6.8-10.7
		c0.6,0.3,1.5-0.4,1-1.1c-2.6-3.8-4.8-7.7-6.6-11.9c0.5,0.6,1,1.2,1.5,1.8c0.6,0.7,1.7-0.2,1.2-0.9c-1.7-2.7-3.3-5.6-4.6-8.5
		c2-0.6,4.1-1.2,6.1-1.8c0.5,0.6,1,1.2,1.6,1.7c0.7,0.7,1.9-0.2,1.4-1c-2-2.8-3.9-5.6-5.4-8.6c1.2,1,2.4,2,3.7,2.9
		c0.7,0.5,1.5-0.6,0.9-1.2c-2.3-2.2-4.4-4.5-6.5-6.9c0.4,0.4,0.7,0.8,1.1,1.2c0.6,0.6,1.4-0.3,0.9-0.9c-3.1-3.7-5.2-7.6-6.9-11.9
		c0.8,0.9,1.6,1.8,2.5,2.6c0.5,0.4,1.1-0.2,0.7-0.7c-2.6-3-4.9-6.3-6.9-9.7c-0.1-0.1-0.2-0.2-0.3-0.2c-0.3-0.7-0.6-1.5-0.9-2.2
		c-0.3,0.9-0.7,1.8-1.1,2.7c-1.2,1.1-2.1,2.9-3.1,4.1c-2,2.4-4.2,4.3-6.3,6.4c-0.7,0.7-0.1,2.1,0.7,1.6c0.8-0.5,1.5-1,2.2-1.6
		c-2.2,2.7-4.5,5.2-7,7.7c-0.6,0.6-0.1,1.8,0.6,1.3c1.6-1.1,3.1-2.4,4.6-3.8c-0.8,1.3-1.7,2.6-2.6,3.8c-2.9,2.6-6,4.9-9.2,7.2
		c-0.6,0.5-0.2,1.8,0.5,1.5c1.1-0.5,2.1-1.1,3.2-1.8c-1,1.1-2.1,2.3-3.1,3.3c-1.7,1-1.5,1.6-3.2,2.6c-0.6,0.4-0.1,1.5,0.4,1.3
		c0.1,0,0.2-0.1,0.3-0.1l8.3,0.6c-2.4,2.8-4.9,5.6-7.3,8.4c-0.4,0.4-0.1,1.1,0.3,1.3c-0.1,0.1-0.1,0.2-0.2,0.2
		c-0.6,0.7,0.3,1.7,1.1,1.1c0.6-0.5,1.3-1.1,2-1.6c-1.1,1.7-2.3,3.4-3.5,5c-0.6,0.9,0.3,2.1,1,1.3c0.4-0.4,0.8-0.9,1.1-1.3
		c-0.4,0.8-0.8,1.5-1.3,2.3c-2.4,3-5.1,5.6-8,7.8c-0.6,0.5-0.1,1.6,0.6,1.2c1.4-0.9,2.6-1.9,3.9-3c-1,1.6-1.9,3.3-3,4.8
		c-2.1,2.9-4.4,5.7-6.6,8.5c-0.6,0.8,0.2,2.2,1,1.6c0.3-0.3,0.6-0.5,0.9-0.8c3.2,0.5,6.5,0.9,9.7,1.4c-0.6,0.4-1.2,0.8-1.7,1.4
		c-0.7,0.7,0.2,1.7,1,1.4c0.8-0.3,1.6-0.7,2.4-1c-1.5,2.4-3.3,4.5-5.5,6.1c-0.4,0.3-0.1,1.3,0.4,1.1c1-0.5,1.9-1.2,2.7-1.9
		c-0.4,0.7-0.8,1.5-1.2,2.2c-2,2.5-4.1,4.8-6.5,6.7c-0.7,0.6-0.1,2,0.7,1.5c0.5-0.3,1-0.7,1.5-1c-0.4,0.6-0.7,1.1-1.1,1.7
		c-2.6,2.5-5.4,4.6-8.4,6.3c-0.7,0.4-0.2,1.7,0.5,1.5c0.5-0.2,0.9-0.3,1.3-0.5c-1.9,1.9-3.8,3.9-5.6,6c-0.6,0.7,0.2,2,0.9,1.4
		c0.9-0.8,1.8-1.6,2.7-2.4c-1,1.3-2,2.6-3,3.9c22.9-2.1,45.9,0.6,68.8,3.2c-0.2-0.6-0.4-1.2-0.6-1.8c0.5,0.3,0.9,0.7,1.4,1
		C420.5,636.8,421.2,635.7,420.7,635z"/>
	<path class="st6" d="M489.4,645.6c-1.2-1.4-2.5-2.6-3.8-3.7c-0.1-0.4-0.3-0.8-0.4-1.2c0.9,0.9,1.9,1.8,2.9,2.6c0.7,0.5,1.6-0.3,1-1
		c-1.9-2-3.7-4-5.6-6c-0.5-1.2-1.1-2.4-1.6-3.5c0.5,0.8,1,1.5,1.4,2.3c0.5,0.8,1.6,0.1,1.2-0.7c-1.8-3.9-3.9-7.4-6.6-10.7
		c1.2,1,2.4,2,3.7,2.8c0.6,0.4,1.2-0.5,0.7-0.9c-3.6-3.6-7.3-7.3-11.1-10.7c-0.1-0.1-0.2-0.1-0.3-0.1c-0.2-0.3-0.5-0.7-0.7-1
		c2.1,2,4.3,4,6.6,5.9c0.7,0.5,1.5-0.3,1-1c-1.2-1.5-2.6-2.9-4-4.2c1.6,0.6,3.3,1.1,4.9,1.5c0.7,0.2,1.2-0.9,0.5-1.2
		c-2-0.9-4.1-1.6-6.2-2.2l9.4-0.2c0-0.1,0-0.1-0.1-0.2c0.8,1.2,1.7,2.3,2.7,3.3c0.6,0.7,1.7-0.2,1.2-1c-3.2-4.8-6.1-9.7-8.3-15
		c-0.1-0.2-0.2-0.3-0.3-0.4c0-0.1-0.1-0.3-0.1-0.4c1.3,1.9,2.7,3.8,4.3,5.5c0.6,0.7,1.8-0.2,1.3-1c-2.1-3.6-4.5-7.2-6.8-10.7
		c0.6,0.3,1.5-0.4,1-1.1c-2.6-3.8-4.8-7.7-6.6-11.9c0.5,0.6,1,1.2,1.5,1.8c0.6,0.7,1.7-0.2,1.2-0.9c-1.7-2.7-3.3-5.6-4.6-8.5
		c2-0.6,4.1-1.2,6.1-1.8c0.5,0.6,1,1.2,1.6,1.7c0.7,0.7,1.9-0.2,1.4-1c-2-2.8-3.9-5.6-5.4-8.6c1.2,1,2.4,2,3.7,2.9
		c0.7,0.5,1.5-0.6,0.9-1.2c-2.3-2.2-4.4-4.5-6.5-6.9c0.4,0.4,0.7,0.8,1.1,1.2c0.6,0.6,1.4-0.3,0.9-0.9c-3.1-3.7-5.2-7.6-6.9-11.9
		c0.8,0.9,1.6,1.8,2.5,2.6c0.5,0.4,1.1-0.2,0.7-0.7c-2.6-3-4.9-6.3-6.9-9.7c-0.1-0.1-0.2-0.2-0.3-0.2c-0.3-0.7-0.6-1.5-0.9-2.2
		c-0.3,0.9-0.7,1.8-1.1,2.7c-1.2,1.1-2.1,2.9-3.1,4.1c-2,2.4-4.2,4.3-6.3,6.4c-0.7,0.7-0.1,2.1,0.7,1.6c0.8-0.5,1.5-1,2.2-1.6
		c-2.2,2.7-4.5,5.2-7,7.7c-0.6,0.6-0.1,1.8,0.6,1.3c1.6-1.1,3.1-2.4,4.6-3.8c-0.8,1.3-1.7,2.6-2.6,3.8c-2.9,2.6-6,4.9-9.2,7.2
		c-0.6,0.5-0.2,1.8,0.5,1.5c1.1-0.5,2.1-1.1,3.2-1.8c-1,1.1-2.1,2.3-3.1,3.3c-1.7,1-1.5,1.6-3.2,2.6c-0.6,0.4-0.1,1.5,0.4,1.3
		c0.1,0,0.2-0.1,0.3-0.1l8.3,0.6c-2.4,2.8-4.9,5.6-7.3,8.4c-0.4,0.4-0.1,1.1,0.3,1.3c-0.1,0.1-0.1,0.2-0.2,0.2
		c-0.6,0.7,0.3,1.7,1.1,1.1c0.6-0.5,1.3-1.1,2-1.6c-1.1,1.7-2.3,3.4-3.5,5c-0.6,0.9,0.3,2.1,1,1.3c0.4-0.4,0.8-0.9,1.1-1.3
		c-0.4,0.8-0.8,1.5-1.3,2.3c-2.4,3-5.1,5.6-8,7.8c-0.6,0.5-0.1,1.6,0.6,1.2c1.4-0.9,2.6-1.9,3.9-3c-1,1.6-1.9,3.3-3,4.8
		c-2.1,2.9-4.4,5.7-6.6,8.5c-0.6,0.8,0.2,2.2,1,1.6c0.3-0.3,0.6-0.5,0.9-0.8c3.2,0.5,6.5,0.9,9.7,1.4c-0.6,0.4-1.2,0.8-1.7,1.4
		c-0.7,0.7,0.2,1.7,1,1.4c0.8-0.3,1.6-0.7,2.4-1c-1.5,2.4-3.3,4.5-5.5,6.1c-0.5,0.3-0.1,1.3,0.4,1.1c1-0.5,1.9-1.2,2.7-1.9
		c-0.4,0.7-0.8,1.5-1.2,2.2c-2,2.5-4.1,4.8-6.5,6.7c-0.7,0.6-0.1,2,0.7,1.5c0.5-0.3,1-0.7,1.5-1c-0.4,0.6-0.7,1.1-1.1,1.7
		c-2.6,2.5-5.4,4.6-8.4,6.3c-0.7,0.4-0.2,1.7,0.5,1.5c0.5-0.2,0.9-0.3,1.3-0.5c-1.9,1.9-3.8,3.9-5.6,6c-0.6,0.7,0.2,2,0.9,1.4
		c0.9-0.8,1.8-1.6,2.7-2.4c-1,1.3-2,2.6-3,3.9c22.9-2.1,45.9,0.6,68.8,3.2c-0.2-0.6-0.4-1.2-0.6-1.8c0.5,0.3,0.9,0.7,1.4,1
		C489.3,647.4,490,646.3,489.4,645.6z"/>
	<path class="st6" d="M554.5,623.2c-1.2-1.4-2.5-2.6-3.8-3.7c-0.1-0.4-0.3-0.8-0.4-1.2c0.9,0.9,1.9,1.8,2.9,2.6c0.7,0.5,1.6-0.3,1-1
		c-1.9-2-3.7-4-5.6-6c-0.5-1.2-1.1-2.4-1.6-3.5c0.5,0.8,1,1.5,1.4,2.3c0.5,0.8,1.6,0.1,1.2-0.7c-1.8-3.9-3.9-7.4-6.6-10.7
		c1.2,1,2.4,2,3.7,2.8c0.6,0.4,1.2-0.5,0.7-0.9c-3.6-3.6-7.3-7.3-11.1-10.7c-0.1-0.1-0.2-0.1-0.3-0.1c-0.2-0.3-0.5-0.7-0.7-1
		c2.1,2,4.3,4,6.6,5.9c0.7,0.5,1.5-0.3,1-1c-1.2-1.5-2.6-2.9-4-4.2c1.6,0.6,3.3,1.1,4.9,1.5c0.7,0.2,1.2-0.9,0.5-1.2
		c-2-0.9-4.1-1.6-6.2-2.2l9.4-0.2c0-0.1,0-0.1-0.1-0.2c0.8,1.2,1.7,2.3,2.7,3.3c0.6,0.7,1.7-0.2,1.2-1c-3.2-4.8-6.1-9.7-8.3-15
		c-0.1-0.2-0.2-0.3-0.3-0.4c0-0.1-0.1-0.3-0.1-0.4c1.3,1.9,2.7,3.8,4.3,5.5c0.6,0.7,1.8-0.2,1.3-1c-2.1-3.6-4.5-7.2-6.8-10.7
		c0.6,0.3,1.5-0.4,1-1.1c-2.6-3.8-4.8-7.7-6.6-11.9c0.5,0.6,1,1.2,1.5,1.8c0.6,0.7,1.7-0.2,1.2-0.9c-1.7-2.7-3.3-5.6-4.6-8.5
		c2-0.6,4.1-1.2,6.1-1.8c0.5,0.6,1,1.2,1.6,1.7c0.7,0.7,1.9-0.2,1.4-1c-2-2.8-3.9-5.6-5.4-8.6c1.2,1,2.4,2,3.7,2.9
		c0.7,0.5,1.5-0.6,0.9-1.2c-2.3-2.2-4.4-4.5-6.5-6.9c0.4,0.4,0.7,0.8,1.1,1.2c0.6,0.6,1.4-0.3,0.9-0.9c-3.1-3.7-5.2-7.6-6.9-11.9
		c0.8,0.9,1.6,1.8,2.5,2.6c0.5,0.4,1.1-0.2,0.7-0.7c-2.6-3-4.9-6.3-6.9-9.7c-0.1-0.1-0.2-0.2-0.3-0.2c-0.3-0.7-0.6-1.5-0.9-2.2
		c-0.3,0.9-0.7,1.8-1.1,2.7c-1.2,1.1-2.1,2.9-3.1,4.1c-2,2.4-4.2,4.3-6.3,6.4c-0.7,0.7-0.1,2.1,0.7,1.6c0.8-0.5,1.5-1,2.2-1.6
		c-2.2,2.7-4.5,5.2-7,7.7c-0.6,0.6-0.1,1.8,0.6,1.3c1.6-1.1,3.1-2.4,4.6-3.8c-0.8,1.3-1.7,2.6-2.6,3.8c-2.9,2.6-6,4.9-9.2,7.2
		c-0.6,0.5-0.2,1.8,0.5,1.5c1.1-0.5,2.1-1.1,3.2-1.8c-1,1.1-2.1,2.3-3.1,3.3c-1.7,1-1.5,1.6-3.2,2.6c-0.6,0.4-0.1,1.5,0.4,1.3
		c0.1,0,0.2-0.1,0.3-0.1l8.3,0.6c-2.4,2.8-4.9,5.6-7.3,8.4c-0.4,0.4-0.1,1.1,0.3,1.3c-0.1,0.1-0.1,0.2-0.2,0.2
		c-0.6,0.7,0.3,1.7,1.1,1.1c0.6-0.5,1.3-1.1,2-1.6c-1.1,1.7-2.3,3.4-3.5,5c-0.6,0.9,0.3,2.1,1,1.3c0.4-0.4,0.8-0.9,1.1-1.3
		c-0.4,0.8-0.8,1.5-1.3,2.3c-2.4,3-5.1,5.6-8,7.8c-0.6,0.5-0.1,1.6,0.6,1.2c1.4-0.9,2.6-1.9,3.9-3c-1,1.6-1.9,3.3-3,4.8
		c-2.1,2.9-4.4,5.7-6.6,8.5c-0.6,0.8,0.2,2.2,1,1.6c0.3-0.3,0.6-0.5,0.9-0.8c3.2,0.5,6.5,0.9,9.7,1.4c-0.6,0.4-1.2,0.8-1.7,1.4
		c-0.7,0.7,0.2,1.7,1,1.4c0.8-0.3,1.6-0.7,2.4-1c-1.5,2.4-3.3,4.5-5.5,6.1c-0.5,0.3-0.1,1.3,0.4,1.1c1-0.5,1.9-1.2,2.7-1.9
		c-0.4,0.7-0.8,1.5-1.2,2.2c-2,2.5-4.1,4.8-6.5,6.7c-0.7,0.6-0.1,2,0.7,1.5c0.5-0.3,1-0.7,1.5-1c-0.4,0.6-0.7,1.1-1.1,1.7
		c-2.6,2.5-5.4,4.6-8.4,6.3c-0.7,0.4-0.2,1.7,0.5,1.5c0.5-0.2,0.9-0.3,1.3-0.5c-1.9,1.9-3.8,3.9-5.6,6c-0.6,0.7,0.2,2,0.9,1.4
		c0.9-0.8,1.8-1.6,2.7-2.4c-1,1.3-2,2.6-3,3.9c22.9-2.1,45.9,0.6,68.8,3.2c-0.2-0.6-0.4-1.2-0.6-1.8c0.5,0.3,0.9,0.7,1.4,1
		C554.3,625,555,623.9,554.5,623.2z"/>
	<path class="st6" d="M626.9,635c-1.2-1.4-2.5-2.6-3.8-3.7c-0.1-0.4-0.3-0.8-0.4-1.2c0.9,0.9,1.9,1.8,2.9,2.6c0.7,0.5,1.6-0.3,1-1
		c-1.9-2-3.7-4-5.6-6c-0.5-1.2-1.1-2.4-1.6-3.5c0.5,0.8,1,1.5,1.4,2.3c0.5,0.8,1.6,0.1,1.2-0.7c-1.8-3.9-3.9-7.4-6.6-10.7
		c1.2,1,2.4,2,3.7,2.8c0.6,0.4,1.2-0.5,0.7-0.9c-3.6-3.6-7.3-7.3-11.1-10.7c-0.1-0.1-0.2-0.1-0.3-0.1c-0.2-0.3-0.5-0.7-0.7-1
		c2.1,2,4.3,4,6.6,5.9c0.7,0.5,1.5-0.3,1-1c-1.2-1.5-2.6-2.9-4-4.2c1.6,0.6,3.3,1.1,4.9,1.5c0.7,0.2,1.2-0.9,0.5-1.2
		c-2-0.9-4.1-1.6-6.2-2.2l9.4-0.2c0-0.1,0-0.1-0.1-0.2c0.8,1.2,1.7,2.3,2.7,3.3c0.6,0.7,1.7-0.2,1.2-1c-3.2-4.8-6.1-9.7-8.3-15
		c-0.1-0.2-0.2-0.3-0.3-0.4c0-0.1-0.1-0.3-0.1-0.4c1.3,1.9,2.7,3.8,4.3,5.5c0.6,0.7,1.8-0.2,1.3-1c-2.1-3.6-4.5-7.2-6.8-10.7
		c0.6,0.3,1.5-0.4,1-1.1c-2.6-3.8-4.8-7.7-6.6-11.9c0.5,0.6,1,1.2,1.5,1.8c0.6,0.7,1.7-0.2,1.2-0.9c-1.7-2.7-3.3-5.6-4.6-8.5
		c2-0.6,4.1-1.2,6.1-1.8c0.5,0.6,1,1.2,1.6,1.7c0.7,0.7,1.9-0.2,1.4-1c-2-2.8-3.9-5.6-5.4-8.6c1.2,1,2.4,2,3.7,2.9
		c0.7,0.5,1.5-0.6,0.9-1.2c-2.3-2.2-4.4-4.5-6.5-6.9c0.4,0.4,0.7,0.8,1.1,1.2c0.6,0.6,1.4-0.3,0.9-0.9c-3.1-3.7-5.2-7.6-6.9-11.9
		c0.8,0.9,1.6,1.8,2.5,2.6c0.5,0.4,1.1-0.2,0.7-0.7c-2.6-3-4.9-6.3-6.9-9.7c-0.1-0.1-0.2-0.2-0.3-0.2c-0.3-0.7-0.6-1.5-0.9-2.2
		c-0.3,0.9-0.7,1.8-1.1,2.7c-1.2,1.1-2.1,2.9-3.1,4.1c-2,2.4-4.2,4.3-6.3,6.4c-0.7,0.7-0.1,2.1,0.7,1.6c0.8-0.5,1.5-1,2.2-1.6
		c-2.2,2.7-4.5,5.2-7,7.7c-0.6,0.6-0.1,1.8,0.6,1.3c1.6-1.1,3.1-2.4,4.6-3.8c-0.8,1.3-1.7,2.6-2.6,3.8c-2.9,2.6-6,4.9-9.2,7.2
		c-0.6,0.5-0.2,1.8,0.5,1.5c1.1-0.5,2.1-1.1,3.2-1.8c-1,1.1-2.1,2.3-3.1,3.3c-1.7,1-1.5,1.6-3.2,2.6c-0.6,0.4-0.1,1.5,0.4,1.3
		c0.1,0,0.2-0.1,0.3-0.1l8.3,0.6c-2.4,2.8-4.9,5.6-7.3,8.4c-0.4,0.4-0.1,1.1,0.3,1.3c-0.1,0.1-0.1,0.2-0.2,0.2
		c-0.6,0.7,0.3,1.7,1.1,1.1c0.6-0.5,1.3-1.1,2-1.6c-1.1,1.7-2.3,3.4-3.5,5c-0.6,0.9,0.3,2.1,1,1.3c0.4-0.4,0.8-0.9,1.1-1.3
		c-0.4,0.8-0.8,1.5-1.3,2.3c-2.4,3-5.1,5.6-8,7.8c-0.6,0.5-0.1,1.6,0.6,1.2c1.4-0.9,2.6-1.9,3.9-3c-1,1.6-1.9,3.3-3,4.8
		c-2.1,2.9-4.4,5.7-6.6,8.5c-0.6,0.8,0.2,2.2,1,1.6c0.3-0.3,0.6-0.5,0.9-0.8c3.2,0.5,6.5,0.9,9.7,1.4c-0.6,0.4-1.2,0.8-1.7,1.4
		c-0.7,0.7,0.2,1.7,1,1.4c0.8-0.3,1.6-0.7,2.4-1c-1.5,2.4-3.3,4.5-5.5,6.1c-0.4,0.3-0.1,1.3,0.4,1.1c1-0.5,1.9-1.2,2.7-1.9
		c-0.4,0.7-0.8,1.5-1.2,2.2c-2,2.5-4.1,4.8-6.5,6.7c-0.7,0.6-0.1,2,0.7,1.5c0.5-0.3,1-0.7,1.5-1c-0.4,0.6-0.7,1.1-1.1,1.7
		c-2.6,2.5-5.4,4.6-8.4,6.3c-0.7,0.4-0.2,1.7,0.5,1.5c0.5-0.2,0.9-0.3,1.3-0.5c-1.9,1.9-3.8,3.9-5.6,6c-0.6,0.7,0.2,2,0.9,1.4
		c0.9-0.8,1.8-1.6,2.7-2.4c-1,1.3-2,2.6-3,3.9c22.9-2.1,45.9,0.6,68.8,3.2c-0.2-0.6-0.4-1.2-0.6-1.8c0.5,0.3,0.9,0.7,1.4,1
		C626.7,636.8,627.4,635.7,626.9,635z"/>
	<path class="st6" d="M363.1,637.4c-1.2-1.4-2.5-2.6-3.8-3.7c-0.1-0.4-0.3-0.8-0.4-1.2c0.9,0.9,1.9,1.8,2.9,2.6c0.7,0.5,1.6-0.3,1-1
		c-1.9-2-3.7-4-5.6-6c-0.5-1.2-1.1-2.4-1.6-3.5c0.5,0.8,1,1.5,1.4,2.3c0.5,0.8,1.6,0.1,1.2-0.7c-1.8-3.9-3.9-7.4-6.6-10.7
		c1.2,1,2.4,2,3.7,2.8c0.6,0.4,1.2-0.5,0.7-0.9c-3.6-3.6-7.3-7.3-11.1-10.7c-0.1-0.1-0.2-0.1-0.3-0.1c-0.2-0.3-0.5-0.7-0.7-1
		c2.1,2,4.3,4,6.6,5.9c0.7,0.5,1.5-0.3,1-1c-1.2-1.5-2.6-2.9-4-4.2c1.6,0.6,3.3,1.1,4.9,1.5c0.7,0.2,1.2-0.9,0.5-1.2
		c-2-0.9-4.1-1.6-6.2-2.2l9.4-0.2c0-0.1,0-0.1-0.1-0.2c0.8,1.2,1.7,2.3,2.7,3.3c0.6,0.7,1.7-0.2,1.2-1c-3.2-4.8-6.1-9.7-8.3-15
		c-0.1-0.2-0.2-0.3-0.3-0.4c0-0.1-0.1-0.3-0.1-0.4c1.3,1.9,2.7,3.8,4.3,5.5c0.6,0.7,1.8-0.2,1.3-1c-2.1-3.6-4.5-7.2-6.8-10.7
		c0.6,0.3,1.5-0.4,1-1.1c-2.6-3.8-4.8-7.7-6.6-11.9c0.5,0.6,1,1.2,1.5,1.8c0.6,0.7,1.7-0.2,1.2-0.9c-1.7-2.7-3.3-5.6-4.6-8.5
		c2-0.6,4.1-1.2,6.1-1.8c0.5,0.6,1,1.2,1.6,1.7c0.7,0.7,1.9-0.2,1.4-1c-2-2.8-3.9-5.6-5.4-8.6c1.2,1,2.4,2,3.7,2.9
		c0.7,0.5,1.5-0.6,0.9-1.2c-2.3-2.2-4.4-4.5-6.5-6.9c0.4,0.4,0.7,0.8,1.1,1.2c0.6,0.6,1.4-0.3,0.9-0.9c-3.1-3.7-5.2-7.6-6.9-11.9
		c0.8,0.9,1.6,1.8,2.5,2.6c0.5,0.4,1.1-0.2,0.7-0.7c-2.6-3-4.9-6.3-6.9-9.7c-0.1-0.1-0.2-0.2-0.3-0.2c-0.3-0.7-0.6-1.5-0.9-2.2
		c-0.3,0.9-0.7,1.8-1.1,2.7c-1.2,1.1-2.1,2.9-3.1,4.1c-2,2.4-4.2,4.3-6.3,6.4c-0.7,0.7-0.1,2.1,0.7,1.6c0.8-0.5,1.5-1,2.2-1.6
		c-2.2,2.7-4.5,5.2-7,7.7c-0.6,0.6-0.1,1.8,0.6,1.3c1.6-1.1,3.1-2.4,4.6-3.8c-0.8,1.3-1.7,2.6-2.6,3.8c-2.9,2.6-6,4.9-9.2,7.2
		c-0.6,0.5-0.2,1.8,0.5,1.5c1.1-0.5,2.1-1.1,3.2-1.8c-1,1.1-2.1,2.3-3.1,3.3c-1.7,1-1.5,1.6-3.2,2.6c-0.6,0.4-0.1,1.5,0.4,1.3
		c0.1,0,0.2-0.1,0.3-0.1l8.3,0.6c-2.4,2.8-4.9,5.6-7.3,8.4c-0.4,0.4-0.1,1.1,0.3,1.3c-0.1,0.1-0.1,0.2-0.2,0.2
		c-0.6,0.7,0.3,1.7,1.1,1.1c0.6-0.5,1.3-1.1,2-1.6c-1.1,1.7-2.3,3.4-3.5,5c-0.6,0.9,0.3,2.1,1,1.3c0.4-0.4,0.8-0.9,1.1-1.3
		c-0.4,0.8-0.8,1.5-1.3,2.3c-2.4,3-5.1,5.6-8,7.8c-0.6,0.5-0.1,1.6,0.6,1.2c1.4-0.9,2.6-1.9,3.9-3c-1,1.6-1.9,3.3-3,4.8
		c-2.1,2.9-4.4,5.7-6.6,8.5c-0.6,0.8,0.2,2.2,1,1.6c0.3-0.3,0.6-0.5,0.9-0.8c3.2,0.5,6.5,0.9,9.7,1.4c-0.6,0.4-1.2,0.8-1.7,1.4
		c-0.7,0.7,0.2,1.7,1,1.4c0.8-0.3,1.6-0.7,2.4-1c-1.5,2.4-3.3,4.5-5.5,6.1c-0.4,0.3-0.1,1.3,0.4,1.1c1-0.5,1.9-1.2,2.7-1.9
		c-0.4,0.7-0.8,1.5-1.2,2.2c-2,2.5-4.1,4.8-6.5,6.7c-0.7,0.6-0.1,2,0.7,1.5c0.5-0.3,1-0.7,1.5-1c-0.4,0.6-0.7,1.1-1.1,1.7
		c-2.6,2.5-5.4,4.6-8.4,6.3c-0.7,0.4-0.2,1.7,0.5,1.5c0.5-0.2,0.9-0.3,1.3-0.5c-1.9,1.9-3.8,3.9-5.6,6c-0.6,0.7,0.2,2,0.9,1.4
		c0.9-0.8,1.8-1.6,2.7-2.4c-1,1.3-2,2.6-3,3.9c22.9-2.1,45.9,0.6,68.8,3.2c-0.2-0.6-0.4-1.2-0.6-1.8c0.5,0.3,0.9,0.7,1.4,1
		C363,639.1,363.7,638,363.1,637.4z"/>
	<path class="st6" d="M314.5,662.3c-1.2-1.4-2.5-2.6-3.8-3.7c-0.1-0.4-0.3-0.8-0.4-1.2c0.9,0.9,1.9,1.8,2.9,2.6c0.7,0.5,1.6-0.3,1-1
		c-1.9-2-3.7-4-5.6-6c-0.5-1.2-1.1-2.4-1.6-3.5c0.5,0.8,1,1.5,1.4,2.3c0.5,0.8,1.6,0.1,1.2-0.7c-1.8-3.9-3.9-7.4-6.6-10.7
		c1.2,1,2.4,2,3.7,2.8c0.6,0.4,1.2-0.5,0.7-0.9c-3.6-3.6-7.3-7.3-11.1-10.7c-0.1-0.1-0.2-0.1-0.3-0.1c-0.2-0.3-0.5-0.7-0.7-1
		c2.1,2,4.3,4,6.6,5.9c0.7,0.5,1.5-0.3,1-1c-1.2-1.5-2.6-2.9-4-4.2c1.6,0.6,3.3,1.1,4.9,1.5c0.7,0.2,1.2-0.9,0.5-1.2
		c-2-0.9-4.1-1.6-6.2-2.2l9.4-0.2c0-0.1,0-0.1-0.1-0.2c0.8,1.2,1.7,2.3,2.7,3.3c0.6,0.7,1.7-0.2,1.2-1c-3.2-4.8-6.1-9.7-8.3-15
		c-0.1-0.2-0.2-0.3-0.3-0.4c0-0.1-0.1-0.3-0.1-0.4c1.3,1.9,2.7,3.8,4.3,5.5c0.6,0.7,1.8-0.2,1.3-1c-2.1-3.6-4.5-7.2-6.8-10.7
		c0.6,0.3,1.5-0.4,1-1.1c-2.6-3.8-4.8-7.7-6.6-11.9c0.5,0.6,1,1.2,1.5,1.8c0.6,0.7,1.7-0.2,1.2-0.9c-1.7-2.7-3.3-5.6-4.6-8.5
		c2-0.6,4.1-1.2,6.1-1.8c0.5,0.6,1,1.2,1.6,1.7c0.7,0.7,1.9-0.2,1.4-1c-2-2.8-3.9-5.6-5.4-8.6c1.2,1,2.4,2,3.7,2.9
		c0.7,0.5,1.5-0.6,0.9-1.2c-2.3-2.2-4.4-4.5-6.5-6.9c0.4,0.4,0.7,0.8,1.1,1.2c0.6,0.6,1.4-0.3,0.9-0.9c-3.1-3.7-5.2-7.6-6.9-11.9
		c0.8,0.9,1.6,1.8,2.5,2.6c0.5,0.4,1.1-0.2,0.7-0.7c-2.6-3-4.9-6.3-6.9-9.7c-0.1-0.1-0.2-0.2-0.3-0.2c-0.3-0.7-0.6-1.5-0.9-2.2
		c-0.3,0.9-0.7,1.8-1.1,2.7c-1.2,1.1-2.1,2.9-3.1,4.1c-2,2.4-4.2,4.3-6.3,6.4c-0.7,0.7-0.1,2.1,0.7,1.6c0.8-0.5,1.5-1,2.2-1.6
		c-2.2,2.7-4.5,5.2-7,7.7c-0.6,0.6-0.1,1.8,0.6,1.3c1.6-1.1,3.1-2.4,4.6-3.8c-0.8,1.3-1.7,2.6-2.6,3.8c-2.9,2.6-6,4.9-9.2,7.2
		c-0.6,0.5-0.2,1.8,0.5,1.5c1.1-0.5,2.1-1.1,3.2-1.8c-1,1.1-2.1,2.3-3.1,3.3c-1.7,1-1.5,1.6-3.2,2.6c-0.6,0.4-0.1,1.5,0.4,1.3
		c0.1,0,0.2-0.1,0.3-0.1l8.3,0.6c-2.4,2.8-4.9,5.6-7.3,8.4c-0.4,0.4-0.1,1.1,0.3,1.3c-0.1,0.1-0.1,0.2-0.2,0.2
		c-0.6,0.7,0.3,1.7,1.1,1.1c0.6-0.5,1.3-1.1,2-1.6c-1.1,1.7-2.3,3.4-3.5,5c-0.6,0.9,0.3,2.1,1,1.3c0.4-0.4,0.8-0.9,1.1-1.3
		c-0.4,0.8-0.8,1.5-1.3,2.3c-2.4,3-5.1,5.6-8,7.8c-0.6,0.5-0.1,1.6,0.6,1.2c1.4-0.9,2.6-1.9,3.9-3c-1,1.6-1.9,3.3-3,4.8
		c-2.1,2.9-4.4,5.7-6.6,8.5c-0.6,0.8,0.2,2.2,1,1.6c0.3-0.3,0.6-0.5,0.9-0.8c3.2,0.5,6.5,0.9,9.7,1.4c-0.6,0.4-1.2,0.8-1.7,1.4
		c-0.7,0.7,0.2,1.7,1,1.4c0.8-0.3,1.6-0.7,2.4-1c-1.5,2.4-3.3,4.5-5.5,6.1c-0.4,0.3-0.1,1.3,0.4,1.1c1-0.5,1.9-1.2,2.7-1.9
		c-0.4,0.7-0.8,1.5-1.2,2.2c-2,2.5-4.1,4.8-6.5,6.7c-0.7,0.6-0.1,2,0.7,1.5c0.5-0.3,1-0.7,1.5-1c-0.4,0.6-0.7,1.1-1.1,1.7
		c-2.6,2.5-5.4,4.6-8.4,6.3c-0.7,0.4-0.2,1.7,0.5,1.5c0.5-0.2,0.9-0.3,1.3-0.5c-1.9,1.9-3.8,3.9-5.6,6c-0.6,0.7,0.2,2,0.9,1.4
		c0.9-0.8,1.8-1.6,2.7-2.4c-1,1.3-2,2.6-3,3.9c22.9-2.1,45.9,0.6,68.8,3.2c-0.2-0.6-0.4-1.2-0.6-1.8c0.5,0.3,0.9,0.7,1.4,1
		C314.4,664,315.1,662.9,314.5,662.3z"/>
	<g class="st0">
		<path class="st7" d="M-45,480.3c-0.6-0.8-1.1-1.4-1.2-1.7C-46.4,479.4-45.9,480-45,480.3z"/>
		<path class="st7" d="M398.3,501.8c-2-0.5-4.5,0.3-6.6-0.1c-2-0.4-4.6-1.1-6.5-2c-4-1.8-7.9-3.4-11.7-5.6c-3.8-2.3-7.7-2.9-12-3.9
			c-4.7-1.1-8.4-1.8-13.4-1.9c-12.1-0.3-23.6-3.1-35.7-3.7c-15.4-0.8-30.6,0-45.9-2.2c-5.3-0.4-10.4-1.7-15.1-4
			c-1.7-0.8-3.3-1.5-5-2.3c-7.9-2.8-17.2-2.3-25.4-2.3c-23.2-0.1-46.4,0.9-69.6,1c-12,0-23.8,1.2-35.8,2.2
			c-19.6,1.6-39.1,2.9-58.8,2.8c-28.8-0.1-57.9-3.1-86.6-0.1c-0.5,0-11.5,2.2-15.2,0.7c3.1,4,11.6,13.4,12.1,14.8c0.2,1,0.3,2,0.1,3
			c0.1,3.5,0,6.9,0,10.4c0,9.7-0.3,19,1.8,28.5c1.3,5.8,3.3,11.6,3.8,17.5c0.2,4.3,0.2,8.5,0,12.8c0,9.6,0.3,18.7,2.5,28
			c2.1,6.6,3.8,13.3,5.1,20.1c0.8,4.2,0.8,11,2.7,15c-0.1,0.9,0.3,1.5,1.1,1.6c1.2,0.7,5.4,0.7,6.9,0.8c3.8,0.3,7.3,1.3,11,1.8
			c3.4,0.3,6.8,0.3,10.3,0.2c7.8-0.1,15.3-0.2,23.1-0.8c15.7-1.1,31.3-0.8,47-1.1c7-0.1,13.7-3,20.7-3c6.3-0.1,12.2-1,18.4-1.9
			c8.2-1.3,16.4-0.9,24.7-0.9c4.7,0,9.5-0.4,14.2-0.1c1.5,0.1,2.9,0.4,4.3,0.9c1.9,0,3.8-0.5,5.5-1.5c3.4-1.3,6.9-3,10.5-4.1
			c0.2,0.1,0.3,0.2,0.5,0.4c1.7,1.6,1.9,3.3,4.5,3.9c3,0.7,6.7,0,9.7,0.2c6.7,0.6,13.8,1.3,20.6,0.6c5.2-0.6,9.9-2.9,15-3.7
			c3.5-0.5,6.4-0.7,9.8-1.7c4.2-1.2,9.5-0.9,13.4-2.8c1.7-0.8,3.3-2.2,4.9-3.1c2-1.2,4-2.2,6-3.6c2.5-1.8,3.6-3.7,5.3-6.2
			c2.5-3.7,1.3-7.7,3.6-11.4c2.4-3.9,6.3-6.3,9.8-9.1c3.1-2.6,6.6-4.5,9.7-7c2.6-2.1,5-4.4,7.6-6.6c2.2-1.8,4.2-3.7,5.6-6.3
			c1.4-2.6,1.2-5.3,2.3-7.9c1-2.4,2.9-5.4,4.9-7.7c0.2,0,0.4-0.1,0.6-0.1c8.6-1.8,16.3-5.9,25-7.3c3.4-0.6,6.4,0.1,9.8-1.1
			c3.7-1.4,7.7-1.4,11.3-2.9c3.6-1.5,6.3-4.2,9.9-5.6c2.1-0.8,5.9-2.8,6.7-5c1-2.6-0.6-6,0.6-8.8c1-2.4,2.6-4.6,5-5.8
			c2.7-1.4,5.7-1.4,8.3-3.1c2.3-1.5,3.7-2.1,6.3-2.9C400.6,506.5,401.9,502.8,398.3,501.8z"/>
	</g>
	<path class="st6" d="M385.2,633.7c-1-1.2-2.1-2.1-3.2-3.1c-0.1-0.3-0.2-0.7-0.4-1c0.8,0.7,1.6,1.5,2.4,2.2c0.5,0.5,1.3-0.3,0.8-0.8
		c-1.5-1.7-3.1-3.3-4.7-4.9c-0.4-1-0.9-2-1.3-2.9c0.4,0.6,0.8,1.3,1.2,1.9c0.4,0.7,1.3,0.1,1-0.6c-1.5-3.2-3.3-6.2-5.5-8.9
		c1,0.8,2,1.6,3.1,2.3c0.5,0.3,1-0.4,0.6-0.8c-3-3-6.1-6-9.2-8.9c-0.1-0.1-0.2-0.1-0.3-0.1c-0.2-0.3-0.4-0.5-0.6-0.8
		c1.8,1.7,3.6,3.4,5.5,4.9c0.6,0.4,1.2-0.2,0.8-0.8c-1-1.3-2.2-2.4-3.4-3.5c1.3,0.5,2.7,0.9,4.1,1.3c0.6,0.1,1-0.7,0.4-1
		c-1.7-0.8-3.4-1.3-5.2-1.8l7.8-0.2c0-0.1,0-0.1-0.1-0.2c0.7,1,1.4,1.9,2.3,2.8c0.5,0.5,1.4-0.2,1-0.8c-2.6-4-5.1-8-6.9-12.4
		c-0.1-0.1-0.2-0.2-0.3-0.3c0-0.1-0.1-0.2-0.1-0.3c1.1,1.6,2.3,3.1,3.5,4.6c0.5,0.6,1.5-0.2,1.1-0.8c-1.8-3-3.7-5.9-5.6-8.9
		c0.5,0.3,1.2-0.3,0.9-0.9c-2.1-3.2-3.9-6.4-5.5-9.9c0.4,0.5,0.8,1,1.3,1.5c0.5,0.5,1.4-0.2,1-0.8c-1.4-2.3-2.8-4.6-3.9-7.1
		c1.7-0.5,3.4-1,5.1-1.5c0.4,0.5,0.8,1,1.3,1.4c0.6,0.5,1.6-0.2,1.1-0.9c-1.7-2.3-3.2-4.6-4.4-7.2c1,0.9,2,1.7,3.1,2.4
		c0.6,0.4,1.3-0.5,0.8-1c-1.9-1.8-3.6-3.8-5.4-5.7c0.3,0.3,0.6,0.7,0.9,1c0.5,0.5,1.2-0.2,0.7-0.7c-2.5-3.1-4.3-6.3-5.7-9.9
		c0.6,0.7,1.3,1.5,2,2.2c0.4,0.4,0.9-0.2,0.6-0.6c-2.1-2.5-4.1-5.2-5.7-8.1c-0.1-0.1-0.1-0.2-0.2-0.2c-0.2-0.6-0.5-1.2-0.7-1.8
		c-0.3,0.7-0.6,1.5-0.9,2.2c-1,0.9-1.8,2.4-2.6,3.4c-1.6,2-3.5,3.6-5.3,5.3c-0.6,0.6-0.1,1.7,0.6,1.3c0.6-0.4,1.2-0.8,1.8-1.3
		c-1.8,2.2-3.7,4.3-5.8,6.4c-0.5,0.5-0.1,1.5,0.5,1.1c1.3-0.9,2.6-2,3.8-3.2c-0.7,1.1-1.4,2.1-2.2,3.2c-2.4,2.1-5,4.1-7.6,6
		c-0.5,0.4-0.2,1.5,0.4,1.2c0.9-0.4,1.8-0.9,2.6-1.5c-0.8,1-1.7,1.9-2.6,2.8c-1.4,0.8-1.2,1.3-2.7,2.2c-0.5,0.3-0.1,1.2,0.4,1.1
		c0.1,0,0.1-0.1,0.2-0.1l6.9,0.5c-2,2.3-4,4.6-6,7c-0.3,0.3-0.1,0.9,0.2,1c-0.1,0.1-0.1,0.1-0.2,0.2c-0.5,0.6,0.3,1.4,0.9,0.9
		c0.5-0.4,1.1-0.9,1.7-1.4c-0.9,1.4-1.9,2.8-2.9,4.2c-0.5,0.7,0.3,1.7,0.9,1.1c0.3-0.4,0.6-0.7,0.9-1.1c-0.3,0.6-0.7,1.3-1,1.9
		c-2,2.5-4.3,4.6-6.7,6.5c-0.5,0.4-0.1,1.4,0.5,1c1.1-0.7,2.2-1.6,3.2-2.5c-0.8,1.3-1.6,2.7-2.5,3.9c-1.7,2.4-3.6,4.7-5.5,7
		c-0.5,0.7,0.2,1.8,0.8,1.3c0.3-0.2,0.5-0.5,0.7-0.7c2.7,0.4,5.4,0.8,8.1,1.1c-0.5,0.3-1,0.7-1.4,1.1c-0.6,0.6,0.2,1.4,0.9,1.1
		c0.6-0.3,1.3-0.6,2-0.8c-1.2,2-2.8,3.8-4.5,5c-0.4,0.3-0.1,1.1,0.3,0.9c0.8-0.4,1.6-1,2.3-1.6c-0.3,0.6-0.7,1.2-1,1.8
		c-1.6,2.1-3.4,4-5.4,5.6c-0.6,0.5-0.1,1.7,0.6,1.2c0.4-0.3,0.8-0.6,1.2-0.9c-0.3,0.5-0.6,0.9-0.9,1.4c-2.1,2.1-4.5,3.8-7,5.2
		c-0.6,0.3-0.1,1.4,0.4,1.2c0.4-0.1,0.7-0.3,1.1-0.4c-1.6,1.6-3.1,3.3-4.6,5c-0.5,0.6,0.2,1.6,0.7,1.2c0.8-0.7,1.5-1.3,2.3-2
		c-0.8,1.1-1.7,2.2-2.5,3.2c19-1.7,38.1,0.5,57.1,2.7c-0.2-0.5-0.3-1-0.5-1.5c0.4,0.3,0.8,0.6,1.2,0.8
		C385.1,635.2,385.7,634.3,385.2,633.7z"/>
	<path class="st6" d="M328.7,640.6c-1-1.2-2.1-2.1-3.2-3.1c-0.1-0.3-0.2-0.7-0.4-1c0.8,0.7,1.6,1.5,2.4,2.2c0.5,0.5,1.3-0.3,0.8-0.8
		c-1.5-1.7-3.1-3.3-4.7-4.9c-0.4-1-0.9-2-1.3-2.9c0.4,0.6,0.8,1.3,1.2,1.9c0.4,0.7,1.3,0.1,1-0.6c-1.5-3.2-3.3-6.2-5.5-8.9
		c1,0.8,2,1.6,3.1,2.3c0.5,0.3,1-0.4,0.6-0.8c-3-3-6.1-6-9.2-8.9c-0.1-0.1-0.2-0.1-0.3-0.1c-0.2-0.3-0.4-0.5-0.6-0.8
		c1.8,1.7,3.6,3.4,5.5,4.9c0.6,0.4,1.2-0.2,0.8-0.8c-1-1.3-2.2-2.4-3.4-3.5c1.3,0.5,2.7,0.9,4.1,1.3c0.6,0.1,1-0.7,0.4-1
		c-1.7-0.8-3.4-1.3-5.2-1.8l7.8-0.2c0-0.1,0-0.1-0.1-0.2c0.7,1,1.4,1.9,2.3,2.8c0.5,0.5,1.4-0.2,1-0.8c-2.6-4-5.1-8-6.9-12.4
		c-0.1-0.1-0.2-0.2-0.3-0.3c0-0.1-0.1-0.2-0.1-0.3c1.1,1.6,2.3,3.1,3.5,4.6c0.5,0.6,1.5-0.2,1.1-0.8c-1.8-3-3.7-5.9-5.6-8.9
		c0.5,0.3,1.2-0.3,0.9-0.9c-2.1-3.2-3.9-6.4-5.5-9.9c0.4,0.5,0.8,1,1.3,1.5c0.5,0.5,1.4-0.2,1-0.8c-1.4-2.3-2.8-4.6-3.9-7.1
		c1.7-0.5,3.4-1,5.1-1.5c0.4,0.5,0.8,1,1.3,1.4c0.6,0.5,1.6-0.2,1.1-0.9c-1.7-2.3-3.2-4.6-4.4-7.2c1,0.9,2,1.7,3.1,2.4
		c0.6,0.4,1.3-0.5,0.8-1c-1.9-1.8-3.6-3.8-5.4-5.7c0.3,0.3,0.6,0.7,0.9,1c0.5,0.5,1.2-0.2,0.7-0.7c-2.5-3.1-4.3-6.3-5.7-9.9
		c0.6,0.7,1.3,1.5,2,2.2c0.4,0.4,0.9-0.2,0.6-0.6c-2.1-2.5-4.1-5.2-5.7-8.1c-0.1-0.1-0.1-0.2-0.2-0.2c-0.2-0.6-0.5-1.2-0.7-1.8
		c-0.3,0.7-0.6,1.5-0.9,2.2c-1,0.9-1.8,2.4-2.6,3.4c-1.6,2-3.5,3.6-5.3,5.3c-0.6,0.6-0.1,1.7,0.6,1.3c0.6-0.4,1.2-0.8,1.8-1.3
		c-1.8,2.2-3.7,4.3-5.8,6.4c-0.5,0.5-0.1,1.5,0.5,1.1c1.3-0.9,2.6-2,3.8-3.2c-0.7,1.1-1.4,2.1-2.2,3.2c-2.4,2.1-5,4.1-7.6,6
		c-0.5,0.4-0.2,1.5,0.4,1.2c0.9-0.4,1.8-0.9,2.6-1.5c-0.8,1-1.7,1.9-2.6,2.8c-1.4,0.8-1.2,1.3-2.7,2.2c-0.5,0.3-0.1,1.2,0.4,1.1
		c0.1,0,0.1-0.1,0.2-0.1l6.9,0.5c-2,2.3-4,4.6-6,7c-0.3,0.3-0.1,0.9,0.2,1c-0.1,0.1-0.1,0.1-0.2,0.2c-0.5,0.6,0.3,1.4,0.9,0.9
		c0.5-0.4,1.1-0.9,1.7-1.4c-0.9,1.4-1.9,2.8-2.9,4.2c-0.5,0.7,0.3,1.7,0.9,1.1c0.3-0.4,0.6-0.7,0.9-1.1c-0.3,0.6-0.7,1.3-1,1.9
		c-2,2.5-4.3,4.6-6.7,6.5c-0.5,0.4-0.1,1.4,0.5,1c1.1-0.7,2.2-1.6,3.2-2.5c-0.8,1.3-1.6,2.7-2.5,3.9c-1.7,2.4-3.6,4.7-5.5,7
		c-0.5,0.7,0.2,1.8,0.8,1.3c0.3-0.2,0.5-0.5,0.7-0.7c2.7,0.4,5.4,0.8,8.1,1.1c-0.5,0.3-1,0.7-1.4,1.1c-0.6,0.6,0.2,1.4,0.9,1.1
		c0.6-0.3,1.3-0.6,2-0.8c-1.2,2-2.8,3.8-4.5,5c-0.4,0.3-0.1,1.1,0.3,0.9c0.8-0.4,1.6-1,2.3-1.6c-0.3,0.6-0.7,1.2-1,1.8
		c-1.6,2.1-3.4,4-5.4,5.6c-0.6,0.5-0.1,1.7,0.6,1.2c0.4-0.3,0.8-0.6,1.2-0.9c-0.3,0.5-0.6,0.9-0.9,1.4c-2.1,2.1-4.5,3.8-7,5.2
		c-0.6,0.3-0.1,1.4,0.4,1.2c0.4-0.1,0.7-0.3,1.1-0.4c-1.6,1.6-3.1,3.3-4.6,5c-0.5,0.6,0.2,1.6,0.7,1.2c0.8-0.7,1.5-1.3,2.3-2
		c-0.8,1.1-1.7,2.2-2.5,3.2c19-1.7,38.1,0.5,57.1,2.7c-0.2-0.5-0.3-1-0.5-1.5c0.4,0.3,0.8,0.6,1.2,0.8
		C328.6,642.1,329.2,641.2,328.7,640.6z"/>
	<path class="st6" d="M460,619.9c-1.2-1.4-2.5-2.6-3.8-3.7c-0.1-0.4-0.3-0.8-0.4-1.2c0.9,0.9,1.9,1.8,2.9,2.6c0.7,0.5,1.6-0.3,1-1
		c-1.9-2-3.7-4-5.6-6c-0.5-1.2-1.1-2.4-1.6-3.5c0.5,0.8,1,1.5,1.4,2.3c0.5,0.8,1.6,0.1,1.2-0.7c-1.8-3.9-3.9-7.4-6.6-10.7
		c1.2,1,2.4,2,3.7,2.8c0.6,0.4,1.2-0.5,0.7-0.9c-3.6-3.6-7.3-7.3-11.1-10.7c-0.1-0.1-0.2-0.1-0.3-0.1c-0.2-0.3-0.5-0.7-0.7-1
		c2.1,2,4.3,4,6.6,5.9c0.7,0.5,1.5-0.3,1-1c-1.2-1.5-2.6-2.9-4-4.2c1.6,0.6,3.3,1.1,4.9,1.5c0.7,0.2,1.2-0.9,0.5-1.2
		c-2-0.9-4.1-1.6-6.2-2.2l9.4-0.2c0-0.1,0-0.1-0.1-0.2c0.8,1.2,1.7,2.3,2.7,3.3c0.6,0.7,1.7-0.2,1.2-1c-3.2-4.8-6.1-9.7-8.3-15
		c-0.1-0.2-0.2-0.3-0.3-0.4c0-0.1-0.1-0.3-0.1-0.4c1.3,1.9,2.7,3.8,4.3,5.5c0.6,0.7,1.8-0.2,1.3-1c-2.1-3.6-4.5-7.2-6.8-10.7
		c0.6,0.3,1.5-0.4,1-1.1c-2.6-3.8-4.8-7.7-6.6-11.9c0.5,0.6,1,1.2,1.5,1.8c0.6,0.7,1.7-0.2,1.2-0.9c-1.7-2.7-3.3-5.6-4.6-8.5
		c2-0.6,4.1-1.2,6.1-1.8c0.5,0.6,1,1.2,1.6,1.7c0.7,0.7,1.9-0.2,1.4-1c-2-2.8-3.9-5.6-5.4-8.6c1.2,1,2.4,2,3.7,2.9
		c0.7,0.5,1.5-0.6,0.9-1.2c-2.3-2.2-4.4-4.5-6.5-6.9c0.4,0.4,0.7,0.8,1.1,1.2c0.6,0.6,1.4-0.3,0.9-0.9c-3.1-3.7-5.2-7.6-6.9-11.9
		c0.8,0.9,1.6,1.8,2.5,2.6c0.5,0.4,1.1-0.2,0.7-0.7c-2.6-3-4.9-6.3-6.9-9.7c-0.1-0.1-0.2-0.2-0.3-0.2c-0.3-0.7-0.6-1.5-0.9-2.2
		c-0.3,0.9-0.7,1.8-1.1,2.7c-1.2,1.1-2.1,2.9-3.1,4.1c-2,2.4-4.2,4.3-6.3,6.4c-0.7,0.7-0.1,2.1,0.7,1.6c0.8-0.5,1.5-1,2.2-1.6
		c-2.2,2.7-4.5,5.2-7,7.7c-0.6,0.6-0.1,1.8,0.6,1.3c1.6-1.1,3.1-2.4,4.6-3.8c-0.8,1.3-1.7,2.6-2.6,3.8c-2.9,2.6-6,4.9-9.2,7.2
		c-0.6,0.5-0.2,1.8,0.5,1.5c1.1-0.5,2.1-1.1,3.2-1.8c-1,1.1-2.1,2.3-3.1,3.3c-1.7,1-1.5,1.6-3.2,2.6c-0.6,0.4-0.1,1.5,0.4,1.3
		c0.1,0,0.2-0.1,0.3-0.1l8.3,0.6c-2.4,2.8-4.9,5.6-7.3,8.4c-0.4,0.4-0.1,1.1,0.3,1.3c-0.1,0.1-0.1,0.2-0.2,0.2
		c-0.6,0.7,0.3,1.7,1.1,1.1c0.6-0.5,1.3-1.1,2-1.6c-1.1,1.7-2.3,3.4-3.5,5c-0.6,0.9,0.3,2.1,1,1.3c0.4-0.4,0.8-0.9,1.1-1.3
		c-0.4,0.8-0.8,1.5-1.3,2.3c-2.4,3-5.1,5.6-8,7.8c-0.6,0.5-0.1,1.6,0.6,1.2c1.4-0.9,2.6-1.9,3.9-3c-1,1.6-1.9,3.3-3,4.8
		c-2.1,2.9-4.4,5.7-6.6,8.5c-0.6,0.8,0.2,2.2,1,1.6c0.3-0.3,0.6-0.5,0.9-0.8c3.2,0.5,6.5,0.9,9.7,1.4c-0.6,0.4-1.2,0.8-1.7,1.4
		c-0.7,0.7,0.2,1.7,1,1.4c0.8-0.3,1.6-0.7,2.4-1c-1.5,2.4-3.3,4.5-5.5,6.1c-0.4,0.3-0.1,1.3,0.4,1.1c1-0.5,1.9-1.2,2.7-1.9
		c-0.4,0.7-0.8,1.5-1.2,2.2c-2,2.5-4.1,4.8-6.5,6.7c-0.7,0.6-0.1,2,0.7,1.5c0.5-0.3,1-0.7,1.5-1c-0.4,0.6-0.7,1.1-1.1,1.7
		c-2.6,2.5-5.4,4.6-8.4,6.3c-0.7,0.4-0.2,1.7,0.5,1.5c0.5-0.2,0.9-0.3,1.3-0.5c-1.9,1.9-3.8,3.9-5.6,6c-0.6,0.7,0.2,2,0.9,1.4
		c0.9-0.8,1.8-1.6,2.7-2.4c-1,1.3-2,2.6-3,3.9c22.9-2.1,45.9,0.6,68.8,3.2c-0.2-0.6-0.4-1.2-0.6-1.8c0.5,0.3,0.9,0.7,1.4,1
		C459.8,621.7,460.5,620.6,460,619.9z"/>
	<path class="st6" d="M595.4,618.7c-1.2-1.4-2.5-2.6-3.8-3.7c-0.1-0.4-0.3-0.8-0.4-1.2c0.9,0.9,1.9,1.8,2.9,2.6c0.7,0.5,1.6-0.3,1-1
		c-1.9-2-3.7-4-5.6-6c-0.5-1.2-1.1-2.4-1.6-3.5c0.5,0.8,1,1.5,1.4,2.3c0.5,0.8,1.6,0.1,1.2-0.7c-1.8-3.9-3.9-7.4-6.6-10.7
		c1.2,1,2.4,2,3.7,2.8c0.6,0.4,1.2-0.5,0.7-0.9c-3.6-3.6-7.3-7.3-11.1-10.7c-0.1-0.1-0.2-0.1-0.3-0.1c-0.2-0.3-0.5-0.7-0.7-1
		c2.1,2,4.3,4,6.6,5.9c0.7,0.5,1.5-0.3,1-1c-1.2-1.5-2.6-2.9-4-4.2c1.6,0.6,3.3,1.1,4.9,1.5c0.7,0.2,1.2-0.9,0.5-1.2
		c-2-0.9-4.1-1.6-6.2-2.2l9.4-0.2c0-0.1,0-0.1-0.1-0.2c0.8,1.2,1.7,2.3,2.7,3.3c0.6,0.7,1.7-0.2,1.2-1c-3.2-4.8-6.1-9.7-8.3-15
		c-0.1-0.2-0.2-0.3-0.3-0.4c0-0.1-0.1-0.3-0.1-0.4c1.3,1.9,2.7,3.8,4.3,5.5c0.6,0.7,1.8-0.2,1.3-1c-2.1-3.6-4.5-7.2-6.8-10.7
		c0.6,0.3,1.5-0.4,1-1.1c-2.6-3.8-4.8-7.7-6.6-11.9c0.5,0.6,1,1.2,1.5,1.8c0.6,0.7,1.7-0.2,1.2-0.9c-1.7-2.7-3.3-5.6-4.6-8.5
		c2-0.6,4.1-1.2,6.1-1.8c0.5,0.6,1,1.2,1.6,1.7c0.7,0.7,1.9-0.2,1.4-1c-2-2.8-3.9-5.6-5.4-8.6c1.2,1,2.4,2,3.7,2.9
		c0.7,0.5,1.5-0.6,0.9-1.2c-2.3-2.2-4.4-4.5-6.5-6.9c0.4,0.4,0.7,0.8,1.1,1.2c0.6,0.6,1.4-0.3,0.9-0.9c-3.1-3.7-5.2-7.6-6.9-11.9
		c0.8,0.9,1.6,1.8,2.5,2.6c0.5,0.4,1.1-0.2,0.7-0.7c-2.6-3-4.9-6.3-6.9-9.7c-0.1-0.1-0.2-0.2-0.3-0.2c-0.3-0.7-0.6-1.5-0.9-2.2
		c-0.3,0.9-0.7,1.8-1.1,2.7c-1.2,1.1-2.1,2.9-3.1,4.1c-2,2.4-4.2,4.3-6.3,6.4c-0.7,0.7-0.1,2.1,0.7,1.6c0.8-0.5,1.5-1,2.2-1.6
		c-2.2,2.7-4.5,5.2-7,7.7c-0.6,0.6-0.1,1.8,0.6,1.3c1.6-1.1,3.1-2.4,4.6-3.8c-0.8,1.3-1.7,2.6-2.6,3.8c-2.9,2.6-6,4.9-9.2,7.2
		c-0.6,0.5-0.2,1.8,0.5,1.5c1.1-0.5,2.1-1.1,3.2-1.8c-1,1.1-2.1,2.3-3.1,3.3c-1.7,1-1.5,1.6-3.2,2.6c-0.6,0.4-0.1,1.5,0.4,1.3
		c0.1,0,0.2-0.1,0.3-0.1l8.3,0.6c-2.4,2.8-4.9,5.6-7.3,8.4c-0.4,0.4-0.1,1.1,0.3,1.3c-0.1,0.1-0.1,0.2-0.2,0.2
		c-0.6,0.7,0.3,1.7,1.1,1.1c0.6-0.5,1.3-1.1,2-1.6c-1.1,1.7-2.3,3.4-3.5,5c-0.6,0.9,0.3,2.1,1,1.3c0.4-0.4,0.8-0.9,1.1-1.3
		c-0.4,0.8-0.8,1.5-1.3,2.3c-2.4,3-5.1,5.6-8,7.8c-0.6,0.5-0.1,1.6,0.6,1.2c1.4-0.9,2.6-1.9,3.9-3c-1,1.6-1.9,3.3-3,4.8
		c-2.1,2.9-4.4,5.7-6.6,8.5c-0.6,0.8,0.2,2.2,1,1.6c0.3-0.3,0.6-0.5,0.9-0.8c3.2,0.5,6.5,0.9,9.7,1.4c-0.6,0.4-1.2,0.8-1.7,1.4
		c-0.7,0.7,0.2,1.7,1,1.4c0.8-0.3,1.6-0.7,2.4-1c-1.5,2.4-3.3,4.5-5.5,6.1c-0.4,0.3-0.1,1.3,0.4,1.1c1-0.5,1.9-1.2,2.7-1.9
		c-0.4,0.7-0.8,1.5-1.2,2.2c-2,2.5-4.1,4.8-6.5,6.7c-0.7,0.6-0.1,2,0.7,1.5c0.5-0.3,1-0.7,1.5-1c-0.4,0.6-0.7,1.1-1.1,1.7
		c-2.6,2.5-5.4,4.6-8.4,6.3c-0.7,0.4-0.2,1.7,0.5,1.5c0.5-0.2,0.9-0.3,1.3-0.5c-1.9,1.9-3.8,3.9-5.6,6c-0.6,0.7,0.2,2,0.9,1.4
		c0.9-0.8,1.8-1.6,2.7-2.4c-1,1.3-2,2.6-3,3.9c22.9-2.1,45.9,0.6,68.8,3.2c-0.2-0.6-0.4-1.2-0.6-1.8c0.5,0.3,0.9,0.7,1.4,1
		C595.3,620.5,596,619.4,595.4,618.7z"/>
	<path class="st6" d="M518.6,628.3c-1-1.2-2.2-2.3-3.4-3.3c-0.1-0.3-0.3-0.7-0.4-1c0.8,0.8,1.7,1.5,2.6,2.3c0.6,0.5,1.4-0.3,0.8-0.8
		c-1.6-1.8-3.3-3.5-4.9-5.2c-0.5-1-0.9-2.1-1.4-3.1c0.4,0.7,0.8,1.3,1.2,2c0.4,0.7,1.4,0.1,1.1-0.6c-1.6-3.4-3.4-6.5-5.8-9.4
		c1,0.9,2.1,1.7,3.2,2.5c0.5,0.3,1-0.4,0.6-0.8c-3.1-3.2-6.4-6.4-9.7-9.4c-0.1-0.1-0.2-0.1-0.3-0.1c-0.2-0.3-0.4-0.6-0.6-0.8
		c1.9,1.8,3.8,3.5,5.8,5.1c0.6,0.5,1.3-0.2,0.8-0.8c-1.1-1.3-2.3-2.6-3.5-3.7c1.4,0.5,2.8,1,4.3,1.3c0.6,0.2,1-0.8,0.4-1
		c-1.8-0.8-3.6-1.4-5.4-1.9l8.2-0.2c0-0.1,0-0.1-0.1-0.2c0.7,1,1.5,2,2.4,2.9c0.5,0.6,1.5-0.2,1.1-0.8c-2.8-4.2-5.4-8.5-7.3-13.1
		c-0.1-0.1-0.2-0.2-0.3-0.3c0-0.1-0.1-0.2-0.1-0.3c1.1,1.7,2.4,3.3,3.7,4.8c0.6,0.6,1.5-0.2,1.1-0.9c-1.9-3.2-3.9-6.3-5.9-9.3
		c0.5,0.3,1.3-0.3,0.9-0.9c-2.2-3.4-4.2-6.8-5.8-10.4c0.4,0.6,0.9,1.1,1.3,1.6c0.5,0.6,1.5-0.2,1.1-0.8c-1.5-2.4-2.9-4.9-4.1-7.5
		c1.8-0.5,3.6-1.1,5.3-1.6c0.4,0.5,0.9,1,1.4,1.5c0.6,0.6,1.7-0.2,1.2-0.9c-1.7-2.5-3.4-4.9-4.7-7.6c1,0.9,2.1,1.8,3.2,2.5
		c0.6,0.4,1.4-0.5,0.8-1.1c-2-1.9-3.8-4-5.7-6c0.3,0.3,0.7,0.7,1,1c0.5,0.5,1.2-0.2,0.8-0.8c-2.7-3.2-4.6-6.6-6-10.4
		c0.7,0.8,1.4,1.5,2.1,2.3c0.4,0.4,1-0.2,0.6-0.6c-2.3-2.6-4.3-5.5-6-8.5c-0.1-0.1-0.2-0.2-0.2-0.2c-0.3-0.6-0.5-1.3-0.8-1.9
		c-0.3,0.8-0.6,1.6-0.9,2.3c-1,1-1.9,2.6-2.8,3.6c-1.7,2.1-3.7,3.8-5.5,5.6c-0.6,0.6-0.1,1.8,0.6,1.4c0.7-0.4,1.3-0.9,1.9-1.4
		c-1.9,2.4-3.9,4.6-6.1,6.7c-0.5,0.5-0.1,1.6,0.6,1.2c1.4-0.9,2.7-2.1,4-3.3c-0.7,1.1-1.5,2.3-2.3,3.4c-2.6,2.3-5.3,4.3-8.1,6.3
		c-0.5,0.4-0.2,1.6,0.4,1.3c0.9-0.5,1.9-1,2.8-1.6c-0.9,1-1.8,2-2.7,2.9c-1.5,0.9-1.3,1.4-2.8,2.3c-0.5,0.3-0.1,1.3,0.4,1.1
		c0.1,0,0.2-0.1,0.2-0.1l7.2,0.5c-2.1,2.5-4.3,4.9-6.3,7.4c-0.3,0.4-0.1,1,0.2,1.1c-0.1,0.1-0.1,0.1-0.2,0.2
		c-0.6,0.6,0.3,1.5,0.9,0.9c0.6-0.5,1.2-0.9,1.8-1.4c-1,1.5-2,2.9-3,4.4c-0.6,0.8,0.3,1.8,0.9,1.1c0.3-0.4,0.7-0.8,1-1.1
		c-0.4,0.7-0.7,1.3-1.1,2c-2.1,2.6-4.5,4.9-7,6.9c-0.5,0.4-0.1,1.4,0.5,1.1c1.2-0.8,2.3-1.6,3.4-2.6c-0.8,1.4-1.7,2.8-2.6,4.2
		c-1.8,2.6-3.8,5-5.8,7.4c-0.6,0.7,0.2,1.9,0.9,1.4c0.3-0.2,0.5-0.5,0.8-0.7c2.8,0.4,5.7,0.8,8.5,1.2c-0.5,0.3-1,0.7-1.5,1.2
		c-0.7,0.6,0.2,1.5,0.9,1.2c0.7-0.3,1.4-0.6,2.1-0.9c-1.3,2.1-2.9,4-4.8,5.3c-0.4,0.3-0.1,1.2,0.3,0.9c0.9-0.5,1.7-1,2.4-1.6
		c-0.3,0.6-0.7,1.3-1.1,1.9c-1.7,2.2-3.6,4.2-5.6,5.9c-0.7,0.5-0.1,1.8,0.6,1.3c0.4-0.3,0.9-0.6,1.3-0.9c-0.3,0.5-0.6,1-1,1.5
		c-2.3,2.2-4.7,4-7.4,5.5c-0.6,0.3-0.2,1.5,0.4,1.3c0.4-0.1,0.8-0.3,1.2-0.5c-1.7,1.7-3.3,3.4-4.9,5.3c-0.5,0.6,0.2,1.7,0.8,1.2
		c0.8-0.7,1.6-1.4,2.4-2.1c-0.9,1.1-1.7,2.3-2.6,3.4c20.1-1.8,40.2,0.5,60.3,2.8c-0.2-0.5-0.3-1-0.5-1.6c0.4,0.3,0.8,0.6,1.3,0.9
		C518.4,629.9,519.1,628.9,518.6,628.3z"/>
	<path class="st6" d="M362.7,249.8c0-0.2-0.5,0.1-1.2,0.5c-0.4-0.6-0.9-1.2-1.4-1.6c-0.3-0.3-0.9-0.1-0.9,0.4c0,0.8,0,1.5,0,2.3
		c0,0.1,0,0.3,0,0.4c0,0-0.1,0.1-0.2,0.1c-0.3-0.1-0.5-0.2-0.8-0.4c-0.2-0.1-0.5-0.1-0.7,0.2c-0.3,0.6-0.7,1.2-1,1.7
		c-0.1,0.1-0.2,0.1-0.3,0.2c-0.5-0.2-1.1-0.2-1.5,0.2c-0.3,0.3-0.5,0.7-0.6,1c-0.4-0.2-1-0.3-1.5-0.4c-0.2,0-0.4,0.1-0.5,0.3
		c-0.2,0.4-0.4,0.8-0.5,1.2c-0.6-0.2-1.3,0-1.7,0.5c-1.4-0.2-1.3-1.8-0.2-3.9c0.3-0.1,0.6-0.1,0.8-0.2c0.3-0.1,0.5-0.4,0.4-0.7
		c-0.1-0.2-0.1-0.5-0.1-0.7c0,0,0-0.1,0.1-0.1c0.4,0,0.9,0,1.3-0.3c0.3-0.2,0.5-0.5,0.6-0.9c0.5-0.1,1-0.1,1.5-0.2
		c0.3,0,0.5-0.4,0.4-0.7c-0.1-0.4-0.3-0.9-0.4-1.3c0.4-0.2,0.8-0.4,1.1-0.6c0.3-0.2,0.3-0.5,0.2-0.8c-0.2-0.3-0.3-0.6-0.4-0.9
		c0.6-0.2,1.2-0.4,1.7-0.5c0.3-0.1,0.6-0.5,0.5-0.8c-0.2-0.4-0.3-0.9-0.4-1.3c0.4,0.2,0.9,0.4,1.4,0.4c0.3,0,0.5-0.4,0.4-0.6
		c-0.4-1-0.7-2-0.9-3.1c0.3-0.9,0.5-1.5,0.5-1.5s0.8-6.7,0.5-8.8c-0.3-2.1-1-5.7-2.8-6.4c-1.8-0.8-4.1,1.5-4.9,2.6
		c-0.8,1-6.4,5.2-10.8,8.2c0,0,0,0,0,0c-4.2,2.6-8.5,5-12.8,7.5c-3,0.1-6.6,0.1-8.6,0.5c-1.4,0-2.8,0.3-4.1,0.6
		c-0.4,0.1-0.3,0.8,0.1,0.7c0.3,0,0.6,0,0.9-0.1c-2.2,0.9-4.3,2.2-5.8,3.7c-0.3,0.3,0.1,0.9,0.5,0.6c1-0.6,1.9-1.2,2.9-1.8
		c-0.6,0.5-1.2,1.1-1.8,1.7c-2.8,1.9-5.5,4-8.5,5.4c-0.4,0.2-0.1,0.9,0.3,0.8c1-0.3,1.9-0.7,2.8-1.2c-2.2,2.1-4.3,4.1-5.8,5.4
		c-1.3,0.8-2.8,1.3-4.4,1.5c-0.4,0-0.6,0.5-0.4,0.8c-3.2,0.6-8.6,1.6-12.9,3c-0.8,0.2-1.6,0.4-2.4,0.6c-2.3,0.5-4.5,1.4-5.6,3.6
		c-0.1,0.2,0.2,0.5,0.4,0.3c0.4-0.4,0.8-0.8,1.3-1.2c-0.1,0.9,0.1,1.9,0.4,2.6c0.4,1.2,1.2,2.1,2.2,2.8c0.4,0.2,0.8-0.3,0.5-0.6
		c-0.7-0.7-1.3-1.4-1.7-2.3c2.2,2.4,7.3,5.5,11.7,6.2c-2.3,1-4.5,2.2-6.8,3.2c-0.5,0.2-0.2,1.1,0.4,0.9c1.1-0.3,2.3-0.7,3.5-1.2
		c-0.9,0.6-1.9,1.3-2.9,2c-4.8,2.4-9.2,5.8-12.9,9.6c-0.4,0.4,0.2,1.3,0.7,0.9c0.4-0.3,0.8-0.6,1.2-0.9c-1.9,2.1-3.9,4.8-6,7.6
		c-3.9,3.8-7.6,7.8-11,12.1c-0.4,0.5,0.2,1.2,0.7,0.7c1.4-1.4,2.9-2.9,4.3-4.4c-2.7,3.9-5.1,7.6-6.8,10.1c-0.4,0.5-0.8,1.2-1.2,1.9
		c-3,3.5-5.9,7.1-8.6,10.9c-0.3,0.5,0.4,1,0.8,0.6c0.4-0.4,0.7-0.8,1.1-1.1c-0.8,1.1-1.5,2.3-2.4,3.5c-3,3.2-6.1,6.1-9.7,8.8
		c-0.4,0.3-0.1,0.9,0.4,0.7c1.7-0.9,3.4-2,5-3.3c-2,2.9-4.1,5.7-6.2,8.2c-1.2,1-2.6,1.9-4.1,2.6c-0.6,0.3-0.2,1.2,0.4,1
		c0.3-0.1,0.7-0.3,1-0.4c-1.3,1.5-2.6,2.8-3.8,3.9c-2.9,1.7-5.9,3.5-8.7,5.4c-0.4,0.3,0,0.9,0.4,0.6c1.4-0.8,2.8-1.6,4.1-2.4
		c-0.7,0.6-1.4,1.2-2.1,1.9c-4,2.9-8,5.7-12.3,8.4c-0.6,0.4-0.1,1.2,0.5,0.9c1-0.5,2.1-1,3.1-1.5c-3.7,3.3-7.7,7-11.6,10.7
		c-5,3.3-10,6.5-15,9.8c-0.4,0.3-0.1,1,0.4,0.7c3.1-1.6,6-3.4,9-5.2c-0.5,0.5-1,0.9-1.5,1.4c-6,4.2-12,8.6-17,13.8
		c-0.4,0.4,0.1,1.1,0.6,0.8c0.5-0.4,1-0.7,1.5-1.1c-2.8,2.8-5.4,5.9-7.4,9.2c-0.2,0.4,0.3,0.8,0.6,0.5c0.9-1,1.8-2,2.7-3
		c-0.2,0.3-0.4,0.6-0.6,0.9c-2.6,4-6.9,12.1-11.5,20.4c-3.1,4-6.3,7.9-9.4,11.9c-0.3,0.4,0.2,0.9,0.6,0.6c1-1,2-2,3-3
		c-3.8,7.4-8.2,14.3-16.8,17c-0.7,0.2-0.4,1.2,0.3,1.1c2.1-0.4,4-1.1,5.7-2.1c-4.5,3.3-9.8,4.2-16.1,3.7c-0.8-0.1-0.8,1-0.2,1.3
		c0.1,0,0.1,0,0.2,0.1c-1.4,0.1-2.9,0.1-4.4,0.1c-6.5-1.7-13.3-1.9-20-0.3c-0.7,0.2-0.5,1.3,0.2,1.2c0.8-0.1,1.7-0.2,2.5-0.2
		c-5.5,1-11.4,3.4-16.9,6.3c-7.7,3.2-14.9,8.2-21.5,12.8c-0.6,0.4-0.1,1.3,0.6,1c1.8-0.8,3.6-1.8,5.4-2.7c-0.2,0.2-0.4,0.3-0.5,0.5
		c-4.6,4.6-9.1,9-13.2,12.1c-3,1.4-6.1,2.5-9.2,3c-0.9,0.1-0.5,1.3,0.2,1.4c1.1,0.1,2.1,0,3.1-0.2c1.5,1,3.3,1.7,5.2,2.3
		c1.3,0.5,2.8,1.1,4.5,1.7c-1.6-0.1-3.1-0.3-4.7-0.6c-0.6-0.1-0.8,0.7-0.2,0.9c3,1,6.3,1.6,9.5,1.2c11.1,3.2,28.4,6,52.3,3.8
		c13.4-1.2,23.5-3.3,31-5.6c-0.7,0.3-1.3,0.7-2,1c-0.4,0.2-0.1,0.8,0.3,0.7c2.8-0.6,5.5-2,7.9-3.9c1.7-0.7,3.2-1.4,4.6-2
		c-1,0.7-1.9,1.5-2.9,2.3c-0.3,0.3,0.1,0.9,0.5,0.6c3-2.1,5.9-4.5,8.8-6.8c0,0,0-0.1,0.1-0.1c0.1,0,0.1-0.1,0.2-0.1
		c-0.5,0.5-1,1-1.5,1.5c-0.4,0.4,0.1,1.2,0.6,0.8c2.1-1.6,4-3.5,5.7-5.5c0.1,0.1,0.1,0.2,0.2,0.2c0.3,0.9,0.6,1.8,0.9,2.6
		c0.1,0.4,0.8,0.4,0.8-0.1c0-0.2-0.1-0.5-0.1-0.7c0.9,1.1,1.6,2.2,1.6,3c0,1.8-4.6,2.6-2.8,6.2s30.9,2.6,43.8,5.2
		c12.9,2.6,23.2,1.5,25.3,0.3c0.7-0.4,0.9-1.4,0.8-2.5c0.4,0.3,1-0.1,0.7-0.6c-0.4-0.7-0.8-1.3-1.4-1.9c-0.3-0.7-0.6-1.4-1.1-2.1
		c0.1,0,0.1,0.1,0.2,0.1c0.6,0.4,1.3-0.3,0.8-0.8c-1.1-1.2-2.6-2.1-4.2-2.7c-1.4-0.7-3.5-1.2-5.8-1.6c0.2-0.3,0.2-0.8-0.2-0.8
		c-2.9-0.5-6.4-0.8-9.5-0.5c-0.6-0.1-1-0.2-1.2-0.2c-0.3-0.1,0.5-0.8,1.9-1.9c-0.1,0.4-0.2,0.8-0.1,1.2c0,0.3,0.5,0.4,0.7,0.2
		c0.8-0.8,1.2-2.2,1.8-3.2c0.5-0.4,1-0.8,1.6-1.2c-0.1,0.2-0.2,0.4-0.3,0.6c-0.2,0.5,0.4,1.1,0.8,0.6c1.8-2.2,3.9-4.1,6.1-6
		c2.6-1.9,5.3-3.9,8-5.9c-0.7,0.7-1.3,1.5-2,2.2c-0.4,0.5,0.2,1.2,0.7,0.7c3.1-2.9,6.1-6,9-9.2c1.9-1.7,3.5-3.2,4.7-4.6
		c0.3-0.4,0.6-0.7,0.9-1.1c-0.8,1.2-1.6,2.3-2.3,3.5c-0.3,0.4,0.4,1,0.7,0.6c3.2-4,7.6-9.1,9-14.5c0.6-1,1.1-1.9,1.6-2.7
		c-0.3,0.8-0.6,1.7-0.9,2.5c-0.2,0.5,0.6,0.8,0.9,0.4c0.9-1.4,1.6-2.8,2.1-4.3c0.1-0.2,0.2-0.5,0.3-0.8c0,0.3,0.1,0.5,0.1,0.6
		c0,1,0,1.9,0,2.9c-0.1,2.3-0.3,4.5-0.6,6.8c-0.1,0.6,0.9,0.7,1,0.1c0.3-1,0.4-2.1,0.6-3.1c0.1,4.3,0.1,9.3-0.7,13.1
		c-1.2,3.5-2.7,7-4.1,10.5c-0.2,0.4,0.6,0.8,0.8,0.3c0.8-1.6,1.5-3.2,2.3-4.8c0,0,0,0.1,0,0.1c-1.8,4.2-1.9,9.6-1,13.7
		c0.1,0.6,1.1,0.5,1.1-0.1c-0.1-1.2-0.1-2.4-0.2-3.6c0.2,1.1,0.4,2.1,0.6,3.1c0,2.3,0.2,4.6,0.8,6.6c0.1,0.5,0.9,0.4,0.9-0.1
		c0-0.2,0-0.4,0-0.6c1.1,3.5,2.4,6.5,5,7.8c3.9,1.8,7,2.3,9.5,2.1c2.6-0.3,12.9,0,15.2-2.1c1-0.9,0.3-2.9-1-5.1
		c0.1,0,0.2-0.2,0.1-0.3c-0.8-1.5-1.9-2.7-3.1-3.7c-0.8-0.9-1.6-1.7-2.3-2.3c0.6,0.3,1.2,0.5,1.9,0.6c0.3,0.1,0.5-0.4,0.1-0.5
		c-2.1-0.7-3.9-2-5.2-3.7c-1.2-4.3-1.4-13.1-1-21.1c0.2,1.3,0.4,2.6,0.7,3.9c0.1,0.4,0.9,0.4,0.8-0.1c-0.7-5.9-0.9-11.6,0.2-17.5
		c0-0.1,0-0.2-0.1-0.3c0.1-0.4,0.1-0.7,0.2-1c0.1,1.3,0.1,2.5,0.3,3.7c0.1,0.6,1,0.4,1-0.1c0.2-5.6,0.5-10.9,1.4-16.2
		c0.4-1.8,0.9-3.7,1.3-5.5c-0.1,1.8-0.2,3.6-0.2,5.3c0,0.5,0.8,0.6,0.8,0.1c0.6-4.1,0.7-8.3,1.2-12.4c0.4-1.3,0.7-2.6,1.1-3.7
		c0.2,0.1,0.4,0,0.6-0.2c1.3-3.1,2.7-6.1,4.4-8.8c-0.1,0.2-0.1,0.3-0.2,0.4c-0.2,0.5,0.6,0.8,0.8,0.3c2.7-5.4,9-7.7,11.9-12.9
		c0.1-0.1,0.1-0.2,0.2-0.3c-0.2,0.6-0.5,1.1-0.7,1.7c-0.3,0.6,0.5,1,0.8,0.5c1.9-2.9,3.2-6.6,3.8-10.2c0.5-1.3,0.8-2.4,1.1-3.1
		c-0.1,1.3-0.2,2.5-0.2,3.8c0,0.6,0.9,0.7,1,0.1c1.1-6.1,1.3-12.5,1.1-18.8c0.2,1.1,0.3,2.3,0.5,3.4c0.1,0.4,0.7,0.3,0.7-0.1
		c-0.2-2.2-0.4-4.5-0.6-6.7c-0.1-1.1-0.2-2.2-0.3-3.2c0.2-2.3,0.5-4.6,0.8-7c0,0.2,0,0.3,0,0.5c0.1,0.7,1,0.7,1.1,0
		c0.2-6,1.1-11.7,2.2-17.5c-0.1,2.1,0,4.2,0.1,6.3c0,0.6,0.9,0.6,1,0c0.2-3.2,0.2-6.4,0.5-9.6c0.3-3,1.4-5.8,2.2-8.7
		c0.4-0.8,0.8-1.7,1.1-2.5c-0.3,1.7-0.6,3.4-1.2,5c-0.2,0.5,0.6,0.8,0.8,0.3c1.7-3.4,2-7.5,1.9-11.5c0.2-1.6,0.4-3.2,0.4-4.7
		c0.3,0.2,0.8,0,0.9-0.4c0.1-6.6-0.5-13,1.7-19.2c-0.3,1.2-0.6,2.5-0.7,3.7c-0.1,0.4,0.6,0.5,0.7,0.1c2-5.9,3.9-11.6,6.5-17.2
		c0.3-0.4,0.7-0.9,1.1-1.3c-0.4,0.8-0.8,1.5-1.1,2.3c-0.2,0.5,0.4,0.9,0.8,0.5c1.1-1.5,2.1-3.1,3.2-4.6c0.5-0.4,0.9-0.7,1.3-1.2
		c-0.4,0.7-0.8,1.3-1.2,2c-0.3,0.5,0.4,1,0.7,0.6c2.1-2.6,3.9-5.4,5.5-8.4c1.1-1.2,2.1-2.4,3.1-3.5c0,0.4,0.5,0.7,0.8,0.4
		c1.9-2.3,3.6-5,4.8-7.8c0.2-0.2,0.3-0.5,0.5-0.7C365.3,252.9,362.7,250.6,362.7,249.8z"/>
	<path class="st8" d="M497.7,92.7c-11,1.8-21.5,5.2-32.8,6c-9,0.6-18.1,0.1-27.1,0.1c-1.2,0-9.9-0.7-11.8,0.1
		c5.9,2.7,11.6,4.7,18,6.1c8.5,1.9,16.8,4.1,25.3,6.1c11.4,2.7,22.8,3.4,34.4,1.1c10.3-2,20.5-0.1,30.8-1.4c6.1-0.8,12-2.3,18.1-3.2
		c1.6-0.2,5.6,0.2,4.9-2.8c-1.3-1-2.7-1.5-4.4-1.4c-6.2-1.2-12.2-3.3-18.4-4.5c-3.7-0.7-5.8-2.7-8.9-4.7c-1.3-0.7-2.4-1.5-3.5-2.5
		c-3.4-2.3-6.7-1.3-10.6-1.4C505.8,90.2,503.7,91.7,497.7,92.7z"/>
	<path class="st8" d="M133.2,26.4c4.9-1.4,10-1.3,14.8-2.4c2-0.5,4.7-1.8,6.6-2.5c3.7-1.4,7.3-1.9,11.3-2.7
		c5.1-0.9,9.9-2.5,14.9-3.8c7.8-2,16.4-2.1,24.5-2.1c4.7,0,9.4,0.3,14.1,0.1c5.6-0.2,11-1.4,16.7-1.3c10,0.1,19.6,0.5,29.5,1.3
		c4.1,0.3,7.8,1.1,11.7,2.5c4.9,1.7,9.8,1.2,15,1.2c12.3,0,24.6,0.1,36.9,0c6.4,0,12.5,0.5,18.7,1.6c3.8,0.6,9.4,0.4,12.2,3.4
		c-0.4,2.2-7.5,3.1-9.1,3.4c-5.1,0.7-10.3,1.1-15.4,1.5c-4.9,0.3-9.3,2.4-14.1,2.6c-5.9,0.2-11.8-0.1-17.7-0.1
		c-4.9,0-9.6-0.6-14.3,1.2c-3.4,1.3-6.6,2.4-10.3,2.5c-5.3,0.2-16.6-2.5-20.5,2.4c0.6,2.6,4.4,2.3,6.3,2.7c2.7,0.6,5.3,1.3,7.8,2.2
		c4.2,1.2,8.4,2.6,12.6,3.7c-7.1-0.7-14.5,0.1-21.6,0c-9.9-0.2-19.4-2.3-29.2-3.4c-7.8-0.9-15.6-1.1-23.4-1.8
		c-7.2-0.7-14.5-2.2-21.7-2.3c-2.1,0-4.3,0.1-6.4,0.1c-2.3,0.1-4.5,0.2-6.8,0.3c-8.6-0.3-17.2-0.8-25.8-1.6c-4.2-1-8-2.7-11.5-5.1
		C137.3,28.6,135.4,26.7,133.2,26.4z"/>
	<path class="st8" d="M59.1,148.2c7.3-1.2,14-2.4,21.5-2.6c6.1-0.1,12.2,0,18.2,0.2c5.7,0.5,11.2,1.7,16.6,3.6
		c14.8,3.6,31,3.8,46.2,4.6c5.9,0.1,11.9,0.3,17.8,0.4c2.4-0.4,4,0.3,4.8,2.2c-1.7,1.7-3.8,2.5-6.3,2.5c-7.6,1.6-15.7,1.4-23.4,2.1
		c-8.5,0.7-16.6,1.6-25.1,1.5c-2.8-0.2-5.5-0.1-8.2,0.2c-4,0.7-7.6,2.7-11.7,3.3c-6.7,1-13.2-0.4-19.8-1c-1.8,0.1-3.4-0.3-4.9-1.2
		c-4.4-1.9-8.3-2.5-13.1-2.6c-5.3-0.1-10.7,0.1-16,0.1c-7.9,0-18,1.6-25.5-1.5c5.4-2.4,12-2.8,17.7-4.6
		C52.6,154.1,54.4,149,59.1,148.2z"/>
	<path class="st8" d="M65.2,172.7c13.1-2.1,26.4-1.2,39.6-1.2c6.8,0,13.2-0.5,19.9-1c3.3-0.2,14.4-2.3,17.3,0.9
		c-1.3,3-7.3,3.2-9.6,3.7c-6.6,1.4-12.7,3.2-19.1,5.1c-5.2,1.5-11.1,2.3-16.4,3.2c-5,0.8-10.7,0.5-15.8,0.4c-3.1-0.1-5-1-7.6-2.5
		C69.5,178.9,69.6,172.6,65.2,172.7z"/>
	<path class="st8" d="M509.7,336.7c-19.8-0.2-39.4-2.4-59.2-2.5c-5.7,0-10.7,0-16.3,1.2c-5.1,1.2-9.6,1-14.8,1.2
		c-7.9,0.2-15.8,1.8-21.8,6.9c3.9,1.6,10.5,0.4,14.6,0.7c7.1,0.5,14,1.1,21.2,1c4.3,0,8.7-0.4,12.9,0.2c2.9,0.4,6.6,0.4,9.4,1.1
		c3.3,0.9,6.1,3.8,9.4,5.1c5.6,2.2,11.4,3.4,17.4,3.4c4.1,0,8.7,0.4,12.7-0.4c8.2-1.4,16.3-3.6,24.1-5.6c1.9-0.5,6.4,0.1,7.3-2.7
		C527.7,342.9,511.5,336.7,509.7,336.7z"/>
	<path class="st8" d="M511.8,226.9c-7.8,0-15.5-0.4-23.2,1.2c-6.4,1.3-12.4,2.2-18.9,2.9c-2.9,0.3-9.9,0.8-9.9,0.8s11.4,3.6,17,5.1
		c3.8,1,7.8,1.7,11.4,3.2c3.3,1.4,5.9,2.7,9.7,2.9c5.4,0.2,10.9,0.1,16.3-0.1c7.8-0.3,15.1-4.1,22.7-5.9c2.7-0.7,5.1-0.4,7.6-1.7
		c1.4-0.7,3.2-2.2,4.5-3.1c-1.2-0.8-5.5-0.2-6.7-0.2c-3.7,0-7.7,0.5-11.3-0.2C527.8,230.9,513.9,229.6,511.8,226.9z"/>
	<path class="st8" d="M43.1,299.1c3.8,0.1,7.2-0.5,10.9-1c10.5-1.2,20.3,2,30.7,2.3c9.9,0.3,20-0.1,29.9-0.1c9,0,17.9-1.1,26.9-1.1
		c-1.4,1.1-3,1.9-4.8,2.3c-4.6,1.6-9.4,3.1-14,4.7c-7.3,2.4-14.9,2.6-22.2,5.2c-5.9,2.1-14.7,2-20.8,0.9c-3-0.6-6.1-0.6-9.2-1.2
		c-3.9-0.8-7.8-0.5-11.7-1.2c-2.7-0.5-6-0.7-8.5-1.8C48.4,307.2,42.2,301.9,43.1,299.1z"/>
	<path class="st8" d="M395.2,416c-5.7,0-11.4,0.2-17.1,0.1c-7-0.1-12.8-2.5-19.4-4.7c-7.1-2.3-15.2-4-22.6-4.9
		c-4-0.5-7.8-0.3-11.7-1.5c5.3,0.4,11.3-0.9,16.6-1.5c8.6-1,17.5-3.1,26.2-3.4c3.8-0.2,7.7,0.1,11.5,0c2.2-0.2,4.5-0.1,6.7,0.2
		c2.2,0.8,2.3,1.8,4.9,2.2c3.6,0.6,5.5,1.8,8.7,3.4c3.4,1.7,7.1,1.7,10.8,2.7c2.6,0.7,4.7,1.2,7.5,1.2c2.1,0,5.3-0.7,7.2,0.3
		c-0.2,1.7-4.6,1-5.7,1.2C414.7,411.8,398.8,419.9,395.2,416z"/>
	<path class="st8" d="M131.2,359.6c1.6-1.7,5-2.1,7.2-2.5c8.1-1.4,16.8-0.9,25-1.4c4.6-0.2,9.1-0.2,13.7-0.2c3.7,0,8.1-0.7,11.7,0.2
		c-1,0.9-3.6,1.8-4.8,2.5c-5.5,3.4-11.5,5.2-17.9,5.5c-3.3,0.1-6.2,1.5-9.5,1.7c-2.5,0.1-5.1-0.1-7.6-0.1c-3.3,0-7.3,0.1-10.4-1.4
		c-1.2-0.6-2-1.6-3.2-2.1C133.5,361,132.6,361.2,131.2,359.6z"/>
	<path class="st8" d="M514.8,210.7c-1.9-0.4-5.3,1-6.9,1.4c-5.4,1.3-11,2.4-16.4,3.3c-2,0.3-7.3,0.3-8.5,2.4
		c7.2,0.8,14.4,1.7,21.5,2.5c4.4,0.5,7.2-1.1,11.4-2.1c4.2-1.1,8.4-2.1,12.5-3.5c0.4-0.1,2.8-0.5,3.3-0.9c0.6-0.5,0.7-1.2,1.6-1.5
		C530.1,212.4,517,213.7,514.8,210.7z"/>
	<path class="st8" d="M467.2,84.2c-3.6-0.3-7.6,0.7-11.2,1.2c-2.6,0.3-5.2,0.7-7.7,1.3c-3.8,0.3-7.6,0.5-11.4,0.5
		c-0.1,0.5-0.1,1-0.2,1.5c4.4,1.8,8.9,3.1,13.6,3.7c2.9,0,5.9-1.4,8.8-0.8c2.4,0.5,4.6,1.7,7,2.2c3.6,0.8,7.3-0.6,10.8-1.3
		c1.8-0.4,3.4-0.3,5.3-0.4c1.7-0.1,3.2-0.8,4.7-1.4c-0.9-1-3.9-1.1-5.2-1.6c-1.3-0.5-3.3-2.6-4.7-2.5
		C476.9,86,467.1,84.8,467.2,84.2z"/>
	<g class="st9">
		<g>
			<path class="st10" d="M148.6,38.1c0.1,0.4,0.2,0.8,0.2,1.2c0.1,0.6,1.1,0.6,1.2,0c0.1-0.4,0.2-0.8,0.2-1.2
				C150.6,36.6,148.3,36.6,148.6,38.1z"/>
			<path class="st10" d="M41.9,22.5c-0.8-1.1-1.8-0.8-2.9-0.4c-0.7,0.3-0.7,1.6,0,2c1.1,0.5,2.1,0.8,2.9-0.4
				C42.2,23.5,42.2,22.9,41.9,22.5z"/>
			<path class="st10" d="M17.7,102.6c-3,0-3,4.6,0,4.6C20.6,107.2,20.6,102.6,17.7,102.6z"/>
			<path class="st10" d="M92.1,185.1c-2,0-2,3,0,3C94,188.2,94,185.1,92.1,185.1z"/>
			<path class="st10" d="M17.3,246.4c-0.1,0.6,0,1,0.2,1.6c0.5,1.3,2.1,1.3,2.6,0c0.2-0.5,0.3-1,0.2-1.6
				C20.2,244.5,17.5,244.5,17.3,246.4z"/>
			<path class="st10" d="M70.4,293.4c0-0.3-0.1-0.6-0.1-0.9c-0.2-1.3-2.5-1.3-2.7,0c0,0.3-0.1,0.6-0.1,0.9c-0.1,0.8,0.2,1.7,1.1,1.9
				c0.3,0.1,0.5,0.1,0.8,0C70.2,295.1,70.5,294.2,70.4,293.4z"/>
			<path class="st10" d="M120.1,349.4c-2.5,0-2.5,3.8,0,3.8C122.6,353.3,122.6,349.4,120.1,349.4z"/>
			<path class="st10" d="M32.3,401c-2,0-2,3.1,0,3.1C34.3,404.2,34.3,401,32.3,401z"/>
			<path class="st10" d="M321.4,435.4c0-0.1-0.1-0.1-0.1-0.2c-0.5-0.8-1.6-0.8-2.1,0c0,0.1-0.1,0.1-0.1,0.2
				c-0.3,0.5-0.2,1.2,0.2,1.6c0.1,0.1,0.1,0.2,0.2,0.3c0.3,0.6,1.2,0.6,1.6,0c0-0.1,0.1-0.2,0.2-0.3
				C321.6,436.6,321.7,435.9,321.4,435.4z"/>
			<path class="st10" d="M464.3,374.1l-1.2-0.2c-1.1-0.2-1.1,1.5,0,1.3l1.2-0.2C464.8,374.9,464.8,374.1,464.3,374.1z"/>
			<path class="st10" d="M560.5,303.8c-0.6-0.4-1.2-0.4-1.9-0.4c-0.9,0.1-1.6,0.7-1.6,1.6c0,0.9,0.7,1.6,1.6,1.6
				c0.7,0.1,1.3,0,1.9-0.4C561.4,305.6,561.4,304.4,560.5,303.8z"/>
			<path class="st10" d="M578.9,417.7c-2.5,0-2.5,3.9,0,3.9C581.4,421.7,581.4,417.7,578.9,417.7z"/>
			<path class="st10" d="M522.7,238.5c-2.4,0-2.4,3.7,0,3.7C525.1,242.2,525.1,238.5,522.7,238.5z"/>
			<path class="st10" d="M582.5,163.6c-1.4,0-1.4,2.1,0,2.1C583.9,165.8,583.9,163.6,582.5,163.6z"/>
			<path class="st10" d="M488.6,114.5c-1.8,0-1.8,2.9,0,2.9C490.4,117.3,490.4,114.5,488.6,114.5z"/>
			<path class="st10" d="M576.4,51.8c-2.4,0-2.4,3.8,0,3.8C578.9,55.6,578.9,51.8,576.4,51.8z"/>
			<path class="st10" d="M407.4,32.4l-0.3-1.1c-0.4-1.4-2.5-1.4-2.9,0l-0.3,1.1c-0.3,1.2,0.6,2.4,1.8,2.4
				C406.8,34.8,407.8,33.6,407.4,32.4z"/>
			<path class="st10" d="M271,16.1c-0.3-0.4-0.8-0.8-1.2-1.1c-1.2-1-2.8,0.5-1.7,1.7c0.3,0.4,0.7,0.9,1.1,1.2
				c0.5,0.3,1.2,0.3,1.7-0.1C271.3,17.4,271.3,16.6,271,16.1z"/>
			<path class="st10" d="M523.9,6.1c-0.8-0.8-2-0.5-2.6,0.3c-0.3,0.4-0.7,0.9-1,1.3c-0.8,1.1,0.8,2.7,1.9,1.9c0.5-0.3,0.9-0.7,1.3-1
				C524.4,8.1,524.7,7,523.9,6.1z"/>
			<path class="st10" d="M594.7,268.2c-0.3,0-0.7-0.1-1-0.1c-0.5-0.1-1.1,0.3-1.3,0.8c-0.3,0.6-0.3,1,0,1.6c0.2,0.4,0.9,0.8,1.3,0.8
				c0.3,0,0.7-0.1,1-0.1C596.6,270.8,596.6,268.4,594.7,268.2z"/>
			<path class="st10" d="M539.4,384.5c0-1.1-0.9-2-2-2c-0.9,0-1.7,0.6-1.9,1.5c-0.3,1,0.3,1.9,1.1,2.4c0.5,0.5,1.2,0.4,1.7,0
				C538.9,386,539.4,385.4,539.4,384.5z"/>
			<path class="st10" d="M6.7,361.3c-1.4,0-1.4,2.1,0,2.1C8,363.4,8,361.3,6.7,361.3z"/>
			<path class="st10" d="M166.3,399.6c-0.5-0.8-1-1.5-1.9-1.8c-0.9-0.3-1.8,0.6-1.5,1.5c0.3,1,1,1.5,1.8,1.9
				C165.7,401.8,166.9,400.6,166.3,399.6z"/>
			<path class="st10" d="M104.7,93.5c-0.5,0.8-1,1.5-1.5,2.3c-0.4,0.6-0.1,1.4,0.5,1.7c0.7,0.4,1.6,0,1.8-0.8l0.9-2.5
				C106.7,93.2,105.3,92.7,104.7,93.5z"/>
		</g>
	</g>
</g>
</svg>
