<?xml version="1.0" encoding="utf-8"?>
<!-- Generator: Adobe Illustrator 22.0.1, SVG Export Plug-In . SVG Version: 6.00 Build 0)  -->
<svg version="1.1" id="Слой_1" xmlns="http://www.w3.org/2000/svg" xmlns:xlink="http://www.w3.org/1999/xlink" x="0px" y="0px"
	 viewBox="0 0 320 320" style="enable-background:new 0 0 320 320;" xml:space="preserve">
<style type="text/css">
	.st0{fill:#FFFBEE;}
	.st1{fill:#E2E5D9;}
	.st2{fill:#CAC8BE;}
</style>
<g>
	<circle class="st0" cx="160.3" cy="160.3" r="159.7"/>
	<path class="st1" d="M285.9,169.2c-1.2,0.1-2.8,1-3.9,1.4c-4.5,1.4-9.1,3.8-13,6.4c1.4,0.7,3,0.8,4.5,1.5c3.2,1.4,6.2,3.7,8.8,6
		c1.1,0.9,1.7,2.1,2.8,3.1c1.4,1.3,2.4,1.3,4.3,1.6c2.4,0.3,3.8,0.8,5.7,2.4c1.1,0.9,2,1.5,3.5,1.5c1.9,0.1,4.6-0.4,6.5-0.8
		c1.7-0.4,4.7-1.2,6-2.5c-1.3-1.5-3.5-2-5.3-2.8c-2-1-4-2.1-5.9-3.2c-2-1.2-3.8-3-5.9-3.9c-2.1-1-5.4,0.5-5.4-2.6
		c0.1-3.3,4.4-3.9,7.1-4c1.6,0,5.1,0.6,5.9-1.4c0.9-2.1-3.5-1.8-4.5-1.8c-2.1,0-2.6-0.1-4.1-1.3
		C290.8,166.8,288.7,168.9,285.9,169.2z"/>
	<path class="st1" d="M264.2,77.2c0.7,0,1.3,0.4,1.6,1.1c1.4,1.9,2.9,3.6,4.7,5.2c3.9,3.6,8.2,5.2,13.1,7c1.5,0.5,4.1,1.2,5.2-0.1
		c2.3-2.7-3.5-7.6-4.9-9.3c-2-2.5-2-5.4-3.8-8c-0.6-0.7-1.2-1.3-1.9-1.9c-0.6-0.8-1.1-1.6-1.4-2.5c-1.3-2.1-3.9-2.5-5.2-4.7
		c-1-1.6-1.1-4-2.8-5c-1.7-1-3.9-1.1-5.8-1.6c-0.9-0.3-1.7-0.9-2.6-0.3c-1,0.7-1,4.6-0.7,5.6c0.4,0.6,0.7,1.3,1.1,1.9
		c0.2,0.7,0.2,1.4,0.1,2.2C261.1,68,264.5,75.8,264.2,77.2z"/>
	<path class="st1" d="M250.4,67.3c1.7,0,3-0.1,4.5,0.6c0.7,0.4,1.7,1.6,2.6,1.2c0.9-0.4,0.8-4.4,0.8-5.2c0-2.2-0.3-3.8,0.8-5.7
		c0.7-1.3,1.6-3.2,1.7-4.6c0.2-1.9-1.5-2.8-2.7-4.3c-2.5-3-4.5-6.5-7.2-9.3c-1-1.1-2-2.5-3.1-3.5c-1.2-1.1-2.7-1.5-3.9-2.6
		c0-0.6-0.3-1-0.9-1.2c-1.5-0.7-2.9-1.5-4.2-2.6c-1.8-1.4-3.5-3.1-5.5-4.1c-1.3-0.7-3.5-1-4.5-2.1c-0.4-0.5-0.2-1.2-0.9-1.7
		c-0.6-0.5-1.8-0.4-2.5-0.9c-1.2-0.9-1.5-2.4-3.2-2.5c-0.4,2.7-1.2,5.3-1.6,8c-0.4,2.2-0.7,3.7-2.5,5.1c-1.8,1.4-3.3,3.8-3.3,6.1
		c0,2.4-0.4,5,0.1,7.3c0.6,3.2,2.8,6,4.2,8.8c1.3,2.4,1.4,4.7,2.9,7.1c0.6,0.9,1.1,2.1,1.9,2.8c0.1-1,0.7-3.7,1.3-4.4
		c1.4-1.5,2.1,0.4,2.8,2c1,2.1,1.5,4.2,3.1,6c0.9,1,2,1.6,2.1,3.1c2.9,0.4,5.3,3.9,8.5,2.8c1-0.3,1.6-1.5,2.5-1.9
		C245.3,71.1,250.8,68.3,250.4,67.3z"/>
	<path class="st1" d="M228.1,98.9c-0.1-0.1-0.2-0.2-0.4-0.3c2.1-3.4,4.9-5.5,8.4-7.4c2.4-1.3,2.4-2.1,3.9-0.1c1.6,2,2.4,3.8,3.2,6.2
		c0.3,1.3,0.7,2.5,1.4,3.6c1.4,1.4,4.3,1.2,6,1.6c3.2,0.7,4.5,2,7,3.6c3.5,2.2,6.2,4.8,9.1,7.8c2.9,2.9,6.3,5.4,8.6,8.8
		c0.5,0.8,1,1.5,1.5,2.3c0.2,0.2,2.4,1.8,2.3,2.1c-1.9,0.1-2.6,0.6-4,2c-2.3,2.3-4.7,3.3-7.6,4.9c-1.9,1-3.9,2.3-5.3,3.9
		c-3.3,3.5,0.1,8.3,3.1,10.8c2.1,1.8,4.6,3,6.8,4.7c1,0.8,2.7,1.6,3.3,2.7c-3.4,1.1-8.3-1-11.5,1.4c-2.5,1.9-2.5,6.2-5.6,7.6
		c-1.7,0.8-2.7,0.6-3.3,2.7c-0.7,2.8,0.2,5.9,1.1,8.5c0.9,2.7,2,5.2,3.3,7.8c0.6,1.6,1.4,3.1,2.3,4.5c0.6,0.4,0.9,0.8,1.1,1.4
		c-1.1-0.5-2.4-0.3-3.6-0.3c-2,0-3.7-0.3-5.7-0.5c-3.2-0.4-6.3-0.1-9.3-1.4c-2.6-1.1-4.6-3-6.9-4.5c-1.1-0.7-1.8-1.4-2.7-2.1
		c-2.3-1.9-4-1.5-6.4,0.4c-2.5,2-3.9,4.9-5.8,7.5c-0.7,1-0.9,1.6-1.4,2.6c-0.6,1.3-1.9,2.3-3.2,3.2c-1.5,1-0.8,0.9-1.9,0
		c-0.2-0.3-0.3-0.6-0.5-0.9c-0.5-0.4-1.1-0.6-1.7-0.7c-2.4-1.4-3.8-4.1-6.6-2c-1.9,1.4-3.1,3.9-5.1,5.1c-1.9,1.1-5.2,1.4-7.2,2
		c-2.9,0.9-5.7,1.7-8.7,1.4c-1.1-0.2-2.2-0.4-3.3-0.6c-1.6-0.1-3.2-0.2-4.9-0.3c-1.8-0.6-1.1-1.3-3.3-1.1c-2.3,0.2-4.1,1.2-6.1-0.2
		c-0.3-0.3-0.5-0.6-0.8-0.9c-1.1-0.4-2.3-0.5-3.4-0.4c-3.8-0.5-2.2-2.5-0.4-4.6c2.1-2.4,4.3-4.9,6.7-7c1.1-1,1.9-1.4,2.7-2.6
		c0.6-0.8,1.4-2.3,1.1-3.4c-0.5-0.8-1.1-1.5-2-1.9c-1-0.7-1.7-1.6-2-2.8c-1.1-2.6-2.3-5-2.6-7.9c-0.2-1.6-1-2.7-1.2-4.1
		c-0.4-2.3,0.6-3.6,1.7-5.5c-1-1.2-2.7-1.7-3.1-3.4c-0.3-1.4,0.5-2.1,1.2-3.3c1.3-1.8,2.8-2.3,4.8-3.6c2.6-1.7,5.2-3.2,7.7-5
		c3.3-2.3,7.1-1.6,9.4-5.4c2.9-4.9,8.7-7.6,14.2-8.6c5.6-1.1,11.5-1.7,15.9-5.8c0.7-0.7,1.4-1.5,2-2.2c1.1-1.3,1.6-1.8,2.2-3.3
		c0.4-0.9,0.6-2.3,1.3-3c1.3-1.3,3.2-1.2,4.1-2.9C228.6,108.2,228.1,100.8,228.1,98.9z"/>
	<path class="st1" d="M96.6,138.3c-0.1-3.3-4.6-6.2-6.5-8.4c-1.9-2.1-1.5-5.9-1.9-8.6c-0.2-1.1,0.1-2.4-0.3-3.4
		c-0.3-0.9-0.9-1.8-1.2-2.8c-1.1-3.4-3.7-4-7.2-3.9c-2,0.1-3.5,0.9-5.2,2c-2.6,1.7-5.2,3.1-7.8,4.7c-1.7,1-3.3,2.6-5.2,3.2
		c-2.1,0.7-5.2,0.1-7.5,0.1c-4.2,0-8.2-0.7-12.4-0.7c-3.3,0-7.3-0.7-10.5,0.1c-0.2,0.9,0.9,1.3,1.3,2c0.5,0.8,1,2.2,0.7,3.2
		c-0.3,1.2-0.8,1.3-2,1.7c-2.2,0.9-4.3,1.9-6.4,2.9c-0.9,0.4-1.9,0.7-2.7,1.2c-1.5,0.8-1.6,1.2-2.2,2.7c-0.5,1.3-0.4,1.6-1.2,2.7
		c-1.2,1.6-2.7,3.1-3.9,4.8c-2,2.8-2.3,5.8-1.6,8.9c0.7,3.3-0.7,6.4-0.5,9.7c0.2,3.3,1.3,6,0.1,9.3c-0.6,1.7-1.7,3-2.7,4.4
		c-0.3,0.5-2.9,3.5-2.5,4.2c0.9,0.1,1.7-0.1,2.5-0.6c2.2-0.7,4.4-0.8,6.6-1.4c1.2-0.4,2.4-0.7,3.7-0.7c1.2,0.2,1.8,1,3,1.4
		c3.2,1.2,7.7,0.9,11.1,0.7c2.4-0.1,4.8-1.9,6.7-3.3c2.2-1.7,3.2-4.3,5.2-6c0.8-0.4,1.6-0.9,2.4-1.4c1.9-1.2,3.8-2.5,5.6-3.9
		c1.8-1.4,3.4-2.5,4.3-4.7c0.6-1.4,0.9-2.6,1.9-3.8c0.8-0.9,2.2-2.9,3.5-2.7c-0.1,0.8-0.7,3.9,0,4.6c0.9,0.9,4.2-0.2,4.9-0.5
		c2.9-1.2,5.1-3.6,8-4.8c1.3-0.5,2.3-0.9,3.3,0.1c0.1,0.5,0.3,0.9,0.7,1.3c0.6,0.5,2.5,0.1,3.3,0.1c1.7-0.1,2.1-0.6,3.2-1.9
		c1.1-1.3,2.3-2.5,3.4-3.7c0.8-0.9,1.6-2.2,2.9-2.4C93.9,144,97.5,138.8,96.6,138.3z"/>
	<path class="st1" d="M296.4,200.1c0.5,0,0.9-0.2,1.2-0.5c-0.8-0.4-1.7-0.5-2.7-0.1c-4.4,0.4-8.4,2-12.4,3.9
		c-5.6,2.6-11,4.8-14.2,10.4c-1.1,1.9-2.1,3.3-3.6,4.9c-1.6,1.8-2.4,3.8-3.8,5.9c-2.8,4.2-7.5,4.5-12.1,5.5
		c-2.6,0.6-6.9,1.9-9.6,0.8c-1.7-0.6-1-1.5-3.1-1c-0.8,0.4-1.7,0.7-2.5,1.1c-1.1,0.3-1.7,1-1.7,2c-0.6,0.8-2,2.5-2.1,3.5
		c-0.1,0.9,0.7,1.6,0.8,2.4c0.4,2.6-2.4,3.5-4.2,4.6c-3.2,2-6.5,5.1-10.5,5.3c-2.8,0.2-5.5,0.6-8.3,0.7c-1.7,0.1-2.7,0.1-4.1-0.6
		c-0.2-0.3-0.5-0.6-0.7-0.9c-1-1-2.3-1.6-3.7-1.8c-3.1-0.6-7.1,0.4-10.1,1.1c-4.4,1-8.1,4.2-12.4,5.3c-3.3,0.8-7-1.1-10.3-1.6
		c-1.6-0.3-3.2,0.2-4.8-0.1c-0.8-0.1-1.3-0.6-2-0.7c-2-0.5-3.7,0.8-5.2,2c-0.9,0.8-1.6,1.8-2.6,2.5c-1.3,1.1-1.6,0.7-3.4,0.7
		c-2.1,0-3.6,0.8-5.6,1.2c-1.8,0.4-3.7,0-5.6,0.1c-4.4,0.1-8.6,2.2-12.9,2.8c-1.2,0.1-2.4,0.4-3.6,0.8c-1.4,0.5-2.5,1.5-3.9,1.7
		c-1.9,0.3-3.8,1.2-5.7,2.1c-5.9,2.7-7.8,8.4-9.5,14.1c-1,3.3-1.1,6.2-1.2,9.5c0,1.7-0.2,3,0.8,4.4c1.3,1.9,3.3,2.8,5.6,3.3
		c2.9,0.6,5.4,1.8,8.1,2.8c1.3,0.5,1.9,0.4,3.1,0.6c1.2,0.2,1.8,0.7,2.8,1.2c1.6,0.8,3.5,2.2,5.4,2.2c1.7,0,2.4-0.7,3.7-1.4
		c1.8-0.9,3.6-1.6,5.4-2.7c1.7-1.1,2.6-1.7,4.5-2c0.7-0.1,1,0.2,1.6-0.4c2.1,2.8,1.3,6.5,1.8,9.6c2.9,0.3,5.4,1.1,8.3,0.5
		c3.7-0.8,6.7-3.2,9.9-4.9c2.8-1.5,6.9-2.4,8.2,1.5c0.6,1.9,0.4,3.4,1.8,5c1.9,2.2,4.3,2.7,7.1,2.6c2.6-0.1,4.9,0.7,7.5,0.7
		c4.4,0,9.2,0.5,13.6-0.1c2.4-0.3,5-1.5,7.2-2.4c2.3-1,4.3-2.6,6.7-3.4c2-0.7,4-1.4,6-2.2c2.6-1.1,6.4-2.1,8.4-4.2
		c1.3-1.3,1.9-3.7,3.1-5.1c0.6-0.8,1.5-1.9,2.2-2.7c0.7-0.4,1.3-1,1.8-1.6c0.5-0.5,3.2-2.6,3.3-3.3c0.3-1.7-2-3.4-2-5.2
		c0-4.6,7.4-6.5,10.7-7.7c1.9-0.7,3.7-1.1,5.7-1.3c1.5-0.1,3.2-0.2,4.6-0.9c2.2-1,4.1-3,6.1-4.3c2.1-1.4,4.1-2.6,6.1-4.2
		c1.7-1.4,2.6-1.9,4.5-2.5c1.4-0.4,1.8-0.3,3.1-1.5c1.9-1.9,4.1-4.8,5-7.4c0.7-1.9,0.8-5.6,0.2-7.5c-0.7-2.2-3.3-3.2-1-5.2
		c0.6-0.3,1.2-0.7,1.8-1c1-0.6,1.7-1.4,2.1-2.4c1.2-1.1,2.3-1.5,3.7-2.3c2.4-1.3,3.1-4,5.4-5.5c0.9-0.6,1.4-0.6,2.1-1.3
		c0.8-0.8,1.4-1.8,1.8-2.8c0.4-0.9,0.8-1.8,1.2-2.7c0.3-1.1,0.1-1.8,0.7-2.7c0.5-0.9,2.2-2,2.9-2.8c0.9-1,1.8-1.9,2.6-2.9
		c0.9-1,3.1-3,3.2-4.4c0-0.5-0.6-2-0.7-2.5c-0.2-0.7-0.5-1.5-0.7-2.3c-0.3-1.4,1.2-3.4,0.6-4.5C307.3,195.9,297.8,200.1,296.4,200.1
		z"/>
	<path class="st1" d="M152.5,238.2c0.2-1,2.1-2.2,2.7-2.8c2-2.1,6.1-5.8,6.6-8.8c0.4-2.8-2.3-5.5-3-7.9c-0.7-2.1,0.3-4-1.2-5.7
		c-1.4-1.6-3-2.4-3.2-4.7c-0.2-2.5,0.9-3.3-1.8-4.7c-1.1-0.6-3.9-1.2-4.2-2.8c-0.2-1.3,0.9-3.1,1.7-4c1.2-1.3,3.2-1.4,4.3-2.8
		c0.5-1.2,1.1-2.4,1.5-3.6c0.6-0.9,1.4-1.6,2.4-2.1c1.3-1.3,0.7-3.9,0.7-5.7c0-1-0.3-2.4,0-3.4c0.3-1.2,1-1.6,0.1-2.8
		c-2.1-2.5-6.9-0.4-9.1-2.5c2-0.3,7.3-3.6,5-6c-0.7-0.8-2.8-0.8-3.7-1.4c-0.5-0.5-1-0.9-1.6-1.2c-1.1-0.5-2.8-0.2-3.8-0.9
		c-0.4-0.2-0.7-0.6-0.9-1.1c-0.4-0.2-0.7-0.2-1.1-0.1c-1.4-0.6-2.4-1.1-3.9-1.5c-3.8-0.9-7.9-1.9-11.9-1.8c-1.5,0-3,0.1-4.5,0
		c-1.5-0.1-2.8-0.6-4.3-0.7c-1-0.1-1.9,0-2.9,0.1c-0.7,0.4-1.4,0.8-2.1,1.1c-2.3,0.5-2-0.4-3.2-1.9c-1-1.2-2.8-1.6-4.1-2.1
		c-1.7-0.6-3.9-2.1-5.8-1.9c-1.8,0.2-1.3,1.6-2.1,3.4c-1.1,1.7-2.3,3.4-3.6,4.9c-0.6,0.8-0.7,1.4-1.4,1.7c-0.8,0.3-3.1,0.1-4,0.1
		c-3.7-0.2-6.5-2.8-10-3.6c-2.7-0.6-4.5,1.2-6.4,2.8c-0.6,0.5-1.1,1.1-1.5,1.8c-1.4,1.5-3.3,2.4-5,3.5c-2.6,1.5-4.4,3.5-6.7,5.2
		c-0.9,0.7-1.9,1.1-3,1.2c-2.5,0.7-4.5,1.6-6.6,3.1c-1.3,0.9-3,1.1-4.2,2c-0.4,0.6-0.9,1.2-1.3,1.8c-0.6,0.5-1.1,0.5-1.4,1.2
		c-0.4,1.4,1,2.2,1.3,3.4c0.6,2.2-0.9,2.4-2.7,2.7c-2.3,0.5-4.6,1.7-6.9,1.9c-1.1,0.1-2.3,0-3.4,0c-6.2,0-12.3,0.4-18.5,1.2
		c-2.2,0.3-2.2-0.1-3.1,1.6c-0.6,1.1-2.7,3.1-2.5,4.4c1.6,0.4,2.2-0.6,3,1.3c0.1,0.9,0.4,1.9,0.7,2.7c0.7,1.6,2,2.4,3.4,3.4
		c1.7,1.3,3.4,3.3,4.6,5c2,3.1,3.9,4.7,7.7,5.2c3.2,0.4,6.5,0.3,9.6-0.5c1.5-0.3,3-0.8,4.3-1.5c1.6-0.9,2.7-1.9,4.5-2.5
		c2.8-1,5.7-0.5,8.6-0.6c3.8-0.1,7.4-0.7,11.2-0.7c2.1,0,4.4-0.3,6.5,0c1.7,0.2,2.4,1.2,3.8,1.8c0.9,0,1.7,0.2,2.3,0.8
		c1,1.6-0.6,5.1-1.1,6.5c-0.5,1.1-1,2.2-1.5,3.3c0,1.1,0.7,1.2,1.1,2.1c0.2,0.8,0.4,1.5,0.5,2.3c0.7,1.8,2.1,3.5,3.5,4.8
		c2,1.9,6.1,3.9,4.4,7.3c-0.5,0.8-1,1.4-1.8,1.9c-0.9,1.2-1.1,1.9-1.4,3.4c-0.5,2.1-1.5,4.3-1.8,6.4c1.4,0.3,3.2,0.1,4.5,0.1
		c3.5,0,6.5-0.4,10-1.3c3.9-1,8.6-2.2,12-4.6c1.3-1,4.7-4.4,5.1-1.4c0.3,1.7-0.6,2.7,0.7,4.1c1,1.1,3.1,1.6,4.5,1.8
		c2.5,0.5,5.8-0.7,7.9,0.8c1.5,1.1,0.9,1.6,2.7,0.8c2.4-1.1,4.4-2.6,6.7-4c1.9-1.2,3.5-2.3,5.1-3.9c1.3-1.4,2.5-2.6,4.3-3.4
		c1.1-0.5,1.7-0.7,2.9-0.6c1.2,0.1,2.3,0.7,3.5,0.6C150.4,239.5,153.4,238.4,152.5,238.2z"/>
	<path class="st1" d="M153.1,18.7c-0.8-3.1-8.8-4-11.1-4.4c-4.3-0.6-8.9-0.6-13.1,0c-1.2,0.2-4.8,0.5-6,1.7c0.8,1.1,2.9,1.4,3.3,2.7
		c0.8,2.7-5.7,3.8-7.2,4c-2.6,0.5-5.4,0.9-7.5,2.6c-1.5,1.2-0.6,2.1-1.6,3.2c-1,1.1-3.8,0.6-5.1,0.6c-3.6,0-7.2-0.2-10.7,0.6
		c-2.5,0.6-5.1,1.2-7.4,2.3c-1.8,0.9-3.8,1.3-5.6,2.2c-3.5,1.9-6.9,4-9.7,6.8c-0.7,0.6-1.2,1.2-1.8,1.9c-0.2,0.4-0.2,0.9,0.1,1.2
		c0.4,0.7,0.3,1.3-0.2,2c-0.7,1.5-2.8,2.9-3.9,4c-0.9,0.9-3.8,3.1-3.4,4.7c0.4,1.6,2.1,0.1,1.2,2.7c-1.1,3-5.8,6.1-8.4,7.7
		c-1.9,1-3.8,2.1-5.6,3.2c-0.4,0.2-3.4,1.6-3.5,2.6c3.3,1.6,10,0.8,11.1,5.3c0.8,3.1,0.1,7.2,0.1,10.4c0,3,0.7,6.3-1.5,8.8
		c-1.3,1.4-1.7,1.5-2.5,3.2c-0.5,0.6-0.7,1.3-0.7,2.1c0.5,1.1,3.7,0.6,4.4,0.6c2.6,0,4.9-0.4,7.5-0.7c1,0,2-0.2,3-0.6
		c0.7-0.5,1.4-0.9,2.1-1.3c0.9-0.2,1.8-0.1,2.7-0.1c1.7,0,4.3-0.5,5.9,0.1c0.6,0.3,1.1,0.7,1.5,1.2c0.8,0.4,1.6,0.9,2.4,1.3
		c1.4,1.2,0,2.7,0.8,3.9c0.8,1.3,4.7,0.8,5.7,0.8c4.4-0.1,8.8-1.4,13.2-0.6c0.8,2.9-2.8,5.8-4.3,7.6c-1,1-1.7,2.1-2.3,3.4
		c0,1.5,2.5,1.4,3.4,1.6c2.7,0.8,5.3,1.5,8,2.2c1.7,0.3,3.3,0.8,4.8,1.6c2,1.2,2.2,2.4,3.5,3.9c0.7,0.3,1.3,0.7,1.9,1.3
		c0.5,0.7,1.1,1.3,1.7,2c1.5,1.7,2.2,3.5,3.1,5.6c0.4,0.9,0.8,1.8,1.3,2.7c-0.1,1.6-2.5,3-3.7,4.1c-0.6,0.6-8.1,7.4-7.4,8.4
		c2,0.3,4.1,0,6.1,0.1c0.9,0.1,1.8,0.1,2.7,0.2c1.6,0.2,3.2,0.4,4.8,0.6c1.2,0.9,0.3,2.2,1.6,3c1.2,0.8,3.7,0.4,5.1,0.8
		c2.7,0.9,5.5,1.9,8.4,1.4c3.9-0.7,5.9-5.8,8.1-8.7c1-1.4,2-2.8,3.9-3.2c1.9-0.3,3.6,0.8,5.4,0.8c5.2-0.1,6.6-4.3,8.6-7.9
		c1.2-2.2,2.3-6,4.3-7.6c1.5-1.2,2.7-2.4,4.1-3.7c1.6-1.6,3-2.4,5.3-1.8c3.5,0.9,5.8-0.8,8.6-2.6c2-1.3,4.3-2.1,6.3-3.4
		c0.8-0.6,2.4-1.7,2.7-2.7c0.2-0.7-0.2-1.4,0-2c0.6-1.7,3.9,0.7,5.3,0.8c3.9,0.2,4.9-2.1,7.5-4.5c1.4-1.2,2.7-2.4,4.2-3.5
		c0.9-0.7,1.4-0.8,1.4-2c-0.1-1.7-1.5-3.9-1.8-5.7c-0.5-3.1-1.4-5.8-2.8-8.7c-1.2-2.4-1.8-4.9-2.4-7.4c-0.5-2.4-1.4-5.5-0.8-7.9
		c0.4-1.8,2.1-3.3,3.9-3.7c1.7-0.4,3.8,0.5,5.3-0.8c3.7-3.1-0.9-9-2.6-11.8c-1.5-2.4-3.1-5.8-5.4-7.8c-0.8-0.7-2.7-1.1-3.2-2.1
		c-0.3-0.6-0.1-1.4,0.1-2c0.5-2,1.1-3.2,1.2-5.4c0.1-2,0.2-3.3,1.5-4.9c1.2-1.6,3.8-2.7,4.4-4.7c1.2-3.9-2.7-5.5-5.6-7
		c-3-1.6-6.6-3.1-10.1-3.5c-0.8-0.1-2.4,0.3-2.8-0.7c-0.3-0.7,0.5-1.5,0.6-2.1c0.5-1.7,0-3.6-0.3-5.3c-0.5-3.1-1.8-4.3-5-4.6
		c-1.9-0.2-3.9,0-5.8,0c-3.3,0-6.2,0.6-9.3,1.5c-1.9,0.5-3,1.4-4.7,2.3c-2.6,1.4-5.6,0.4-8.3,0.9C160.2,13.3,155.2,18.5,153.1,18.7z
		"/>
	<g>
		<path class="st2" d="M208.3,119.1c-0.3-0.2-0.6-0.4-0.9-0.5c-1.3,1.6-2.3,9.4-6.2,7.7c-1.4-0.6-0.8-2.5-2-3.3
			c-0.6-0.4-1.4,0.3-1.9-0.2c-0.1-0.4-0.1-0.9-0.1-1.3c-0.2-0.3-0.6-0.5-1-0.6c-0.5-0.3-1.3-0.9-1.9-0.9c-0.9-0.1-0.6-0.1-1.2,0.8
			c-0.7,1-1.3,2.5-1.8,3.6c-0.5,1.1-0.2,1.9-0.4,3c-0.5,2.4-4.4,2.4-6.1,3.9c-0.7,0.6-1.2,1.2-2.1,1.6c-0.4,0.2-1.5,0.4-1.9,0.8
			c-0.5,0.7,0,2.4-0.5,3.3c-0.7,1.3-2,1.9-2.9,2.9c-0.8,0.9-1.3,1.9-2.1,2.8c-0.7,0.7-1.3,1.5-2.2,2c-0.6,0.3-1.6,0.4-2,1
			c-1.4,2.4,5,1,5.7,1c1.5,0,2.9,0,4.4,0c1,0,2.6-0.3,2.9,0.9c0.2,0.7-0.4,0.8,0.2,1.4c0.4,0.4,2.6,0.2,3.3,0.4
			c0.7,0.2,0.8,0.1,1.3,0.7c0.7,0.8,0.1,1,1,1.4c0.6,0.3,2.4,0,3-0.1c0.9,0,1.9-0.1,2.7,0.4c1.1,0.8,1.5,3.1,0.9,4.3
			c-0.8,1.7-4.8,1.9-2.7,4.4c1.4,1.6,3.8,1.5,5.6,2c1.7,0.5,3.1,0.2,4.6,1.4c1.4,1.2,2.1,2.5,4,2.5c1.1,0,1.4-0.2,2.2,0.5
			c0.3,0.7,0.8,1.3,1.4,1.7c0.8,0.3,1.7,0.5,2.5,0.7c2,0.4,3.7,0.4,5.7,0.4c1.1,0,2.4,0.7,3.5,0.5c1.3-0.2,2.6-1.5,3.6-2.3
			c0.9-0.8,0.8-0.6,1-1.5c0-0.2-0.1-0.5-0.1-0.7c0.6-1.1,1.5-2.1,2.6-2.8c1.1-0.9,1.8-1.3,2.9-2c1.1-0.7,2.5-1.5,3.5-2.3
			c1.4-1.2,1.8-2.7,2.6-4.3c1-2.2,1.9-4.4,1.3-6.8c-0.2-0.9-0.7-1.7-0.9-2.5c-0.3-0.9-0.1-1.7-1-2.4c-1-0.7-2.7-0.4-3.8-0.4
			c-1.6,0.1-0.7,0-1.6-0.5c-3.2-1.6-6.1-0.5-9,1.1c-2.8,1.5-6.7,1.3-9.8,1.3c-1.2,0-1.9-0.4-3-0.5c-1.6-0.2-3.1,0.9-4.7,0.5
			c-0.6-1.1,1.7-2.4,2.3-2.8c1.1-0.6,1.7-0.6,2.9-0.5c1.9,0,3.3-0.5,4.9-1.6c0.3-0.3,0.7-0.6,1-0.8c0.6-0.1,1.2-0.1,1.8-0.1
			c0.8-0.2,1-0.5,2-0.5c1.9,0,3.6,0.2,5.3-0.6c1.5-0.7,3.5-0.5,5,0.1c2.6,1,4.9,1.1,7.6,1.4c1.3,0.2,2.5,1.2,3.9,1.1
			c1.3-0.1,2.8-1.4,3.9-2.1c1.2-0.7,2.2-1.4,3.3-2.3c0.8-0.6,3.1-1.7,3-2.8c-1.3-0.7-3.2-0.2-4.4-0.9c-0.7-0.5-0.5-1-0.5-1.9
			c0-1.1,0-2-0.4-3c-0.7-1.6-1.9-1.3-3-2.4c-0.5-0.5-0.8-1.4-1-2c-0.6-1.5-1.6-2.9-1.3-4.5c0.3-1.4,0.8-2.6,0.9-4
			c0-1.1,0.3-2.9-0.1-4c-0.9-0.1-1.8,0.9-2.5,1.3c-1.1,0.7-2.4,1.9-3.6,2.4c-0.6,0.2-1.5,0.4-2.2,0.2c-1-0.3-1.1-1-1.8-1.5
			c-1.3-1-3.1-0.1-4.5,0.6c-1.7,0.9-3,1.9-5,2.4c-1.4,0.4-2.5,0.6-3.7-0.2c-1.3-0.9-2.3-1.3-3.9-0.4c-1.4,0.8-1.3,2.3-2.9,2.8
			c-1.1,0.4-2.2,0.4-3.3,0.7C210.7,118.3,208.3,119,208.3,119.1z"/>
		<path class="st2" d="M89.3,111.8c-0.1,0-0.3,0-0.4,0c-0.3,1-0.1,2.3-0.1,3.3c0,2.7,0.1,4.8,1.4,7.2c0.7,1.4,1.7,2.7,2.4,4
			c0.8,1.6,0.6,3.5,0.6,5.3c0,1.6-0.8,3.1-2.4,3.7c-1.9,0.8-2.3-0.8-3.4-1.9c-0.9,0.1-0.3,3.3-0.5,4.1c-0.4,1.8-1.9,2.5-1.3,4.6
			c0.4,1.1,2,3.6,0.1,4.3c-1.6,0.6-2.6-1.9-3.2-2.9c-0.6-1.1-1.7-2.2-2.9-2.8c-0.6-0.3-1.6-0.6-2.2-0.6c-1.1,0-0.5,0-1.2,0.6
			c-0.6,0.6-0.2,1.5-1.4,1.5c-0.4-0.4-0.9-0.8-1.3-1.2c-1.1-1.2-1.9-2.6-2.4-4.2c-0.6-1.6-1.2-3.3-3.3-3.2c1.4,1.5,2.1,3.1,2.2,5
			c0,1.5-0.8,4.3,0.9,5c-0.6,2.4-3.7-0.7-4.2-1.6c-0.5-0.8-1-1.7-1.1-2.6c-0.2-1.5,0.5-3-0.5-4.2c-0.9-1-1.6-1.1-2.3-2.4
			c-0.3-0.8-0.8-1.4-1.5-1.9c-0.9-0.6-1.4-0.4-2.3-0.6c-2.2-0.6-4.1-2.9-6.5-2.7c0.3-0.9,1.1-1.4,2.4-1.4c1.9-0.8,4-1.6,6.1-1.6
			c1.8,0,3.4,0.3,4.9-1c2.3-2,2-6.9,5.2-8.1c1.4-0.5,3-0.9,4.4-1.5c1.8-0.8,2.3-2.7,3.8-3.8c0.9-0.7,1.3-0.5,2.4-0.5
			c1-0.1,2.5-0.7,3.5-0.5c0.8,0.2,1.3,0.5,2.2,0.6C87.1,110.1,89.4,111.7,89.3,111.8z"/>
		<path class="st2" d="M53.5,132.6c-0.7-0.6-2-0.7-2.9-1c-2-0.5-3.7-0.3-5.8-0.4c-1-0.1-1.9-0.5-3-0.5c-1.1-0.1-2.2,0-3.3,0
			c-0.9,0-1.7-0.1-2.5,0.1c-1.6,0.3-1,0.6-1.8,1.7c-0.9,1.2-1.9,0.7-3,1c-0.6,0.2-2,1-2.2,1.7c3.4,1,7.5-0.7,10.7,0.6
			c0.6,0.3,1.1,0.6,1.6,1c0.5,0.3,1,0.6,1.5,0.7c0.6,0.6,0.6,1.4,0.4,2.3c-0.9,0.2-2,0.3-2.9,0.4c-0.7,0.1-2.3-0.2-2.8,0.6
			c-0.4,0.6,0,1.8,0,2.4c0,2-1,2.3-2.8,2.6c-1.2,0.2-2.4,0.7-3.5,0.9c-0.6,0.1-1.2,0-1.9,0.1c-1.9,0.3-5.7,1.4-6.3,3.7
			c1.4,1.9,5.6,0.4,5.3,3.5c-0.2,2.1-2.3,4.2-3.4,5.9c-0.6,0.9-1.3,1.6-1.9,2.4c-0.6,0.8-0.9,1.8-1.4,2.7c-0.7,1.2-1.5,1.5-0.5,2.7
			c1.1,1.3,2.6,0.9,3.8,1.8c0,0.3,0,0.7-0.1,1c2.8-0.6,4.6-2.6,7-3.9c1.7-1,2.2-1.2,2.9,0.7c0.3,0.8,0.4,1.9,1.3,2.3
			c0.9,0.4,2.4,0.2,3.4,0.6c1.3,0.4,1.4,0.5,1.8-1.1c0.4-1.3,0.6-2.5,1.1-3.8c0.3-0.8,0.2-1.3,0.4-2c0.4-1.5,2.3-2.5,3.4-3.4
			c0.7-0.6,1.1-1.1,1.9-1.5c0.6-0.3,1.4-0.4,1.9-0.8c1.1-0.7,2.1-2.5,2.8-3.6c0.8-1.2,0.3-2.1,0.6-3.5c0.3-1.3,1.4-2.9,2.3-3.8
			c0.9-0.9,2-1.2,2.6-2.4c0.5-1.2,0.9-2.3,1.7-3.5c0.6-0.9,0.6-1.3,0.6-2.5c0-1.5-0.2-2.1-1.4-2.9C58.2,134.7,54.4,133.5,53.5,132.6
			z"/>
		<path class="st2" d="M159.4,16.1c0.3-2.4-4.8-2-5.9-1.5c-0.8,0.4-1.7,0.9-2.3,1.6c-0.5,0.6-0.6,1.1-1.4,1.4
			c-0.8,0.3-2.7-0.2-3.3,0.5c-0.6,0.7-0.4,3.6-0.1,4.4c0.6,1.7,2.4,1.7,3.8,2.4c0.9,0.4,1.3,1.1,2.1,1.6c1.1,0.7,1.2,0,1.4,1.3
			c0.1,0.7,0,1.4-0.1,2.1c-0.4,2.3-1,4.2-0.9,6.6c0.1,2.3,1.3,4,1.9,6.2c0.2,1,0.2,2-0.3,2.9c-0.3,0.5-1.5,2.2-2,2.4
			c-0.6-0.2-0.9-2.3-1.1-2.9c-0.3-0.9-0.7-1.8-0.9-2.7c-0.2-1.2,0.8-2.3,0.4-3.4c-0.2-0.5-0.8-0.8-0.9-1.4c-0.2-0.7,0.1-1.7,0-2.3
			c0-1.3-0.5-1.9-0.9-3c-0.4-1.1,0.2-1.9-0.7-2.9c-0.7-0.8-2.5-1.3-3.4-1.9c-0.3-0.2-1.5-0.7-1.7-1.1c-0.3-0.4,0-0.9,0-1.3
			c-0.2-1.1-0.5-1.8-0.5-2.9c0-0.8,0-1.6,0-2.4c-0.1-1.1-0.3-1.5-1.5-1.5c-1.6,0-3.3,1.9-3.8,3.4c-0.4,1.2,0.3,1.7-1.4,1.9
			c-1.1,0.2-2.9-0.5-3.9,0.1c-0.9,0.6-1.3,2.3-1.1,3.3c0.2,1.2,1.1,1.4,1.6,2.3c0.5,0.9,0.3,1.3,0.4,2.3c0.2,1.1,0.6,2.1,1.3,3
			c0.2,0.4,1.7,2.3,1.3,2.9c-0.6,1-2.6,0.3-3.4-0.1c-0.9-0.4-1.7-1-2.5-1.5c-1.2-0.7-1.5-0.4-2.5-0.1c-0.3,0.1-0.5,0.2-0.8,0.1
			c-0.6,0.2-1.4,0.7-2,0.9c-0.9,0.3-1.9,0.1-2.9,0.1c-0.8,0-2.8-0.4-3.5,0c-1.7,1,0.6,2.5,1.5,2.9c3.3,1.6,0.2,3.3-1.9,3.7
			c-1.1,0.2-1.9,0.6-3,0.6c-1.4,0-2.2-0.6-3.5-1.1c-2.7-1.1-4.5-1-7.1,0.2c-2.4,1.1-6.2,1.4-7.6,3.9c0.8,0.8,2.9,0.3,3.8,0.4
			c1.7,0,3.2-0.4,4.8-0.5c0.9,0,1.9-0.1,2.7,0c1.7,0.1,3.2,1,4.9,1c2.4,0.1,4.8-0.3,7.2-0.5c1.1-0.1,2.9-1.1,3.9-0.4
			c2.2,1.3-2.4,2.3-2.9,2.4c-1.8,0.6-3.9,1.8-5.9,1.9c-1.5,0-2.3-0.1-3.2,1.3c-0.8,1.2-0.8,2.3-2.6,2.1c-1.4-0.1-1.6-0.9-2.3-1.9
			c-0.4-0.4-0.8-0.9-1.4-1.1c-1.8-0.6-2.4,1-3,2.2c-0.9,1.6-1.5,2.7-3.3,3.1c-1.5,0.3-2.2,0.3-3-0.9c-0.3-0.3-0.5-0.7-0.8-1
			c-0.1-0.3-0.1-0.6-0.2-0.9c-1.2-0.7-2.5,1.7-3,2.4c-0.9,1.3-1.6,2.3-2.7,3.4c-1.2,1.2-2.3,1.8-3.9,2.7c-1.3,0.7-1.9,0.4-3.2,0.9
			c-1.4,0.5-2.4,1.8-3.8,2.4c-0.5,0.1-0.9,0.3-1.4,0.4c-0.6,0.5-0.6,1.6-0.9,2.3c-0.6,1.2-2,2.1-2.4,3.4c-0.4,1.3,0.1,2.6,0,3.9
			c-0.2,2.2-1.6,4.2-2.3,6.3c-0.8,2.5,1.2,2,3.2,2.9c1.1,0.6,2.3,1.1,3.5,1.4c1.2,0.2,2.3-0.1,3.5,0.1c1.7,0.3,1.8,0.9,2.8-0.6
			c0.5-0.8,1-1.6,1.6-2.2c1.5-1.4,3.8-2.2,5.5-3.5c1.5-1.1,2.9-1.2,4.3-2.4c1.1-0.9,2.9-2.2,2.8-3.9c-1.7-0.3-4.9,0.9-6.2-0.6
			c-0.8-1-1.6-2.5-0.9-3.4c0.8-1.1,3.6-1.7,4.9-1.3c1.3,0.4,3.1,2,4.3,2.8c1,0.7,1.8,1.6,2.1,2.9c0.2,1.1-0.3,2.4,0,3.4
			c0.1,0.4,0.4,0.5,0.5,0.9c0.1,0.4-0.2,1.1-0.1,1.5c0.4,0.9,2,0.4,2.8,0.4c3.7,0.2,1.4,4.1,4,5.4c1.3,0.7,2.6,1.6,3.8,2.4
			c1.2,0.8,1.8,0.8,3.3,1.1c0.7,0.1,2.4,0.4,2.9,1c0.5,0.5,0.3,0.9,1.1,1.2c1.1,0.6,2.6,0.3,3.8,0.7c1.4,0.4,1,0.7,1.7,1.7
			c0.6,0.9,1.4,1.4,2.1,2.2c1.2,1.3,1.1,2.5,1.1,4.2c0,1.4-0.3,2.5,1,3.4c1.8,1.2,3.8,0.5,5.6,1.5c0.8,0.5,1.2,1,2,1.4
			c1.3,0.6,2.6,0.7,4,1.2c2.7,0.9,2.8,2.9,4.2,5c0.9,1.4,2.3,2.1,3,3.7c0.3,0.6,1.9,2.7,1.4,3.5c-0.3,0.4-1.9,0.4-2.3,0.5
			c-1.5,0.3-2.8,0.9-4.2,1.4c-1.5,0.5-3.1,0.5-4.5,1.1c-1.3,0.5-2.6,1-3.8,1.7c-0.9,0.5-1.7,0.9-2.2,1.9c-0.8,1.7-0.7,3.4,1.2,3.9
			c1.9,0.6,3.1,1.2,2.9,3.3c-0.2,1.9-1.9,3-2.4,4.8c-0.3,1.1-0.4,3.2-0.1,4.3c0.3,1.5,1.7,1.3,2.9,0.7c3.3-1.6,2.9-6.2,5.7-8.3
			c0.2,1.1-0.5,2.6,0.6,3.3c1,0.7,3.4-0.5,4.2-1c1.2-0.8,2.7-2,3.5-3.2c1.1-1.7,1.6-4.5,3.2-5.7c1.1-0.9,2.2-0.7,3.5-0.6
			c1.8,0.1,2.1-0.3,3-1.8c1.4-2.6,2.5-5,1.4-7.9c-0.4-1-0.8-2.1-0.5-3.3c0.2-1.1,1-1.9,1.5-2.9c0.5-0.9,0.9-1.8,1.4-2.6
			c1-1.5,1.2-2,0.1-3.6c-1.8-2.7-5.7-2.8-7-5.8c-0.4-1-0.2-2-0.4-3.1c-0.1-0.7-1-2.6,0-3.2c1.5,1.1,2.4,2.8,4.1,3.7
			c1.7,0.9,3.3,1.1,4.8,2.5c1.2,1.2,2.1,2.4,2.9,3.9c0.6,1.1,0.6,1,2,1c1.7,0,3.2,0.2,4.8-0.5c1.1-0.4,2.1-0.9,3.1-1.4
			c0.8-0.4,1.6-0.9,2.4-1.4c0.5-0.3,2.2-0.7,2.3-1.5c-0.7-0.3-1.3-0.8-1.9-1.1c-1-0.5-1.6-0.3-2.5-0.4c-0.7-0.1-2.3-0.1-2.8-0.6
			c-0.7-0.7-0.4-0.8-0.6-1.8c-0.2-0.9-0.8-1.6-0.9-2.5c-0.1-0.6,0-1.4,0-2c0-1.2,0-2.5,0-3.8c0-1-0.5-2-0.5-2.9
			c1.1-0.7,3.3,1.2,3.9,2c1,1.2,1.9,3,3.2,3.8c0.6,0.3,0.3,0.9,1,0c0.4-0.6,0.1-2.7,0.1-3.3c0-1.4,0.1-2.6-0.5-3.9
			c-0.3-0.6-0.6-0.8-0.5-1.5c0.2-1.6,2.3-1.9,3.4-2.8c1.8-1.5,1.8-3.7,1.6-6c-0.2-2.5-2.4-2.7-3.5-4.6c-0.5-0.9-0.1-1.6-0.5-2.6
			c-0.4-0.9-1.6-1.1-1.9-1.9c-0.7-1.7,1-3,1.4-4.4c0.3-1.3-0.1-2.9,1-3.9c1.2-1.1,2,0,3.1,0.5c0.9,0.3,1.7,0.6,2.6,1
			c1,0.6,1.1,1.5,1.7,2.5c1.4,2.1,4.2,3.3,6.1,4.9c1.1,0.9,3.6,2.2,5,0.8c1.1-1.1-1-2.4-2-2.8c-1.1-0.5-3-0.1-3.5-1.4
			c-0.3-0.8,0.4-0.8-0.5-1.4c-0.7-0.5-1.6,0.1-2.3-0.5c-1.2-1.1-1.3-3.2-0.6-4.6c0.4-0.7,0.8-1,1.4-1.4c0.6-0.4,2.1-0.6,2.4-1.3
			c0.3-0.7,0.2-2.6,0-3.4c-0.2-1.2-0.6-2.3-1.1-3.3c-0.6-1.4-1-2.5-2.3-3.4c-1.9-1.4-2.4,0.3-3,1.9c-0.4,1.1-0.7,1.2-1.9,1.1
			c-1.1-0.1-1.3-0.3-2-1c-0.6-0.6-0.8-1.1-1.7-1.4c-1.6-0.5-2.1,0.2-3,1.4c-0.7,0.9-1.3,2.4-2.5,2.3c-1.2,0-2.5-1.3-3.8-1.4
			c-1.2-0.1-2,0-2.8,1c-0.7,0.9-1.4,2.3-2.5,2.9c-0.9,0.4-3,0.2-3.8,0c-0.4-1,0.2-2,0.8-2.8c0.4-0.7,0.8-1.3,1.2-2
			c0.3-0.4,2.1-1.7,2-2.4c-0.2-0.9-1.7-1.1-2-2.2c-0.1-1.2-0.2-2.4-0.3-3.7c-0.3-3.1-0.8-5.5-1.9-8.3c-0.4-0.9-1-2.2-1.2-3.2
			c-0.3-1.3,0.9-2.1,1.8-2.8c1-0.8,1.7-1.2,2-2.5c0.2-1.1,0.2-3.2-0.1-4.3c-0.3-0.4-0.5-0.8-0.7-1.2c-0.2-0.6-0.5-1-1-1.3
			c-0.5-0.4-0.6-0.8-0.1-1.3c0.3-0.9,1.3-0.8,1-1.9c-0.2-0.7-1.4-1.6-1.9-2.1c-1.3-1.3-2.8-3.1-4.8-2.9c-1.4,0.2-1.5,0.7-1.5,2
			c0,1.5-0.5,3.9,0,5.3c0.2,0.7,0.6,0.5,0.4,1.4C161.1,13.5,160.3,16.1,159.4,16.1z"/>
		<path class="st2" d="M83,49.9c-0.2,0-0.3,0-0.5,0c2.5-1.7,5.4-2.9,7.7-4.8c1.4-1.1,2.4-2.6,3.5-4c0.6-0.8,1.7-2.1,1.5-3.3
			c-0.5-2.4-4.3-0.1-5.4,0.5c-1.5,0.8-2.9,1.4-4.5,1.8c-2.3,0.5-4.8,1.1-6.2,3.2c-0.7,1-1.4,3-0.8,4.2c0.3,0.3,0.6,0.6,0.9,0.9
			c0.2,0.9-1.1,1.8-1.7,2.1C77.3,50.3,83,50.1,83,49.9z"/>
		<path class="st2" d="M103.8,89.6c0-0.1,0-0.3,0-0.4c-3.1-1-6,1.3-8.3,3c0.2,0.3,0.6,0.5,1,0.5c1.8,0.8,3,1.4,4.2,3
			c1.7,2.2,3.9,2.7,6.6,3c1.2,0.1,2.4,0.1,3.6,0c0.8,0.2,0.8,0.6,1.5,0.9c0.7,0.3,2.6,0.4,3-0.4c0.5-0.9-0.5-2.3-0.9-3.1
			c-0.8-1.5-0.8-1.7-2.4-2.3c-0.4,0-0.8-0.1-1.1-0.4c-0.5-0.3-0.6-1.1-1-1.4c-0.4-0.1-0.9-0.2-1.3-0.2
			C107.1,91.7,105.1,90.5,103.8,89.6z"/>
		<path class="st2" d="M71.4,99.8c0-0.1,0-0.3-0.1-0.4c-2.1-0.8-4.7,1.1-6.3,2.3c-1.3,1-2.3,2.2-3.4,3.5c-0.6,0.7-1.5,1.4-1.7,2.3
			c1.4,0.3,3,0,4.3,0c1.4,0,3.3,0.3,4.7,0c1-0.2,1.6-0.8,2.4-1.4c1.2-0.9,2.1-0.8,3.4-1.2c0.9-0.2,2.4-0.9,2.8-1.8
			C78.7,100.9,72.5,99.7,71.4,99.8z"/>
		<path class="st2" d="M220.4,32c0,2.8-0.4,5.8,0.3,8.6c1.1,3.5,3.1,6.3,6.2,8.4c2.7,2.2,5.6,4,8.7,5.7c1.4,0.8,2.4,2,3.2,3.4
			c0.5,1.2,1.3,2,2.5,2.5c1.2,0.5,3.7,1.1,4.7,0c-1.4-2.2-3.1-4.2-4.4-6.4c-0.8-1.2-1.4-2.5-1.8-3.9c-0.1-1.2-0.1-2.4,0-3.6
			c0-1.6,0-3.5-1.2-4.8c-1.2-1.3-2.2-2.3-3.2-3.8c-1-1.6-2.5-3.4-4.1-4.5c-1.3-0.9-2.9-0.9-4.4-1.2C225.3,31.8,222.1,32,220.4,32z"
			/>
		<path class="st2" d="M246.5,53.3c-0.4,2.2,1.7,5.3,3.6,6.3c1.2,0.7,2.8,0.8,4,1.4c0.5,0.2,1,0.8,1.5,0.9c0.5-1.4-0.2-3.4-0.5-4.7
			c-0.2-0.5-0.3-0.9-0.5-1.4c-0.5-0.8-0.8-0.6-1.4-1.2c-0.6-0.6-0.7-1.4-1.3-1.9c-0.6-0.3-1.3-0.6-1.9-0.9
			C249.4,51.6,247.2,53.3,246.5,53.3z"/>
		<path class="st2" d="M191.3,80.9c0-0.2,0.1-0.3,0.1-0.5c0.7,0.1,1.7,2.3,2.1,2.8c1.6,2.1,2.9,4.5,5.7,4.9c1.9,0.3,6,0.8,5.2-2.4
			c-0.5-1.7-2.1-2.3-3.5-2.9c-0.7-0.1-1.3-0.5-1.7-0.9c-0.5-0.7-0.2-1.3-1.1-1.9c-0.5-0.1-0.9-0.2-1.4-0.4c-0.4-0.2-0.7-0.6-0.9-1
			C194.4,77.3,193.2,81.1,191.3,80.9z"/>
		<path class="st2" d="M115.9,168.4c-2.1-2.6-6-0.1-7.8,1.3c-1.4,1.1-2.8,3.3-4.7,3.5c-2.5,0.3-5.3,0-7.8,0c-3.1,0-6,0.1-9,0.9
			c-2.6,0.7-4.7,2.2-7.3,2.9c-3.7,1.1-7.5,1-11.2,1.9c-3.1,0.7-6.1,1.5-8.6,3.4c-0.6,0.5-1.4,0.9-2,1.4c-0.7,0.6-1.1,1.7-2,2.1
			c0.4,0.8,2.3,1.1,2.9,1.4c1.1,0.6,2.5,1.5,2.9,2.7c0.3,1,0.2,2.9-0.4,3.8c-0.5,0.8-1.4,1.6-2,2.3c-0.7,0.9-0.7,0.9-1.8,1.3
			c-0.8,0.3-1.7,0.4-2.5,0.7c-1.3,0.5-2.5,1.4-3.9,1.5c-1.2,0.1-2.2-0.4-3.4-0.5c-0.9,0-1.8,0.2-2.6,0c-2.1-0.5-2.5-2.3-4.1-3.4
			c-1.5-1-4.6-0.6-5.9,0.6c-0.6,0.6-0.6,1.2-1.5,1.7c-1.9,1.2-5.1,1.6-7.3,2c-1,0.1-2,0-2.9,0.2c-0.8,0.2-1.6,0.5-2.4,0.7
			c-1.9,0.5-3.8,1-5.6,1.6c-0.9,0.3-1.8,0.5-2.1,1.5c-0.4,1,0.3,1.9,0.8,2.8c0.7,1.4,1.4,2.7,2,4.2c1,2.3,2.1,2.4,4.6,2.6
			c3.4,0.3,6.8,0,10.2,0.4c2.8,0.3,6.8,0.6,9.4-0.9c1.8-1,1.9-3.3,2.9-4.9c0.9-1.4,2.2-0.9,3.8-0.9c1.2,0,2.8-0.3,4,0.1
			c1.1,0.3,1.5,1.2,2.3,1.9c2.1,1.9,4.6,1.8,6.9,0.4c1.9-1.1,3.9-1.7,5.7-2.9c1.7-1.1,3.2-3.2,5.2-3.7c2.1-0.6,4,0.3,6,0.5
			c2.7,0.2,10.1-7.2,11.9-3.3c0.9,2-0.5,4.9,0.9,6.5c1,1.2,2.8,0.9,4.1,1.1c2,0.4,4,1.4,4.6,3.6c1.1,3.9-2,5.7-3.6,8.7
			c-1.1,2.1-1.7,3.8-3.4,5.5c-1,1-1.5,1-1.7,2.2c-0.4,2.8,0.6,4.6,2.6,6.5c1,1,2.1,1.7,3.2,2.5c0.8,0.6,1.3,1.4,2.1,1.9
			c0.8,0.6,1.8,1,2.8,1c0.9,0,1.8-0.4,2.4,0.5c0.6,0.9,0,3.2,0,4.3c0,1.5,0.3,3.4,2,3.8c1,0.2,2.2,0.1,3.2,0.1
			c0.6,0.1,1.2,0,1.8-0.1c0.6-0.2,1.1-0.5,1.6-0.9c0.2,0,0.4,0,0.6,0c1.7,2.1-0.2,5.9-1.1,7.9c-0.5,1.3-0.9,2.4,0.5,2.8
			c2.8,0.8,5-2.5,5.3-4.8c0.1-0.9-0.2-1.7,0.2-2.5c0.3-0.5,1.6-1.3,2.1-1.4c0.3,1,1.4,0.9,2.2,1.3c1.5,1,2.3,2.7,3.9,3.7
			c2.5,1.6,8.7,0.8,7.5-3.4c-0.6-2-2.7-3-3.7-4.7c-0.5-0.8-0.7-1.6-0.6-2.5c0.1-1.4,1.2-1.7,1.5-2.8c0.3-0.9-0.4-2.3,1-2.5
			c0.6,0.1,1,0.3,1.4,0.7c1,0.6,1.9,1.1,3.1,0.9c1.4-0.2,1.3-1,2.2-1.8c0.3-0.3,0.6-0.5,1-0.6c0.4-0.3,0.5-0.7,0.9-1
			c1.1-0.8,2.3-1.1,3.6-1.1c0.9,0,2.1,0.3,2.2-1.1c0.1-1.5-3-3.2-4.1-3.6c-1.3-0.5-4-0.6-4.6-2.2c-0.6-1.7,2.5-3.9,2.8-5.7
			c0.2-0.8,0.1-2,0-2.8c-2.3-0.5-4.9-1.3-6.9,0.5c-1.8,1.6-3.2,5-6.1,4.2c-0.1-0.8,0-2.2-0.6-2.8c-0.7-0.7-3.3-0.9-4.3-1
			c-1.1-0.1-2.5-0.4-3-1.5c-0.8-1.7,1.2-4.4,1.9-5.8c0.4-0.8,0.3-1.8,0.7-2.5c0.6-1.3,2.2-1.2,2.7,0.2c0.1,1.1,0.3,2.2,0.6,3.2
			c0.1,0.2,0.4,1.8,0.5,2.1c0.8,1.3,2.3,0,3.2-0.5c1.1-0.6,2.2-1.3,3.5-1.4c1.5-0.1,2.3,1,3.4,1.8c0.8,0.5,1.6,1.2,2.6,1.5
			c2.2,0.5,3.5,0,4.3,2.5c0.3,1,0.8,2,1.2,3c0.5,1.3,1.3,2.1,2,3.3c0.4,0.6,0.6,1.9,1.2,2.3c1,0.8,3.9-0.5,4.7-0.9
			c0.9-0.4,2-1,2.4-1.9c0.3-0.6,0.7-1.8,0.5-2.4c-0.3-0.3-0.5-0.6-0.8-0.9c-0.4-1,0.2-2,0.8-2.7c0.4-0.5,0.8-1,1-1.5
			c0.3-0.9,0-2.1,0.1-3c0-1.1,0.1-1.7-0.9-2.4c-1.3-1-2.6-0.1-3.9-0.6c-0.5-0.4-1-0.9-1.5-1.4c-1-0.9-1.7-0.9-2.8-1.3
			c-1.5-0.5-2.2-1-2.9-2.4c-0.5-1-0.6-1.9-0.6-3c0-1.4,0.9-2.9,0.4-4.3c-0.5-1.5-1.7-2-3.2-2c-1.4,0-2.6-0.3-4-0.6
			c-1.3-0.3-2.3-0.2-3.7,0.2c-0.6,0.2-1.2,0.5-1.8,0.8c-1,0.1-2.2-0.5-3.1-0.9c-2.5-1.1-0.9-2.6-2.1-4.5c-0.4-0.2-0.7-0.5-0.9-0.8
			c-0.4-0.8-0.2-2,0.5-2.5c1.7-0.1,2.3,2,3.3,3c1.1,1.1,3,3,4.6,2.8c0.9-0.1,1.7-0.4,2.6-0.4c2-0.1,3.7,0.1,5.7-0.5
			c1.3-0.4,2.2-0.4,3.5-0.5c1.6-0.1,1.3-1.7,0.6-3c-0.9-1.8-3.1-1.5-4.3-2.9c-0.7-0.8-0.8-1.6-1.7-2.4c-0.6-0.3-1.1-0.8-1.4-1.5
			c-0.3-0.6-0.4-1.2-0.4-1.9c0.1-0.5-0.1-0.8-0.6-0.9c-0.4-0.3-1.7-0.7-2.2-1.1c-0.6-0.4-1.2-0.7-1.9-1c-1-0.5-1.5-1.2-2.4-1.8
			c-1.2-0.9-2.5-1.1-3.6-2c-1.8-1.5-5.1-1.8-5.7-4.4c-0.2-0.9-0.3-1.5-0.7-2.3C119.6,169,115.7,169.7,115.9,168.4z"/>
		<path class="st2" d="M126,163.1c0.2,1.1,1,1.6,2.5,1.6c2.5,1.1,5,2.2,7.5,3.5c1.1,1.1,1.3,2,3,2.6c2.2,0.7,7.4,2.6,9.1,0
			c-1-1.1-2.7-1.9-3.9-2.7c-1.2-0.8-2.4-1.9-3.4-3c-0.6-0.7-0.6-1.5-1.2-2.1c-0.7-0.4-1.4-0.6-2.2-0.7c-1.6-0.3-2,0-3.3-0.9
			c-1.9-1.3-5.1-2.5-7.4-2.6c-0.7,0-2.1-0.3-2.8,0C122.9,159.1,124.8,162.4,126,163.1z"/>
		<path class="st2" d="M141.5,180c4,0,7.9-0.7,11.2,1.8c0.6,0.4,2.6,1.3,2.8,2c0.4,1.4-2.2,1.4-3.1,1.5c-1.6,0.1-3.5,0.1-5.1,0
			c-1.1-0.1-1.5-0.8-2.3-1.5C144.2,183.2,142.8,179.8,141.5,180z"/>
		<path class="st2" d="M231,265.7c-1.1-2.7-3.6-5.1-2.9-8.3c0.3-1.5,1.1-3.1,2.7-3.4c1.2-0.2,2.3,0.9,3.5,0.5c0.2-0.8-0.1-1.6,0-2.4
			c0.1-1.2,1.1-2.6,2-3.3c0.8-0.6,1.5-1,2.5-0.1c0.8,1.8,0.9,3.6,0.6,5.5c-0.3,0.8-0.3,1.6-0.1,2.4c1.2,1.4,3.8,0.5,5.3,0.4
			c2.1-0.1,3.4-2.3,4.8-3.5c1.8-1.6,4.1-1.1,6-2.3c1.1-0.7,1.5-1.8,2.1-2.9c0.7-1.1,1.4-1.6,2.5-2.4c1.2-0.9,1.6-1,2.8-0.7
			c2.2,0.5,4.4-0.3,6.2-1.5c2-1.4,3.5-3.4,5.4-4.9c0.4-0.4,2.4-2.4,3-2.1c0.1,1.1-0.6,2.3-1,3.3c-1,2.4-2.4,4.4-3.7,6.7
			c-0.6,1-0.9,2-1.6,2.9c-0.9,1.3-2.5,2.1-3.3,3.4c-0.4,0.6-0.4,1.3-0.6,1.9c-0.7,1.7-2.2,3.1-3.9,3.8c-1.7,0.8-3.8,1.4-5.7,1.5
			c-1.5,0.1-1.8,0.9-2.9,1.8c-2,1.6-3.9,3.4-5.9,5c-0.9,0.7-1.5,1.4-2.7,1.5c-0.9,0.1-2,0-2.9,0c-1.9,0-3.6,0.2-5.4,0.8
			C237,269.7,230.6,267.7,231,265.7z"/>
		<path class="st2" d="M221.3,264.7c-1.3-1.7-4.9,0.3-6.7,0c-0.6-1.7,1.1-3.7,0.2-5.2c-0.6-1-2.2-1.3-3.2-1c-1.5,0.6-3,3.5-3.9,4.8
			c-0.7,0.9-1,1.5-1.5,2.6c-0.3,0.7-0.6,1.9-1.3,2.4c-1.1,0.8-2.7,0.3-3.9,0.5c-2.7,0.4-3.6,1.8-5.4,3.7c-1.3,1.3-2,1.8-3.8,2
			c-2.3,0.3-4.4,1.4-6.8,1.5c-3.2,0.2-4-1.3-4.2-4.3c-0.2-2.3-1.5-1.9-3.3-2c-1.6-0.1-2.8-0.7-4.5-0.4c-4.7,1-8.5-1-12-4.1
			c-0.8-0.7-0.8-1-1.9-1.4c-0.7-0.3-1.4-0.5-2.1-0.7c-2.1-0.8-4.1-0.6-6.3-0.6c-0.6,0-1.3,0.1-1.9-0.1c-1.2-0.3-2.1-1.3-3.3-1.7
			c-2-0.7-4.1,0.7-5.6-1.1c-0.9-1.1-1.4-1.8-2.7-2.5c-1.1-0.6-1.8-0.5-3-0.5c-1.5,0-2.9-0.1-4.3,0.4c-1.6,0.6-2.3,2.2-3.9,2.8
			c-1.5,0.6-3.7,0.9-5.3,0.5c-0.8-0.2-2.1-0.8-3-0.3c-0.6,0.4-0.6,1.2-0.8,1.8c-0.2,0.4-0.5,0.6-0.6,1c-0.3,1.3,0,2.3-1.4,3.1
			c-1.1,0.6-1.9,1.1-3,0.4c-1.5-0.9-2.8-3.1-4.6-2.1c-0.9,0.5-1.5,1.6-2,2.3c-0.7,1-1.5,1.9-2.2,2.9c-1.5,2.3-2.6,4.6-3.2,7.2
			c-0.9,3.4-1.6,6.9-1.8,10.4c-0.1,1.7-1.1,2.7-2,3.9c-0.4,0.5-0.7,1.3-1.1,1.8c-0.5,0.6-1.4,0.7-1.8,1.5c-1,2.2,1.8,3.5,3.3,4.4
			c1.5,0.9,2.8,1.9,4.2,2.8c1.6,1,3.1,0.9,4.9,1.2c2.6,0.4,5.3,0.7,7.9-0.1c1.7-0.5,3.4-1.4,5.2-1.5c1.4-0.1,2.5,0.1,3.9-0.4
			c0.2-1.4-1.3-2.5-1.9-3.6c-0.7-1.3-1.2-2.7-1-4.2c0.2-1,0.9-2,1.4-2.8c1.1-2.1,0.3-1.5-0.8-3c-0.5-0.7-0.9-2-1-2.8
			c-0.2-1.8,0.9-3.1,1.9-4.5c1.1-1.6,3.6-4.4,5.8-4.3c1,1.4,0.8,3.8,1.4,5.4c0.4,1.2,0.9,2.7,1.6,3.8c0.3,0.5,0.8,1.1,1.2,1.5
			c0.1,0.3,0.3,0.5,0.5,0.8c0.7,0.4,2.1,0.1,2.8,0.1c1.8,0,3.6,0.3,5.3-0.4c1.3-0.6,1.5-1.7,2.6-2.4c1.3-0.8,3-1.2,4.3-1.9
			c1.7-1,4.2-3.3,6.3-3.1c0.9,7.9,14.2,1.8,18.4,1.5c2-0.2,5.7-1.4,7.6-0.3c1.4,0.8,1,2.3,1,3.7c0,1.5-0.3,2.1,0.9,2.8
			c1.5,0.8,3.9,1.1,4.7,2.5c0.7,1.4,0.6,2.5,0.6,4c0,1.7,0.3,3.3-1,4.6c-0.6,0.6-1.1,0.5-0.9,1.5c0.4,1.5,3.5,2.6,4.7,2.9
			c1.9,0.4,3.4,0,5-1c0.8-0.5,1.6-0.9,2.4-1.5c0.7-0.6,1.1-1.4,1.9-2c0.9-0.7,2-1.5,2.9-2.2c1-0.8,2.1-1.3,3.4-1
			c0.7,0.4,1.4,0.7,2.3,0.8c1.5,0.1,3,0.2,4.5,0.1c2,0,3.7,0.5,5.7,0.5c1,0,2.5,0.3,3.5,0c2-0.6,1.7-2.3,2-3.8
			c0.6-3.2,2.1-4.9,4.8-6.7c1.9-1.3,2.1-2.8,2-5.1c0-1.1-0.4-2.1-1-3.1c-0.5-0.7-1.8-1.3-2.2-2c-0.4-0.7,0.1-1.7,0.3-2.5
			c0.5-1.7,1.2-3.5,0.9-5.3c-0.1-0.9-0.8-2.1-1.5-2.7C225.1,264,222.3,266,221.3,264.7z"/>
		<path class="st2" d="M268.7,72.2c3.9-0.1,5.7,2.1,8.2,4.8c0.4,0.4,1,1.2,1.5,1.5c0.9,0.6,1.4,0.2,2.4,0.5c0.7,1.7-1.8,1.8-2.9,1.9
			c-0.6,0-1.4,0.2-1.9-0.1c-0.7-0.3-1.3-1.3-1.9-1.7c-0.7-0.5-1.3-1.6-2-2c-0.9-0.4-2.4,0-3.2-0.5C267.3,75.7,268.7,73.8,268.7,72.2
			z"/>
		<path class="st2" d="M270.7,238.1c1.1,0,2.7-1.8,3.6-2.4c2.5-1.7,5.3-3.6,7.2-6c0.8-1,1.5-2.1,2.3-3.1c0.5-0.6,1.1-1.1,1.8-1.6
			c0.4-0.5,0.3-0.9,0.8-1.6c1.3-1.8,3.2-2.5,4.2-4.6c0.9-2,3.5-2,5.5-2.5c3-0.8,3.8-1.6,4.8-4.3c-1.7-1-5.1-0.9-6.9-0.5
			c-2,0.4-3.2,2.3-5.2,3c-1.9,0.7-3.9-0.1-5.8,0.9c-1.8,0.9-3.4,2.3-4.4,4c-0.9,1.4-1.9,2.7-2.8,4.1c-0.7,1.1-0.7,2.1-1.1,3.3
			c-0.6,1.6-2.3,2.9-3.4,4.1c-0.8,0.8-1.6,1.7-1.9,2.9C268.8,234.7,270.6,237,270.7,238.1z"/>
		<path class="st2" d="M178.3,184.4c2.1,0,17.2-0.5,15.4,3.8c-1,0.4-2.1,0.4-3.1,0.6c-1.6,0.3-3,0.9-4.5,1.3
			c-1.3,0.3-3.5,0.4-4.8,0.1c-0.8-0.1-0.8-0.6-1.5-0.9c-0.5-0.2-1-0.1-1.5-0.4c-0.6-0.4-0.5-0.8-0.8-1.5
			C177,186.5,179.1,185.2,178.3,184.4z"/>
		<path class="st2" d="M106.7,153c0.8,1.2,1.5,2.5,2.3,3.8c0.9,1.4,2.1,3.1,2.3,4.8c-2.2,1-5.7-0.6-8-0.9c-0.1-1.2-1-1.5-1.5-2.4
			c-0.5-0.8-0.7-2.4-0.5-3.4c0.5-1.7,2.6-3.2,4.3-3.6C105.6,151.6,107.3,153.1,106.7,153z"/>
	</g>
	<path class="st1" d="M182.1,218.5c1.5,0.6,3.6-1.3,4.6-1.9c3.1-1.8,6.7-3.3,10.4-3.3c2.4,0,4.1,1.2,6.4,1.4
		c3.5,0.3,7.1-1.3,10.5-1.9c3.2-0.5,6.6,0.3,9.8-0.5c2.1-0.5,4.3-1.7,6.4-2.4c1.5-0.5,3.4-1.8,4.9-1.7c-1.2,3.6-5.3,6.2-7.7,8.9
		c-3.1,3.3-6.8,7.5-11.3,8.7c-2.8,0.7-5.6,1-8.4,1.4c-1.6,0.3-3.3,0.7-4.9,1.1c-1,0.3-1.8,0.2-2.5-0.5c-1.5,0.1-4.9,1.8-6,2.2
		c-3.5,1.2-7.2,2.9-10.9,3.5c-3.5,0.6-7.2,1.5-10.5,0c-1.5-0.7-4.8-0.9-2.7-3.1c1.5-1.5,4-1.9,5.6-3.1c1.3-0.9,1-0.6,1-2.2
		c0-0.7-0.2-1.8,0.1-2.5C177.4,221.5,181.8,219.5,182.1,218.5z"/>
	<path class="st1" d="M37.4,227.7c5.6,0.1,10.5,0.1,15.3,3.6c4,2.9,1.6,7.2,2.7,11.2c1.2,4.1,4.1,8.4,7,11.5c2.1,2.2,4.4,4,5.6,6.8
		c-2.5,1.6-7.1-0.9-9.3-2c-0.9-0.6-1.9-1-2.9-1.3c-1.5-0.3-2.6,0.4-3.2-1.5c0-1.2-0.1-2.5-0.1-3.7c-0.4-1.1-1.8-1.7-2.6-2.6
		c-1.9-2.2-1.9-4.8-3.1-7.3c-1.1-2.2-2.1-1.8-4.3-2.7c-1-0.5-2-1.1-2.8-1.9c-1.5-0.9-3.4-1-5-1.4c-2.9-0.8-4.8-2.4-7.1-4.1
		c0.1-1.4,2.1-1.1,3-1.3c1.5-0.4,2.5-1.2,4.1-1.2C34.9,228.6,37.6,228.8,37.4,227.7z"/>
</g>
</svg>
