<?xml version="1.0" encoding="utf-8"?>
<!-- Generator: Adobe Illustrator 22.0.1, SVG Export Plug-In . SVG Version: 6.00 Build 0)  -->
<svg version="1.1" id="Слой_1" xmlns="http://www.w3.org/2000/svg" xmlns:xlink="http://www.w3.org/1999/xlink" x="0px" y="0px"
	 viewBox="0 0 851 63" style="enable-background:new 0 0 851 63;" xml:space="preserve">
<style type="text/css">
	.st0{fill:#151030;}
</style>
<g>
	<path class="st0" d="M544.9,62.8c-2.5-0.5-2.9-0.3-4.3-0.7c-2-0.6-3-1.5-4-2.2c-1.6-1-2.9-1.4-8.8-2.4c-6.2-1.1-12.3-2.6-18.5-3.4
		c-0.8-0.1-2.1-0.2-3.5-1c-1.3-0.7-2.8-1.8-3.1-2.1c-0.6-0.5-0.9-0.7-1.5-1.1c-1-0.7-1.8-1.1-2.1-1.2c-2.2-1-4-2.5-7.1-4.3
		c-2.6-1.4-4.6-2.5-7.4-3.3c-3-0.8-4.1-0.5-6.1-1.8c-2.1-1.3-1.6-2.1-3.5-3c-1.8-0.9-3.3-0.9-5.5-2.1c-0.7-0.4-1.1-0.7-1.3-0.9
		c-1.1-0.8-1.7-1.6-1.9-1.8c-1.4-1.5-3.9-2.4-5.9-3.4c-2.8-1.4-2-1.7-6.4-4.6c0,0-4.2-2.8-10.2-5.5c-0.7-0.3-0.3-0.1-2.7-1.1
		c-1.3-0.6-1.8-0.8-2.5-0.9c-0.2,0-0.3,0-1.6-0.1c-0.8-0.1-1.6-0.1-1.6-0.1c-1.8-0.2-4.4-3-6.7-5c-3.2-2.9-4-2.7-5.4-4.8
		c-1.4-2.1-0.9-2.6-2-3.8c-1.8-2.2-5.1-2.3-11-2c-8.8,0.4-12.3,1.1-12.3,1.1c-19.7,3.7-16.5,2.3-24.6,4.3
		c-8.6,2.1-14.8,3.6-22.6,7.1c-2,0.9-8.2,4.4-20.7,11.4c-7.4,4.2-9.2,5.3-13.5,7.5c-4.1,2.1-6,3-13.1,6.6c-5.2,2.7-8,4.2-9.4,4.8
		c-10.2,5.3-20.7,7.7-34.9,11c-19.6,4.5-22.9,3.5-25,2.5c-5.6-2.6-10.7-8.3-13.5-11.5c-5.7-6.5-5.5-8.8-9-10
		c-4.9-1.7-7.3,2.1-17.5,2c-3.9-0.1-6.3-0.1-9-1.5c-4.6-2.4-4.5-5.9-9-8c-4-1.9-4.8,0.5-10-1c-6-1.7-6.3-5.2-13.5-7.5
		c-2.2-0.7-4.3-1.3-7-1c-4.9,0.6-5.6,3.7-9,4.5c-4.6,1.1-7.3-3.4-21.5-12.5c-6.6-4.2-9.2-5.3-12.5-5.5C98.3,4.3,98,5.9,91.5,7
		c-9.9,1.7-14.2-1.1-18,2.5c-1.6,1.5-0.7,1.8-3,5c-3.1,4.2-6.7,6.5-10,8.5c-2.7,1.7-5.3,2.8-10.5,5c-6.9,3-7.4,2.7-10.5,4.5
		c-4.4,2.5-4.6,3.8-8.5,6c-4.7,2.7-8.7,3.3-10.7,3.8C10.7,44.8,4,55.8,0,62.2c-0.1,0.2-0.3,0.5-0.5,0.8c18,0.1,35.9,0.2,53.9,0.3
		h493.8C546.7,63.2,546,63,544.9,62.8z"/>
	<path class="st0" d="M850.9,62.6c-0.8-0.8-1.8-0.9-2.2-0.9c-6.2-0.6-16.5-2.6-18-2.9c-4.3-0.8-3.1-1.3-8.8-2.7
		c-7-1.7-9.6-1.2-13.8-2.1c-9.2-1.9-8.2-6.5-17.3-9.6c-11.4-3.9-16.6,2.1-23.8-3.3c-2.6-2-4.1-4.4-8.5-6.1c-3.4-1.3-4.3-0.5-7.5-2.2
		c-3.2-1.7-3.6-3.1-7-4.2c-1-0.3-1.1-0.2-4.7-1c0,0-2.5-0.5-5.2-1.2c-7.4-1.8-12.1-10.4-22.4-12.6c-1.2-0.3-3.8-0.6-8.9-1.3
		c-4-0.6-6-0.8-6.8-0.9c-5.3-0.1-9.5,1.5-13.9,3.3c-5,2-4.8,2.6-8.2,4c-7,2.7-9.5,0.9-20.1,2.3c-5.6,0.8-10.3,1.4-15.7,4.1
		c-6.5,3.2-6,5.2-12.4,8.3c-6.4,3.1-8.1,1.6-16.3,4.6c-7.1,2.7-6,3.9-13,6.7c-5.6,2.3-5.2,1.1-21.6,5.3c-8.2,2.1-7.4,2.2-12.1,3.3
		c-1.3,0.3-3.4,0.8-6.1,1.7c-2.7,1-4.7,2-5.5,2.5c-1.5,0.8-2.6,1.5-4.6,2.7c-2.5,1.6-3.6,2.4-4.5,2.9h309.5
		C851.3,63.1,851.1,62.8,850.9,62.6z"/>
</g>
</svg>
