<?xml version="1.0" encoding="utf-8"?>
<!-- Generator: Adobe Illustrator 22.0.1, SVG Export Plug-In . SVG Version: 6.00 Build 0)  -->
<svg version="1.1" id="Слой_1" xmlns="http://www.w3.org/2000/svg" xmlns:xlink="http://www.w3.org/1999/xlink" x="0px" y="0px"
	 viewBox="0 0 851 82" style="enable-background:new 0 0 851 82;" xml:space="preserve">
<style type="text/css">
	.st0{fill:#0F0F1E;}
</style>
<path class="st0" d="M687.9,104.1c-1-1.1-2-2.1-3.1-3.1c-0.1-0.3-0.2-0.7-0.4-1c0.8,0.7,1.6,1.4,2.4,2.1c0.5,0.4,1.3-0.2,0.8-0.8
	c-1.5-1.6-3.1-3.3-4.6-4.9c-0.4-1-0.9-1.9-1.3-2.9c0.4,0.6,0.8,1.2,1.2,1.9c0.4,0.7,1.3,0.1,1-0.6c-1.5-3.2-3.2-6.1-5.4-8.8
	c1,0.8,2,1.6,3,2.3c0.5,0.3,0.9-0.4,0.6-0.7c-3-3-6-6-9.1-8.8c-0.1-0.1-0.2-0.1-0.3-0.1c-0.2-0.3-0.4-0.5-0.6-0.8
	c1.7,1.7,3.5,3.3,5.4,4.8c0.6,0.4,1.2-0.2,0.8-0.8c-1-1.2-2.1-2.4-3.3-3.5c1.3,0.5,2.7,0.9,4.1,1.2c0.6,0.1,1-0.7,0.4-1
	c-1.7-0.8-3.4-1.3-5.1-1.8l7.7-0.2c0-0.1,0-0.1-0.1-0.2c0.7,0.9,1.4,1.9,2.2,2.7c0.5,0.5,1.4-0.2,1-0.8c-2.6-3.9-5-7.9-6.8-12.3
	c-0.1-0.1-0.2-0.2-0.3-0.3c0-0.1-0.1-0.2-0.1-0.3c1.1,1.6,2.2,3.1,3.5,4.5c0.5,0.6,1.4-0.2,1.1-0.8c-1.7-3-3.7-5.9-5.6-8.8
	c0.5,0.3,1.2-0.3,0.9-0.9c-2.1-3.2-3.9-6.3-5.4-9.7c0.4,0.5,0.8,1,1.3,1.5c0.5,0.5,1.4-0.2,1-0.8c-1.4-2.2-2.7-4.6-3.8-7
	c1.7-0.5,3.3-1,5-1.5c0.4,0.5,0.8,1,1.3,1.4c0.6,0.5,1.6-0.2,1.1-0.9c-1.6-2.3-3.2-4.6-4.4-7.1c1,0.9,2,1.7,3,2.4
	c0.6,0.4,1.3-0.5,0.8-1c-1.9-1.8-3.6-3.7-5.4-5.6c0.3,0.3,0.6,0.6,0.9,0.9c0.5,0.5,1.1-0.2,0.7-0.7c-2.5-3-4.3-6.2-5.7-9.8
	c0.6,0.7,1.3,1.5,2,2.1c0.4,0.4,0.9-0.2,0.6-0.6c-2.1-2.4-4-5.1-5.6-8c-0.1-0.1-0.1-0.2-0.2-0.2c-0.2-0.6-0.5-1.2-0.7-1.8
	c-0.3,0.7-0.6,1.5-0.9,2.2c-1,0.9-1.7,2.4-2.6,3.4c-1.6,1.9-3.5,3.5-5.2,5.3c-0.6,0.6-0.1,1.7,0.6,1.3c0.6-0.4,1.2-0.8,1.8-1.3
	c-1.8,2.2-3.7,4.3-5.7,6.3c-0.5,0.5-0.1,1.5,0.5,1.1c1.3-0.9,2.6-1.9,3.8-3.1c-0.7,1.1-1.4,2.1-2.2,3.1c-2.4,2.1-4.9,4-7.5,5.9
	c-0.5,0.4-0.1,1.5,0.4,1.2c0.9-0.4,1.7-0.9,2.6-1.5c-0.8,0.9-1.7,1.8-2.6,2.7c-1.4,0.8-1.2,1.3-2.6,2.2c-0.5,0.3-0.1,1.2,0.4,1.1
	c0.1,0,0.1-0.1,0.2-0.1l6.8,0.5c-2,2.3-4,4.6-5.9,6.9c-0.3,0.3-0.1,0.9,0.2,1c-0.1,0.1-0.1,0.1-0.2,0.2c-0.5,0.6,0.3,1.4,0.9,0.9
	c0.5-0.4,1.1-0.9,1.7-1.4c-0.9,1.4-1.9,2.8-2.8,4.1c-0.5,0.7,0.3,1.7,0.9,1.1c0.3-0.4,0.6-0.7,0.9-1.1c-0.3,0.6-0.7,1.3-1,1.9
	c-2,2.4-4.2,4.6-6.6,6.4c-0.5,0.4-0.1,1.3,0.5,1c1.1-0.7,2.2-1.5,3.2-2.4c-0.8,1.3-1.6,2.7-2.5,3.9c-1.7,2.4-3.6,4.6-5.4,6.9
	c-0.5,0.6,0.2,1.8,0.8,1.3c0.3-0.2,0.5-0.4,0.7-0.7c2.7,0.4,5.3,0.7,8,1.1c-0.5,0.3-0.9,0.7-1.4,1.1c-0.6,0.6,0.2,1.4,0.9,1.1
	c0.6-0.3,1.3-0.5,2-0.8c-1.2,2-2.7,3.7-4.5,5c-0.4,0.3-0.1,1.1,0.3,0.9c0.8-0.4,1.5-1,2.2-1.5c-0.3,0.6-0.7,1.2-1,1.8
	c-1.6,2.1-3.3,3.9-5.3,5.5c-0.6,0.5-0.1,1.6,0.6,1.2c0.4-0.3,0.8-0.6,1.2-0.9c-0.3,0.5-0.6,0.9-0.9,1.4c-2.1,2-4.4,3.8-6.9,5.2
	c-0.6,0.3-0.1,1.4,0.4,1.2c0.4-0.1,0.7-0.3,1.1-0.4c-1.6,1.6-3.1,3.2-4.6,4.9c-0.5,0.6,0.2,1.6,0.7,1.1c0.8-0.6,1.5-1.3,2.2-2
	c-0.8,1.1-1.6,2.1-2.5,3.2c18.8-1.7,37.7,0.5,56.4,2.6c-0.2-0.5-0.3-1-0.5-1.5c0.4,0.3,0.8,0.6,1.2,0.8
	C687.8,105.6,688.4,104.7,687.9,104.1z"/>
<path class="st0" d="M744.3,112.8c-1-1.1-2-2.1-3.1-3.1c-0.1-0.3-0.2-0.7-0.4-1c0.8,0.7,1.6,1.4,2.4,2.1c0.5,0.4,1.3-0.2,0.8-0.8
	c-1.5-1.6-3.1-3.3-4.6-4.9c-0.4-1-0.9-1.9-1.3-2.9c0.4,0.6,0.8,1.2,1.2,1.9c0.4,0.7,1.3,0.1,1-0.6c-1.5-3.2-3.2-6.1-5.4-8.8
	c1,0.8,2,1.6,3,2.3c0.5,0.3,0.9-0.4,0.6-0.7c-3-3-6-6-9.1-8.8c-0.1-0.1-0.2-0.1-0.3-0.1c-0.2-0.3-0.4-0.5-0.6-0.8
	c1.7,1.7,3.5,3.3,5.4,4.8c0.6,0.4,1.2-0.2,0.8-0.8c-1-1.2-2.1-2.4-3.3-3.5c1.3,0.5,2.7,0.9,4.1,1.2c0.6,0.1,1-0.7,0.4-1
	c-1.7-0.8-3.4-1.3-5.1-1.8l7.7-0.2c0-0.1,0-0.1-0.1-0.2c0.7,0.9,1.4,1.9,2.2,2.7c0.5,0.5,1.4-0.2,1-0.8c-2.6-3.9-5-7.9-6.8-12.3
	c-0.1-0.1-0.2-0.2-0.3-0.3c0-0.1-0.1-0.2-0.1-0.3c1.1,1.6,2.2,3.1,3.5,4.5c0.5,0.6,1.4-0.2,1.1-0.8c-1.7-3-3.7-5.9-5.6-8.8
	c0.5,0.3,1.2-0.3,0.9-0.9c-2.1-3.2-3.9-6.3-5.4-9.7c0.4,0.5,0.8,1,1.3,1.5c0.5,0.5,1.4-0.2,1-0.8c-1.4-2.2-2.7-4.6-3.8-7
	c1.7-0.5,3.3-1,5-1.5c0.4,0.5,0.8,1,1.3,1.4c0.6,0.5,1.6-0.2,1.1-0.9c-1.6-2.3-3.2-4.6-4.4-7.1c1,0.9,2,1.7,3,2.4
	c0.6,0.4,1.3-0.5,0.8-1c-1.9-1.8-3.6-3.7-5.4-5.6c0.3,0.3,0.6,0.6,0.9,0.9c0.5,0.5,1.1-0.2,0.7-0.7c-2.5-3-4.3-6.2-5.7-9.8
	c0.6,0.7,1.3,1.5,2,2.1c0.4,0.4,0.9-0.2,0.6-0.6c-2.1-2.4-4-5.1-5.6-8c-0.1-0.1-0.1-0.2-0.2-0.2c-0.2-0.6-0.5-1.2-0.7-1.8
	c-0.3,0.7-0.6,1.5-0.9,2.2c-1,0.9-1.7,2.4-2.6,3.4c-1.6,1.9-3.5,3.5-5.2,5.3c-0.6,0.6-0.1,1.7,0.6,1.3c0.6-0.4,1.2-0.8,1.8-1.3
	c-1.8,2.2-3.7,4.3-5.7,6.3c-0.5,0.5-0.1,1.5,0.5,1.1c1.3-0.9,2.6-1.9,3.8-3.1c-0.7,1.1-1.4,2.1-2.2,3.1c-2.4,2.1-4.9,4-7.5,5.9
	c-0.5,0.4-0.1,1.5,0.4,1.2c0.9-0.4,1.7-0.9,2.6-1.5c-0.8,0.9-1.7,1.8-2.6,2.7c-1.4,0.8-1.2,1.3-2.6,2.2c-0.5,0.3-0.1,1.2,0.4,1.1
	c0.1,0,0.1-0.1,0.2-0.1l6.8,0.5c-2,2.3-4,4.6-5.9,6.9c-0.3,0.3-0.1,0.9,0.2,1c-0.1,0.1-0.1,0.1-0.2,0.2c-0.5,0.6,0.3,1.4,0.9,0.9
	c0.5-0.4,1.1-0.9,1.7-1.4c-0.9,1.4-1.9,2.8-2.8,4.1c-0.5,0.7,0.3,1.7,0.9,1.1c0.3-0.4,0.6-0.7,0.9-1.1c-0.3,0.6-0.7,1.3-1,1.9
	c-2,2.4-4.2,4.6-6.6,6.4c-0.5,0.4-0.1,1.3,0.5,1c1.1-0.7,2.2-1.5,3.2-2.4c-0.8,1.3-1.6,2.7-2.5,3.9c-1.7,2.4-3.6,4.6-5.4,6.9
	c-0.5,0.6,0.2,1.8,0.8,1.3c0.3-0.2,0.5-0.4,0.7-0.7c2.7,0.4,5.3,0.7,8,1.1c-0.5,0.3-0.9,0.7-1.4,1.1c-0.6,0.6,0.2,1.4,0.9,1.1
	c0.6-0.3,1.3-0.5,2-0.8c-1.2,2-2.7,3.7-4.5,5c-0.4,0.3-0.1,1.1,0.3,0.9c0.8-0.4,1.5-1,2.2-1.5c-0.3,0.6-0.7,1.2-1,1.8
	c-1.6,2.1-3.3,3.9-5.3,5.5c-0.6,0.5-0.1,1.6,0.6,1.2c0.4-0.3,0.8-0.6,1.2-0.9c-0.3,0.5-0.6,0.9-0.9,1.4c-2.1,2-4.4,3.8-6.9,5.2
	c-0.6,0.3-0.1,1.4,0.4,1.2c0.4-0.1,0.7-0.3,1.1-0.4c-1.6,1.6-3.1,3.2-4.6,4.9c-0.5,0.6,0.2,1.6,0.7,1.1c0.8-0.6,1.5-1.3,2.2-2
	c-0.8,1.1-1.6,2.1-2.5,3.2c18.8-1.7,37.7,0.5,56.4,2.6c-0.2-0.5-0.3-1-0.5-1.5c0.4,0.3,0.8,0.6,1.2,0.8
	C744.1,114.2,744.7,113.3,744.3,112.8z"/>
<path class="st0" d="M799.6,94c-1-1.1-2-2.1-3.1-3.1c-0.1-0.3-0.2-0.7-0.4-1c0.8,0.7,1.6,1.4,2.4,2.1c0.5,0.4,1.3-0.2,0.8-0.8
	c-1.5-1.6-3.1-3.3-4.6-4.9c-0.4-1-0.9-1.9-1.3-2.9c0.4,0.6,0.8,1.2,1.2,1.9c0.4,0.7,1.3,0.1,1-0.6c-1.5-3.2-3.2-6.1-5.4-8.8
	c1,0.8,2,1.6,3,2.3c0.5,0.3,0.9-0.4,0.6-0.7c-3-3-6-6-9.1-8.8c-0.1-0.1-0.2-0.1-0.3-0.1c-0.2-0.3-0.4-0.5-0.6-0.8
	c1.7,1.7,3.5,3.3,5.4,4.8c0.6,0.4,1.2-0.2,0.8-0.8c-1-1.2-2.1-2.4-3.3-3.5c1.3,0.5,2.7,0.9,4.1,1.2c0.6,0.1,1-0.7,0.4-1
	c-1.7-0.8-3.4-1.3-5.1-1.8l7.7-0.2c0-0.1,0-0.1-0.1-0.2c0.7,0.9,1.4,1.9,2.2,2.7c0.5,0.5,1.4-0.2,1-0.8c-2.6-3.9-5-7.9-6.8-12.3
	c-0.1-0.1-0.2-0.2-0.3-0.3c0-0.1-0.1-0.2-0.1-0.3c1.1,1.6,2.2,3.1,3.5,4.5c0.5,0.6,1.4-0.2,1.1-0.8c-1.7-3-3.7-5.9-5.6-8.8
	c0.5,0.3,1.2-0.3,0.9-0.9c-2.1-3.2-3.9-6.3-5.4-9.7c0.4,0.5,0.8,1,1.3,1.5c0.5,0.5,1.4-0.2,1-0.8c-1.4-2.2-2.7-4.6-3.8-7
	c1.7-0.5,3.3-1,5-1.5c0.4,0.5,0.8,1,1.3,1.4c0.6,0.5,1.6-0.2,1.1-0.9c-1.6-2.3-3.2-4.6-4.4-7.1c1,0.9,2,1.7,3,2.4
	c0.6,0.4,1.3-0.5,0.8-1c-1.9-1.8-3.6-3.7-5.4-5.6c0.3,0.3,0.6,0.6,0.9,0.9c0.5,0.5,1.1-0.2,0.7-0.7c-2.5-3-4.3-6.2-5.7-9.8
	c0.6,0.7,1.3,1.5,2,2.1c0.4,0.4,0.9-0.2,0.6-0.6c-2.1-2.4-4-5.1-5.6-8c-0.1-0.1-0.1-0.2-0.2-0.2c-0.2-0.6-0.5-1.2-0.7-1.8
	c-0.3,0.7-0.6,1.5-0.9,2.2c-1,0.9-1.7,2.4-2.6,3.4c-1.6,1.9-3.5,3.5-5.2,5.3c-0.6,0.6-0.1,1.7,0.6,1.3c0.6-0.4,1.2-0.8,1.8-1.3
	c-1.8,2.2-3.7,4.3-5.7,6.3c-0.5,0.5-0.1,1.5,0.5,1.1c1.3-0.9,2.6-1.9,3.8-3.1c-0.7,1.1-1.4,2.1-2.2,3.1c-2.4,2.1-4.9,4-7.5,5.9
	c-0.5,0.4-0.1,1.5,0.4,1.2c0.9-0.4,1.7-0.9,2.6-1.5c-0.8,0.9-1.7,1.8-2.6,2.7c-1.4,0.8-1.2,1.3-2.6,2.2c-0.5,0.3-0.1,1.2,0.4,1.1
	c0.1,0,0.1-0.1,0.2-0.1l6.8,0.5c-2,2.3-4,4.6-5.9,6.9c-0.3,0.3-0.1,0.9,0.2,1c-0.1,0.1-0.1,0.1-0.2,0.2c-0.5,0.6,0.3,1.4,0.9,0.9
	c0.5-0.4,1.1-0.9,1.7-1.4c-0.9,1.4-1.9,2.8-2.8,4.1c-0.5,0.7,0.3,1.7,0.9,1.1c0.3-0.4,0.6-0.7,0.9-1.1c-0.3,0.6-0.7,1.3-1,1.9
	c-2,2.4-4.2,4.6-6.6,6.4c-0.5,0.4-0.1,1.3,0.5,1c1.1-0.7,2.2-1.5,3.2-2.4c-0.8,1.3-1.6,2.7-2.5,3.9c-1.7,2.4-3.6,4.6-5.4,6.9
	c-0.5,0.6,0.2,1.8,0.8,1.3c0.3-0.2,0.5-0.4,0.7-0.7c2.7,0.4,5.3,0.7,8,1.1c-0.5,0.3-0.9,0.7-1.4,1.1c-0.6,0.6,0.2,1.4,0.9,1.1
	c0.6-0.3,1.3-0.5,2-0.8c-1.2,2-2.7,3.7-4.5,5c-0.4,0.3-0.1,1.1,0.3,0.9c0.8-0.4,1.5-1,2.2-1.5c-0.3,0.6-0.7,1.2-1,1.8
	c-1.6,2.1-3.3,3.9-5.3,5.5c-0.6,0.5-0.1,1.6,0.6,1.2c0.4-0.3,0.8-0.6,1.2-0.9c-0.3,0.5-0.6,0.9-0.9,1.4c-2.1,2-4.4,3.8-6.9,5.2
	c-0.6,0.3-0.1,1.4,0.4,1.2c0.4-0.1,0.7-0.3,1.1-0.4c-1.6,1.6-3.1,3.2-4.6,4.9c-0.5,0.6,0.2,1.6,0.7,1.1c0.8-0.6,1.5-1.3,2.2-2
	c-0.8,1.1-1.6,2.1-2.5,3.2c18.8-1.7,37.7,0.5,56.4,2.6c-0.2-0.5-0.3-1-0.5-1.5c0.4,0.3,0.8,0.6,1.2,0.8
	C799.4,95.4,800,94.5,799.6,94z"/>
<path class="st0" d="M860.5,103.4c-1-1.1-2-2.1-3.1-3.1c-0.1-0.3-0.2-0.7-0.4-1c0.8,0.7,1.6,1.4,2.4,2.1c0.5,0.4,1.3-0.2,0.8-0.8
	c-1.5-1.6-3.1-3.3-4.6-4.9c-0.4-1-0.9-1.9-1.3-2.9c0.4,0.6,0.8,1.2,1.2,1.9c0.4,0.7,1.3,0.1,1-0.6c-1.5-3.2-3.2-6.1-5.4-8.8
	c1,0.8,2,1.6,3,2.3c0.5,0.3,0.9-0.4,0.6-0.7c-3-3-6-6-9.1-8.8c-0.1-0.1-0.2-0.1-0.3-0.1c-0.2-0.3-0.4-0.5-0.6-0.8
	c1.7,1.7,3.5,3.3,5.4,4.8c0.6,0.4,1.2-0.2,0.8-0.8c-1-1.2-2.1-2.4-3.3-3.5c1.3,0.5,2.7,0.9,4.1,1.2c0.6,0.1,1-0.7,0.4-1
	c-1.7-0.8-3.4-1.3-5.1-1.8l7.7-0.2c0-0.1,0-0.1-0.1-0.2c0.7,0.9,1.4,1.9,2.2,2.7c0.5,0.5,1.4-0.2,1-0.8c-2.6-3.9-5-7.9-6.8-12.3
	c-0.1-0.1-0.2-0.2-0.3-0.3c0-0.1-0.1-0.2-0.1-0.3c1.1,1.6,2.2,3.1,3.5,4.5c0.5,0.6,1.4-0.2,1.1-0.8c-1.7-3-3.7-5.9-5.6-8.8
	c0.5,0.3,1.2-0.3,0.9-0.9c-2.1-3.2-3.9-6.3-5.4-9.7c0.4,0.5,0.8,1,1.3,1.5c0.5,0.5,1.4-0.2,1-0.8c-1.4-2.2-2.7-4.6-3.8-7
	c1.7-0.5,3.3-1,5-1.5c0.4,0.5,0.8,1,1.3,1.4c0.6,0.5,1.6-0.2,1.1-0.9c-1.6-2.3-3.2-4.6-4.4-7.1c1,0.9,2,1.7,3,2.4
	c0.6,0.4,1.3-0.5,0.8-1c-1.9-1.8-3.6-3.7-5.4-5.6c0.3,0.3,0.6,0.6,0.9,0.9c0.5,0.5,1.1-0.2,0.7-0.7c-2.5-3-4.3-6.2-5.7-9.8
	c0.6,0.7,1.3,1.5,2,2.1c0.4,0.4,0.9-0.2,0.6-0.6c-2.1-2.4-4-5.1-5.6-8c-0.1-0.1-0.1-0.2-0.2-0.2c-0.2-0.6-0.5-1.2-0.7-1.8
	c-0.3,0.7-0.6,1.5-0.9,2.2c-1,0.9-1.7,2.4-2.6,3.4c-1.6,1.9-3.5,3.5-5.2,5.3c-0.6,0.6-0.1,1.7,0.6,1.3c0.6-0.4,1.2-0.8,1.8-1.3
	c-1.8,2.2-3.7,4.3-5.7,6.3c-0.5,0.5-0.1,1.5,0.5,1.1c1.3-0.9,2.6-1.9,3.8-3.1c-0.7,1.1-1.4,2.1-2.2,3.1c-2.4,2.1-4.9,4-7.5,5.9
	c-0.5,0.4-0.1,1.5,0.4,1.2c0.9-0.4,1.7-0.9,2.6-1.5c-0.8,0.9-1.7,1.8-2.6,2.7c-1.4,0.8-1.2,1.3-2.6,2.2c-0.5,0.3-0.1,1.2,0.4,1.1
	c0.1,0,0.1-0.1,0.2-0.1l6.8,0.5c-2,2.3-4,4.6-5.9,6.9c-0.3,0.3-0.1,0.9,0.2,1c-0.1,0.1-0.1,0.1-0.2,0.2c-0.5,0.6,0.3,1.4,0.9,0.9
	c0.5-0.4,1.1-0.9,1.7-1.4c-0.9,1.4-1.9,2.8-2.8,4.1c-0.5,0.7,0.3,1.7,0.9,1.1c0.3-0.4,0.6-0.7,0.9-1.1c-0.3,0.6-0.7,1.3-1,1.9
	c-2,2.4-4.2,4.6-6.6,6.4c-0.5,0.4-0.1,1.3,0.5,1c1.1-0.7,2.2-1.5,3.2-2.4c-0.8,1.3-1.6,2.7-2.5,3.9c-1.7,2.4-3.6,4.6-5.4,6.9
	c-0.5,0.6,0.2,1.8,0.8,1.3c0.3-0.2,0.5-0.4,0.7-0.7c2.7,0.4,5.3,0.7,8,1.1c-0.5,0.3-0.9,0.7-1.4,1.1c-0.6,0.6,0.2,1.4,0.9,1.1
	c0.6-0.3,1.3-0.5,2-0.8c-1.2,2-2.7,3.7-4.5,5c-0.4,0.3-0.1,1.1,0.3,0.9c0.8-0.4,1.5-1,2.2-1.5c-0.3,0.6-0.7,1.2-1,1.8
	c-1.6,2.1-3.3,3.9-5.3,5.5c-0.6,0.5-0.1,1.6,0.6,1.2c0.4-0.3,0.8-0.6,1.2-0.9c-0.3,0.5-0.6,0.9-0.9,1.4c-2.1,2-4.4,3.8-6.9,5.2
	c-0.6,0.3-0.1,1.4,0.4,1.2c0.4-0.1,0.7-0.3,1.1-0.4c-1.6,1.6-3.1,3.2-4.6,4.9c-0.5,0.6,0.2,1.6,0.7,1.1c0.8-0.6,1.5-1.3,2.2-2
	c-0.8,1.1-1.6,2.1-2.5,3.2c18.8-1.7,37.7,0.5,56.4,2.6c-0.2-0.5-0.3-1-0.5-1.5c0.4,0.3,0.8,0.6,1.2,0.8
	C860.4,104.8,861,103.9,860.5,103.4z"/>
<path class="st0" d="M640.7,106c-1-1.1-2-2.1-3.1-3.1c-0.1-0.3-0.2-0.7-0.4-1c0.8,0.7,1.6,1.4,2.4,2.1c0.5,0.4,1.3-0.2,0.8-0.8
	c-1.5-1.6-3.1-3.3-4.6-4.9c-0.4-1-0.9-1.9-1.3-2.9c0.4,0.6,0.8,1.2,1.2,1.9c0.4,0.7,1.3,0.1,1-0.6c-1.5-3.2-3.2-6.1-5.4-8.8
	c1,0.8,2,1.6,3,2.3c0.5,0.3,0.9-0.4,0.6-0.7c-3-3-6-6-9.1-8.8c-0.1-0.1-0.2-0.1-0.3-0.1c-0.2-0.3-0.4-0.5-0.6-0.8
	c1.7,1.7,3.5,3.3,5.4,4.8c0.6,0.4,1.2-0.2,0.8-0.8c-1-1.2-2.1-2.4-3.3-3.5c1.3,0.5,2.7,0.9,4.1,1.2c0.6,0.1,1-0.7,0.4-1
	c-1.7-0.8-3.4-1.3-5.1-1.8l7.7-0.2c0-0.1,0-0.1-0.1-0.2c0.7,0.9,1.4,1.9,2.2,2.7c0.5,0.5,1.4-0.2,1-0.8c-2.6-3.9-5-7.9-6.8-12.3
	c-0.1-0.1-0.2-0.2-0.3-0.3c0-0.1-0.1-0.2-0.1-0.3c1.1,1.6,2.2,3.1,3.5,4.5c0.5,0.6,1.4-0.2,1.1-0.8c-1.7-3-3.7-5.9-5.6-8.8
	c0.5,0.3,1.2-0.3,0.9-0.9c-2.1-3.2-3.9-6.3-5.4-9.7c0.4,0.5,0.8,1,1.3,1.5c0.5,0.5,1.4-0.2,1-0.8c-1.4-2.2-2.7-4.6-3.8-7
	c1.7-0.5,3.3-1,5-1.5c0.4,0.5,0.8,1,1.3,1.4c0.6,0.5,1.6-0.2,1.1-0.9c-1.6-2.3-3.2-4.6-4.4-7.1c1,0.9,2,1.7,3,2.4
	c0.6,0.4,1.3-0.5,0.8-1c-1.9-1.8-3.6-3.7-5.4-5.6c0.3,0.3,0.6,0.6,0.9,0.9c0.5,0.5,1.1-0.2,0.7-0.7c-2.5-3-4.3-6.2-5.7-9.8
	c0.6,0.7,1.3,1.5,2,2.1c0.4,0.4,0.9-0.2,0.6-0.6c-2.1-2.4-4-5.1-5.6-8c-0.1-0.1-0.1-0.2-0.2-0.2c-0.2-0.6-0.5-1.2-0.7-1.8
	c-0.3,0.7-0.6,1.5-0.9,2.2c-1,0.9-1.7,2.4-2.6,3.4c-1.6,1.9-3.5,3.5-5.2,5.3c-0.6,0.6-0.1,1.7,0.6,1.3c0.6-0.4,1.2-0.8,1.8-1.3
	c-1.8,2.2-3.7,4.3-5.7,6.3c-0.5,0.5-0.1,1.5,0.5,1.1c1.3-0.9,2.6-1.9,3.8-3.1c-0.7,1.1-1.4,2.1-2.2,3.1c-2.4,2.1-4.9,4-7.5,5.9
	c-0.5,0.4-0.1,1.5,0.4,1.2c0.9-0.4,1.7-0.9,2.6-1.5c-0.8,0.9-1.7,1.8-2.6,2.7c-1.4,0.8-1.2,1.3-2.6,2.2c-0.5,0.3-0.1,1.2,0.4,1.1
	c0.1,0,0.1-0.1,0.2-0.1l6.8,0.5c-2,2.3-4,4.6-5.9,6.9c-0.3,0.3-0.1,0.9,0.2,1c-0.1,0.1-0.1,0.1-0.2,0.2c-0.5,0.6,0.3,1.4,0.9,0.9
	c0.5-0.4,1.1-0.9,1.7-1.4c-0.9,1.4-1.9,2.8-2.8,4.1c-0.5,0.7,0.3,1.7,0.9,1.1c0.3-0.4,0.6-0.7,0.9-1.1c-0.3,0.6-0.7,1.3-1,1.9
	c-2,2.4-4.2,4.6-6.6,6.4c-0.5,0.4-0.1,1.3,0.5,1c1.1-0.7,2.2-1.5,3.2-2.4c-0.8,1.3-1.6,2.7-2.5,3.9c-1.7,2.4-3.6,4.6-5.4,6.9
	c-0.5,0.6,0.2,1.8,0.8,1.3c0.3-0.2,0.5-0.4,0.7-0.7c2.7,0.4,5.3,0.7,8,1.1c-0.5,0.3-0.9,0.7-1.4,1.1c-0.6,0.6,0.2,1.4,0.9,1.1
	c0.6-0.3,1.3-0.5,2-0.8c-1.2,2-2.7,3.7-4.5,5c-0.4,0.3-0.1,1.1,0.3,0.9c0.8-0.4,1.5-1,2.2-1.5c-0.3,0.6-0.7,1.2-1,1.8
	c-1.6,2.1-3.3,3.9-5.3,5.5c-0.6,0.5-0.1,1.6,0.6,1.2c0.4-0.3,0.8-0.6,1.2-0.9c-0.3,0.5-0.6,0.9-0.9,1.4c-2.1,2-4.4,3.8-6.9,5.2
	c-0.6,0.3-0.1,1.4,0.4,1.2c0.4-0.1,0.7-0.3,1.1-0.4c-1.6,1.6-3.1,3.2-4.6,4.9c-0.5,0.6,0.2,1.6,0.7,1.1c0.8-0.6,1.5-1.3,2.2-2
	c-0.8,1.1-1.6,2.1-2.5,3.2c18.8-1.7,37.7,0.5,56.4,2.6c-0.2-0.5-0.3-1-0.5-1.5c0.4,0.3,0.8,0.6,1.2,0.8
	C640.6,107.5,641.2,106.6,640.7,106z"/>
<path class="st0" d="M600.9,126.5c-1-1.1-2-2.1-3.1-3.1c-0.1-0.3-0.2-0.7-0.4-1c0.8,0.7,1.6,1.4,2.4,2.1c0.5,0.4,1.3-0.2,0.8-0.8
	c-1.5-1.6-3.1-3.3-4.6-4.9c-0.4-1-0.9-1.9-1.3-2.9c0.4,0.6,0.8,1.2,1.2,1.9c0.4,0.7,1.3,0.1,1-0.6c-1.5-3.2-3.2-6.1-5.4-8.8
	c1,0.8,2,1.6,3,2.3c0.5,0.3,0.9-0.4,0.6-0.7c-3-3-6-6-9.1-8.8c-0.1-0.1-0.2-0.1-0.3-0.1c-0.2-0.3-0.4-0.5-0.6-0.8
	c1.7,1.7,3.5,3.3,5.4,4.8c0.6,0.4,1.2-0.2,0.8-0.8c-1-1.2-2.1-2.4-3.3-3.5c1.3,0.5,2.7,0.9,4.1,1.2c0.6,0.1,1-0.7,0.4-1
	c-1.7-0.8-3.4-1.3-5.1-1.8l7.7-0.2c0-0.1,0-0.1-0.1-0.2c0.7,0.9,1.4,1.9,2.2,2.7c0.5,0.5,1.4-0.2,1-0.8c-2.6-3.9-5-7.9-6.8-12.3
	c-0.1-0.1-0.2-0.2-0.3-0.3c0-0.1-0.1-0.2-0.1-0.3c1.1,1.6,2.2,3.1,3.5,4.5c0.5,0.6,1.4-0.2,1.1-0.8c-1.7-3-3.7-5.9-5.6-8.8
	c0.5,0.3,1.2-0.3,0.9-0.9c-2.1-3.2-3.9-6.3-5.4-9.7c0.4,0.5,0.8,1,1.3,1.5c0.5,0.5,1.4-0.2,1-0.8c-1.4-2.2-2.7-4.6-3.8-7
	c1.7-0.5,3.3-1,5-1.5c0.4,0.5,0.8,1,1.3,1.4c0.6,0.5,1.6-0.2,1.1-0.9c-1.6-2.3-3.2-4.6-4.4-7.1c1,0.9,2,1.7,3,2.4
	c0.6,0.4,1.3-0.5,0.8-1c-1.9-1.8-3.6-3.7-5.4-5.6c0.3,0.3,0.6,0.6,0.9,0.9c0.5,0.5,1.1-0.2,0.7-0.7c-2.5-3-4.3-6.2-5.7-9.8
	c0.6,0.7,1.3,1.5,2,2.1c0.4,0.4,0.9-0.2,0.6-0.6c-2.1-2.4-4-5.1-5.6-8c-0.1-0.1-0.1-0.2-0.2-0.2c-0.2-0.6-0.5-1.2-0.7-1.8
	c-0.3,0.7-0.6,1.5-0.9,2.2c-1,0.9-1.7,2.4-2.6,3.4c-1.6,1.9-3.5,3.5-5.2,5.3c-0.6,0.6-0.1,1.7,0.6,1.3c0.6-0.4,1.2-0.8,1.8-1.3
	c-1.8,2.2-3.7,4.3-5.7,6.3c-0.5,0.5-0.1,1.5,0.5,1.1c1.3-0.9,2.6-1.9,3.8-3.1c-0.7,1.1-1.4,2.1-2.2,3.1c-2.4,2.1-4.9,4-7.5,5.9
	c-0.5,0.4-0.1,1.5,0.4,1.2c0.9-0.4,1.7-0.9,2.6-1.5c-0.8,0.9-1.7,1.8-2.6,2.7c-1.4,0.8-1.2,1.3-2.6,2.2c-0.5,0.3-0.1,1.2,0.4,1.1
	c0.1,0,0.1-0.1,0.2-0.1l6.8,0.5c-2,2.3-4,4.6-5.9,6.9c-0.3,0.3-0.1,0.9,0.2,1c-0.1,0.1-0.1,0.1-0.2,0.2c-0.5,0.6,0.3,1.4,0.9,0.9
	c0.5-0.4,1.1-0.9,1.7-1.4c-0.9,1.4-1.9,2.8-2.8,4.1c-0.5,0.7,0.3,1.7,0.9,1.1c0.3-0.4,0.6-0.7,0.9-1.1c-0.3,0.6-0.7,1.3-1,1.9
	c-2,2.4-4.2,4.6-6.6,6.4c-0.5,0.4-0.1,1.3,0.5,1c1.1-0.7,2.2-1.5,3.2-2.4c-0.8,1.3-1.6,2.7-2.5,3.9c-1.7,2.4-3.6,4.6-5.4,6.9
	c-0.5,0.6,0.2,1.8,0.8,1.3c0.3-0.2,0.5-0.4,0.7-0.7c2.7,0.4,5.3,0.7,8,1.1c-0.5,0.3-0.9,0.7-1.4,1.1c-0.6,0.6,0.2,1.4,0.9,1.1
	c0.6-0.3,1.3-0.5,2-0.8c-1.2,2-2.7,3.7-4.5,5c-0.4,0.3-0.1,1.1,0.3,0.9c0.8-0.4,1.5-1,2.2-1.5c-0.3,0.6-0.7,1.2-1,1.8
	c-1.6,2.1-3.3,3.9-5.3,5.5c-0.6,0.5-0.1,1.6,0.6,1.2c0.4-0.3,0.8-0.6,1.2-0.9c-0.3,0.5-0.6,0.9-0.9,1.4c-2.1,2-4.4,3.8-6.9,5.2
	c-0.6,0.3-0.1,1.4,0.4,1.2c0.4-0.1,0.7-0.3,1.1-0.4c-1.6,1.6-3.1,3.2-4.6,4.9c-0.5,0.6,0.2,1.6,0.7,1.1c0.8-0.6,1.5-1.3,2.2-2
	c-0.8,1.1-1.6,2.1-2.5,3.2c18.8-1.7,37.7,0.5,56.4,2.6c-0.2-0.5-0.3-1-0.5-1.5c0.4,0.3,0.8,0.6,1.2,0.8
	C600.8,127.9,601.4,127,600.9,126.5z"/>
<path class="st0" d="M658.9,103c-0.8-0.9-1.7-1.8-2.6-2.6c-0.1-0.3-0.2-0.5-0.3-0.8c0.6,0.6,1.3,1.2,2,1.8c0.4,0.4,1.1-0.2,0.6-0.6
	c-1.3-1.4-2.5-2.7-3.8-4c-0.4-0.8-0.7-1.6-1.1-2.4c0.3,0.5,0.6,1,1,1.5c0.3,0.5,1.1,0.1,0.8-0.5c-1.2-2.6-2.7-5.1-4.5-7.3
	c0.8,0.7,1.6,1.3,2.5,1.9c0.4,0.3,0.8-0.3,0.5-0.6c-2.4-2.5-5-5-7.5-7.3c-0.1-0.1-0.1-0.1-0.2-0.1c-0.2-0.2-0.3-0.4-0.5-0.7
	c1.5,1.4,2.9,2.8,4.5,4c0.5,0.4,1-0.2,0.6-0.6c-0.8-1-1.8-2-2.8-2.9c1.1,0.4,2.2,0.7,3.4,1c0.5,0.1,0.8-0.6,0.3-0.8
	c-1.4-0.6-2.8-1.1-4.2-1.5l6.4-0.2c0,0,0-0.1,0-0.1c0.6,0.8,1.2,1.5,1.9,2.3c0.4,0.4,1.2-0.1,0.8-0.7c-2.2-3.2-4.2-6.6-5.7-10.2
	c0-0.1-0.1-0.2-0.2-0.2c0-0.1-0.1-0.2-0.1-0.3c0.9,1.3,1.8,2.6,2.9,3.8c0.4,0.5,1.2-0.1,0.9-0.7c-1.4-2.5-3-4.9-4.6-7.3
	c0.4,0.2,1-0.3,0.7-0.7c-1.7-2.6-3.2-5.3-4.5-8.1c0.3,0.4,0.7,0.8,1,1.3c0.4,0.4,1.2-0.1,0.8-0.6c-1.2-1.9-2.3-3.8-3.2-5.8
	c1.4-0.4,2.8-0.8,4.2-1.2c0.3,0.4,0.7,0.8,1.1,1.2c0.5,0.4,1.3-0.2,0.9-0.7c-1.4-1.9-2.6-3.8-3.6-5.9c0.8,0.7,1.6,1.4,2.5,2
	c0.5,0.3,1-0.4,0.6-0.8c-1.5-1.5-3-3.1-4.4-4.7c0.3,0.3,0.5,0.5,0.8,0.8c0.4,0.4,0.9-0.2,0.6-0.6c-2.1-2.5-3.6-5.2-4.7-8.1
	c0.5,0.6,1.1,1.2,1.7,1.8c0.3,0.3,0.8-0.2,0.5-0.5c-1.8-2-3.4-4.3-4.7-6.6c0-0.1-0.1-0.1-0.2-0.2c-0.2-0.5-0.4-1-0.6-1.5
	c-0.2,0.6-0.5,1.2-0.7,1.8c-0.8,0.8-1.5,2-2.1,2.8c-1.3,1.6-2.9,2.9-4.3,4.4c-0.5,0.5-0.1,1.4,0.5,1.1c0.5-0.3,1-0.7,1.5-1.1
	c-1.5,1.8-3.1,3.6-4.8,5.2c-0.4,0.4-0.1,1.2,0.4,0.9c1.1-0.7,2.1-1.6,3.1-2.6c-0.6,0.9-1.2,1.8-1.8,2.6c-2,1.8-4.1,3.3-6.3,4.9
	c-0.4,0.3-0.1,1.2,0.3,1c0.7-0.4,1.4-0.8,2.2-1.2c-0.7,0.8-1.4,1.5-2.1,2.3c-1.2,0.7-1,1.1-2.2,1.8c-0.4,0.2-0.1,1,0.3,0.9
	c0.1,0,0.1,0,0.2-0.1l5.6,0.4c-1.6,1.9-3.3,3.8-4.9,5.7c-0.2,0.3-0.1,0.7,0.2,0.9c0,0.1-0.1,0.1-0.1,0.2c-0.4,0.5,0.2,1.1,0.7,0.7
	c0.4-0.4,0.9-0.7,1.4-1.1c-0.8,1.2-1.5,2.3-2.4,3.4c-0.4,0.6,0.2,1.4,0.7,0.9c0.3-0.3,0.5-0.6,0.8-0.9c-0.3,0.5-0.6,1-0.9,1.6
	c-1.7,2-3.5,3.8-5.5,5.3c-0.4,0.3,0,1.1,0.4,0.8c0.9-0.6,1.8-1.3,2.6-2c-0.7,1.1-1.3,2.2-2,3.2c-1.4,2-3,3.9-4.5,5.7
	c-0.4,0.5,0.1,1.5,0.7,1.1c0.2-0.2,0.4-0.4,0.6-0.6c2.2,0.3,4.4,0.6,6.6,0.9c-0.4,0.3-0.8,0.6-1.2,0.9c-0.5,0.5,0.1,1.2,0.7,0.9
	c0.5-0.2,1.1-0.5,1.6-0.7c-1,1.7-2.3,3.1-3.7,4.1c-0.3,0.2-0.1,0.9,0.3,0.7c0.7-0.4,1.3-0.8,1.9-1.3c-0.3,0.5-0.6,1-0.8,1.5
	c-1.3,1.7-2.8,3.3-4.4,4.6c-0.5,0.4-0.1,1.4,0.5,1c0.3-0.2,0.7-0.5,1-0.7c-0.2,0.4-0.5,0.8-0.7,1.2c-1.8,1.7-3.7,3.1-5.7,4.3
	c-0.5,0.3-0.1,1.2,0.3,1c0.3-0.1,0.6-0.2,0.9-0.4c-1.3,1.3-2.6,2.7-3.8,4.1c-0.4,0.5,0.1,1.3,0.6,1c0.6-0.5,1.2-1.1,1.9-1.6
	c-0.7,0.9-1.4,1.8-2.1,2.6c15.6-1.4,31.3,0.4,46.8,2.2c-0.1-0.4-0.3-0.8-0.4-1.2c0.3,0.2,0.6,0.5,1,0.7
	C658.8,104.3,659.2,103.5,658.9,103z"/>
<path class="st0" d="M612.5,95.8c-0.8-0.9-1.7-1.8-2.6-2.6c-0.1-0.3-0.2-0.5-0.3-0.8c0.6,0.6,1.3,1.2,2,1.8c0.4,0.4,1.1-0.2,0.6-0.6
	c-1.3-1.4-2.5-2.7-3.8-4c-0.4-0.8-0.7-1.6-1.1-2.4c0.3,0.5,0.6,1,1,1.5c0.3,0.5,1.1,0.1,0.8-0.5c-1.2-2.6-2.7-5.1-4.5-7.3
	c0.8,0.7,1.6,1.3,2.5,1.9c0.4,0.3,0.8-0.3,0.5-0.6c-2.4-2.5-5-5-7.5-7.3c-0.1-0.1-0.1-0.1-0.2-0.1c-0.2-0.2-0.3-0.4-0.5-0.7
	c1.5,1.4,2.9,2.8,4.5,4c0.5,0.4,1-0.2,0.6-0.6c-0.8-1-1.8-2-2.8-2.9c1.1,0.4,2.2,0.7,3.4,1c0.5,0.1,0.8-0.6,0.3-0.8
	c-1.4-0.6-2.8-1.1-4.2-1.5l6.4-0.2c0,0,0-0.1,0-0.1c0.6,0.8,1.2,1.5,1.9,2.3c0.4,0.4,1.2-0.1,0.8-0.7c-2.2-3.2-4.2-6.6-5.7-10.2
	c0-0.1-0.1-0.2-0.2-0.2c0-0.1-0.1-0.2-0.1-0.3c0.9,1.3,1.8,2.6,2.9,3.8c0.4,0.5,1.2-0.1,0.9-0.7c-1.4-2.5-3-4.9-4.6-7.3
	c0.4,0.2,1-0.3,0.7-0.7c-1.7-2.6-3.2-5.3-4.5-8.1c0.3,0.4,0.7,0.8,1,1.3c0.4,0.4,1.2-0.1,0.8-0.6c-1.2-1.9-2.3-3.8-3.2-5.8
	c1.4-0.4,2.8-0.8,4.2-1.2c0.3,0.4,0.7,0.8,1.1,1.2c0.5,0.4,1.3-0.2,0.9-0.7c-1.4-1.9-2.6-3.8-3.6-5.9c0.8,0.7,1.6,1.4,2.5,2
	c0.5,0.3,1.1-0.4,0.6-0.8c-1.5-1.5-3-3.1-4.4-4.7c0.3,0.3,0.5,0.5,0.8,0.8c0.4,0.4,0.9-0.2,0.6-0.6c-2.1-2.5-3.6-5.2-4.7-8.1
	c0.5,0.6,1.1,1.2,1.7,1.8c0.3,0.3,0.8-0.2,0.5-0.5c-1.8-2-3.4-4.3-4.7-6.6c-0.1-0.1-0.1-0.1-0.2-0.2c-0.2-0.5-0.4-1-0.6-1.5
	c-0.2,0.6-0.5,1.2-0.7,1.8c-0.8,0.8-1.5,2-2.1,2.8c-1.3,1.6-2.9,2.9-4.3,4.4c-0.5,0.5-0.1,1.4,0.5,1.1c0.5-0.3,1-0.7,1.5-1.1
	c-1.5,1.8-3.1,3.6-4.8,5.2c-0.4,0.4-0.1,1.2,0.4,0.9c1.1-0.7,2.1-1.6,3.1-2.6c-0.6,0.9-1.2,1.8-1.8,2.6c-2,1.8-4.1,3.3-6.3,4.9
	c-0.4,0.3-0.1,1.2,0.3,1c0.7-0.4,1.4-0.8,2.2-1.2c-0.7,0.8-1.4,1.5-2.1,2.3c-1.2,0.7-1,1.1-2.2,1.8c-0.4,0.2-0.1,1,0.3,0.9
	c0.1,0,0.1,0,0.2-0.1l5.6,0.4c-1.6,1.9-3.3,3.8-4.9,5.7c-0.2,0.3-0.1,0.7,0.2,0.9c0,0.1-0.1,0.1-0.1,0.2c-0.4,0.5,0.2,1.1,0.7,0.7
	c0.4-0.4,0.9-0.7,1.4-1.1c-0.8,1.2-1.5,2.3-2.4,3.4c-0.4,0.6,0.2,1.4,0.7,0.9c0.3-0.3,0.5-0.6,0.8-0.9c-0.3,0.5-0.6,1-0.9,1.6
	c-1.7,2-3.5,3.8-5.5,5.3c-0.4,0.3,0,1.1,0.4,0.8c0.9-0.6,1.8-1.3,2.6-2c-0.7,1.1-1.3,2.2-2,3.2c-1.4,2-3,3.9-4.5,5.7
	c-0.4,0.5,0.1,1.5,0.7,1.1c0.2-0.2,0.4-0.4,0.6-0.6c2.2,0.3,4.4,0.6,6.6,0.9c-0.4,0.3-0.8,0.6-1.2,0.9c-0.5,0.5,0.1,1.2,0.7,0.9
	c0.5-0.2,1.1-0.5,1.6-0.7c-1,1.7-2.3,3.1-3.7,4.1c-0.3,0.2-0.1,0.9,0.3,0.7c0.7-0.4,1.3-0.8,1.9-1.3c-0.3,0.5-0.6,1-0.8,1.5
	c-1.3,1.7-2.8,3.3-4.4,4.6c-0.5,0.4-0.1,1.4,0.5,1c0.3-0.2,0.7-0.5,1-0.7c-0.2,0.4-0.5,0.8-0.7,1.2c-1.8,1.7-3.7,3.1-5.7,4.3
	c-0.5,0.3-0.1,1.2,0.3,1c0.3-0.1,0.6-0.2,0.9-0.4c-1.3,1.3-2.6,2.7-3.8,4.1c-0.4,0.5,0.1,1.3,0.6,1c0.6-0.5,1.2-1.1,1.9-1.6
	c-0.7,0.9-1.4,1.8-2.1,2.6c15.6-1.4,31.3,0.4,46.8,2.2c-0.1-0.4-0.3-0.8-0.4-1.2c0.3,0.2,0.6,0.5,1,0.7
	C612.4,97.1,612.9,96.3,612.5,95.8z"/>
<path class="st0" d="M720.2,92.8c-1-1.1-2-2.1-3.1-3.1c-0.1-0.3-0.2-0.7-0.4-1c0.8,0.7,1.6,1.4,2.4,2.1c0.5,0.4,1.3-0.2,0.8-0.8
	c-1.5-1.6-3.1-3.3-4.6-4.9c-0.4-1-0.9-1.9-1.3-2.9c0.4,0.6,0.8,1.2,1.2,1.9c0.4,0.7,1.3,0.1,1-0.6c-1.5-3.2-3.2-6.1-5.4-8.8
	c1,0.8,2,1.6,3,2.3c0.5,0.3,0.9-0.4,0.6-0.7c-3-3-6-6-9.1-8.8c-0.1-0.1-0.2-0.1-0.3-0.1c-0.2-0.3-0.4-0.5-0.6-0.8
	c1.7,1.7,3.5,3.3,5.4,4.8c0.6,0.4,1.2-0.2,0.8-0.8c-1-1.2-2.1-2.4-3.3-3.5c1.3,0.5,2.7,0.9,4.1,1.2c0.6,0.1,1-0.7,0.4-1
	c-1.7-0.8-3.4-1.3-5.1-1.8l7.7-0.2c0-0.1,0-0.1-0.1-0.2c0.7,0.9,1.4,1.9,2.2,2.7c0.5,0.5,1.4-0.2,1-0.8c-2.6-3.9-5-7.9-6.8-12.3
	c-0.1-0.1-0.2-0.2-0.3-0.3c0-0.1-0.1-0.2-0.1-0.3c1.1,1.6,2.2,3.1,3.5,4.5c0.5,0.6,1.4-0.2,1.1-0.8c-1.7-3-3.7-5.9-5.6-8.8
	c0.5,0.3,1.2-0.3,0.9-0.9c-2.1-3.2-3.9-6.3-5.4-9.7c0.4,0.5,0.8,1,1.3,1.5c0.5,0.5,1.4-0.2,1-0.8c-1.4-2.2-2.7-4.6-3.8-7
	c1.7-0.5,3.3-1,5-1.5c0.4,0.5,0.8,1,1.3,1.4c0.6,0.5,1.6-0.2,1.1-0.9c-1.6-2.3-3.2-4.6-4.4-7.1c1,0.9,2,1.7,3,2.4
	c0.6,0.4,1.3-0.5,0.8-1c-1.9-1.8-3.6-3.7-5.4-5.6c0.3,0.3,0.6,0.6,0.9,0.9c0.5,0.5,1.1-0.2,0.7-0.7c-2.5-3-4.3-6.2-5.7-9.8
	c0.6,0.7,1.3,1.5,2,2.1c0.4,0.4,0.9-0.2,0.6-0.6c-2.1-2.4-4-5.1-5.6-8c-0.1-0.1-0.1-0.2-0.2-0.2c-0.2-0.6-0.5-1.2-0.7-1.8
	c-0.3,0.7-0.6,1.5-0.9,2.2c-1,0.9-1.7,2.4-2.6,3.4c-1.6,1.9-3.5,3.5-5.2,5.3c-0.6,0.6-0.1,1.7,0.6,1.3c0.6-0.4,1.2-0.8,1.8-1.3
	c-1.8,2.2-3.7,4.3-5.7,6.3c-0.5,0.5-0.1,1.5,0.5,1.1c1.3-0.9,2.6-1.9,3.8-3.1c-0.7,1.1-1.4,2.1-2.2,3.1c-2.4,2.1-4.9,4-7.5,5.9
	c-0.5,0.4-0.1,1.5,0.4,1.2c0.9-0.4,1.7-0.9,2.6-1.5c-0.8,0.9-1.7,1.8-2.6,2.7c-1.4,0.8-1.2,1.3-2.6,2.2c-0.5,0.3-0.1,1.2,0.4,1.1
	c0.1,0,0.1-0.1,0.2-0.1l6.8,0.5c-2,2.3-4,4.6-5.9,6.9c-0.3,0.3-0.1,0.9,0.2,1c-0.1,0.1-0.1,0.1-0.2,0.2c-0.5,0.6,0.3,1.4,0.9,0.9
	c0.5-0.4,1.1-0.9,1.7-1.4c-0.9,1.4-1.9,2.8-2.8,4.1c-0.5,0.7,0.3,1.7,0.9,1.1c0.3-0.4,0.6-0.7,0.9-1.1c-0.3,0.6-0.7,1.3-1,1.9
	c-2,2.4-4.2,4.6-6.6,6.4c-0.5,0.4-0.1,1.3,0.5,1c1.1-0.7,2.2-1.5,3.2-2.4c-0.8,1.3-1.6,2.7-2.5,3.9c-1.7,2.4-3.6,4.6-5.4,6.9
	c-0.5,0.6,0.2,1.8,0.8,1.3c0.3-0.2,0.5-0.4,0.7-0.7c2.7,0.4,5.3,0.7,8,1.1c-0.5,0.3-0.9,0.7-1.4,1.1c-0.6,0.6,0.2,1.4,0.9,1.1
	c0.6-0.3,1.3-0.5,2-0.8c-1.2,2-2.7,3.7-4.5,5c-0.4,0.3-0.1,1.1,0.3,0.9c0.8-0.4,1.5-1,2.2-1.5c-0.3,0.6-0.7,1.2-1,1.8
	c-1.6,2.1-3.3,3.9-5.3,5.5c-0.6,0.5-0.1,1.6,0.6,1.2c0.4-0.3,0.8-0.6,1.2-0.9c-0.3,0.5-0.6,0.9-0.9,1.4c-2.1,2-4.4,3.8-6.9,5.2
	c-0.6,0.3-0.1,1.4,0.4,1.2c0.4-0.1,0.7-0.3,1.1-0.4c-1.6,1.6-3.1,3.2-4.6,4.9c-0.5,0.6,0.2,1.6,0.7,1.1c0.8-0.6,1.5-1.3,2.2-2
	c-0.8,1.1-1.6,2.1-2.5,3.2c18.8-1.7,37.7,0.5,56.4,2.6c-0.2-0.5-0.3-1-0.5-1.5c0.4,0.3,0.8,0.6,1.2,0.8
	C720,94.2,720.6,93.3,720.2,92.8z"/>
<path class="st0" d="M834.2,91.8c-1-1.1-2-2.1-3.1-3.1c-0.1-0.3-0.2-0.7-0.4-1c0.8,0.7,1.6,1.4,2.4,2.1c0.5,0.4,1.3-0.2,0.8-0.8
	c-1.5-1.6-3.1-3.3-4.6-4.9c-0.4-1-0.9-1.9-1.3-2.9c0.4,0.6,0.8,1.2,1.2,1.9c0.4,0.7,1.3,0.1,1-0.6c-1.5-3.2-3.2-6.1-5.4-8.8
	c1,0.8,2,1.6,3,2.3c0.5,0.3,0.9-0.4,0.6-0.7c-3-3-6-6-9.1-8.8c-0.1-0.1-0.2-0.1-0.3-0.1c-0.2-0.3-0.4-0.5-0.6-0.8
	c1.7,1.7,3.5,3.3,5.4,4.8c0.6,0.4,1.2-0.2,0.8-0.8c-1-1.2-2.1-2.4-3.3-3.5c1.3,0.5,2.7,0.9,4.1,1.2c0.6,0.1,1-0.7,0.4-1
	c-1.7-0.8-3.4-1.3-5.1-1.8l7.7-0.2c0-0.1,0-0.1-0.1-0.2c0.7,0.9,1.4,1.9,2.2,2.7c0.5,0.5,1.4-0.2,1-0.8c-2.6-3.9-5-7.9-6.8-12.3
	c-0.1-0.1-0.2-0.2-0.3-0.3c0-0.1-0.1-0.2-0.1-0.3c1.1,1.6,2.2,3.1,3.5,4.5c0.5,0.6,1.4-0.2,1.1-0.8c-1.7-3-3.7-5.9-5.6-8.8
	c0.5,0.3,1.2-0.3,0.9-0.9c-2.1-3.2-3.9-6.3-5.4-9.7c0.4,0.5,0.8,1,1.3,1.5c0.5,0.5,1.4-0.2,1-0.8c-1.4-2.2-2.7-4.6-3.8-7
	c1.7-0.5,3.3-1,5-1.5c0.4,0.5,0.8,1,1.3,1.4c0.6,0.5,1.6-0.2,1.1-0.9c-1.6-2.3-3.2-4.6-4.4-7.1c1,0.9,2,1.7,3,2.4
	c0.6,0.4,1.3-0.5,0.8-1c-1.9-1.8-3.6-3.7-5.4-5.6c0.3,0.3,0.6,0.6,0.9,0.9c0.5,0.5,1.1-0.2,0.7-0.7c-2.5-3-4.3-6.2-5.7-9.8
	c0.6,0.7,1.3,1.5,2,2.1c0.4,0.4,0.9-0.2,0.6-0.6c-2.1-2.4-4-5.1-5.6-8c-0.1-0.1-0.1-0.2-0.2-0.2c-0.2-0.6-0.5-1.2-0.7-1.8
	c-0.3,0.7-0.6,1.5-0.9,2.2c-1,0.9-1.7,2.4-2.6,3.4c-1.6,1.9-3.5,3.5-5.2,5.3c-0.6,0.6-0.1,1.7,0.6,1.3c0.6-0.4,1.2-0.8,1.8-1.3
	c-1.8,2.2-3.7,4.3-5.7,6.3c-0.5,0.5-0.1,1.5,0.5,1.1c1.3-0.9,2.6-1.9,3.8-3.1c-0.7,1.1-1.4,2.1-2.2,3.1c-2.4,2.1-4.9,4-7.5,5.9
	c-0.5,0.4-0.1,1.5,0.4,1.2c0.9-0.4,1.7-0.9,2.6-1.5c-0.8,0.9-1.7,1.8-2.6,2.7c-1.4,0.8-1.2,1.3-2.6,2.2c-0.5,0.3-0.1,1.2,0.4,1.1
	c0.1,0,0.1-0.1,0.2-0.1l6.8,0.5c-2,2.3-4,4.6-5.9,6.9c-0.3,0.3-0.1,0.9,0.2,1c-0.1,0.1-0.1,0.1-0.2,0.2c-0.5,0.6,0.3,1.4,0.9,0.9
	c0.5-0.4,1.1-0.9,1.7-1.4c-0.9,1.4-1.9,2.8-2.8,4.1c-0.5,0.7,0.3,1.7,0.9,1.1c0.3-0.4,0.6-0.7,0.9-1.1c-0.3,0.6-0.7,1.3-1,1.9
	c-2,2.4-4.2,4.6-6.6,6.4c-0.5,0.4-0.1,1.3,0.5,1c1.1-0.7,2.2-1.5,3.2-2.4c-0.8,1.3-1.6,2.7-2.5,3.9c-1.7,2.4-3.6,4.6-5.4,6.9
	c-0.5,0.6,0.2,1.8,0.8,1.3c0.3-0.2,0.5-0.4,0.7-0.7c2.7,0.4,5.3,0.7,8,1.1c-0.5,0.3-0.9,0.7-1.4,1.1c-0.6,0.6,0.2,1.4,0.9,1.1
	c0.6-0.3,1.3-0.5,2-0.8c-1.2,2-2.7,3.7-4.5,5c-0.4,0.3-0.1,1.1,0.3,0.9c0.8-0.4,1.5-1,2.2-1.5c-0.3,0.6-0.7,1.2-1,1.8
	c-1.6,2.1-3.3,3.9-5.3,5.5c-0.6,0.5-0.1,1.6,0.6,1.2c0.4-0.3,0.8-0.6,1.2-0.9c-0.3,0.5-0.6,0.9-0.9,1.4c-2.1,2-4.4,3.8-6.9,5.2
	c-0.6,0.3-0.1,1.4,0.4,1.2c0.4-0.1,0.7-0.3,1.1-0.4c-1.6,1.6-3.1,3.2-4.6,4.9c-0.5,0.6,0.2,1.6,0.7,1.1c0.8-0.6,1.5-1.3,2.2-2
	c-0.8,1.1-1.6,2.1-2.5,3.2c18.8-1.7,37.7,0.5,56.4,2.6c-0.2-0.5-0.3-1-0.5-1.5c0.4,0.3,0.8,0.6,1.2,0.8
	C834.1,93.2,834.7,92.3,834.2,91.8z"/>
<path class="st0" d="M768.2,98.6c-0.8-1-1.8-1.9-2.8-2.7c-0.1-0.3-0.2-0.6-0.3-0.9c0.7,0.6,1.4,1.3,2.1,1.9c0.5,0.4,1.1-0.2,0.7-0.7
	c-1.3-1.4-2.7-2.9-4-4.3c-0.4-0.9-0.8-1.7-1.2-2.5c0.3,0.5,0.7,1.1,1,1.6c0.3,0.6,1.1,0.1,0.9-0.5c-1.3-2.8-2.8-5.3-4.7-7.7
	c0.8,0.7,1.7,1.4,2.6,2c0.4,0.3,0.8-0.3,0.5-0.7c-2.6-2.6-5.2-5.2-7.9-7.7c-0.1-0.1-0.2-0.1-0.2-0.1c-0.2-0.2-0.3-0.5-0.5-0.7
	c1.5,1.5,3.1,2.9,4.7,4.2c0.5,0.4,1.1-0.2,0.7-0.7c-0.9-1.1-1.9-2.1-2.9-3c1.2,0.4,2.3,0.8,3.5,1.1c0.5,0.1,0.9-0.6,0.4-0.9
	c-1.5-0.7-2.9-1.2-4.5-1.6l6.7-0.2c0,0,0-0.1,0-0.1c0.6,0.8,1.2,1.6,2,2.4c0.4,0.5,1.3-0.1,0.9-0.7c-2.3-3.4-4.4-6.9-6-10.7
	c-0.1-0.1-0.1-0.2-0.2-0.3c0-0.1-0.1-0.2-0.1-0.3c0.9,1.4,1.9,2.7,3.1,4c0.5,0.5,1.3-0.1,0.9-0.7c-1.5-2.6-3.2-5.1-4.9-7.7
	c0.4,0.2,1.1-0.3,0.8-0.8c-1.8-2.8-3.4-5.5-4.7-8.5c0.3,0.5,0.7,0.9,1.1,1.3c0.4,0.5,1.2-0.1,0.9-0.7c-1.2-2-2.4-4-3.3-6.1
	c1.5-0.4,2.9-0.9,4.4-1.3c0.4,0.4,0.7,0.8,1.1,1.2c0.5,0.5,1.4-0.2,1-0.7c-1.4-2-2.8-4-3.8-6.2c0.8,0.8,1.7,1.5,2.6,2.1
	c0.5,0.4,1.1-0.4,0.7-0.9c-1.6-1.6-3.2-3.3-4.7-4.9c0.3,0.3,0.5,0.6,0.8,0.8c0.4,0.4,1-0.2,0.6-0.6c-2.2-2.6-3.8-5.4-5-8.6
	c0.5,0.6,1.1,1.3,1.8,1.9c0.3,0.3,0.8-0.2,0.5-0.5c-1.9-2.1-3.5-4.5-4.9-7c-0.1-0.1-0.1-0.1-0.2-0.2c-0.2-0.5-0.4-1-0.6-1.6
	c-0.3,0.6-0.5,1.3-0.8,1.9c-0.8,0.8-1.5,2.1-2.3,3c-1.4,1.7-3,3.1-4.5,4.6c-0.5,0.5-0.1,1.5,0.5,1.1c0.6-0.3,1.1-0.7,1.6-1.1
	c-1.6,1.9-3.2,3.8-5,5.5c-0.4,0.4-0.1,1.3,0.5,1c1.1-0.8,2.2-1.7,3.3-2.7c-0.6,0.9-1.2,1.9-1.9,2.7c-2.1,1.8-4.3,3.5-6.6,5.2
	c-0.4,0.3-0.1,1.3,0.4,1.1c0.8-0.4,1.5-0.8,2.3-1.3c-0.7,0.8-1.5,1.6-2.2,2.4c-1.2,0.7-1.1,1.1-2.3,1.9c-0.4,0.3-0.1,1,0.3,0.9
	c0.1,0,0.1,0,0.2-0.1l5.9,0.4c-1.7,2-3.5,4-5.2,6c-0.3,0.3-0.1,0.8,0.2,0.9c0,0.1-0.1,0.1-0.1,0.2c-0.5,0.5,0.2,1.2,0.8,0.8
	c0.5-0.4,1-0.8,1.5-1.2c-0.8,1.2-1.6,2.4-2.5,3.6c-0.5,0.6,0.2,1.5,0.7,0.9c0.3-0.3,0.5-0.6,0.8-0.9c-0.3,0.6-0.6,1.1-0.9,1.7
	c-1.7,2.1-3.7,4-5.8,5.6c-0.4,0.3,0,1.2,0.4,0.9c1-0.6,1.9-1.4,2.8-2.1c-0.7,1.2-1.4,2.3-2.1,3.4c-1.5,2.1-3.1,4.1-4.7,6.1
	c-0.5,0.6,0.2,1.6,0.7,1.1c0.2-0.2,0.4-0.4,0.6-0.6c2.3,0.3,4.6,0.6,7,1c-0.4,0.3-0.8,0.6-1.2,1c-0.5,0.5,0.1,1.2,0.7,1
	c0.5-0.2,1.1-0.5,1.7-0.7c-1.1,1.8-2.4,3.3-3.9,4.4c-0.3,0.2-0.1,1,0.3,0.8c0.7-0.4,1.4-0.8,2-1.3c-0.3,0.5-0.6,1-0.9,1.6
	c-1.4,1.8-2.9,3.4-4.6,4.8c-0.5,0.4-0.1,1.4,0.5,1.1c0.4-0.2,0.7-0.5,1.1-0.8c-0.3,0.4-0.5,0.8-0.8,1.2c-1.8,1.8-3.8,3.3-6.1,4.5
	c-0.5,0.3-0.1,1.2,0.4,1.1c0.3-0.1,0.6-0.2,1-0.4c-1.4,1.4-2.7,2.8-4,4.3c-0.4,0.5,0.1,1.4,0.6,1c0.7-0.6,1.3-1.1,2-1.7
	c-0.7,0.9-1.4,1.9-2.2,2.8c16.4-1.5,33,0.4,49.4,2.3c-0.1-0.4-0.3-0.9-0.4-1.3c0.3,0.2,0.7,0.5,1,0.7
	C768.1,99.9,768.6,99.1,768.2,98.6z"/>
<path class="st0" d="M413.5,101.3c-1-1.1-2-2.1-3.1-3.1c-0.1-0.3-0.2-0.7-0.4-1c0.8,0.7,1.6,1.4,2.4,2.1c0.5,0.4,1.3-0.2,0.8-0.8
	c-1.5-1.6-3.1-3.3-4.6-4.9c-0.4-1-0.9-1.9-1.3-2.9c0.4,0.6,0.8,1.2,1.2,1.9c0.4,0.7,1.3,0.1,1-0.6c-1.5-3.2-3.2-6.1-5.4-8.8
	c1,0.8,2,1.6,3,2.3c0.5,0.3,0.9-0.4,0.6-0.7c-3-3-6-6-9.1-8.8c-0.1-0.1-0.2-0.1-0.3-0.1c-0.2-0.3-0.4-0.5-0.6-0.8
	c1.7,1.7,3.5,3.3,5.4,4.8c0.6,0.4,1.2-0.2,0.8-0.8c-1-1.2-2.1-2.4-3.3-3.5c1.3,0.5,2.7,0.9,4.1,1.2c0.6,0.1,1-0.7,0.4-1
	c-1.7-0.8-3.4-1.3-5.1-1.8l7.7-0.2c0-0.1,0-0.1-0.1-0.2c0.7,0.9,1.4,1.9,2.2,2.7c0.5,0.5,1.4-0.2,1-0.8c-2.6-3.9-5-7.9-6.8-12.3
	c-0.1-0.1-0.2-0.2-0.3-0.3c0-0.1-0.1-0.2-0.1-0.3c1.1,1.6,2.2,3.1,3.5,4.5c0.5,0.6,1.4-0.2,1.1-0.8c-1.7-3-3.7-5.9-5.6-8.8
	c0.5,0.3,1.2-0.3,0.9-0.9c-2.1-3.2-3.9-6.3-5.4-9.7c0.4,0.5,0.8,1,1.3,1.5c0.5,0.5,1.4-0.2,1-0.8c-1.4-2.2-2.7-4.6-3.8-7
	c1.7-0.5,3.3-1,5-1.5c0.4,0.5,0.8,1,1.3,1.4c0.6,0.5,1.6-0.2,1.1-0.9c-1.6-2.3-3.2-4.6-4.4-7.1c1,0.9,2,1.7,3,2.4
	c0.6,0.4,1.3-0.5,0.8-1c-1.9-1.8-3.6-3.7-5.4-5.6c0.3,0.3,0.6,0.6,0.9,0.9c0.5,0.5,1.1-0.2,0.7-0.7c-2.5-3-4.3-6.2-5.7-9.8
	c0.6,0.7,1.3,1.5,2,2.1c0.4,0.4,0.9-0.2,0.6-0.6c-2.1-2.4-4-5.1-5.6-8c-0.1-0.1-0.1-0.2-0.2-0.2c-0.2-0.6-0.5-1.2-0.7-1.8
	c-0.3,0.7-0.6,1.5-0.9,2.2c-1,0.9-1.7,2.4-2.6,3.4c-1.6,1.9-3.5,3.5-5.2,5.3c-0.6,0.6-0.1,1.7,0.6,1.3c0.6-0.4,1.2-0.8,1.8-1.3
	c-1.8,2.2-3.7,4.3-5.7,6.3c-0.5,0.5-0.1,1.5,0.5,1.1c1.3-0.9,2.6-1.9,3.8-3.1c-0.7,1.1-1.4,2.1-2.2,3.1c-2.4,2.1-4.9,4-7.5,5.9
	c-0.5,0.4-0.1,1.5,0.4,1.2c0.9-0.4,1.7-0.9,2.6-1.5c-0.8,0.9-1.7,1.8-2.6,2.7c-1.4,0.8-1.2,1.3-2.6,2.2c-0.5,0.3-0.1,1.2,0.4,1.1
	c0.1,0,0.1-0.1,0.2-0.1l6.8,0.5c-2,2.3-4,4.6-5.9,6.9c-0.3,0.3-0.1,0.9,0.2,1c-0.1,0.1-0.1,0.1-0.2,0.2c-0.5,0.6,0.3,1.4,0.9,0.9
	c0.5-0.4,1.1-0.9,1.7-1.4c-0.9,1.4-1.9,2.8-2.8,4.1c-0.5,0.7,0.3,1.7,0.9,1.1c0.3-0.4,0.6-0.7,0.9-1.1c-0.3,0.6-0.7,1.3-1,1.9
	c-2,2.4-4.2,4.6-6.6,6.4c-0.5,0.4-0.1,1.3,0.5,1c1.1-0.7,2.2-1.5,3.2-2.4c-0.8,1.3-1.6,2.7-2.5,3.9c-1.7,2.4-3.6,4.6-5.4,6.9
	c-0.5,0.6,0.2,1.8,0.8,1.3c0.3-0.2,0.5-0.4,0.7-0.7c2.7,0.4,5.3,0.7,8,1.1c-0.5,0.3-0.9,0.7-1.4,1.1c-0.6,0.6,0.2,1.4,0.9,1.1
	c0.6-0.3,1.3-0.5,2-0.8c-1.2,2-2.7,3.7-4.5,5c-0.4,0.3-0.1,1.1,0.3,0.9c0.8-0.4,1.5-1,2.2-1.5c-0.3,0.6-0.7,1.2-1,1.8
	c-1.6,2.1-3.3,3.9-5.3,5.5c-0.6,0.5-0.1,1.6,0.6,1.2c0.4-0.3,0.8-0.6,1.2-0.9c-0.3,0.5-0.6,0.9-0.9,1.4c-2.1,2-4.4,3.8-6.9,5.2
	c-0.6,0.3-0.1,1.4,0.4,1.2c0.4-0.1,0.7-0.3,1.1-0.4c-1.6,1.6-3.1,3.2-4.6,4.9c-0.5,0.6,0.2,1.6,0.7,1.1c0.8-0.6,1.5-1.3,2.2-2
	c-0.8,1.1-1.6,2.1-2.5,3.2c18.8-1.7,37.7,0.5,56.4,2.6c-0.2-0.5-0.3-1-0.5-1.5c0.4,0.3,0.8,0.6,1.2,0.8
	C413.4,102.8,414,101.9,413.5,101.3z"/>
<path class="st0" d="M469.9,108c-1-1.1-2-2.1-3.1-3.1c-0.1-0.3-0.2-0.7-0.4-1c0.8,0.7,1.6,1.4,2.4,2.1c0.5,0.4,1.3-0.2,0.8-0.8
	c-1.5-1.6-3.1-3.3-4.6-4.9c-0.4-1-0.9-1.9-1.3-2.9c0.4,0.6,0.8,1.2,1.2,1.9c0.4,0.7,1.3,0.1,1-0.6c-1.5-3.2-3.2-6.1-5.4-8.8
	c1,0.8,2,1.6,3,2.3c0.5,0.3,0.9-0.4,0.6-0.7c-3-3-6-6-9.1-8.8c-0.1-0.1-0.2-0.1-0.3-0.1c-0.2-0.3-0.4-0.5-0.6-0.8
	c1.7,1.7,3.5,3.3,5.4,4.8c0.6,0.4,1.2-0.2,0.8-0.8c-1-1.2-2.1-2.4-3.3-3.5c1.3,0.5,2.7,0.9,4.1,1.2c0.6,0.1,1-0.7,0.4-1
	c-1.7-0.8-3.4-1.3-5.1-1.8l7.7-0.2c0-0.1,0-0.1-0.1-0.2c0.7,0.9,1.4,1.9,2.2,2.7c0.5,0.5,1.4-0.2,1-0.8c-2.6-3.9-5-7.9-6.8-12.3
	c-0.1-0.1-0.2-0.2-0.3-0.3c0-0.1-0.1-0.2-0.1-0.3c1.1,1.6,2.2,3.1,3.5,4.5c0.5,0.6,1.4-0.2,1.1-0.8c-1.7-3-3.7-5.9-5.6-8.8
	c0.5,0.3,1.2-0.3,0.9-0.9c-2.1-3.2-3.9-6.3-5.4-9.7c0.4,0.5,0.8,1,1.3,1.5c0.5,0.5,1.4-0.2,1-0.8c-1.4-2.2-2.7-4.6-3.8-7
	c1.7-0.5,3.3-1,5-1.5c0.4,0.5,0.8,1,1.3,1.4c0.6,0.5,1.6-0.2,1.1-0.9c-1.6-2.3-3.2-4.6-4.4-7.1c1,0.9,2,1.7,3,2.4
	c0.6,0.4,1.3-0.5,0.8-1c-1.9-1.8-3.6-3.7-5.4-5.6c0.3,0.3,0.6,0.6,0.9,0.9c0.5,0.5,1.1-0.2,0.7-0.7c-2.5-3-4.3-6.2-5.7-9.8
	c0.6,0.7,1.3,1.5,2,2.1c0.4,0.4,0.9-0.2,0.6-0.6c-2.1-2.4-4-5.1-5.6-8c-0.1-0.1-0.1-0.2-0.2-0.2c-0.2-0.6-0.5-1.2-0.7-1.8
	c-0.3,0.7-0.6,1.5-0.9,2.2c-1,0.9-1.7,2.4-2.6,3.4c-1.6,1.9-3.5,3.5-5.2,5.3c-0.6,0.6-0.1,1.7,0.6,1.3c0.6-0.4,1.2-0.8,1.8-1.3
	c-1.8,2.2-3.7,4.3-5.7,6.3c-0.5,0.5-0.1,1.5,0.5,1.1c1.3-0.9,2.6-1.9,3.8-3.1c-0.7,1.1-1.4,2.1-2.2,3.1c-2.4,2.1-4.9,4-7.5,5.9
	c-0.5,0.4-0.1,1.5,0.4,1.2c0.9-0.4,1.7-0.9,2.6-1.5c-0.8,0.9-1.7,1.8-2.6,2.7c-1.4,0.8-1.2,1.3-2.6,2.2c-0.5,0.3-0.1,1.2,0.4,1.1
	c0.1,0,0.1-0.1,0.2-0.1l6.8,0.5c-2,2.3-4,4.6-5.9,6.9c-0.3,0.3-0.1,0.9,0.2,1c-0.1,0.1-0.1,0.1-0.2,0.2c-0.5,0.6,0.3,1.4,0.9,0.9
	c0.5-0.4,1.1-0.9,1.7-1.4c-0.9,1.4-1.9,2.8-2.8,4.1c-0.5,0.7,0.3,1.7,0.9,1.1c0.3-0.4,0.6-0.7,0.9-1.1c-0.3,0.6-0.7,1.3-1,1.9
	c-2,2.4-4.2,4.6-6.6,6.4c-0.5,0.4-0.1,1.3,0.5,1c1.1-0.7,2.2-1.5,3.2-2.4c-0.8,1.3-1.6,2.7-2.5,3.9c-1.7,2.4-3.6,4.6-5.4,6.9
	c-0.5,0.6,0.2,1.8,0.8,1.3c0.3-0.2,0.5-0.4,0.7-0.7c2.7,0.4,5.3,0.7,8,1.1c-0.5,0.3-0.9,0.7-1.4,1.1c-0.6,0.6,0.2,1.4,0.9,1.1
	c0.6-0.3,1.3-0.5,2-0.8c-1.2,2-2.7,3.7-4.5,5c-0.4,0.3-0.1,1.1,0.3,0.9c0.8-0.4,1.5-1,2.2-1.5c-0.3,0.6-0.7,1.2-1,1.8
	c-1.6,2.1-3.3,3.9-5.3,5.5c-0.6,0.5-0.1,1.6,0.6,1.2c0.4-0.3,0.8-0.6,1.2-0.9c-0.3,0.5-0.6,0.9-0.9,1.4c-2.1,2-4.4,3.8-6.9,5.2
	c-0.6,0.3-0.1,1.4,0.4,1.2c0.4-0.1,0.7-0.3,1.1-0.4c-1.6,1.6-3.1,3.2-4.6,4.9c-0.5,0.6,0.2,1.6,0.7,1.1c0.8-0.6,1.5-1.3,2.2-2
	c-0.8,1.1-1.6,2.1-2.5,3.2c18.8-1.7,37.7,0.5,56.4,2.6c-0.2-0.5-0.3-1-0.5-1.5c0.4,0.3,0.8,0.6,1.2,0.8
	C469.7,109.5,470.3,108.6,469.9,108z"/>
<path class="st0" d="M523.2,93.7c-1-1.1-2-2.1-3.1-3.1c-0.1-0.3-0.2-0.7-0.4-1c0.8,0.7,1.6,1.4,2.4,2.1c0.5,0.4,1.3-0.2,0.8-0.8
	c-1.5-1.6-3.1-3.3-4.6-4.9c-0.4-1-0.9-1.9-1.3-2.9c0.4,0.6,0.8,1.2,1.2,1.9c0.4,0.7,1.3,0.1,1-0.6c-1.5-3.2-3.2-6.1-5.4-8.8
	c1,0.8,2,1.6,3,2.3c0.5,0.3,0.9-0.4,0.6-0.7c-3-3-6-6-9.1-8.8c-0.1-0.1-0.2-0.1-0.3-0.1c-0.2-0.3-0.4-0.5-0.6-0.8
	c1.7,1.7,3.5,3.3,5.4,4.8c0.6,0.4,1.2-0.2,0.8-0.8c-1-1.2-2.1-2.4-3.3-3.5c1.3,0.5,2.7,0.9,4.1,1.2c0.6,0.1,1-0.7,0.4-1
	c-1.7-0.8-3.4-1.3-5.1-1.8l7.7-0.2c0-0.1,0-0.1-0.1-0.2c0.7,0.9,1.4,1.9,2.2,2.7c0.5,0.5,1.4-0.2,1-0.8c-2.6-3.9-5-7.9-6.8-12.3
	c-0.1-0.1-0.2-0.2-0.3-0.3c0-0.1-0.1-0.2-0.1-0.3c1.1,1.6,2.2,3.1,3.5,4.5c0.5,0.6,1.4-0.2,1.1-0.8c-1.7-3-3.7-5.9-5.6-8.8
	c0.5,0.3,1.2-0.3,0.9-0.9c-2.1-3.2-3.9-6.3-5.4-9.7c0.4,0.5,0.8,1,1.3,1.5c0.5,0.5,1.4-0.2,1-0.8c-1.4-2.2-2.7-4.6-3.8-7
	c1.7-0.5,3.3-1,5-1.5c0.4,0.5,0.8,1,1.3,1.4c0.6,0.5,1.6-0.2,1.1-0.9c-1.6-2.3-3.2-4.6-4.4-7.1c1,0.9,2,1.7,3,2.4
	c0.6,0.4,1.3-0.5,0.8-1c-1.9-1.8-3.6-3.7-5.4-5.6c0.3,0.3,0.6,0.6,0.9,0.9c0.5,0.5,1.1-0.2,0.7-0.7c-2.5-3-4.3-6.2-5.7-9.8
	c0.6,0.7,1.3,1.5,2,2.1c0.4,0.4,0.9-0.2,0.6-0.6c-2.1-2.4-4-5.1-5.6-8c-0.1-0.1-0.1-0.2-0.2-0.2c-0.2-0.6-0.5-1.2-0.7-1.8
	c-0.3,0.7-0.6,1.5-0.9,2.2c-1,0.9-1.7,2.4-2.6,3.4c-1.6,1.9-3.5,3.5-5.2,5.3c-0.6,0.6-0.1,1.7,0.6,1.3c0.6-0.4,1.2-0.8,1.8-1.3
	c-1.8,2.2-3.7,4.3-5.7,6.3c-0.5,0.5-0.1,1.5,0.5,1.1c1.3-0.9,2.6-1.9,3.8-3.1c-0.7,1.1-1.4,2.1-2.2,3.1c-2.4,2.1-4.9,4-7.5,5.9
	c-0.5,0.4-0.1,1.5,0.4,1.2c0.9-0.4,1.7-0.9,2.6-1.5c-0.8,0.9-1.7,1.8-2.6,2.7c-1.4,0.8-1.2,1.3-2.6,2.2c-0.5,0.3-0.1,1.2,0.4,1.1
	c0.1,0,0.1-0.1,0.2-0.1l6.8,0.5c-2,2.3-4,4.6-5.9,6.9c-0.3,0.3-0.1,0.9,0.2,1c-0.1,0.1-0.1,0.1-0.2,0.2c-0.5,0.6,0.3,1.4,0.9,0.9
	c0.5-0.4,1.1-0.9,1.7-1.4c-0.9,1.4-1.9,2.8-2.8,4.1c-0.5,0.7,0.3,1.7,0.9,1.1c0.3-0.4,0.6-0.7,0.9-1.1c-0.3,0.6-0.7,1.3-1,1.9
	c-2,2.4-4.2,4.6-6.6,6.4c-0.5,0.4-0.1,1.3,0.5,1c1.1-0.7,2.2-1.5,3.2-2.4c-0.8,1.3-1.6,2.7-2.5,3.9c-1.7,2.4-3.6,4.6-5.4,6.9
	c-0.5,0.6,0.2,1.8,0.8,1.3c0.3-0.2,0.5-0.4,0.7-0.7c2.7,0.4,5.3,0.7,8,1.1c-0.5,0.3-0.9,0.7-1.4,1.1c-0.6,0.6,0.2,1.4,0.9,1.1
	c0.6-0.3,1.3-0.5,2-0.8c-1.2,2-2.7,3.7-4.5,5c-0.4,0.3-0.1,1.1,0.3,0.9c0.8-0.4,1.5-1,2.2-1.5c-0.3,0.6-0.7,1.2-1,1.8
	c-1.6,2.1-3.3,3.9-5.3,5.5c-0.6,0.5-0.1,1.6,0.6,1.2c0.4-0.3,0.8-0.6,1.2-0.9c-0.3,0.5-0.6,0.9-0.9,1.4c-2.1,2-4.4,3.8-6.9,5.2
	c-0.6,0.3-0.1,1.4,0.4,1.2c0.4-0.1,0.7-0.3,1.1-0.4c-1.6,1.6-3.1,3.2-4.6,4.9c-0.5,0.6,0.2,1.6,0.7,1.1c0.8-0.6,1.5-1.3,2.2-2
	c-0.8,1.1-1.6,2.1-2.5,3.2c18.8-1.7,37.7,0.5,56.4,2.6c-0.2-0.5-0.3-1-0.5-1.5c0.4,0.3,0.8,0.6,1.2,0.8
	C523.1,95.1,523.6,94.2,523.2,93.7z"/>
<path class="st0" d="M582.5,103.3c-1-1.1-2-2.1-3.1-3.1c-0.1-0.3-0.2-0.7-0.4-1c0.8,0.7,1.6,1.4,2.4,2.1c0.5,0.4,1.3-0.2,0.8-0.8
	c-1.5-1.6-3.1-3.3-4.6-4.9c-0.4-1-0.9-1.9-1.3-2.9c0.4,0.6,0.8,1.2,1.2,1.9c0.4,0.7,1.3,0.1,1-0.6c-1.5-3.2-3.2-6.1-5.4-8.8
	c1,0.8,2,1.6,3,2.3c0.5,0.3,0.9-0.4,0.6-0.7c-3-3-6-6-9.1-8.8c-0.1-0.1-0.2-0.1-0.3-0.1c-0.2-0.3-0.4-0.5-0.6-0.8
	c1.7,1.7,3.5,3.3,5.4,4.8c0.6,0.4,1.2-0.2,0.8-0.8c-1-1.2-2.1-2.4-3.3-3.5c1.3,0.5,2.7,0.9,4.1,1.2c0.6,0.1,1-0.7,0.4-1
	c-1.7-0.8-3.4-1.3-5.1-1.8l7.7-0.2c0-0.1,0-0.1-0.1-0.2c0.7,0.9,1.4,1.9,2.2,2.7c0.5,0.5,1.4-0.2,1-0.8c-2.6-3.9-5-7.9-6.8-12.3
	c-0.1-0.1-0.2-0.2-0.3-0.3c0-0.1-0.1-0.2-0.1-0.3c1.1,1.6,2.2,3.1,3.5,4.5c0.5,0.6,1.4-0.2,1.1-0.8c-1.7-3-3.7-5.9-5.6-8.8
	c0.5,0.3,1.2-0.3,0.9-0.9c-2.1-3.2-3.9-6.3-5.4-9.7c0.4,0.5,0.8,1,1.3,1.5c0.5,0.5,1.4-0.2,1-0.8c-1.4-2.2-2.7-4.6-3.8-7
	c1.7-0.5,3.3-1,5-1.5c0.4,0.5,0.8,1,1.3,1.4c0.6,0.5,1.6-0.2,1.1-0.9c-1.6-2.3-3.2-4.6-4.4-7.1c1,0.9,2,1.7,3,2.4
	c0.6,0.4,1.3-0.5,0.8-1c-1.9-1.8-3.6-3.7-5.4-5.6c0.3,0.3,0.6,0.6,0.9,0.9c0.5,0.5,1.1-0.2,0.7-0.7c-2.5-3-4.3-6.2-5.7-9.8
	c0.6,0.7,1.3,1.5,2,2.1c0.4,0.4,0.9-0.2,0.6-0.6c-2.1-2.4-4-5.1-5.6-8c-0.1-0.1-0.1-0.2-0.2-0.2c-0.2-0.6-0.5-1.2-0.7-1.8
	c-0.3,0.7-0.6,1.5-0.9,2.2c-1,0.9-1.7,2.4-2.6,3.4c-1.6,1.9-3.5,3.5-5.2,5.3c-0.6,0.6-0.1,1.7,0.6,1.3c0.6-0.4,1.2-0.8,1.8-1.3
	c-1.8,2.2-3.7,4.3-5.7,6.3c-0.5,0.5-0.1,1.5,0.5,1.1c1.3-0.9,2.6-1.9,3.8-3.1c-0.7,1.1-1.4,2.1-2.2,3.1c-2.4,2.1-4.9,4-7.5,5.9
	c-0.5,0.4-0.1,1.5,0.4,1.2c0.9-0.4,1.7-0.9,2.6-1.5c-0.8,0.9-1.7,1.8-2.6,2.7c-1.4,0.8-1.2,1.3-2.6,2.2c-0.5,0.3-0.1,1.2,0.4,1.1
	c0.1,0,0.1-0.1,0.2-0.1l6.8,0.5c-2,2.3-4,4.6-5.9,6.9c-0.3,0.3-0.1,0.9,0.2,1c-0.1,0.1-0.1,0.1-0.2,0.2c-0.5,0.6,0.3,1.4,0.9,0.9
	c0.5-0.4,1.1-0.9,1.7-1.4c-0.9,1.4-1.9,2.8-2.8,4.1c-0.5,0.7,0.3,1.7,0.9,1.1c0.3-0.4,0.6-0.7,0.9-1.1c-0.3,0.6-0.7,1.3-1,1.9
	c-2,2.4-4.2,4.6-6.6,6.4c-0.5,0.4-0.1,1.3,0.5,1c1.1-0.7,2.2-1.5,3.2-2.4c-0.8,1.3-1.6,2.7-2.5,3.9c-1.7,2.4-3.6,4.6-5.4,6.9
	c-0.5,0.6,0.2,1.8,0.8,1.3c0.3-0.2,0.5-0.4,0.7-0.7c2.7,0.4,5.3,0.7,8,1.1c-0.5,0.3-0.9,0.7-1.4,1.1c-0.6,0.6,0.2,1.4,0.9,1.1
	c0.6-0.3,1.3-0.5,2-0.8c-1.2,2-2.7,3.7-4.5,5c-0.4,0.3-0.1,1.1,0.3,0.9c0.8-0.4,1.5-1,2.2-1.5c-0.3,0.6-0.7,1.2-1,1.8
	c-1.6,2.1-3.3,3.9-5.3,5.5c-0.6,0.5-0.1,1.6,0.6,1.2c0.4-0.3,0.8-0.6,1.2-0.9c-0.3,0.5-0.6,0.9-0.9,1.4c-2.1,2-4.4,3.8-6.9,5.2
	c-0.6,0.3-0.1,1.4,0.4,1.2c0.4-0.1,0.7-0.3,1.1-0.4c-1.6,1.6-3.1,3.2-4.6,4.9c-0.5,0.6,0.2,1.6,0.7,1.1c0.8-0.6,1.5-1.3,2.2-2
	c-0.8,1.1-1.6,2.1-2.5,3.2c18.8-1.7,37.7,0.5,56.4,2.6c-0.2-0.5-0.3-1-0.5-1.5c0.4,0.3,0.8,0.6,1.2,0.8
	C582.4,104.8,583,103.9,582.5,103.3z"/>
<path class="st0" d="M366.3,105.2c-1-1.1-2-2.1-3.1-3.1c-0.1-0.3-0.2-0.7-0.4-1c0.8,0.7,1.6,1.4,2.4,2.1c0.5,0.4,1.3-0.2,0.8-0.8
	c-1.5-1.6-3.1-3.3-4.6-4.9c-0.4-1-0.9-1.9-1.3-2.9c0.4,0.6,0.8,1.2,1.2,1.9c0.4,0.7,1.3,0.1,1-0.6c-1.5-3.2-3.2-6.1-5.4-8.8
	c1,0.8,2,1.6,3,2.3c0.5,0.3,0.9-0.4,0.6-0.7c-3-3-6-6-9.1-8.8c-0.1-0.1-0.2-0.1-0.3-0.1c-0.2-0.3-0.4-0.5-0.6-0.8
	c1.7,1.7,3.5,3.3,5.4,4.8c0.6,0.4,1.2-0.2,0.8-0.8c-1-1.2-2.1-2.4-3.3-3.5c1.3,0.5,2.7,0.9,4.1,1.2c0.6,0.1,1-0.7,0.4-1
	c-1.7-0.8-3.4-1.3-5.1-1.8l7.7-0.2c0-0.1,0-0.1-0.1-0.2c0.7,0.9,1.4,1.9,2.2,2.7c0.5,0.5,1.4-0.2,1-0.8c-2.6-3.9-5-7.9-6.8-12.3
	c-0.1-0.1-0.2-0.2-0.3-0.3c0-0.1-0.1-0.2-0.1-0.3c1.1,1.6,2.2,3.1,3.5,4.5c0.5,0.6,1.4-0.2,1.1-0.8c-1.7-3-3.7-5.9-5.6-8.8
	c0.5,0.3,1.2-0.3,0.9-0.9c-2.1-3.2-3.9-6.3-5.4-9.7c0.4,0.5,0.8,1,1.3,1.5c0.5,0.5,1.4-0.2,1-0.8c-1.4-2.2-2.7-4.6-3.8-7
	c1.7-0.5,3.3-1,5-1.5c0.4,0.5,0.8,1,1.3,1.4c0.6,0.5,1.6-0.2,1.1-0.9c-1.6-2.3-3.2-4.6-4.4-7.1c1,0.9,2,1.7,3,2.4
	c0.6,0.4,1.3-0.5,0.8-1c-1.9-1.8-3.6-3.7-5.4-5.6c0.3,0.3,0.6,0.6,0.9,0.9c0.5,0.5,1.1-0.2,0.7-0.7c-2.5-3-4.3-6.2-5.7-9.8
	c0.6,0.7,1.3,1.5,2,2.1c0.4,0.4,0.9-0.2,0.6-0.6c-2.1-2.4-4-5.1-5.6-8c-0.1-0.1-0.1-0.2-0.2-0.2c-0.2-0.6-0.5-1.2-0.7-1.8
	c-0.3,0.7-0.6,1.5-0.9,2.2c-1,0.9-1.7,2.4-2.6,3.4c-1.6,1.9-3.5,3.5-5.2,5.3c-0.6,0.6-0.1,1.7,0.6,1.3c0.6-0.4,1.2-0.8,1.8-1.3
	c-1.8,2.2-3.7,4.3-5.7,6.3c-0.5,0.5-0.1,1.5,0.5,1.1c1.3-0.9,2.6-1.9,3.8-3.1c-0.7,1.1-1.4,2.1-2.2,3.1c-2.4,2.1-4.9,4-7.5,5.9
	c-0.5,0.4-0.1,1.5,0.4,1.2c0.9-0.4,1.7-0.9,2.6-1.5c-0.8,0.9-1.7,1.8-2.6,2.7c-1.4,0.8-1.2,1.3-2.6,2.2c-0.5,0.3-0.1,1.2,0.4,1.1
	c0.1,0,0.1-0.1,0.2-0.1l6.8,0.5c-2,2.3-4,4.6-5.9,6.9c-0.3,0.3-0.1,0.9,0.2,1c-0.1,0.1-0.1,0.1-0.2,0.2c-0.5,0.6,0.3,1.4,0.9,0.9
	c0.5-0.4,1.1-0.9,1.7-1.4c-0.9,1.4-1.9,2.8-2.8,4.1c-0.5,0.7,0.3,1.7,0.9,1.1c0.3-0.4,0.6-0.7,0.9-1.1c-0.3,0.6-0.7,1.3-1,1.9
	c-2,2.4-4.2,4.6-6.6,6.4c-0.5,0.4-0.1,1.3,0.5,1c1.1-0.7,2.2-1.5,3.2-2.4c-0.8,1.3-1.6,2.7-2.5,3.9c-1.7,2.4-3.6,4.6-5.4,6.9
	c-0.5,0.6,0.2,1.8,0.8,1.3c0.3-0.2,0.5-0.4,0.7-0.7c2.7,0.4,5.3,0.7,8,1.1c-0.5,0.3-0.9,0.7-1.4,1.1c-0.6,0.6,0.2,1.4,0.9,1.1
	c0.6-0.3,1.3-0.5,2-0.8c-1.2,2-2.7,3.7-4.5,5c-0.4,0.3-0.1,1.1,0.3,0.9c0.8-0.4,1.5-1,2.2-1.5c-0.3,0.6-0.7,1.2-1,1.8
	c-1.6,2.1-3.3,3.9-5.3,5.5c-0.6,0.5-0.1,1.6,0.6,1.2c0.4-0.3,0.8-0.6,1.2-0.9c-0.3,0.5-0.6,0.9-0.9,1.4c-2.1,2-4.4,3.8-6.9,5.2
	c-0.6,0.3-0.1,1.4,0.4,1.2c0.4-0.1,0.7-0.3,1.1-0.4c-1.6,1.6-3.1,3.2-4.6,4.9c-0.5,0.6,0.2,1.6,0.7,1.1c0.8-0.6,1.5-1.3,2.2-2
	c-0.8,1.1-1.6,2.1-2.5,3.2c18.8-1.7,37.7,0.5,56.4,2.6c-0.2-0.5-0.3-1-0.5-1.5c0.4,0.3,0.8,0.6,1.2,0.8
	C366.2,106.7,366.8,105.8,366.3,105.2z"/>
<path class="st0" d="M326.5,125.7c-1-1.1-2-2.1-3.1-3.1c-0.1-0.3-0.2-0.7-0.4-1c0.8,0.7,1.6,1.4,2.4,2.1c0.5,0.4,1.3-0.2,0.8-0.8
	c-1.5-1.6-3.1-3.3-4.6-4.9c-0.4-1-0.9-1.9-1.3-2.9c0.4,0.6,0.8,1.2,1.2,1.9c0.4,0.7,1.3,0.1,1-0.6c-1.5-3.2-3.2-6.1-5.4-8.8
	c1,0.8,2,1.6,3,2.3c0.5,0.3,0.9-0.4,0.6-0.7c-3-3-6-6-9.1-8.8c-0.1-0.1-0.2-0.1-0.3-0.1c-0.2-0.3-0.4-0.5-0.6-0.8
	c1.7,1.7,3.5,3.3,5.4,4.8c0.6,0.4,1.2-0.2,0.8-0.8c-1-1.2-2.1-2.4-3.3-3.5c1.3,0.5,2.7,0.9,4.1,1.2c0.6,0.1,1-0.7,0.4-1
	c-1.7-0.8-3.4-1.3-5.1-1.8l7.7-0.2c0-0.1,0-0.1-0.1-0.2c0.7,0.9,1.4,1.9,2.2,2.7c0.5,0.5,1.4-0.2,1-0.8c-2.6-3.9-5-7.9-6.8-12.3
	c-0.1-0.1-0.2-0.2-0.3-0.3c0-0.1-0.1-0.2-0.1-0.3c1.1,1.6,2.2,3.1,3.5,4.5c0.5,0.6,1.4-0.2,1.1-0.8c-1.7-3-3.7-5.9-5.6-8.8
	c0.5,0.3,1.2-0.3,0.9-0.9c-2.1-3.2-3.9-6.3-5.4-9.7c0.4,0.5,0.8,1,1.3,1.5c0.5,0.5,1.4-0.2,1-0.8c-1.4-2.2-2.7-4.6-3.8-7
	c1.7-0.5,3.3-1,5-1.5c0.4,0.5,0.8,1,1.3,1.4c0.6,0.5,1.6-0.2,1.1-0.9c-1.6-2.3-3.2-4.6-4.4-7.1c1,0.9,2,1.7,3,2.4
	c0.6,0.4,1.3-0.5,0.8-1c-1.9-1.8-3.6-3.7-5.4-5.6c0.3,0.3,0.6,0.6,0.9,0.9c0.5,0.5,1.1-0.2,0.7-0.7c-2.5-3-4.3-6.2-5.7-9.8
	c0.6,0.7,1.3,1.5,2,2.1c0.4,0.4,0.9-0.2,0.6-0.6c-2.1-2.4-4-5.1-5.6-8c-0.1-0.1-0.1-0.2-0.2-0.2c-0.2-0.6-0.5-1.2-0.7-1.8
	c-0.3,0.7-0.6,1.5-0.9,2.2c-1,0.9-1.7,2.4-2.6,3.4c-1.6,1.9-3.5,3.5-5.2,5.3c-0.6,0.6-0.1,1.7,0.6,1.3c0.6-0.4,1.2-0.8,1.8-1.3
	c-1.8,2.2-3.7,4.3-5.7,6.3c-0.5,0.5-0.1,1.5,0.5,1.1c1.3-0.9,2.6-1.9,3.8-3.1c-0.7,1.1-1.4,2.1-2.2,3.1c-2.4,2.1-4.9,4-7.5,5.9
	c-0.5,0.4-0.1,1.5,0.4,1.2c0.9-0.4,1.7-0.9,2.6-1.5c-0.8,0.9-1.7,1.8-2.6,2.7c-1.4,0.8-1.2,1.3-2.6,2.2c-0.5,0.3-0.1,1.2,0.4,1.1
	c0.1,0,0.1-0.1,0.2-0.1l6.8,0.5c-2,2.3-4,4.6-5.9,6.9c-0.3,0.3-0.1,0.9,0.2,1c-0.1,0.1-0.1,0.1-0.2,0.2c-0.5,0.6,0.3,1.4,0.9,0.9
	c0.5-0.4,1.1-0.9,1.7-1.4c-0.9,1.4-1.9,2.8-2.8,4.1c-0.5,0.7,0.3,1.7,0.9,1.1c0.3-0.4,0.6-0.7,0.9-1.1c-0.3,0.6-0.7,1.3-1,1.9
	c-2,2.4-4.2,4.6-6.6,6.4c-0.5,0.4-0.1,1.3,0.5,1c1.1-0.7,2.2-1.5,3.2-2.4c-0.8,1.3-1.6,2.7-2.5,3.9c-1.7,2.4-3.6,4.6-5.4,6.9
	c-0.5,0.6,0.2,1.8,0.8,1.3c0.3-0.2,0.5-0.4,0.7-0.7c2.7,0.4,5.3,0.7,8,1.1c-0.5,0.3-0.9,0.7-1.4,1.1c-0.6,0.6,0.2,1.4,0.9,1.1
	c0.6-0.3,1.3-0.5,2-0.8c-1.2,2-2.7,3.7-4.5,5c-0.4,0.3-0.1,1.1,0.3,0.9c0.8-0.4,1.5-1,2.2-1.5c-0.3,0.6-0.7,1.2-1,1.8
	c-1.6,2.1-3.3,3.9-5.3,5.5c-0.6,0.5-0.1,1.6,0.6,1.2c0.4-0.3,0.8-0.6,1.2-0.9c-0.3,0.5-0.6,0.9-0.9,1.4c-2.1,2-4.4,3.8-6.9,5.2
	c-0.6,0.3-0.1,1.4,0.4,1.2c0.4-0.1,0.7-0.3,1.1-0.4c-1.6,1.6-3.1,3.2-4.6,4.9c-0.5,0.6,0.2,1.6,0.7,1.1c0.8-0.6,1.5-1.3,2.2-2
	c-0.8,1.1-1.6,2.1-2.5,3.2c18.8-1.7,37.7,0.5,56.4,2.6c-0.2-0.5-0.3-1-0.5-1.5c0.4,0.3,0.8,0.6,1.2,0.8
	C326.4,127.1,327,126.2,326.5,125.7z"/>
<path class="st0" d="M384.4,102.3c-0.8-0.9-1.7-1.8-2.6-2.6c-0.1-0.3-0.2-0.5-0.3-0.8c0.6,0.6,1.3,1.2,2,1.8
	c0.4,0.4,1.1-0.2,0.6-0.6c-1.3-1.4-2.5-2.7-3.8-4c-0.4-0.8-0.7-1.6-1.1-2.4c0.3,0.5,0.6,1,1,1.5c0.3,0.5,1.1,0.1,0.8-0.5
	c-1.2-2.6-2.7-5.1-4.5-7.3c0.8,0.7,1.6,1.3,2.5,1.9c0.4,0.3,0.8-0.3,0.5-0.6c-2.4-2.5-5-5-7.5-7.3c-0.1-0.1-0.1-0.1-0.2-0.1
	c-0.2-0.2-0.3-0.4-0.5-0.7c1.5,1.4,2.9,2.8,4.5,4c0.5,0.4,1-0.2,0.6-0.6c-0.8-1-1.8-2-2.8-2.9c1.1,0.4,2.2,0.7,3.4,1
	c0.5,0.1,0.8-0.6,0.3-0.8c-1.4-0.6-2.8-1.1-4.2-1.5l6.4-0.2c0,0,0-0.1,0-0.1c0.6,0.8,1.2,1.5,1.9,2.3c0.4,0.4,1.2-0.1,0.8-0.7
	c-2.2-3.2-4.2-6.6-5.7-10.2c0-0.1-0.1-0.2-0.2-0.2c0-0.1-0.1-0.2-0.1-0.3c0.9,1.3,1.8,2.6,2.9,3.8c0.4,0.5,1.2-0.1,0.9-0.7
	c-1.4-2.5-3-4.9-4.6-7.3c0.4,0.2,1-0.3,0.7-0.7c-1.7-2.6-3.2-5.3-4.5-8.1c0.3,0.4,0.7,0.8,1,1.3c0.4,0.4,1.2-0.1,0.8-0.6
	c-1.2-1.9-2.3-3.8-3.2-5.8c1.4-0.4,2.8-0.8,4.2-1.2c0.3,0.4,0.7,0.8,1.1,1.2c0.5,0.4,1.3-0.2,0.9-0.7c-1.4-1.9-2.6-3.8-3.6-5.9
	c0.8,0.7,1.6,1.4,2.5,2c0.5,0.3,1.1-0.4,0.6-0.8c-1.5-1.5-3-3.1-4.4-4.7c0.3,0.3,0.5,0.5,0.8,0.8c0.4,0.4,0.9-0.2,0.6-0.6
	c-2.1-2.5-3.6-5.2-4.7-8.1c0.5,0.6,1.1,1.2,1.7,1.8c0.3,0.3,0.8-0.2,0.5-0.5c-1.8-2-3.4-4.3-4.7-6.6c-0.1-0.1-0.1-0.1-0.2-0.2
	c-0.2-0.5-0.4-1-0.6-1.5c-0.2,0.6-0.5,1.2-0.7,1.8c-0.8,0.8-1.5,2-2.1,2.8c-1.3,1.6-2.9,2.9-4.3,4.4c-0.5,0.5-0.1,1.4,0.5,1.1
	c0.5-0.3,1-0.7,1.5-1.1c-1.5,1.8-3.1,3.6-4.8,5.2c-0.4,0.4-0.1,1.2,0.4,0.9c1.1-0.7,2.1-1.6,3.1-2.6c-0.6,0.9-1.2,1.8-1.8,2.6
	c-2,1.8-4.1,3.3-6.3,4.9c-0.4,0.3-0.1,1.2,0.3,1c0.7-0.4,1.4-0.8,2.2-1.2c-0.7,0.8-1.4,1.5-2.1,2.3c-1.2,0.7-1,1.1-2.2,1.8
	c-0.4,0.2-0.1,1,0.3,0.9c0.1,0,0.1,0,0.2-0.1l5.6,0.4c-1.6,1.9-3.3,3.8-4.9,5.7c-0.2,0.3-0.1,0.7,0.2,0.9c0,0.1-0.1,0.1-0.1,0.2
	c-0.4,0.5,0.2,1.1,0.7,0.7c0.4-0.4,0.9-0.7,1.4-1.1c-0.8,1.2-1.5,2.3-2.4,3.4c-0.4,0.6,0.2,1.4,0.7,0.9c0.3-0.3,0.5-0.6,0.8-0.9
	c-0.3,0.5-0.6,1-0.9,1.6c-1.7,2-3.5,3.8-5.5,5.3c-0.4,0.3,0,1.1,0.4,0.8c0.9-0.6,1.8-1.3,2.6-2c-0.7,1.1-1.3,2.2-2,3.2
	c-1.4,2-3,3.9-4.5,5.7c-0.4,0.5,0.1,1.5,0.7,1.1c0.2-0.2,0.4-0.4,0.6-0.6c2.2,0.3,4.4,0.6,6.6,0.9c-0.4,0.3-0.8,0.6-1.2,0.9
	c-0.5,0.5,0.1,1.2,0.7,0.9c0.5-0.2,1.1-0.5,1.6-0.7c-1,1.7-2.3,3.1-3.7,4.1c-0.3,0.2-0.1,0.9,0.3,0.7c0.7-0.4,1.3-0.8,1.9-1.3
	c-0.3,0.5-0.6,1-0.8,1.5c-1.3,1.7-2.8,3.3-4.4,4.6c-0.5,0.4-0.1,1.4,0.5,1c0.3-0.2,0.7-0.5,1-0.7c-0.2,0.4-0.5,0.8-0.7,1.2
	c-1.8,1.7-3.7,3.1-5.7,4.3c-0.5,0.3-0.1,1.2,0.3,1c0.3-0.1,0.6-0.2,0.9-0.4c-1.3,1.3-2.6,2.7-3.8,4.1c-0.4,0.5,0.1,1.3,0.6,1
	c0.6-0.5,1.2-1.1,1.9-1.6c-0.7,0.9-1.4,1.8-2.1,2.6c15.6-1.4,31.3,0.4,46.8,2.2c-0.1-0.4-0.3-0.8-0.4-1.2c0.3,0.2,0.6,0.5,1,0.7
	C384.3,103.5,384.8,102.7,384.4,102.3z"/>
<path class="st0" d="M338.1,100.9c-0.8-0.9-1.7-1.8-2.6-2.6c-0.1-0.3-0.2-0.5-0.3-0.8c0.6,0.6,1.3,1.2,2,1.8
	c0.4,0.4,1.1-0.2,0.6-0.6c-1.3-1.4-2.5-2.7-3.8-4c-0.4-0.8-0.7-1.6-1.1-2.4c0.3,0.5,0.6,1,1,1.5c0.3,0.5,1.1,0.1,0.8-0.5
	c-1.2-2.6-2.7-5.1-4.5-7.3c0.8,0.7,1.6,1.3,2.5,1.9c0.4,0.3,0.8-0.3,0.5-0.6c-2.4-2.5-5-5-7.5-7.3c-0.1-0.1-0.1-0.1-0.2-0.1
	c-0.2-0.2-0.3-0.4-0.5-0.7c1.5,1.4,2.9,2.8,4.5,4c0.5,0.4,1-0.2,0.6-0.6c-0.8-1-1.8-2-2.8-2.9c1.1,0.4,2.2,0.7,3.4,1
	c0.5,0.1,0.8-0.6,0.3-0.8c-1.4-0.6-2.8-1.1-4.2-1.5l6.4-0.2c0,0,0-0.1,0-0.1c0.6,0.8,1.2,1.5,1.9,2.3c0.4,0.4,1.2-0.1,0.8-0.7
	c-2.2-3.2-4.2-6.6-5.7-10.2c0-0.1-0.1-0.2-0.2-0.2c0-0.1-0.1-0.2-0.1-0.3c0.9,1.3,1.8,2.6,2.9,3.8c0.4,0.5,1.2-0.1,0.9-0.7
	c-1.4-2.5-3-4.9-4.6-7.3c0.4,0.2,1-0.3,0.7-0.7c-1.7-2.6-3.2-5.3-4.5-8.1c0.3,0.4,0.7,0.8,1,1.3c0.4,0.4,1.2-0.1,0.8-0.6
	c-1.2-1.9-2.3-3.8-3.2-5.8c1.4-0.4,2.8-0.8,4.2-1.2c0.3,0.4,0.7,0.8,1.1,1.2c0.5,0.4,1.3-0.2,0.9-0.7c-1.4-1.9-2.6-3.8-3.6-5.9
	c0.8,0.7,1.6,1.4,2.5,2c0.5,0.3,1.1-0.4,0.6-0.8c-1.5-1.5-3-3.1-4.4-4.7c0.3,0.3,0.5,0.5,0.8,0.8c0.4,0.4,0.9-0.2,0.6-0.6
	c-2.1-2.5-3.6-5.2-4.7-8.1c0.5,0.6,1.1,1.2,1.7,1.8c0.3,0.3,0.8-0.2,0.5-0.5c-1.8-2-3.4-4.3-4.7-6.6c-0.1-0.1-0.1-0.1-0.2-0.2
	c-0.2-0.5-0.4-1-0.6-1.5c-0.2,0.6-0.5,1.2-0.7,1.8c-0.8,0.8-1.5,2-2.1,2.8c-1.3,1.6-2.9,2.9-4.3,4.4c-0.5,0.5-0.1,1.4,0.5,1.1
	c0.5-0.3,1-0.7,1.5-1.1c-1.5,1.8-3.1,3.6-4.8,5.2c-0.4,0.4-0.1,1.2,0.4,0.9c1.1-0.7,2.1-1.6,3.1-2.6c-0.6,0.9-1.2,1.8-1.8,2.6
	c-2,1.8-4.1,3.3-6.3,4.9c-0.4,0.3-0.1,1.2,0.3,1c0.7-0.4,1.4-0.8,2.2-1.2c-0.7,0.8-1.4,1.5-2.1,2.3c-1.2,0.7-1,1.1-2.2,1.8
	c-0.4,0.2-0.1,1,0.3,0.9c0.1,0,0.1,0,0.2-0.1l5.6,0.4c-1.6,1.9-3.3,3.8-4.9,5.7c-0.2,0.3-0.1,0.7,0.2,0.9c0,0.1-0.1,0.1-0.1,0.2
	c-0.4,0.5,0.2,1.1,0.7,0.7c0.4-0.4,0.9-0.7,1.4-1.1c-0.8,1.2-1.5,2.3-2.4,3.4c-0.4,0.6,0.2,1.4,0.7,0.9c0.3-0.3,0.5-0.6,0.8-0.9
	c-0.3,0.5-0.6,1-0.9,1.6c-1.7,2-3.5,3.8-5.5,5.3c-0.4,0.3,0,1.1,0.4,0.8c0.9-0.6,1.8-1.3,2.6-2c-0.7,1.1-1.3,2.2-2,3.2
	c-1.4,2-3,3.9-4.5,5.7c-0.4,0.5,0.1,1.5,0.7,1.1c0.2-0.2,0.4-0.4,0.6-0.6c2.2,0.3,4.4,0.6,6.6,0.9c-0.4,0.3-0.8,0.6-1.2,0.9
	c-0.5,0.5,0.1,1.2,0.7,0.9c0.5-0.2,1.1-0.5,1.6-0.7c-1,1.7-2.3,3.1-3.7,4.1c-0.3,0.2-0.1,0.9,0.3,0.7c0.7-0.4,1.3-0.8,1.9-1.3
	c-0.3,0.5-0.6,1-0.8,1.5c-1.3,1.7-2.8,3.3-4.4,4.6c-0.5,0.4-0.1,1.4,0.5,1c0.3-0.2,0.7-0.5,1-0.7c-0.2,0.4-0.5,0.8-0.7,1.2
	c-1.8,1.7-3.7,3.1-5.7,4.3c-0.5,0.3-0.1,1.2,0.3,1c0.3-0.1,0.6-0.2,0.9-0.4c-1.3,1.3-2.6,2.7-3.8,4.1c-0.4,0.5,0.1,1.3,0.6,1
	c0.6-0.5,1.2-1.1,1.9-1.6c-0.7,0.9-1.4,1.8-2.1,2.6c15.6-1.4,31.3,0.4,46.8,2.2c-0.1-0.4-0.3-0.8-0.4-1.2c0.3,0.2,0.6,0.5,1,0.7
	C338,102.1,338.5,101.4,338.1,100.9z"/>
<path class="st0" d="M445.7,104c-1-1.1-2-2.1-3.1-3.1c-0.1-0.3-0.2-0.7-0.4-1c0.8,0.7,1.6,1.4,2.4,2.1c0.5,0.4,1.3-0.2,0.8-0.8
	c-1.5-1.6-3.1-3.3-4.6-4.9c-0.4-1-0.9-1.9-1.3-2.9c0.4,0.6,0.8,1.2,1.2,1.9c0.4,0.7,1.3,0.1,1-0.6c-1.5-3.2-3.2-6.1-5.4-8.8
	c1,0.8,2,1.6,3,2.3c0.5,0.3,0.9-0.4,0.6-0.7c-3-3-6-6-9.1-8.8c-0.1-0.1-0.2-0.1-0.3-0.1c-0.2-0.3-0.4-0.5-0.6-0.8
	c1.7,1.7,3.5,3.3,5.4,4.8c0.6,0.4,1.2-0.2,0.8-0.8c-1-1.2-2.1-2.4-3.3-3.5c1.3,0.5,2.7,0.9,4.1,1.2c0.6,0.1,1-0.7,0.4-1
	c-1.7-0.8-3.4-1.3-5.1-1.8l7.7-0.2c0-0.1,0-0.1-0.1-0.2c0.7,0.9,1.4,1.9,2.2,2.7c0.5,0.5,1.4-0.2,1-0.8c-2.6-3.9-5-7.9-6.8-12.3
	c-0.1-0.1-0.2-0.2-0.3-0.3c0-0.1-0.1-0.2-0.1-0.3c1.1,1.6,2.2,3.1,3.5,4.5c0.5,0.6,1.4-0.2,1.1-0.8c-1.7-3-3.7-5.9-5.6-8.8
	c0.5,0.3,1.2-0.3,0.9-0.9c-2.1-3.2-3.9-6.3-5.4-9.7c0.4,0.5,0.8,1,1.3,1.5c0.5,0.5,1.4-0.2,1-0.8c-1.4-2.2-2.7-4.6-3.8-7
	c1.7-0.5,3.3-1,5-1.5c0.4,0.5,0.8,1,1.3,1.4c0.6,0.5,1.6-0.2,1.1-0.9c-1.6-2.3-3.2-4.6-4.4-7.1c1,0.9,2,1.7,3,2.4
	c0.6,0.4,1.3-0.5,0.8-1c-1.9-1.8-3.6-3.7-5.4-5.6c0.3,0.3,0.6,0.6,0.9,0.9c0.5,0.5,1.1-0.2,0.7-0.7c-2.5-3-4.3-6.2-5.7-9.8
	c0.6,0.7,1.3,1.5,2,2.1c0.4,0.4,0.9-0.2,0.6-0.6c-2.1-2.4-4-5.1-5.6-8c-0.1-0.1-0.1-0.2-0.2-0.2c-0.2-0.6-0.5-1.2-0.7-1.8
	c-0.3,0.7-0.6,1.5-0.9,2.2c-1,0.9-1.7,2.4-2.6,3.4c-1.6,1.9-3.5,3.5-5.2,5.3c-0.6,0.6-0.1,1.7,0.6,1.3c0.6-0.4,1.2-0.8,1.8-1.3
	c-1.8,2.2-3.7,4.3-5.7,6.3c-0.5,0.5-0.1,1.5,0.5,1.1c1.3-0.9,2.6-1.9,3.8-3.1c-0.7,1.1-1.4,2.1-2.2,3.1c-2.4,2.1-4.9,4-7.5,5.9
	c-0.5,0.4-0.1,1.5,0.4,1.2c0.9-0.4,1.7-0.9,2.6-1.5c-0.8,0.9-1.7,1.8-2.6,2.7c-1.4,0.8-1.2,1.3-2.6,2.2c-0.5,0.3-0.1,1.2,0.4,1.1
	c0.1,0,0.1-0.1,0.2-0.1l6.8,0.5c-2,2.3-4,4.6-5.9,6.9c-0.3,0.3-0.1,0.9,0.2,1c-0.1,0.1-0.1,0.1-0.2,0.2c-0.5,0.6,0.3,1.4,0.9,0.9
	c0.5-0.4,1.1-0.9,1.7-1.4c-0.9,1.4-1.9,2.8-2.8,4.1c-0.5,0.7,0.3,1.7,0.9,1.1c0.3-0.4,0.6-0.7,0.9-1.1c-0.3,0.6-0.7,1.3-1,1.9
	c-2,2.4-4.2,4.6-6.6,6.4c-0.5,0.4-0.1,1.3,0.5,1c1.1-0.7,2.2-1.5,3.2-2.4c-0.8,1.3-1.6,2.7-2.5,3.9c-1.7,2.4-3.6,4.6-5.4,6.9
	c-0.5,0.6,0.2,1.8,0.8,1.3c0.3-0.2,0.5-0.4,0.7-0.7c2.7,0.4,5.3,0.7,8,1.1c-0.5,0.3-0.9,0.7-1.4,1.1c-0.6,0.6,0.2,1.4,0.9,1.1
	c0.6-0.3,1.3-0.5,2-0.8c-1.2,2-2.7,3.7-4.5,5c-0.4,0.3-0.1,1.1,0.3,0.9c0.8-0.4,1.5-1,2.2-1.5c-0.3,0.6-0.7,1.2-1,1.8
	c-1.6,2.1-3.3,3.9-5.3,5.5c-0.6,0.5-0.1,1.6,0.6,1.2c0.4-0.3,0.8-0.6,1.2-0.9c-0.3,0.5-0.6,0.9-0.9,1.4c-2.1,2-4.4,3.8-6.9,5.2
	c-0.6,0.3-0.1,1.4,0.4,1.2c0.4-0.1,0.7-0.3,1.1-0.4c-1.6,1.6-3.1,3.2-4.6,4.9c-0.5,0.6,0.2,1.6,0.7,1.1c0.8-0.6,1.5-1.3,2.2-2
	c-0.8,1.1-1.6,2.1-2.5,3.2c18.8-1.7,37.7,0.5,56.4,2.6c-0.2-0.5-0.3-1-0.5-1.5c0.4,0.3,0.8,0.6,1.2,0.8
	C445.6,105.4,446.2,104.5,445.7,104z"/>
<path class="st0" d="M556.7,95c-1-1.1-2-2.1-3.1-3.1c-0.1-0.3-0.2-0.7-0.4-1c0.8,0.7,1.6,1.4,2.4,2.1c0.5,0.4,1.3-0.2,0.8-0.8
	c-1.5-1.6-3.1-3.3-4.6-4.9c-0.4-1-0.9-1.9-1.3-2.9c0.4,0.6,0.8,1.2,1.2,1.9c0.4,0.7,1.3,0.1,1-0.6c-1.5-3.2-3.2-6.1-5.4-8.8
	c1,0.8,2,1.6,3,2.3c0.5,0.3,0.9-0.4,0.6-0.7c-3-3-6-6-9.1-8.8c-0.1-0.1-0.2-0.1-0.3-0.1c-0.2-0.3-0.4-0.5-0.6-0.8
	c1.7,1.7,3.5,3.3,5.4,4.8c0.6,0.4,1.2-0.2,0.8-0.8c-1-1.2-2.1-2.4-3.3-3.5c1.3,0.5,2.7,0.9,4.1,1.2c0.6,0.1,1-0.7,0.4-1
	c-1.7-0.8-3.4-1.3-5.1-1.8l7.7-0.2c0-0.1,0-0.1-0.1-0.2c0.7,0.9,1.4,1.9,2.2,2.7c0.5,0.5,1.4-0.2,1-0.8c-2.6-3.9-5-7.9-6.8-12.3
	c-0.1-0.1-0.2-0.2-0.3-0.3c0-0.1-0.1-0.2-0.1-0.3c1.1,1.6,2.2,3.1,3.5,4.5c0.5,0.6,1.4-0.2,1.1-0.8c-1.7-3-3.7-5.9-5.6-8.8
	c0.5,0.3,1.2-0.3,0.9-0.9c-2.1-3.2-3.9-6.3-5.4-9.7c0.4,0.5,0.8,1,1.3,1.5c0.5,0.5,1.4-0.2,1-0.8c-1.4-2.2-2.7-4.6-3.8-7
	c1.7-0.5,3.3-1,5-1.5c0.4,0.5,0.8,1,1.3,1.4c0.6,0.5,1.6-0.2,1.1-0.9c-1.6-2.3-3.2-4.6-4.4-7.1c1,0.9,2,1.7,3,2.4
	c0.6,0.4,1.3-0.5,0.8-1c-1.9-1.8-3.6-3.7-5.4-5.6c0.3,0.3,0.6,0.6,0.9,0.9c0.5,0.5,1.1-0.2,0.7-0.7c-2.5-3-4.3-6.2-5.7-9.8
	c0.6,0.7,1.3,1.5,2,2.1c0.4,0.4,0.9-0.2,0.6-0.6c-2.1-2.4-4-5.1-5.6-8c-0.1-0.1-0.1-0.2-0.2-0.2c-0.2-0.6-0.5-1.2-0.7-1.8
	c-0.3,0.7-0.6,1.5-0.9,2.2c-1,0.9-1.7,2.4-2.6,3.4c-1.6,1.9-3.5,3.5-5.2,5.3c-0.6,0.6-0.1,1.7,0.6,1.3c0.6-0.4,1.2-0.8,1.8-1.3
	c-1.8,2.2-3.7,4.3-5.7,6.3c-0.5,0.5-0.1,1.5,0.5,1.1c1.3-0.9,2.6-1.9,3.8-3.1c-0.7,1.1-1.4,2.1-2.2,3.1c-2.4,2.1-4.9,4-7.5,5.9
	c-0.5,0.4-0.1,1.5,0.4,1.2c0.9-0.4,1.7-0.9,2.6-1.5c-0.8,0.9-1.7,1.8-2.6,2.7c-1.4,0.8-1.2,1.3-2.6,2.2c-0.5,0.3-0.1,1.2,0.4,1.1
	c0.1,0,0.1-0.1,0.2-0.1l6.8,0.5c-2,2.3-4,4.6-5.9,6.9c-0.3,0.3-0.1,0.9,0.2,1c-0.1,0.1-0.1,0.1-0.2,0.2c-0.5,0.6,0.3,1.4,0.9,0.9
	c0.5-0.4,1.1-0.9,1.7-1.4c-0.9,1.4-1.9,2.8-2.8,4.1c-0.5,0.7,0.3,1.7,0.9,1.1c0.3-0.4,0.6-0.7,0.9-1.1c-0.3,0.6-0.7,1.3-1,1.9
	c-2,2.4-4.2,4.6-6.6,6.4c-0.5,0.4-0.1,1.3,0.5,1c1.1-0.7,2.2-1.5,3.2-2.4c-0.8,1.3-1.6,2.7-2.5,3.9c-1.7,2.4-3.6,4.6-5.4,6.9
	c-0.5,0.6,0.2,1.8,0.8,1.3c0.3-0.2,0.5-0.4,0.7-0.7c2.7,0.4,5.3,0.7,8,1.1c-0.5,0.3-0.9,0.7-1.4,1.1c-0.6,0.6,0.2,1.4,0.9,1.1
	c0.6-0.3,1.3-0.5,2-0.8c-1.2,2-2.7,3.7-4.5,5c-0.4,0.3-0.1,1.1,0.3,0.9c0.8-0.4,1.5-1,2.2-1.5c-0.3,0.6-0.7,1.2-1,1.8
	c-1.6,2.1-3.3,3.9-5.3,5.5c-0.6,0.5-0.1,1.6,0.6,1.2c0.4-0.3,0.8-0.6,1.2-0.9c-0.3,0.5-0.6,0.9-0.9,1.4c-2.1,2-4.4,3.8-6.9,5.2
	c-0.6,0.3-0.1,1.4,0.4,1.2c0.4-0.1,0.7-0.3,1.1-0.4c-1.6,1.6-3.1,3.2-4.6,4.9c-0.5,0.6,0.2,1.6,0.7,1.1c0.8-0.6,1.5-1.3,2.2-2
	c-0.8,1.1-1.6,2.1-2.5,3.2c18.8-1.7,37.7,0.5,56.4,2.6c-0.2-0.5-0.3-1-0.5-1.5c0.4,0.3,0.8,0.6,1.2,0.8
	C556.6,96.4,557.2,95.5,556.7,95z"/>
<path class="st0" d="M493.8,97.8c-0.8-1-1.8-1.9-2.8-2.7c-0.1-0.3-0.2-0.6-0.3-0.9c0.7,0.6,1.4,1.3,2.1,1.9c0.5,0.4,1.1-0.2,0.7-0.7
	c-1.3-1.4-2.7-2.9-4-4.3c-0.4-0.9-0.8-1.7-1.2-2.5c0.3,0.5,0.7,1.1,1,1.6c0.3,0.6,1.1,0.1,0.9-0.5c-1.3-2.8-2.8-5.3-4.7-7.7
	c0.8,0.7,1.7,1.4,2.6,2c0.4,0.3,0.8-0.3,0.5-0.7c-2.6-2.6-5.2-5.2-7.9-7.7c-0.1-0.1-0.2-0.1-0.2-0.1c-0.2-0.2-0.3-0.5-0.5-0.7
	c1.5,1.5,3.1,2.9,4.7,4.2c0.5,0.4,1.1-0.2,0.7-0.7c-0.9-1.1-1.9-2.1-2.9-3c1.2,0.4,2.3,0.8,3.5,1.1c0.5,0.1,0.9-0.6,0.4-0.9
	c-1.5-0.7-2.9-1.2-4.5-1.6l6.7-0.2c0,0,0-0.1,0-0.1c0.6,0.8,1.2,1.6,2,2.4c0.4,0.5,1.3-0.1,0.9-0.7c-2.3-3.4-4.4-6.9-6-10.7
	c-0.1-0.1-0.1-0.2-0.2-0.3c0-0.1-0.1-0.2-0.1-0.3c0.9,1.4,1.9,2.7,3.1,4c0.5,0.5,1.3-0.1,0.9-0.7c-1.5-2.6-3.2-5.1-4.9-7.7
	c0.4,0.2,1.1-0.3,0.8-0.8c-1.8-2.8-3.4-5.5-4.7-8.5c0.3,0.5,0.7,0.9,1.1,1.3c0.4,0.5,1.2-0.1,0.9-0.7c-1.2-2-2.4-4-3.3-6.1
	c1.5-0.4,2.9-0.9,4.4-1.3c0.4,0.4,0.7,0.8,1.1,1.2c0.5,0.5,1.4-0.2,1-0.7c-1.4-2-2.8-4-3.8-6.2c0.8,0.8,1.7,1.5,2.6,2.1
	c0.5,0.4,1.1-0.4,0.7-0.9c-1.6-1.6-3.2-3.3-4.7-4.9c0.3,0.3,0.5,0.6,0.8,0.8c0.4,0.4,1-0.2,0.6-0.6c-2.2-2.6-3.8-5.4-5-8.6
	c0.5,0.6,1.1,1.3,1.8,1.9c0.3,0.3,0.8-0.2,0.5-0.5c-1.9-2.1-3.5-4.5-4.9-7c-0.1-0.1-0.1-0.1-0.2-0.2c-0.2-0.5-0.4-1-0.6-1.6
	c-0.3,0.6-0.5,1.3-0.8,1.9c-0.8,0.8-1.5,2.1-2.3,3c-1.4,1.7-3,3.1-4.5,4.6c-0.5,0.5-0.1,1.5,0.5,1.1c0.6-0.3,1.1-0.7,1.6-1.1
	c-1.6,1.9-3.2,3.8-5,5.5c-0.4,0.4-0.1,1.3,0.5,1c1.1-0.8,2.2-1.7,3.3-2.7c-0.6,0.9-1.2,1.9-1.9,2.7c-2.1,1.8-4.3,3.5-6.6,5.2
	c-0.4,0.3-0.1,1.3,0.4,1.1c0.8-0.4,1.5-0.8,2.3-1.3c-0.7,0.8-1.5,1.6-2.2,2.4c-1.2,0.7-1.1,1.1-2.3,1.9c-0.4,0.3-0.1,1,0.3,0.9
	c0.1,0,0.1,0,0.2-0.1l5.9,0.4c-1.7,2-3.5,4-5.2,6c-0.3,0.3-0.1,0.8,0.2,0.9c0,0.1-0.1,0.1-0.1,0.2c-0.5,0.5,0.2,1.2,0.8,0.8
	c0.5-0.4,1-0.8,1.5-1.2c-0.8,1.2-1.6,2.4-2.5,3.6c-0.5,0.6,0.2,1.5,0.7,0.9c0.3-0.3,0.5-0.6,0.8-0.9c-0.3,0.6-0.6,1.1-0.9,1.7
	c-1.7,2.1-3.7,4-5.8,5.6c-0.4,0.3,0,1.2,0.4,0.9c1-0.6,1.9-1.4,2.8-2.1c-0.7,1.2-1.4,2.3-2.1,3.4c-1.5,2.1-3.1,4.1-4.7,6.1
	c-0.5,0.6,0.2,1.6,0.7,1.1c0.2-0.2,0.4-0.4,0.6-0.6c2.3,0.3,4.6,0.6,7,1c-0.4,0.3-0.8,0.6-1.2,1c-0.5,0.5,0.1,1.2,0.7,1
	c0.5-0.2,1.1-0.5,1.7-0.7c-1.1,1.8-2.4,3.3-3.9,4.4c-0.3,0.2-0.1,1,0.3,0.8c0.7-0.4,1.4-0.8,2-1.3c-0.3,0.5-0.6,1-0.9,1.6
	c-1.4,1.8-2.9,3.4-4.6,4.8c-0.5,0.4-0.1,1.4,0.5,1.1c0.4-0.2,0.7-0.5,1.1-0.8c-0.3,0.4-0.5,0.8-0.8,1.2c-1.8,1.8-3.8,3.3-6.1,4.5
	c-0.5,0.3-0.1,1.2,0.4,1.1c0.3-0.1,0.6-0.2,1-0.4c-1.4,1.4-2.7,2.8-4,4.3c-0.4,0.5,0.1,1.4,0.6,1c0.7-0.6,1.3-1.1,2-1.7
	c-0.7,0.9-1.4,1.9-2.2,2.8c16.4-1.5,33,0.4,49.4,2.3c-0.1-0.4-0.3-0.9-0.4-1.3c0.3,0.2,0.7,0.5,1,0.7
	C493.6,99.1,494.2,98.3,493.8,97.8z"/>
<path class="st0" d="M130,105.3c-1-1.1-2-2.1-3.1-3.1c-0.1-0.3-0.2-0.7-0.4-1c0.8,0.7,1.6,1.4,2.4,2.1c0.5,0.4,1.3-0.2,0.8-0.8
	c-1.5-1.6-3.1-3.3-4.6-4.9c-0.4-1-0.9-1.9-1.3-2.9c0.4,0.6,0.8,1.2,1.2,1.9c0.4,0.7,1.3,0.1,1-0.6c-1.5-3.2-3.2-6.1-5.4-8.8
	c1,0.8,2,1.6,3,2.3c0.5,0.3,0.9-0.4,0.6-0.7c-3-3-6-6-9.1-8.8c-0.1-0.1-0.2-0.1-0.3-0.1c-0.2-0.3-0.4-0.5-0.6-0.8
	c1.7,1.7,3.5,3.3,5.4,4.8c0.6,0.4,1.2-0.2,0.8-0.8c-1-1.2-2.1-2.4-3.3-3.5c1.3,0.5,2.7,0.9,4.1,1.2c0.6,0.1,1-0.7,0.4-1
	c-1.7-0.8-3.4-1.3-5.1-1.8l7.7-0.2c0-0.1,0-0.1-0.1-0.2c0.7,0.9,1.4,1.9,2.2,2.7c0.5,0.5,1.4-0.2,1-0.8c-2.6-3.9-5-7.9-6.8-12.3
	c-0.1-0.1-0.2-0.2-0.3-0.3c0-0.1-0.1-0.2-0.1-0.3c1.1,1.6,2.2,3.1,3.5,4.5c0.5,0.6,1.4-0.2,1.1-0.8c-1.7-3-3.7-5.9-5.6-8.8
	c0.5,0.3,1.2-0.3,0.9-0.9c-2.1-3.2-3.9-6.3-5.4-9.7c0.4,0.5,0.8,1,1.3,1.5c0.5,0.5,1.4-0.2,1-0.8c-1.4-2.2-2.7-4.6-3.8-7
	c1.7-0.5,3.3-1,5-1.5c0.4,0.5,0.8,1,1.3,1.4c0.6,0.5,1.6-0.2,1.1-0.9c-1.6-2.3-3.2-4.6-4.4-7.1c1,0.9,2,1.7,3,2.4
	c0.6,0.4,1.3-0.5,0.8-1c-1.9-1.8-3.6-3.7-5.4-5.6c0.3,0.3,0.6,0.6,0.9,0.9c0.5,0.5,1.1-0.2,0.7-0.7c-2.5-3-4.3-6.2-5.7-9.8
	c0.6,0.7,1.3,1.5,2,2.1c0.4,0.4,0.9-0.2,0.6-0.6c-2.1-2.4-4-5.1-5.6-8c-0.1-0.1-0.1-0.2-0.2-0.2c-0.2-0.6-0.5-1.2-0.7-1.8
	c-0.3,0.7-0.6,1.5-0.9,2.2c-1,0.9-1.7,2.4-2.6,3.4c-1.6,1.9-3.5,3.5-5.2,5.3c-0.6,0.6-0.1,1.7,0.6,1.3c0.6-0.4,1.2-0.8,1.8-1.3
	c-1.8,2.2-3.7,4.3-5.7,6.3c-0.5,0.5-0.1,1.5,0.5,1.1c1.3-0.9,2.6-1.9,3.8-3.1c-0.7,1.1-1.4,2.1-2.2,3.1c-2.4,2.1-4.9,4-7.5,5.9
	c-0.5,0.4-0.1,1.5,0.4,1.2c0.9-0.4,1.7-0.9,2.6-1.5c-0.8,0.9-1.7,1.8-2.6,2.7c-1.4,0.8-1.2,1.3-2.6,2.2c-0.5,0.3-0.1,1.2,0.4,1.1
	c0.1,0,0.1-0.1,0.2-0.1l6.8,0.5c-2,2.3-4,4.6-5.9,6.9c-0.3,0.3-0.1,0.9,0.2,1c-0.1,0.1-0.1,0.1-0.2,0.2c-0.5,0.6,0.3,1.4,0.9,0.9
	c0.5-0.4,1.1-0.9,1.7-1.4c-0.9,1.4-1.9,2.8-2.8,4.1c-0.5,0.7,0.3,1.7,0.9,1.1c0.3-0.4,0.6-0.7,0.9-1.1c-0.3,0.6-0.7,1.3-1,1.9
	c-2,2.4-4.2,4.6-6.6,6.4c-0.5,0.4-0.1,1.3,0.5,1c1.1-0.7,2.2-1.5,3.2-2.4c-0.8,1.3-1.6,2.7-2.5,3.9c-1.7,2.4-3.6,4.6-5.4,6.9
	c-0.5,0.6,0.2,1.8,0.8,1.3c0.3-0.2,0.5-0.4,0.7-0.7c2.7,0.4,5.3,0.7,8,1.1c-0.5,0.3-0.9,0.7-1.4,1.1c-0.6,0.6,0.2,1.4,0.9,1.1
	c0.6-0.3,1.3-0.5,2-0.8c-1.2,2-2.7,3.7-4.5,5c-0.4,0.3-0.1,1.1,0.3,0.9c0.8-0.4,1.5-1,2.2-1.5c-0.3,0.6-0.7,1.2-1,1.8
	c-1.6,2.1-3.3,3.9-5.3,5.5c-0.6,0.5-0.1,1.6,0.6,1.2c0.4-0.3,0.8-0.6,1.2-0.9c-0.3,0.5-0.6,0.9-0.9,1.4c-2.1,2-4.4,3.8-6.9,5.2
	c-0.6,0.3-0.1,1.4,0.4,1.2c0.4-0.1,0.7-0.3,1.1-0.4c-1.6,1.6-3.1,3.2-4.6,4.9c-0.5,0.6,0.2,1.6,0.7,1.1c0.8-0.6,1.5-1.3,2.2-2
	c-0.8,1.1-1.6,2.1-2.5,3.2c18.8-1.7,37.7,0.5,56.4,2.6c-0.2-0.5-0.3-1-0.5-1.5c0.4,0.3,0.8,0.6,1.2,0.8
	C129.8,106.8,130.4,105.9,130,105.3z"/>
<path class="st0" d="M186.3,114c-1-1.1-2-2.1-3.1-3.1c-0.1-0.3-0.2-0.7-0.4-1c0.8,0.7,1.6,1.4,2.4,2.1c0.5,0.4,1.3-0.2,0.8-0.8
	c-1.5-1.6-3.1-3.3-4.6-4.9c-0.4-1-0.9-1.9-1.3-2.9c0.4,0.6,0.8,1.2,1.2,1.9c0.4,0.7,1.3,0.1,1-0.6c-1.5-3.2-3.2-6.1-5.4-8.8
	c1,0.8,2,1.6,3,2.3c0.5,0.3,0.9-0.4,0.6-0.7c-3-3-6-6-9.1-8.8c-0.1-0.1-0.2-0.1-0.3-0.1c-0.2-0.3-0.4-0.5-0.6-0.8
	c1.7,1.7,3.5,3.3,5.4,4.8c0.6,0.4,1.2-0.2,0.8-0.8c-1-1.2-2.1-2.4-3.3-3.5c1.3,0.5,2.7,0.9,4.1,1.2c0.6,0.1,1-0.7,0.4-1
	c-1.7-0.8-3.4-1.3-5.1-1.8l7.7-0.2c0-0.1,0-0.1-0.1-0.2c0.7,0.9,1.4,1.9,2.2,2.7c0.5,0.5,1.4-0.2,1-0.8c-2.6-3.9-5-7.9-6.8-12.3
	c-0.1-0.1-0.2-0.2-0.3-0.3c0-0.1-0.1-0.2-0.1-0.3c1.1,1.6,2.2,3.1,3.5,4.5c0.5,0.6,1.4-0.2,1.1-0.8c-1.7-3-3.7-5.9-5.6-8.8
	c0.5,0.3,1.2-0.3,0.9-0.9c-2.1-3.2-3.9-6.3-5.4-9.7c0.4,0.5,0.8,1,1.3,1.5c0.5,0.5,1.4-0.2,1-0.8c-1.4-2.2-2.7-4.6-3.8-7
	c1.7-0.5,3.3-1,5-1.5c0.4,0.5,0.8,1,1.3,1.4c0.6,0.5,1.6-0.2,1.1-0.9c-1.6-2.3-3.2-4.6-4.4-7.1c1,0.9,2,1.7,3,2.4
	c0.6,0.4,1.3-0.5,0.8-1c-1.9-1.8-3.6-3.7-5.3-5.6c0.3,0.3,0.6,0.6,0.9,0.9c0.5,0.5,1.1-0.2,0.7-0.7c-2.5-3-4.3-6.2-5.7-9.8
	c0.6,0.7,1.3,1.5,2,2.1c0.4,0.4,0.9-0.2,0.6-0.6c-2.1-2.4-4-5.1-5.6-8c-0.1-0.1-0.1-0.2-0.2-0.2c-0.2-0.6-0.5-1.2-0.7-1.8
	c-0.3,0.7-0.6,1.5-0.9,2.2c-1,0.9-1.7,2.4-2.6,3.4c-1.6,1.9-3.5,3.5-5.2,5.3c-0.6,0.6-0.1,1.7,0.6,1.3c0.6-0.4,1.2-0.8,1.8-1.3
	c-1.8,2.2-3.7,4.3-5.7,6.3c-0.5,0.5-0.1,1.5,0.5,1.1c1.3-0.9,2.6-1.9,3.8-3.1c-0.7,1.1-1.4,2.1-2.2,3.1c-2.4,2.1-4.9,4-7.5,5.9
	c-0.5,0.4-0.1,1.5,0.4,1.2c0.9-0.4,1.7-0.9,2.6-1.5c-0.8,0.9-1.7,1.8-2.6,2.7c-1.4,0.8-1.2,1.3-2.6,2.2c-0.5,0.3-0.1,1.2,0.4,1.1
	c0.1,0,0.1-0.1,0.2-0.1l6.8,0.5c-2,2.3-4,4.6-5.9,6.9c-0.3,0.3-0.1,0.9,0.2,1c-0.1,0.1-0.1,0.1-0.2,0.2c-0.5,0.6,0.3,1.4,0.9,0.9
	c0.5-0.4,1.1-0.9,1.7-1.4c-0.9,1.4-1.9,2.8-2.8,4.1c-0.5,0.7,0.3,1.7,0.9,1.1c0.3-0.4,0.6-0.7,0.9-1.1c-0.3,0.6-0.7,1.3-1,1.9
	c-2,2.4-4.2,4.6-6.6,6.4c-0.5,0.4-0.1,1.3,0.5,1c1.1-0.7,2.2-1.5,3.2-2.4c-0.8,1.3-1.6,2.7-2.5,3.9c-1.7,2.4-3.6,4.6-5.4,6.9
	c-0.5,0.6,0.2,1.8,0.8,1.3c0.3-0.2,0.5-0.4,0.7-0.7c2.7,0.4,5.3,0.7,8,1.1c-0.5,0.3-0.9,0.7-1.4,1.1c-0.6,0.6,0.2,1.4,0.9,1.1
	c0.6-0.3,1.3-0.5,2-0.8c-1.2,2-2.7,3.7-4.5,5c-0.4,0.3-0.1,1.1,0.3,0.9c0.8-0.4,1.5-1,2.2-1.5c-0.3,0.6-0.7,1.2-1,1.8
	c-1.6,2.1-3.3,3.9-5.3,5.5c-0.6,0.5-0.1,1.6,0.6,1.2c0.4-0.3,0.8-0.6,1.2-0.9c-0.3,0.5-0.6,0.9-0.9,1.4c-2.1,2-4.4,3.8-6.9,5.2
	c-0.6,0.3-0.1,1.4,0.4,1.2c0.4-0.1,0.7-0.3,1.1-0.4c-1.6,1.6-3.1,3.2-4.6,4.9c-0.5,0.6,0.2,1.6,0.7,1.1c0.8-0.6,1.5-1.3,2.2-2
	c-0.8,1.1-1.6,2.1-2.5,3.2c18.8-1.7,37.7,0.5,56.4,2.6c-0.2-0.5-0.3-1-0.5-1.5c0.4,0.3,0.8,0.6,1.2,0.8
	C186.2,115.4,186.7,114.5,186.3,114z"/>
<path class="st0" d="M239.6,93.7c-1-1.1-2-2.1-3.1-3.1c-0.1-0.3-0.2-0.7-0.4-1c0.8,0.7,1.6,1.4,2.4,2.1c0.5,0.4,1.3-0.2,0.8-0.8
	c-1.5-1.6-3.1-3.3-4.6-4.9c-0.4-1-0.9-1.9-1.3-2.9c0.4,0.6,0.8,1.2,1.2,1.9c0.4,0.7,1.3,0.1,1-0.6c-1.5-3.2-3.2-6.1-5.4-8.8
	c1,0.8,2,1.6,3,2.3c0.5,0.3,0.9-0.4,0.6-0.7c-2.9-3-6-6-9.1-8.8c-0.1-0.1-0.2-0.1-0.3-0.1c-0.2-0.3-0.4-0.5-0.6-0.8
	c1.7,1.7,3.5,3.3,5.4,4.8c0.6,0.4,1.2-0.2,0.8-0.8c-1-1.2-2.1-2.4-3.3-3.5c1.3,0.5,2.7,0.9,4.1,1.2c0.6,0.1,1-0.7,0.4-1
	c-1.7-0.8-3.4-1.3-5.1-1.8l7.7-0.2c0-0.1,0-0.1-0.1-0.2c0.7,0.9,1.4,1.9,2.2,2.7c0.5,0.5,1.4-0.2,1-0.8c-2.6-3.9-5-7.9-6.8-12.3
	c-0.1-0.1-0.2-0.2-0.3-0.3c0-0.1-0.1-0.2-0.1-0.3c1.1,1.6,2.2,3.1,3.5,4.5c0.5,0.6,1.4-0.2,1.1-0.8c-1.7-3-3.7-5.9-5.6-8.8
	c0.5,0.3,1.2-0.3,0.9-0.9c-2.1-3.2-3.9-6.3-5.4-9.7c0.4,0.5,0.8,1,1.3,1.5c0.5,0.5,1.4-0.2,1-0.8c-1.4-2.2-2.7-4.6-3.8-7
	c1.7-0.5,3.3-1,5-1.5c0.4,0.5,0.8,1,1.3,1.4c0.6,0.5,1.6-0.2,1.1-0.9c-1.6-2.3-3.2-4.6-4.4-7.1c1,0.9,2,1.7,3,2.4
	c0.6,0.4,1.3-0.5,0.8-1c-1.9-1.8-3.6-3.7-5.4-5.6c0.3,0.3,0.6,0.6,0.9,0.9c0.5,0.5,1.1-0.2,0.7-0.7c-2.5-3-4.3-6.2-5.7-9.8
	c0.6,0.7,1.3,1.5,2,2.1c0.4,0.4,0.9-0.2,0.6-0.6c-2.1-2.4-4-5.1-5.6-8C217,5.1,216.9,5,216.8,5c-0.2-0.6-0.5-1.2-0.7-1.8
	c-0.3,0.7-0.6,1.5-0.9,2.2c-1,0.9-1.7,2.4-2.6,3.4c-1.6,1.9-3.5,3.5-5.2,5.3c-0.6,0.6-0.1,1.7,0.6,1.3c0.6-0.4,1.2-0.8,1.8-1.3
	c-1.8,2.2-3.7,4.3-5.7,6.3c-0.5,0.5-0.1,1.5,0.5,1.1c1.3-0.9,2.6-1.9,3.8-3.1c-0.7,1.1-1.4,2.1-2.2,3.1c-2.4,2.1-4.9,4-7.5,5.9
	c-0.5,0.4-0.1,1.5,0.4,1.2c0.9-0.4,1.7-0.9,2.6-1.5c-0.8,0.9-1.7,1.8-2.6,2.7c-1.4,0.8-1.2,1.3-2.6,2.2c-0.5,0.3-0.1,1.2,0.4,1.1
	c0.1,0,0.1-0.1,0.2-0.1l6.8,0.5c-2,2.3-4,4.6-5.9,6.9c-0.3,0.3-0.1,0.9,0.2,1c-0.1,0.1-0.1,0.1-0.2,0.2c-0.5,0.6,0.3,1.4,0.9,0.9
	c0.5-0.4,1.1-0.9,1.7-1.4c-0.9,1.4-1.9,2.8-2.8,4.1c-0.5,0.7,0.3,1.7,0.9,1.1c0.3-0.4,0.6-0.7,0.9-1.1c-0.3,0.6-0.7,1.3-1,1.9
	c-2,2.4-4.2,4.6-6.6,6.4c-0.5,0.4-0.1,1.3,0.5,1c1.1-0.7,2.2-1.5,3.2-2.4c-0.8,1.3-1.6,2.7-2.5,3.9c-1.7,2.4-3.6,4.6-5.4,6.9
	c-0.5,0.6,0.2,1.8,0.8,1.3c0.3-0.2,0.5-0.4,0.7-0.7c2.7,0.4,5.3,0.7,8,1.1c-0.5,0.3-0.9,0.7-1.4,1.1c-0.6,0.6,0.2,1.4,0.9,1.1
	c0.6-0.3,1.3-0.5,2-0.8c-1.2,2-2.7,3.7-4.5,5c-0.4,0.3-0.1,1.1,0.3,0.9c0.8-0.4,1.5-1,2.2-1.5c-0.3,0.6-0.7,1.2-1,1.8
	c-1.6,2.1-3.3,3.9-5.3,5.5c-0.6,0.5-0.1,1.6,0.6,1.2c0.4-0.3,0.8-0.6,1.2-0.9c-0.3,0.5-0.6,0.9-0.9,1.4c-2.1,2-4.4,3.8-6.9,5.2
	c-0.6,0.3-0.1,1.4,0.4,1.2c0.4-0.1,0.7-0.3,1.1-0.4c-1.6,1.6-3.1,3.2-4.6,4.9c-0.5,0.6,0.2,1.6,0.7,1.1c0.8-0.6,1.5-1.3,2.2-2
	c-0.8,1.1-1.6,2.1-2.5,3.2c18.8-1.7,37.7,0.5,56.4,2.6c-0.2-0.5-0.3-1-0.5-1.5c0.4,0.3,0.8,0.6,1.2,0.8
	C239.5,95.1,240.1,94.2,239.6,93.7z"/>
<path class="st0" d="M299,101.3c-1-1.1-2-2.1-3.1-3.1c-0.1-0.3-0.2-0.7-0.4-1c0.8,0.7,1.6,1.4,2.4,2.1c0.5,0.4,1.3-0.2,0.8-0.8
	c-1.5-1.6-3.1-3.3-4.6-4.9c-0.4-1-0.9-1.9-1.3-2.9c0.4,0.6,0.8,1.2,1.2,1.9c0.4,0.7,1.3,0.1,1-0.6c-1.5-3.2-3.2-6.1-5.4-8.8
	c1,0.8,2,1.6,3,2.3c0.5,0.3,0.9-0.4,0.6-0.7c-3-3-6-6-9.1-8.8c-0.1-0.1-0.2-0.1-0.3-0.1c-0.2-0.3-0.4-0.5-0.6-0.8
	c1.7,1.7,3.5,3.3,5.4,4.8c0.6,0.4,1.2-0.2,0.8-0.8c-1-1.2-2.1-2.4-3.3-3.5c1.3,0.5,2.7,0.9,4.1,1.2c0.6,0.1,1-0.7,0.4-1
	c-1.7-0.8-3.4-1.3-5.1-1.8l7.7-0.2c0-0.1,0-0.1-0.1-0.2c0.7,0.9,1.4,1.9,2.2,2.7c0.5,0.5,1.4-0.2,1-0.8c-2.6-3.9-5-7.9-6.8-12.3
	c-0.1-0.1-0.2-0.2-0.3-0.3c0-0.1-0.1-0.2-0.1-0.3c1.1,1.6,2.2,3.1,3.5,4.5c0.5,0.6,1.4-0.2,1.1-0.8c-1.7-3-3.7-5.9-5.6-8.8
	c0.5,0.3,1.2-0.3,0.9-0.9c-2.1-3.2-3.9-6.3-5.4-9.7c0.4,0.5,0.8,1,1.3,1.5c0.5,0.5,1.4-0.2,1-0.8c-1.4-2.2-2.7-4.6-3.8-7
	c1.7-0.5,3.3-1,5-1.5c0.4,0.5,0.8,1,1.3,1.4c0.6,0.5,1.6-0.2,1.1-0.9c-1.6-2.3-3.2-4.6-4.4-7.1c1,0.9,2,1.7,3,2.4
	c0.6,0.4,1.3-0.5,0.8-1c-1.9-1.8-3.6-3.7-5.4-5.6c0.3,0.3,0.6,0.6,0.9,0.9c0.5,0.5,1.1-0.2,0.7-0.7c-2.5-3-4.3-6.2-5.7-9.8
	c0.6,0.7,1.3,1.5,2,2.1c0.4,0.4,0.9-0.2,0.6-0.6c-2.1-2.4-4-5.1-5.6-8c-0.1-0.1-0.1-0.2-0.2-0.2c-0.2-0.6-0.5-1.2-0.7-1.8
	c-0.3,0.7-0.6,1.5-0.9,2.2c-1,0.9-1.7,2.4-2.6,3.4c-1.6,1.9-3.5,3.5-5.2,5.3c-0.6,0.6-0.1,1.7,0.6,1.3c0.6-0.4,1.2-0.8,1.8-1.3
	c-1.8,2.2-3.7,4.3-5.7,6.3c-0.5,0.5-0.1,1.5,0.5,1.1c1.3-0.9,2.6-1.9,3.8-3.1c-0.7,1.1-1.4,2.1-2.2,3.1c-2.4,2.1-4.9,4-7.5,5.9
	c-0.5,0.4-0.1,1.5,0.4,1.2c0.9-0.4,1.7-0.9,2.6-1.5c-0.8,0.9-1.7,1.8-2.6,2.7c-1.4,0.8-1.2,1.3-2.6,2.2c-0.5,0.3-0.1,1.2,0.4,1.1
	c0.1,0,0.1-0.1,0.2-0.1l6.8,0.5c-2,2.3-4,4.6-5.9,6.9c-0.3,0.3-0.1,0.9,0.2,1c-0.1,0.1-0.1,0.1-0.2,0.2c-0.5,0.6,0.3,1.4,0.9,0.9
	c0.5-0.4,1.1-0.9,1.7-1.4c-0.9,1.4-1.9,2.8-2.8,4.1c-0.5,0.7,0.3,1.7,0.9,1.1c0.3-0.4,0.6-0.7,0.9-1.1c-0.3,0.6-0.7,1.3-1,1.9
	c-2,2.4-4.2,4.6-6.6,6.4c-0.5,0.4-0.1,1.3,0.5,1c1.1-0.7,2.2-1.5,3.2-2.4c-0.8,1.3-1.6,2.7-2.5,3.9c-1.7,2.4-3.6,4.6-5.4,6.9
	c-0.5,0.6,0.2,1.8,0.8,1.3c0.3-0.2,0.5-0.4,0.7-0.7c2.7,0.4,5.3,0.7,8,1.1c-0.5,0.3-0.9,0.7-1.4,1.1c-0.6,0.6,0.2,1.4,0.9,1.1
	c0.6-0.3,1.3-0.5,2-0.8c-1.2,2-2.7,3.7-4.5,5c-0.4,0.3-0.1,1.1,0.3,0.9c0.8-0.4,1.5-1,2.2-1.5c-0.3,0.6-0.7,1.2-1,1.8
	c-1.6,2.1-3.3,3.9-5.3,5.5c-0.6,0.5-0.1,1.6,0.6,1.2c0.4-0.3,0.8-0.6,1.2-0.9c-0.3,0.5-0.6,0.9-0.9,1.4c-2.1,2-4.4,3.8-6.9,5.2
	c-0.6,0.3-0.1,1.4,0.4,1.2c0.4-0.1,0.7-0.3,1.1-0.4c-1.6,1.6-3.1,3.2-4.6,4.9c-0.5,0.6,0.2,1.6,0.7,1.1c0.8-0.6,1.5-1.3,2.2-2
	c-0.8,1.1-1.6,2.1-2.5,3.2c18.8-1.7,37.7,0.5,56.4,2.6c-0.2-0.5-0.3-1-0.5-1.5c0.4,0.3,0.8,0.6,1.2,0.8
	C298.8,102.8,299.4,101.9,299,101.3z"/>
<path class="st0" d="M82.8,107.2c-1-1.1-2-2.1-3.1-3.1c-0.1-0.3-0.2-0.7-0.4-1c0.8,0.7,1.6,1.4,2.4,2.1c0.5,0.4,1.3-0.2,0.8-0.8
	c-1.5-1.6-3.1-3.3-4.6-4.9c-0.4-1-0.9-1.9-1.3-2.9c0.4,0.6,0.8,1.2,1.2,1.9c0.4,0.7,1.3,0.1,1-0.6c-1.5-3.2-3.2-6.1-5.4-8.8
	c1,0.8,2,1.6,3,2.3c0.5,0.3,0.9-0.4,0.6-0.7c-3-3-6-6-9.1-8.8c-0.1-0.1-0.2-0.1-0.3-0.1c-0.2-0.3-0.4-0.5-0.6-0.8
	c1.7,1.7,3.5,3.3,5.4,4.8c0.6,0.4,1.2-0.2,0.8-0.8c-1-1.2-2.1-2.4-3.3-3.5c1.3,0.5,2.7,0.9,4.1,1.2c0.6,0.1,1-0.7,0.4-1
	c-1.7-0.8-3.4-1.3-5.1-1.8l7.7-0.2c0-0.1,0-0.1-0.1-0.2c0.7,0.9,1.4,1.9,2.2,2.7c0.5,0.5,1.4-0.2,1-0.8c-2.6-3.9-5-7.9-6.8-12.3
	c-0.1-0.1-0.2-0.2-0.3-0.3c0-0.1-0.1-0.2-0.1-0.3c1.1,1.6,2.2,3.1,3.5,4.5c0.5,0.6,1.4-0.2,1.1-0.8c-1.7-3-3.7-5.9-5.6-8.8
	c0.5,0.3,1.2-0.3,0.9-0.9c-2.1-3.2-3.9-6.3-5.4-9.7c0.4,0.5,0.8,1,1.3,1.5c0.5,0.5,1.4-0.2,1-0.8c-1.4-2.2-2.7-4.6-3.8-7
	c1.7-0.5,3.3-1,5-1.5c0.4,0.5,0.8,1,1.3,1.4c0.6,0.5,1.6-0.2,1.1-0.9c-1.6-2.3-3.2-4.6-4.4-7.1c1,0.9,2,1.7,3,2.4
	c0.6,0.4,1.3-0.5,0.8-1c-1.9-1.8-3.6-3.7-5.4-5.6c0.3,0.3,0.6,0.6,0.9,0.9c0.5,0.5,1.1-0.2,0.7-0.7c-2.5-3-4.3-6.2-5.7-9.8
	c0.6,0.7,1.3,1.5,2,2.1c0.4,0.4,0.9-0.2,0.6-0.6c-2.1-2.4-4-5.1-5.6-8c-0.1-0.1-0.1-0.2-0.2-0.2c-0.2-0.6-0.5-1.2-0.7-1.8
	c-0.3,0.7-0.6,1.5-0.9,2.2c-1,0.9-1.7,2.4-2.6,3.4c-1.6,1.9-3.5,3.5-5.2,5.3c-0.6,0.6-0.1,1.7,0.6,1.3c0.6-0.4,1.2-0.8,1.8-1.3
	c-1.8,2.2-3.7,4.3-5.7,6.3c-0.5,0.5-0.1,1.5,0.5,1.1c1.3-0.9,2.6-1.9,3.8-3.1c-0.7,1.1-1.4,2.1-2.2,3.1c-2.4,2.1-4.9,4-7.5,5.9
	c-0.5,0.4-0.1,1.5,0.4,1.2c0.9-0.4,1.7-0.9,2.6-1.5c-0.8,0.9-1.7,1.8-2.6,2.7c-1.4,0.8-1.2,1.3-2.6,2.2c-0.5,0.3-0.1,1.2,0.4,1.1
	c0.1,0,0.1-0.1,0.2-0.1l6.8,0.5c-2,2.3-4,4.6-5.9,6.9c-0.3,0.3-0.1,0.9,0.2,1c-0.1,0.1-0.1,0.1-0.2,0.2c-0.5,0.6,0.3,1.4,0.9,0.9
	c0.5-0.4,1.1-0.9,1.7-1.4c-0.9,1.4-1.9,2.8-2.8,4.1c-0.5,0.7,0.3,1.7,0.9,1.1c0.3-0.4,0.6-0.7,0.9-1.1c-0.3,0.6-0.7,1.3-1,1.9
	c-2,2.4-4.2,4.6-6.6,6.4c-0.5,0.4-0.1,1.3,0.5,1c1.1-0.7,2.2-1.5,3.2-2.4c-0.8,1.3-1.6,2.7-2.5,3.9c-1.7,2.4-3.6,4.6-5.4,6.9
	c-0.5,0.6,0.2,1.8,0.8,1.3c0.3-0.2,0.5-0.4,0.7-0.7c2.7,0.4,5.3,0.7,8,1.1c-0.5,0.3-0.9,0.7-1.4,1.1c-0.6,0.6,0.2,1.4,0.9,1.1
	c0.6-0.3,1.3-0.5,2-0.8c-1.2,2-2.7,3.7-4.5,5c-0.4,0.3-0.1,1.1,0.3,0.9c0.8-0.4,1.5-1,2.2-1.5c-0.3,0.6-0.7,1.2-1,1.8
	c-1.6,2.1-3.3,3.9-5.3,5.5c-0.6,0.5-0.1,1.6,0.6,1.2c0.4-0.3,0.8-0.6,1.2-0.9c-0.3,0.5-0.6,0.9-0.9,1.4c-2.1,2-4.4,3.8-6.9,5.2
	c-0.6,0.3-0.1,1.4,0.4,1.2c0.4-0.1,0.7-0.3,1.1-0.4c-1.6,1.6-3.1,3.2-4.6,4.9c-0.5,0.6,0.2,1.6,0.7,1.1c0.8-0.6,1.5-1.3,2.2-2
	c-0.8,1.1-1.6,2.1-2.5,3.2c18.8-1.7,37.7,0.5,56.4,2.6c-0.2-0.5-0.3-1-0.5-1.5c0.4,0.3,0.8,0.6,1.2,0.8
	C82.6,108.7,83.2,107.8,82.8,107.2z"/>
<path class="st0" d="M38.8,117.5c-1-1.1-2-2.1-3.1-3.1c-0.1-0.3-0.2-0.7-0.4-1c0.8,0.7,1.6,1.4,2.4,2.1c0.5,0.4,1.3-0.2,0.8-0.8
	c-1.5-1.6-3.1-3.3-4.6-4.9c-0.4-1-0.9-1.9-1.3-2.9c0.4,0.6,0.8,1.2,1.2,1.9c0.4,0.7,1.3,0.1,1-0.6c-1.5-3.2-3.2-6.1-5.4-8.8
	c1,0.8,2,1.6,3,2.3c0.5,0.3,0.9-0.4,0.6-0.7c-3-3-6-6-9.1-8.8c-0.1-0.1-0.2-0.1-0.3-0.1c-0.2-0.3-0.4-0.5-0.6-0.8
	c1.7,1.7,3.5,3.3,5.4,4.8c0.6,0.4,1.2-0.2,0.8-0.8c-1-1.2-2.1-2.4-3.3-3.5c1.3,0.5,2.7,0.9,4.1,1.2c0.6,0.1,1-0.7,0.4-1
	c-1.7-0.8-3.4-1.3-5.1-1.8l7.7-0.2c0-0.1,0-0.1-0.1-0.2c0.7,0.9,1.4,1.9,2.2,2.7c0.5,0.5,1.4-0.2,1-0.8c-2.6-3.9-5-7.9-6.8-12.3
	c-0.1-0.1-0.2-0.2-0.3-0.3c0-0.1-0.1-0.2-0.1-0.3c1.1,1.6,2.2,3.1,3.5,4.5c0.5,0.6,1.4-0.2,1.1-0.8c-1.7-3-3.7-5.9-5.6-8.8
	c0.5,0.3,1.2-0.3,0.9-0.9c-2.1-3.2-3.9-6.3-5.4-9.7c0.4,0.5,0.8,1,1.3,1.5c0.5,0.5,1.4-0.2,1-0.8c-1.4-2.2-2.7-4.6-3.8-7
	c1.7-0.5,3.3-1,5-1.5c0.4,0.5,0.8,1,1.3,1.4c0.6,0.5,1.6-0.2,1.1-0.9c-1.6-2.3-3.2-4.6-4.4-7.1c1,0.9,2,1.7,3,2.4
	c0.6,0.4,1.3-0.5,0.8-1c-1.9-1.8-3.6-3.7-5.4-5.6c0.3,0.3,0.6,0.6,0.9,0.9c0.5,0.5,1.1-0.2,0.7-0.7c-2.5-3-4.3-6.2-5.7-9.8
	c0.6,0.7,1.3,1.5,2,2.1c0.4,0.4,0.9-0.2,0.6-0.6c-2.1-2.4-4-5.1-5.6-8c-0.1-0.1-0.1-0.2-0.2-0.2c-0.2-0.6-0.5-1.2-0.7-1.8
	c-0.3,0.7-0.6,1.5-0.9,2.2c-1,0.9-1.7,2.4-2.6,3.4c-1.6,1.9-3.5,3.5-5.2,5.3c-0.6,0.6-0.1,1.7,0.6,1.3c0.6-0.4,1.2-0.8,1.8-1.3
	c-1.8,2.2-3.7,4.3-5.7,6.3c-0.5,0.5-0.1,1.5,0.5,1.1c1.3-0.9,2.6-1.9,3.8-3.1c-0.7,1.1-1.4,2.1-2.2,3.1c-2.4,2.1-4.9,4-7.5,5.9
	c-0.5,0.4-0.1,1.5,0.4,1.2c0.9-0.4,1.7-0.9,2.6-1.5c-0.8,0.9-1.7,1.8-2.6,2.7c-1.4,0.8-1.2,1.3-2.6,2.2c-0.5,0.3-0.1,1.2,0.4,1.1
	c0.1,0,0.1-0.1,0.2-0.1l6.8,0.5c-2,2.3-4,4.6-5.9,6.9c-0.3,0.3-0.1,0.9,0.2,1c-0.1,0.1-0.1,0.1-0.2,0.2C-3.4,66-2.6,66.8-2,66.3
	c0.5-0.4,1.1-0.9,1.7-1.4c-0.9,1.4-1.9,2.8-2.8,4.1c-0.5,0.7,0.3,1.7,0.9,1.1c0.3-0.4,0.6-0.7,0.9-1.1c-0.3,0.6-0.7,1.3-1,1.9
	c-2,2.4-4.2,4.6-6.6,6.4c-0.5,0.4-0.1,1.3,0.5,1c1.1-0.7,2.2-1.5,3.2-2.4c-0.8,1.3-1.6,2.7-2.5,3.9c-1.7,2.4-3.6,4.6-5.4,6.9
	c-0.5,0.6,0.2,1.8,0.8,1.3c0.3-0.2,0.5-0.4,0.7-0.7c2.7,0.4,5.3,0.7,8,1.1c-0.5,0.3-0.9,0.7-1.4,1.1c-0.6,0.6,0.2,1.4,0.9,1.1
	c0.6-0.3,1.3-0.5,2-0.8c-1.2,2-2.7,3.7-4.5,5c-0.4,0.3-0.1,1.1,0.3,0.9c0.8-0.4,1.5-1,2.2-1.5c-0.3,0.6-0.7,1.2-1,1.8
	c-1.6,2.1-3.3,3.9-5.3,5.5c-0.6,0.5-0.1,1.6,0.6,1.2c0.4-0.3,0.8-0.6,1.2-0.9c-0.3,0.5-0.6,0.9-0.9,1.4c-2.1,2-4.4,3.8-6.9,5.2
	c-0.6,0.3-0.1,1.4,0.4,1.2c0.4-0.1,0.7-0.3,1.1-0.4c-1.6,1.6-3.1,3.2-4.6,4.9c-0.5,0.6,0.2,1.6,0.7,1.1c0.8-0.6,1.5-1.3,2.2-2
	c-0.8,1.1-1.6,2.1-2.5,3.2c18.8-1.7,37.7,0.5,56.4,2.6c-0.2-0.5-0.3-1-0.5-1.5c0.4,0.3,0.8,0.6,1.2,0.8
	C38.7,118.9,39.3,118,38.8,117.5z"/>
<path class="st0" d="M100.9,104.2c-0.8-0.9-1.7-1.8-2.6-2.6c-0.1-0.3-0.2-0.5-0.3-0.8c0.6,0.6,1.3,1.2,2,1.8
	c0.4,0.4,1.1-0.2,0.6-0.6c-1.3-1.4-2.5-2.7-3.8-4c-0.4-0.8-0.7-1.6-1.1-2.4c0.3,0.5,0.6,1,1,1.5c0.3,0.5,1.1,0.1,0.8-0.5
	c-1.2-2.6-2.7-5.1-4.5-7.3c0.8,0.7,1.6,1.3,2.5,1.9c0.4,0.3,0.8-0.3,0.5-0.6c-2.4-2.5-5-5-7.5-7.3c-0.1-0.1-0.1-0.1-0.2-0.1
	c-0.2-0.2-0.3-0.4-0.5-0.7c1.5,1.4,2.9,2.8,4.5,4c0.5,0.4,1-0.2,0.6-0.6c-0.8-1-1.8-2-2.8-2.9c1.1,0.4,2.2,0.7,3.4,1
	c0.5,0.1,0.8-0.6,0.3-0.8c-1.4-0.6-2.8-1.1-4.2-1.5l6.4-0.2c0,0,0-0.1,0-0.1c0.6,0.8,1.2,1.5,1.9,2.3c0.4,0.4,1.2-0.1,0.8-0.7
	c-2.2-3.2-4.2-6.6-5.7-10.2c0-0.1-0.1-0.2-0.2-0.2c0-0.1-0.1-0.2-0.1-0.3c0.9,1.3,1.8,2.6,2.9,3.8c0.4,0.5,1.2-0.1,0.9-0.7
	c-1.4-2.5-3-4.9-4.6-7.3c0.4,0.2,1-0.3,0.7-0.7c-1.7-2.6-3.2-5.3-4.5-8.1c0.3,0.4,0.7,0.8,1,1.3c0.4,0.4,1.2-0.1,0.8-0.6
	c-1.2-1.9-2.3-3.8-3.2-5.8c1.4-0.4,2.8-0.8,4.2-1.2c0.3,0.4,0.7,0.8,1.1,1.2c0.5,0.4,1.3-0.2,0.9-0.7c-1.4-1.9-2.6-3.8-3.6-5.9
	c0.8,0.7,1.6,1.4,2.5,2c0.5,0.3,1.1-0.4,0.6-0.8c-1.5-1.5-3-3.1-4.4-4.7c0.3,0.3,0.5,0.5,0.8,0.8c0.4,0.4,0.9-0.2,0.6-0.6
	c-2.1-2.5-3.6-5.2-4.7-8.1c0.5,0.6,1.1,1.2,1.7,1.8c0.3,0.3,0.8-0.2,0.5-0.5c-1.8-2-3.4-4.3-4.7-6.6c0-0.1-0.1-0.1-0.2-0.2
	c-0.2-0.5-0.4-1-0.6-1.5c-0.2,0.6-0.5,1.2-0.7,1.8c-0.8,0.8-1.5,2-2.1,2.8c-1.3,1.6-2.9,2.9-4.3,4.4c-0.5,0.5-0.1,1.4,0.5,1.1
	c0.5-0.3,1-0.7,1.5-1.1c-1.5,1.8-3.1,3.6-4.8,5.2c-0.4,0.4-0.1,1.2,0.4,0.9c1.1-0.7,2.1-1.6,3.1-2.6c-0.6,0.9-1.2,1.8-1.8,2.6
	c-2,1.8-4.1,3.3-6.3,4.9c-0.4,0.3-0.1,1.2,0.3,1c0.7-0.4,1.4-0.8,2.2-1.2c-0.7,0.8-1.4,1.5-2.1,2.3c-1.2,0.7-1,1.1-2.2,1.8
	c-0.4,0.2-0.1,1,0.3,0.9c0.1,0,0.1,0,0.2-0.1l5.6,0.4c-1.6,1.9-3.3,3.8-4.9,5.7c-0.2,0.3-0.1,0.7,0.2,0.9c0,0.1-0.1,0.1-0.1,0.2
	c-0.4,0.5,0.2,1.1,0.7,0.7c0.4-0.4,0.9-0.7,1.4-1.1c-0.8,1.2-1.5,2.3-2.4,3.4c-0.4,0.6,0.2,1.4,0.7,0.9c0.3-0.3,0.5-0.6,0.8-0.9
	c-0.3,0.5-0.6,1-0.9,1.6c-1.7,2-3.5,3.8-5.5,5.3c-0.4,0.3,0,1.1,0.4,0.8c0.9-0.6,1.8-1.3,2.6-2c-0.7,1.1-1.3,2.2-2,3.2
	c-1.4,2-3,3.9-4.5,5.7c-0.4,0.5,0.1,1.5,0.7,1.1c0.2-0.2,0.4-0.4,0.6-0.6c2.2,0.3,4.4,0.6,6.6,0.9c-0.4,0.3-0.8,0.6-1.2,0.9
	c-0.5,0.5,0.1,1.2,0.7,0.9c0.5-0.2,1.1-0.5,1.6-0.7c-1,1.7-2.3,3.1-3.7,4.1c-0.3,0.2-0.1,0.9,0.3,0.7c0.7-0.4,1.3-0.8,1.9-1.3
	c-0.3,0.5-0.6,1-0.8,1.5c-1.3,1.7-2.8,3.3-4.4,4.6c-0.5,0.4-0.1,1.4,0.5,1c0.3-0.2,0.7-0.5,1-0.7c-0.2,0.4-0.5,0.8-0.7,1.2
	c-1.8,1.7-3.7,3.1-5.7,4.3c-0.5,0.3-0.1,1.2,0.3,1c0.3-0.1,0.6-0.2,0.9-0.4c-1.3,1.3-2.6,2.7-3.8,4.1c-0.4,0.5,0.1,1.3,0.6,1
	c0.6-0.5,1.2-1.1,1.9-1.6c-0.7,0.9-1.4,1.8-2.1,2.6c15.6-1.4,31.3,0.4,46.8,2.2c-0.1-0.4-0.3-0.8-0.4-1.2c0.3,0.2,0.6,0.5,1,0.7
	C100.8,105.4,101.3,104.7,100.9,104.2z"/>
<path class="st0" d="M54.5,109.9c-0.8-0.9-1.7-1.8-2.6-2.6c-0.1-0.3-0.2-0.5-0.3-0.8c0.6,0.6,1.3,1.2,2,1.8c0.4,0.4,1.1-0.2,0.6-0.6
	c-1.3-1.4-2.5-2.7-3.8-4c-0.4-0.8-0.7-1.6-1.1-2.4c0.3,0.5,0.6,1,1,1.5c0.3,0.5,1.1,0.1,0.8-0.5c-1.2-2.6-2.7-5.1-4.5-7.3
	c0.8,0.7,1.6,1.3,2.5,1.9c0.4,0.3,0.8-0.3,0.5-0.6c-2.4-2.5-5-5-7.5-7.3c-0.1-0.1-0.1-0.1-0.2-0.1c-0.2-0.2-0.3-0.4-0.5-0.7
	c1.5,1.4,2.9,2.8,4.5,4c0.5,0.4,1-0.2,0.6-0.6c-0.8-1-1.8-2-2.8-2.9c1.1,0.4,2.2,0.7,3.4,1c0.5,0.1,0.8-0.6,0.3-0.8
	c-1.4-0.6-2.8-1.1-4.2-1.5l6.4-0.2c0,0,0-0.1,0-0.1c0.6,0.8,1.2,1.5,1.9,2.3c0.4,0.4,1.2-0.1,0.8-0.7c-2.2-3.2-4.2-6.6-5.7-10.2
	c0-0.1-0.1-0.2-0.2-0.2c0-0.1-0.1-0.2-0.1-0.3c0.9,1.3,1.8,2.6,2.9,3.8c0.4,0.5,1.2-0.1,0.9-0.7c-1.4-2.5-3-4.9-4.6-7.3
	c0.4,0.2,1-0.3,0.7-0.7c-1.7-2.6-3.2-5.3-4.5-8.1c0.3,0.4,0.7,0.8,1,1.3c0.4,0.4,1.2-0.1,0.8-0.6c-1.2-1.9-2.3-3.8-3.2-5.8
	c1.4-0.4,2.8-0.8,4.2-1.2c0.3,0.4,0.7,0.8,1.1,1.2c0.5,0.4,1.3-0.2,0.9-0.7c-1.4-1.9-2.6-3.8-3.6-5.9c0.8,0.7,1.6,1.4,2.5,2
	c0.5,0.3,1.1-0.4,0.6-0.8c-1.5-1.5-3-3.1-4.4-4.7c0.3,0.3,0.5,0.5,0.8,0.8c0.4,0.4,0.9-0.2,0.6-0.6c-2.1-2.5-3.6-5.2-4.7-8.1
	c0.5,0.6,1.1,1.2,1.7,1.8c0.3,0.3,0.8-0.2,0.5-0.5c-1.8-2-3.4-4.3-4.7-6.6c-0.1-0.1-0.1-0.1-0.2-0.2c-0.2-0.5-0.4-1-0.6-1.5
	c-0.2,0.6-0.5,1.2-0.7,1.8c-0.8,0.8-1.5,2-2.1,2.8c-1.3,1.6-2.9,2.9-4.3,4.4c-0.5,0.5-0.1,1.4,0.5,1.1c0.5-0.3,1-0.7,1.5-1.1
	c-1.5,1.8-3.1,3.6-4.8,5.2c-0.4,0.4-0.1,1.2,0.4,0.9c1.1-0.7,2.1-1.6,3.1-2.6c-0.6,0.9-1.2,1.8-1.8,2.6c-2,1.8-4.1,3.3-6.3,4.9
	c-0.4,0.3-0.1,1.2,0.3,1c0.7-0.4,1.4-0.8,2.2-1.2c-0.7,0.8-1.4,1.5-2.1,2.3c-1.2,0.7-1,1.1-2.2,1.8c-0.4,0.2-0.1,1,0.3,0.9
	c0.1,0,0.1,0,0.2-0.1l5.6,0.4c-1.6,1.9-3.3,3.8-4.9,5.7c-0.2,0.3-0.1,0.7,0.2,0.9c0,0.1-0.1,0.1-0.1,0.2c-0.4,0.5,0.2,1.1,0.7,0.7
	c0.4-0.4,0.9-0.7,1.4-1.1c-0.8,1.2-1.5,2.3-2.4,3.4c-0.4,0.6,0.2,1.4,0.7,0.9c0.3-0.3,0.5-0.6,0.8-0.9c-0.3,0.5-0.6,1-0.9,1.6
	c-1.7,2-3.5,3.8-5.5,5.3c-0.4,0.3,0,1.1,0.4,0.8c0.9-0.6,1.8-1.3,2.6-2c-0.7,1.1-1.3,2.2-2,3.2c-1.4,2-3,3.9-4.5,5.7
	c-0.4,0.5,0.1,1.5,0.7,1.1c0.2-0.2,0.4-0.4,0.6-0.6c2.2,0.3,4.4,0.6,6.6,0.9c-0.4,0.3-0.8,0.6-1.2,0.9c-0.5,0.5,0.1,1.2,0.7,0.9
	c0.5-0.2,1.1-0.5,1.6-0.7c-1,1.7-2.3,3.1-3.7,4.1c-0.3,0.2-0.1,0.9,0.3,0.7c0.7-0.4,1.3-0.8,1.9-1.3c-0.3,0.5-0.6,1-0.8,1.5
	c-1.3,1.7-2.8,3.3-4.4,4.6c-0.5,0.4-0.1,1.4,0.5,1c0.3-0.2,0.7-0.5,1-0.7c-0.2,0.4-0.5,0.8-0.7,1.2c-1.8,1.7-3.7,3.1-5.7,4.3
	c-0.5,0.3-0.1,1.2,0.3,1c0.3-0.1,0.6-0.2,0.9-0.4c-1.3,1.3-2.6,2.7-3.8,4.1c-0.4,0.5,0.1,1.3,0.6,1c0.6-0.5,1.2-1.1,1.9-1.6
	c-0.7,0.9-1.4,1.8-2.1,2.6c15.6-1.4,31.3,0.4,46.8,2.2c-0.1-0.4-0.3-0.8-0.4-1.2c0.3,0.2,0.6,0.5,1,0.7
	C54.4,111.1,54.9,110.4,54.5,109.9z"/>
<path class="st0" d="M162.2,98c-1-1.1-2-2.1-3.1-3.1c-0.1-0.3-0.2-0.7-0.4-1c0.8,0.7,1.6,1.4,2.4,2.1c0.5,0.4,1.3-0.2,0.8-0.8
	c-1.5-1.6-3.1-3.3-4.6-4.9c-0.4-1-0.9-1.9-1.3-2.9c0.4,0.6,0.8,1.2,1.2,1.9c0.4,0.7,1.3,0.1,1-0.6c-1.5-3.2-3.2-6.1-5.4-8.8
	c1,0.8,2,1.6,3,2.3c0.5,0.3,0.9-0.4,0.6-0.7c-3-3-6-6-9.1-8.8c-0.1-0.1-0.2-0.1-0.3-0.1c-0.2-0.3-0.4-0.5-0.6-0.8
	c1.7,1.7,3.5,3.3,5.4,4.8c0.6,0.4,1.2-0.2,0.8-0.8c-1-1.2-2.1-2.4-3.3-3.5c1.3,0.5,2.7,0.9,4.1,1.2c0.6,0.1,1-0.7,0.4-1
	c-1.7-0.8-3.4-1.3-5.1-1.8l7.7-0.2c0-0.1,0-0.1-0.1-0.2c0.7,0.9,1.4,1.9,2.2,2.7c0.5,0.5,1.4-0.2,1-0.8c-2.6-3.9-5-7.9-6.8-12.3
	c-0.1-0.1-0.2-0.2-0.3-0.3c0-0.1-0.1-0.2-0.1-0.3c1.1,1.6,2.2,3.1,3.5,4.5c0.5,0.6,1.4-0.2,1.1-0.8c-1.7-3-3.7-5.9-5.6-8.8
	c0.5,0.3,1.2-0.3,0.9-0.9c-2.1-3.2-3.9-6.3-5.4-9.7c0.4,0.5,0.8,1,1.3,1.5c0.5,0.5,1.4-0.2,1-0.8c-1.4-2.2-2.7-4.6-3.8-7
	c1.7-0.5,3.3-1,5-1.5c0.4,0.5,0.8,1,1.3,1.4c0.6,0.5,1.6-0.2,1.1-0.9c-1.6-2.3-3.2-4.6-4.4-7.1c1,0.9,2,1.7,3,2.4
	c0.6,0.4,1.3-0.5,0.8-1c-1.9-1.8-3.6-3.7-5.4-5.6c0.3,0.3,0.6,0.6,0.9,0.9c0.5,0.5,1.1-0.2,0.7-0.7c-2.5-3-4.3-6.2-5.7-9.8
	c0.6,0.7,1.3,1.5,2,2.1c0.4,0.4,0.9-0.2,0.6-0.6c-2.1-2.4-4-5.1-5.6-8c-0.1-0.1-0.1-0.2-0.2-0.2c-0.2-0.6-0.5-1.2-0.7-1.8
	c-0.3,0.7-0.6,1.5-0.9,2.2c-1,0.9-1.7,2.4-2.6,3.4c-1.6,1.9-3.5,3.5-5.2,5.3c-0.6,0.6-0.1,1.7,0.6,1.3c0.6-0.4,1.2-0.8,1.8-1.3
	c-1.8,2.2-3.7,4.3-5.7,6.3c-0.5,0.5-0.1,1.5,0.5,1.1c1.3-0.9,2.6-1.9,3.8-3.1c-0.7,1.1-1.4,2.1-2.2,3.1c-2.4,2.1-4.9,4-7.5,5.9
	c-0.5,0.4-0.1,1.5,0.4,1.2c0.9-0.4,1.7-0.9,2.6-1.5c-0.8,0.9-1.7,1.8-2.6,2.7c-1.4,0.8-1.2,1.3-2.6,2.2c-0.5,0.3-0.1,1.2,0.4,1.1
	c0.1,0,0.1-0.1,0.2-0.1l6.8,0.5c-2,2.3-4,4.6-5.9,6.9c-0.3,0.3-0.1,0.9,0.2,1c-0.1,0.1-0.1,0.1-0.2,0.2c-0.5,0.6,0.3,1.4,0.9,0.9
	c0.5-0.4,1.1-0.9,1.7-1.4c-0.9,1.4-1.9,2.8-2.8,4.1c-0.5,0.7,0.3,1.7,0.9,1.1c0.3-0.4,0.6-0.7,0.9-1.1c-0.3,0.6-0.7,1.3-1,1.9
	c-2,2.4-4.2,4.6-6.6,6.4c-0.5,0.4-0.1,1.3,0.5,1c1.1-0.7,2.2-1.5,3.2-2.4c-0.8,1.3-1.6,2.7-2.5,3.9c-1.7,2.4-3.6,4.6-5.4,6.9
	c-0.5,0.6,0.2,1.8,0.8,1.3c0.3-0.2,0.5-0.4,0.7-0.7c2.7,0.4,5.3,0.7,8,1.1c-0.5,0.3-0.9,0.7-1.4,1.1c-0.6,0.6,0.2,1.4,0.9,1.1
	c0.6-0.3,1.3-0.5,2-0.8c-1.2,2-2.7,3.7-4.5,5c-0.4,0.3-0.1,1.1,0.3,0.9c0.8-0.4,1.5-1,2.2-1.5c-0.3,0.6-0.7,1.2-1,1.8
	c-1.6,2.1-3.3,3.9-5.3,5.5c-0.6,0.5-0.1,1.6,0.6,1.2c0.4-0.3,0.8-0.6,1.2-0.9c-0.3,0.5-0.6,0.9-0.9,1.4c-2.1,2-4.4,3.8-6.9,5.2
	c-0.6,0.3-0.1,1.4,0.4,1.2c0.4-0.1,0.7-0.3,1.1-0.4c-1.6,1.6-3.1,3.2-4.6,4.9c-0.5,0.6,0.2,1.6,0.7,1.1c0.8-0.6,1.5-1.3,2.2-2
	c-0.8,1.1-1.6,2.1-2.5,3.2c18.8-1.7,37.7,0.5,56.4,2.6c-0.2-0.5-0.3-1-0.5-1.5c0.4,0.3,0.8,0.6,1.2,0.8
	C162,99.4,162.6,98.5,162.2,98z"/>
<path class="st0" d="M273.2,94c-1-1.1-2-2.1-3.1-3.1c-0.1-0.3-0.2-0.7-0.4-1c0.8,0.7,1.6,1.4,2.4,2.1c0.5,0.4,1.3-0.2,0.8-0.8
	c-1.5-1.6-3.1-3.3-4.6-4.9c-0.4-1-0.9-1.9-1.3-2.9c0.4,0.6,0.8,1.2,1.2,1.9c0.4,0.7,1.3,0.1,1-0.6c-1.5-3.2-3.2-6.1-5.4-8.8
	c1,0.8,2,1.6,3,2.3c0.5,0.3,0.9-0.4,0.6-0.7c-3-3-6-6-9.1-8.8c-0.1-0.1-0.2-0.1-0.3-0.1c-0.2-0.3-0.4-0.5-0.6-0.8
	c1.7,1.7,3.5,3.3,5.4,4.8c0.6,0.4,1.2-0.2,0.8-0.8c-1-1.2-2.1-2.4-3.3-3.5c1.3,0.5,2.7,0.9,4.1,1.2c0.6,0.1,1-0.7,0.4-1
	c-1.7-0.8-3.4-1.3-5.1-1.8l7.7-0.2c0-0.1,0-0.1-0.1-0.2c0.7,0.9,1.4,1.9,2.2,2.7c0.5,0.5,1.4-0.2,1-0.8c-2.6-3.9-5-7.9-6.8-12.3
	c-0.1-0.1-0.2-0.2-0.3-0.3c0-0.1-0.1-0.2-0.1-0.3c1.1,1.6,2.2,3.1,3.5,4.5c0.5,0.6,1.4-0.2,1.1-0.8c-1.7-3-3.7-5.9-5.6-8.8
	c0.5,0.3,1.2-0.3,0.9-0.9c-2.1-3.2-3.9-6.3-5.4-9.7c0.4,0.5,0.8,1,1.3,1.5c0.5,0.5,1.4-0.2,1-0.8c-1.4-2.2-2.7-4.6-3.8-7
	c1.7-0.5,3.3-1,5-1.5c0.4,0.5,0.8,1,1.3,1.4c0.6,0.5,1.6-0.2,1.1-0.9c-1.6-2.3-3.2-4.6-4.4-7.1c1,0.9,2,1.7,3,2.4
	c0.6,0.4,1.3-0.5,0.8-1c-1.9-1.8-3.6-3.7-5.4-5.6c0.3,0.3,0.6,0.6,0.9,0.9c0.5,0.5,1.1-0.2,0.7-0.7c-2.5-3-4.3-6.2-5.7-9.8
	c0.6,0.7,1.3,1.5,2,2.1c0.4,0.4,0.9-0.2,0.6-0.6c-2.1-2.4-4-5.1-5.6-8c-0.1-0.1-0.1-0.2-0.2-0.2c-0.2-0.6-0.5-1.2-0.7-1.8
	c-0.3,0.7-0.6,1.5-0.9,2.2c-1,0.9-1.7,2.4-2.6,3.4c-1.6,1.9-3.5,3.5-5.2,5.3c-0.6,0.6-0.1,1.7,0.6,1.3c0.6-0.4,1.2-0.8,1.8-1.3
	c-1.8,2.2-3.7,4.3-5.7,6.3c-0.5,0.5-0.1,1.5,0.5,1.1c1.3-0.9,2.6-1.9,3.8-3.1c-0.7,1.1-1.4,2.1-2.2,3.1c-2.4,2.1-4.9,4-7.5,5.9
	c-0.5,0.4-0.1,1.5,0.4,1.2c0.9-0.4,1.7-0.9,2.6-1.5c-0.8,0.9-1.7,1.8-2.6,2.7c-1.4,0.8-1.2,1.3-2.6,2.2c-0.5,0.3-0.1,1.2,0.4,1.1
	c0.1,0,0.1-0.1,0.2-0.1l6.8,0.5c-2,2.3-4,4.6-5.9,6.9c-0.3,0.3-0.1,0.9,0.2,1c-0.1,0.1-0.1,0.1-0.2,0.2c-0.5,0.6,0.3,1.4,0.9,0.9
	c0.5-0.4,1.1-0.9,1.7-1.4c-0.9,1.4-1.9,2.8-2.8,4.1c-0.5,0.7,0.3,1.7,0.9,1.1c0.3-0.4,0.6-0.7,0.9-1.1c-0.3,0.6-0.7,1.3-1,1.9
	c-2,2.4-4.2,4.6-6.6,6.4c-0.5,0.4-0.1,1.3,0.5,1c1.1-0.7,2.2-1.5,3.2-2.4c-0.8,1.3-1.6,2.7-2.5,3.9c-1.7,2.4-3.6,4.6-5.4,6.9
	c-0.5,0.6,0.2,1.8,0.8,1.3c0.3-0.2,0.5-0.4,0.7-0.7c2.7,0.4,5.3,0.7,8,1.1c-0.5,0.3-0.9,0.7-1.4,1.1c-0.6,0.6,0.2,1.4,0.9,1.1
	c0.6-0.3,1.3-0.5,2-0.8c-1.2,2-2.7,3.7-4.5,5c-0.4,0.3-0.1,1.1,0.3,0.9c0.8-0.4,1.5-1,2.2-1.5c-0.3,0.6-0.7,1.2-1,1.8
	c-1.6,2.1-3.3,3.9-5.3,5.5c-0.6,0.5-0.1,1.6,0.6,1.2c0.4-0.3,0.8-0.6,1.2-0.9c-0.3,0.5-0.6,0.9-0.9,1.4c-2.1,2-4.4,3.8-6.9,5.2
	c-0.6,0.3-0.1,1.4,0.4,1.2c0.4-0.1,0.7-0.3,1.1-0.4c-1.6,1.6-3.1,3.2-4.6,4.9c-0.5,0.6,0.2,1.6,0.7,1.1c0.8-0.6,1.5-1.3,2.2-2
	c-0.8,1.1-1.6,2.1-2.5,3.2c18.8-1.7,37.7,0.5,56.4,2.6c-0.2-0.5-0.3-1-0.5-1.5c0.4,0.3,0.8,0.6,1.2,0.8
	C273,95.4,273.6,94.5,273.2,94z"/>
<path class="st0" d="M210.2,99.8c-0.8-1-1.8-1.9-2.8-2.7c-0.1-0.3-0.2-0.6-0.3-0.9c0.7,0.6,1.4,1.3,2.1,1.9c0.5,0.4,1.1-0.2,0.7-0.7
	c-1.3-1.4-2.7-2.9-4-4.3c-0.4-0.9-0.8-1.7-1.2-2.5c0.3,0.5,0.7,1.1,1,1.6c0.3,0.6,1.1,0.1,0.9-0.5c-1.3-2.8-2.8-5.3-4.7-7.7
	c0.8,0.7,1.7,1.4,2.6,2c0.4,0.3,0.8-0.3,0.5-0.7c-2.6-2.6-5.2-5.2-7.9-7.7c-0.1-0.1-0.2-0.1-0.2-0.1c-0.2-0.2-0.3-0.5-0.5-0.7
	c1.5,1.5,3.1,2.9,4.7,4.2c0.5,0.4,1.1-0.2,0.7-0.7c-0.9-1.1-1.9-2.1-2.9-3c1.2,0.4,2.3,0.8,3.5,1.1c0.5,0.1,0.9-0.6,0.4-0.9
	c-1.5-0.7-2.9-1.2-4.5-1.6L205,76c0,0,0-0.1,0-0.1c0.6,0.8,1.2,1.6,2,2.4c0.4,0.5,1.3-0.1,0.9-0.7c-2.3-3.4-4.4-6.9-6-10.7
	c-0.1-0.1-0.1-0.2-0.2-0.3c0-0.1-0.1-0.2-0.1-0.3c0.9,1.4,1.9,2.7,3.1,4c0.5,0.5,1.3-0.1,0.9-0.7c-1.5-2.6-3.2-5.1-4.9-7.7
	c0.4,0.2,1.1-0.3,0.8-0.8c-1.8-2.8-3.4-5.5-4.7-8.5c0.3,0.5,0.7,0.9,1.1,1.3c0.4,0.5,1.2-0.1,0.9-0.7c-1.2-2-2.4-4-3.3-6.1
	c1.5-0.4,2.9-0.9,4.4-1.3c0.4,0.4,0.7,0.8,1.1,1.2c0.5,0.5,1.4-0.2,1-0.7c-1.4-2-2.8-4-3.8-6.2c0.8,0.8,1.7,1.5,2.6,2.1
	c0.5,0.4,1.1-0.4,0.7-0.9c-1.6-1.6-3.2-3.3-4.7-4.9c0.3,0.3,0.5,0.6,0.8,0.8c0.4,0.4,1-0.2,0.6-0.6c-2.2-2.6-3.8-5.4-5-8.6
	c0.5,0.6,1.1,1.3,1.8,1.9c0.3,0.3,0.8-0.2,0.5-0.5c-1.9-2.1-3.5-4.5-4.9-7c-0.1-0.1-0.1-0.1-0.2-0.2c-0.2-0.5-0.4-1-0.6-1.6
	c-0.3,0.6-0.5,1.3-0.8,1.9c-0.8,0.8-1.5,2.1-2.3,3c-1.4,1.7-3,3.1-4.5,4.6c-0.5,0.5-0.1,1.5,0.5,1.1c0.6-0.3,1.1-0.7,1.6-1.1
	c-1.6,1.9-3.2,3.8-5,5.5c-0.4,0.4-0.1,1.3,0.5,1c1.1-0.8,2.2-1.7,3.3-2.7c-0.6,0.9-1.2,1.9-1.9,2.7c-2.1,1.8-4.3,3.5-6.6,5.2
	c-0.4,0.3-0.1,1.3,0.4,1.1c0.8-0.4,1.5-0.8,2.3-1.3c-0.7,0.8-1.5,1.6-2.2,2.4c-1.2,0.7-1.1,1.1-2.3,1.9c-0.4,0.3-0.1,1,0.3,0.9
	c0.1,0,0.1,0,0.2-0.1l5.9,0.4c-1.7,2-3.5,4-5.2,6c-0.3,0.3-0.1,0.8,0.2,0.9c0,0.1-0.1,0.1-0.1,0.2c-0.5,0.5,0.2,1.2,0.8,0.8
	c0.5-0.4,1-0.8,1.5-1.2c-0.8,1.2-1.6,2.4-2.5,3.6c-0.5,0.6,0.2,1.5,0.7,0.9c0.3-0.3,0.5-0.6,0.8-0.9c-0.3,0.6-0.6,1.1-0.9,1.7
	c-1.7,2.1-3.7,4-5.8,5.6c-0.4,0.3,0,1.2,0.4,0.9c1-0.6,1.9-1.4,2.8-2.1c-0.7,1.2-1.4,2.3-2.1,3.4c-1.5,2.1-3.1,4.1-4.7,6.1
	c-0.5,0.6,0.2,1.6,0.7,1.1c0.2-0.2,0.4-0.4,0.6-0.6c2.3,0.3,4.6,0.6,7,1c-0.4,0.3-0.8,0.6-1.2,1c-0.5,0.5,0.1,1.2,0.7,1
	c0.5-0.2,1.1-0.5,1.7-0.7c-1.1,1.8-2.4,3.3-3.9,4.4c-0.3,0.2-0.1,1,0.3,0.8c0.7-0.4,1.4-0.8,2-1.3c-0.3,0.5-0.6,1-0.9,1.6
	c-1.4,1.8-2.9,3.4-4.6,4.8c-0.5,0.4-0.1,1.4,0.5,1.1c0.4-0.2,0.7-0.5,1.1-0.8c-0.3,0.4-0.5,0.8-0.8,1.2c-1.8,1.8-3.8,3.3-6.1,4.5
	c-0.5,0.3-0.1,1.2,0.4,1.1c0.3-0.1,0.6-0.2,1-0.4c-1.4,1.4-2.7,2.8-4,4.3c-0.4,0.5,0.1,1.4,0.6,1c0.7-0.6,1.3-1.1,2-1.7
	c-0.7,0.9-1.4,1.9-2.2,2.8c16.4-1.5,33,0.4,49.4,2.3c-0.1-0.4-0.3-0.9-0.4-1.3c0.3,0.2,0.7,0.5,1,0.7
	C210.1,101.1,210.6,100.3,210.2,99.8z"/>
</svg>
